<svg width="429" height="280" viewBox="0 0 429 280" fill="none" xmlns="http://www.w3.org/2000/svg">
<path d="M428 140C428 216.768 332.413 279 214.5 279C96.5872 279 1 216.768 1 140C1 63.2324 96.5872 1 214.5 1C332.413 1 428 63.2324 428 140Z" fill="#B1D6FF" fill-opacity="0.2" stroke="#3077C6" stroke-width="2" stroke-dasharray="10 10"/>
<path d="M349 181.5C349 190.343 343.973 198.444 335.654 204.374C327.336 210.302 315.795 214 303 214C290.205 214 278.664 210.302 270.346 204.374C262.027 198.444 257 190.343 257 181.5C257 172.657 262.027 164.556 270.346 158.626C278.664 152.698 290.205 149 303 149C315.795 149 327.336 152.698 335.654 158.626C343.973 164.556 349 172.657 349 181.5Z" fill="#B1D6FF" fill-opacity="0.5" stroke="#3077C6" stroke-width="2"/>
<path d="M272.374 172.576V178.544C272.374 179.099 272.489 179.499 272.718 179.744C272.947 179.989 273.305 180.112 273.79 180.112C274.254 180.112 274.691 179.981 275.102 179.72C275.518 179.453 275.841 179.139 276.07 178.776V172.576H277.414V181H276.27L276.158 179.864C275.827 180.291 275.419 180.619 274.934 180.848C274.449 181.072 273.958 181.184 273.462 181.184C272.646 181.184 272.035 180.968 271.63 180.536C271.23 180.099 271.03 179.488 271.03 178.704V172.576H272.374ZM280.624 181V172.576H281.768L281.872 173.744C282.213 173.312 282.64 172.981 283.152 172.752C283.669 172.517 284.17 172.4 284.656 172.4C285.482 172.4 286.082 172.619 286.456 173.056C286.834 173.493 287.024 174.101 287.024 174.88V181H285.68V175.872C285.68 175.296 285.648 174.832 285.584 174.48C285.52 174.123 285.386 173.864 285.184 173.704C284.981 173.539 284.666 173.456 284.24 173.456C283.909 173.456 283.597 173.528 283.304 173.672C283.016 173.816 282.757 173.997 282.528 174.216C282.304 174.429 282.117 174.645 281.968 174.864V181H280.624ZM297.273 172.576L293.481 176.368L297.713 181H295.945L291.801 176.4L295.529 172.576H297.273ZM291.649 169.016V181H290.305V169.184L291.649 169.016ZM299.811 181V172.576H300.955L301.059 173.744C301.4 173.312 301.827 172.981 302.339 172.752C302.856 172.517 303.358 172.4 303.843 172.4C304.67 172.4 305.27 172.619 305.643 173.056C306.022 173.493 306.211 174.101 306.211 174.88V181H304.867V175.872C304.867 175.296 304.835 174.832 304.771 174.48C304.707 174.123 304.574 173.864 304.371 173.704C304.168 173.539 303.854 173.456 303.427 173.456C303.096 173.456 302.784 173.528 302.491 173.672C302.203 173.816 301.944 173.997 301.715 174.216C301.491 174.429 301.304 174.645 301.155 174.864V181H299.811ZM312.613 172.4C313.408 172.4 314.072 172.581 314.605 172.944C315.144 173.301 315.546 173.808 315.813 174.464C316.085 175.12 316.221 175.893 316.221 176.784C316.221 177.643 316.082 178.403 315.805 179.064C315.528 179.725 315.12 180.245 314.581 180.624C314.048 180.997 313.386 181.184 312.597 181.184C311.808 181.184 311.144 181.003 310.605 180.64C310.066 180.277 309.658 179.768 309.381 179.112C309.109 178.451 308.973 177.68 308.973 176.8C308.973 175.931 309.112 175.165 309.389 174.504C309.666 173.843 310.074 173.328 310.613 172.96C311.157 172.587 311.824 172.4 312.613 172.4ZM312.613 173.496C311.888 173.496 311.338 173.765 310.965 174.304C310.597 174.837 310.413 175.669 310.413 176.8C310.413 177.909 310.594 178.733 310.957 179.272C311.325 179.811 311.872 180.08 312.597 180.08C313.322 180.08 313.866 179.811 314.229 179.272C314.597 178.733 314.781 177.904 314.781 176.784C314.781 175.664 314.6 174.837 314.237 174.304C313.874 173.765 313.333 173.496 312.613 173.496ZM325.239 181H323.335L322.247 174.816L321.063 181H319.207L317.671 172.576H319.047L320.119 180.168L321.463 173.648H323.055L324.327 180.168L325.399 172.576H326.711L325.239 181ZM328.592 181V172.576H329.736L329.84 173.744C330.182 173.312 330.608 172.981 331.12 172.752C331.638 172.517 332.139 172.4 332.624 172.4C333.451 172.4 334.051 172.619 334.424 173.056C334.803 173.493 334.992 174.101 334.992 174.88V181H333.648V175.872C333.648 175.296 333.616 174.832 333.552 174.48C333.488 174.123 333.355 173.864 333.152 173.704C332.95 173.539 332.635 173.456 332.208 173.456C331.878 173.456 331.566 173.528 331.272 173.672C330.984 173.816 330.726 173.997 330.496 174.216C330.272 174.429 330.086 174.645 329.936 174.864V181H328.592ZM293.073 190.824C293.553 190.824 294.009 190.901 294.441 191.056C294.873 191.211 295.308 191.528 295.745 192.008L294.937 192.744C294.665 192.435 294.383 192.205 294.089 192.056C293.801 191.907 293.457 191.832 293.057 191.832C292.497 191.832 292.076 191.984 291.793 192.288C291.511 192.587 291.369 192.973 291.369 193.448C291.369 193.773 291.457 194.077 291.633 194.36C291.809 194.637 292.047 194.861 292.345 195.032C292.644 195.203 292.975 195.288 293.337 195.288H297.785V196.344H296.353V200.696C296.193 200.904 295.972 201.123 295.689 201.352C295.412 201.581 295.055 201.779 294.617 201.944C294.18 202.104 293.652 202.184 293.033 202.184C292.201 202.184 291.521 202.024 290.993 201.704C290.471 201.384 290.084 200.973 289.833 200.472C289.588 199.965 289.465 199.437 289.465 198.888C289.465 198.061 289.681 197.384 290.113 196.856C290.551 196.328 291.172 195.981 291.977 195.816V195.768C291.492 195.656 291.108 195.483 290.825 195.248C290.548 195.008 290.348 194.733 290.225 194.424C290.108 194.109 290.049 193.787 290.049 193.456C290.049 192.981 290.172 192.547 290.417 192.152C290.663 191.752 291.012 191.432 291.465 191.192C291.919 190.947 292.455 190.824 293.073 190.824ZM295.129 196.344H293.145C292.591 196.344 292.14 196.475 291.793 196.736C291.447 196.992 291.191 197.312 291.025 197.696C290.865 198.075 290.785 198.456 290.785 198.84C290.785 199.224 290.863 199.589 291.017 199.936C291.177 200.283 291.423 200.563 291.753 200.776C292.089 200.989 292.527 201.096 293.065 201.096C293.513 201.096 293.913 201.024 294.265 200.88C294.623 200.731 294.911 200.52 295.129 200.248V196.344ZM314.733 199.192H310.373L309.493 202H308.125L311.709 190.984H313.485L317.069 202H315.613L314.733 199.192ZM310.733 198.04H314.373L312.565 192.152L310.733 198.04Z" fill="black"/>
<path d="M168.561 89.364V98.316C168.561 99.148 168.733 99.748 169.077 100.116C169.421 100.484 169.957 100.668 170.685 100.668C171.381 100.668 172.037 100.472 172.653 100.08C173.277 99.68 173.761 99.208 174.105 98.664V89.364H176.121V102H174.405L174.237 100.296C173.741 100.936 173.129 101.428 172.401 101.772C171.673 102.108 170.937 102.276 170.193 102.276C168.969 102.276 168.053 101.952 167.445 101.304C166.845 100.648 166.545 99.732 166.545 98.556V89.364H168.561ZM180.935 102V89.364H182.651L182.807 91.116C183.319 90.468 183.959 89.972 184.727 89.628C185.503 89.276 186.255 89.1 186.983 89.1C188.223 89.1 189.123 89.428 189.683 90.084C190.251 90.74 190.535 91.652 190.535 92.82V102H188.519V94.308C188.519 93.444 188.471 92.748 188.375 92.22C188.279 91.684 188.079 91.296 187.775 91.056C187.471 90.808 186.999 90.684 186.359 90.684C185.863 90.684 185.395 90.792 184.955 91.008C184.523 91.224 184.135 91.496 183.791 91.824C183.455 92.144 183.175 92.468 182.951 92.796V102H180.935ZM205.91 89.364L200.222 95.052L206.57 102H203.918L197.702 95.1L203.294 89.364H205.91ZM197.474 84.024V102H195.458V84.276L197.474 84.024ZM209.717 102V89.364H211.433L211.589 91.116C212.101 90.468 212.741 89.972 213.509 89.628C214.285 89.276 215.037 89.1 215.765 89.1C217.005 89.1 217.905 89.428 218.465 90.084C219.033 90.74 219.317 91.652 219.317 92.82V102H217.301V94.308C217.301 93.444 217.253 92.748 217.157 92.22C217.061 91.684 216.861 91.296 216.557 91.056C216.253 90.808 215.781 90.684 215.141 90.684C214.645 90.684 214.177 90.792 213.737 91.008C213.305 91.224 212.917 91.496 212.573 91.824C212.237 92.144 211.957 92.468 211.733 92.796V102H209.717ZM228.919 89.1C230.111 89.1 231.107 89.372 231.907 89.916C232.715 90.452 233.319 91.212 233.719 92.196C234.127 93.18 234.331 94.34 234.331 95.676C234.331 96.964 234.123 98.104 233.707 99.096C233.291 100.088 232.679 100.868 231.871 101.436C231.071 101.996 230.079 102.276 228.895 102.276C227.711 102.276 226.715 102.004 225.907 101.46C225.099 100.916 224.487 100.152 224.071 99.168C223.663 98.176 223.459 97.02 223.459 95.7C223.459 94.396 223.667 93.248 224.083 92.256C224.499 91.264 225.111 90.492 225.919 89.94C226.735 89.38 227.735 89.1 228.919 89.1ZM228.919 90.744C227.831 90.744 227.007 91.148 226.447 91.956C225.895 92.756 225.619 94.004 225.619 95.7C225.619 97.364 225.891 98.6 226.435 99.408C226.987 100.216 227.807 100.62 228.895 100.62C229.983 100.62 230.799 100.216 231.343 99.408C231.895 98.6 232.171 97.356 232.171 95.676C232.171 93.996 231.899 92.756 231.355 91.956C230.811 91.148 229.999 90.744 228.919 90.744ZM247.858 102H245.002L243.37 92.724L241.594 102H238.81L236.506 89.364H238.57L240.178 100.752L242.194 90.972H244.582L246.49 100.752L248.098 89.364H250.066L247.858 102ZM252.889 102V89.364H254.605L254.761 91.116C255.273 90.468 255.913 89.972 256.681 89.628C257.457 89.276 258.209 89.1 258.937 89.1C260.177 89.1 261.077 89.428 261.637 90.084C262.205 90.74 262.489 91.652 262.489 92.82V102H260.473V94.308C260.473 93.444 260.425 92.748 260.329 92.22C260.233 91.684 260.033 91.296 259.729 91.056C259.425 90.808 258.953 90.684 258.313 90.684C257.817 90.684 257.349 90.792 256.909 91.008C256.477 91.224 256.089 91.496 255.745 91.824C255.409 92.144 255.129 92.468 254.905 92.796V102H252.889Z" fill="black"/>
</svg>
