<svg width="544" height="305" viewBox="0 0 544 305" fill="none" xmlns="http://www.w3.org/2000/svg">
<path d="M543 152.5C543 194.088 512.923 231.945 463.844 259.462C414.797 286.96 346.972 304 272 304C197.028 304 129.203 286.96 80.156 259.462C31.0771 231.945 1 194.088 1 152.5C1 110.912 31.0771 73.0551 80.156 45.5385C129.203 18.0398 197.028 1 272 1C346.972 1 414.797 18.0398 463.844 45.5385C512.923 73.0551 543 110.912 543 152.5Z" fill="#B1D6FF" fill-opacity="0.5" stroke="#3077C6" stroke-width="2"/>
<path d="M340.1 146.4V175.2H338.3V146.4H340.1Z" fill="black"/>
<path d="M494 159.5C494 169.944 487.3 179.545 476.16 186.585C465.033 193.618 449.599 198 432.5 198C415.401 198 399.967 193.618 388.84 186.585C377.7 179.545 371 169.944 371 159.5C371 149.056 377.7 139.455 388.84 132.415C399.967 125.382 415.401 121 432.5 121C449.599 121 465.033 125.382 476.16 132.415C487.3 139.455 494 149.056 494 159.5Z" fill="#B1D6FF" fill-opacity="0.5" stroke="#3077C6" stroke-width="2"/>
<path d="M309 159.5C309 167.383 305.339 174.973 298.555 181.964C291.767 188.959 281.896 195.305 269.62 200.656C245.072 211.357 211.089 218 173.5 218C135.911 218 101.928 211.357 77.3795 200.656C65.1039 195.305 55.2327 188.959 48.4445 181.964C41.6609 174.973 38 167.383 38 159.5C38 151.617 41.6609 144.027 48.4445 137.036C55.2327 130.041 65.1039 123.695 77.3795 118.344C101.928 107.643 135.911 101 173.5 101C211.089 101 245.072 107.643 269.62 118.344C281.896 123.695 291.767 130.041 298.555 137.036C305.339 144.027 309 151.617 309 159.5Z" fill="#B1D6FF" fill-opacity="0.5" stroke="#3077C6" stroke-width="2"/>
<path d="M174.252 40.788C174.252 41.284 174.072 41.7 173.712 42.036C173.36 42.372 172.932 42.54 172.428 42.54C171.916 42.54 171.488 42.372 171.144 42.036C170.8 41.7 170.628 41.284 170.628 40.788C170.628 40.588 170.652 40.372 170.7 40.14C170.748 39.9 170.864 39.588 171.048 39.204L172.992 35.064H174.588L173.604 39.468C173.804 39.604 173.96 39.792 174.072 40.032C174.192 40.264 174.252 40.516 174.252 40.788ZM179.436 40.788C179.436 41.284 179.252 41.7 178.884 42.036C178.524 42.372 178.1 42.54 177.612 42.54C177.116 42.54 176.692 42.372 176.34 42.036C175.988 41.7 175.812 41.284 175.812 40.788C175.812 40.588 175.836 40.372 175.884 40.14C175.932 39.9 176.048 39.588 176.232 39.204L178.212 35.064H179.772L178.8 39.468C178.992 39.604 179.144 39.792 179.256 40.032C179.376 40.264 179.436 40.516 179.436 40.788ZM192.711 54V46.164H186.471V54H184.395V37.476H186.471V44.46H192.711V37.476H194.787V54H192.711ZM205.589 41.364V52.404H209.153V54H199.673V52.404H203.573V42.96H199.793V41.364H205.589ZM203.981 35.448C204.429 35.448 204.785 35.584 205.049 35.856C205.321 36.128 205.457 36.46 205.457 36.852C205.457 37.26 205.321 37.604 205.049 37.884C204.785 38.156 204.429 38.292 203.981 38.292C203.557 38.292 203.209 38.156 202.937 37.884C202.665 37.604 202.529 37.26 202.529 36.852C202.529 36.46 202.665 36.128 202.937 35.856C203.209 35.584 203.557 35.448 203.981 35.448ZM214.112 36.852C214.112 36.356 214.292 35.94 214.652 35.604C215.02 35.26 215.448 35.088 215.936 35.088C216.432 35.088 216.86 35.26 217.22 35.604C217.58 35.94 217.76 36.356 217.76 36.852C217.76 37.068 217.728 37.288 217.664 37.512C217.6 37.728 217.472 38.032 217.28 38.424L215.336 42.564H213.776L214.724 38.16C214.54 38.016 214.392 37.828 214.28 37.596C214.168 37.364 214.112 37.116 214.112 36.852ZM219.296 36.852C219.296 36.356 219.476 35.94 219.836 35.604C220.204 35.26 220.632 35.088 221.12 35.088C221.624 35.088 222.052 35.26 222.404 35.604C222.764 35.94 222.944 36.356 222.944 36.852C222.944 37.068 222.916 37.288 222.86 37.512C222.804 37.728 222.684 38.032 222.5 38.424L220.532 42.564H218.96L219.932 38.16C219.74 38.016 219.584 37.828 219.464 37.596C219.352 37.364 219.296 37.116 219.296 36.852ZM248.053 32.4V61.2H246.253V32.4H248.053ZM274.986 40.788C274.986 41.284 274.806 41.7 274.446 42.036C274.094 42.372 273.666 42.54 273.162 42.54C272.65 42.54 272.222 42.372 271.878 42.036C271.534 41.7 271.362 41.284 271.362 40.788C271.362 40.588 271.386 40.372 271.434 40.14C271.482 39.9 271.598 39.588 271.782 39.204L273.726 35.064H275.322L274.338 39.468C274.538 39.604 274.694 39.792 274.806 40.032C274.926 40.264 274.986 40.516 274.986 40.788ZM280.17 40.788C280.17 41.284 279.986 41.7 279.618 42.036C279.258 42.372 278.834 42.54 278.346 42.54C277.85 42.54 277.426 42.372 277.074 42.036C276.722 41.7 276.546 41.284 276.546 40.788C276.546 40.588 276.57 40.372 276.618 40.14C276.666 39.9 276.782 39.588 276.966 39.204L278.946 35.064H280.506L279.534 39.468C279.726 39.604 279.878 39.792 279.99 40.032C280.11 40.264 280.17 40.516 280.17 40.788ZM293.445 54V46.164H287.205V54H285.129V37.476H287.205V44.46H293.445V37.476H295.521V54H293.445ZM301.512 48.396C301.552 49.372 301.74 50.172 302.076 50.796C302.412 51.412 302.856 51.868 303.408 52.164C303.96 52.452 304.56 52.596 305.208 52.596C305.856 52.596 306.44 52.5 306.96 52.308C307.488 52.116 308.028 51.832 308.58 51.456L309.528 52.788C308.936 53.252 308.26 53.616 307.5 53.88C306.748 54.144 305.976 54.276 305.184 54.276C303.96 54.276 302.916 54 302.052 53.448C301.188 52.896 300.528 52.128 300.072 51.144C299.624 50.152 299.4 49.004 299.4 47.7C299.4 46.42 299.628 45.284 300.084 44.292C300.54 43.3 301.18 42.52 302.004 41.952C302.828 41.384 303.8 41.1 304.92 41.1C305.984 41.1 306.9 41.352 307.668 41.856C308.436 42.352 309.024 43.064 309.432 43.992C309.848 44.912 310.056 46.012 310.056 47.292C310.056 47.508 310.052 47.712 310.044 47.904C310.036 48.088 310.024 48.252 310.008 48.396H301.512ZM304.944 42.756C304.008 42.756 303.224 43.088 302.592 43.752C301.968 44.416 301.612 45.444 301.524 46.836H308.112C308.088 45.484 307.792 44.468 307.224 43.788C306.656 43.1 305.896 42.756 304.944 42.756ZM319.238 36.276V50.88C319.238 51.504 319.43 51.948 319.814 52.212C320.206 52.468 320.71 52.596 321.326 52.596C321.71 52.596 322.074 52.556 322.418 52.476C322.762 52.396 323.106 52.288 323.45 52.152L323.99 53.628C323.646 53.796 323.218 53.944 322.706 54.072C322.202 54.208 321.63 54.276 320.99 54.276C319.87 54.276 318.962 53.968 318.266 53.352C317.57 52.728 317.222 51.868 317.222 50.772V37.872H313.346V36.276H319.238ZM333.629 36.276V50.88C333.629 51.504 333.821 51.948 334.205 52.212C334.597 52.468 335.101 52.596 335.717 52.596C336.101 52.596 336.465 52.556 336.809 52.476C337.153 52.396 337.497 52.288 337.841 52.152L338.381 53.628C338.037 53.796 337.609 53.944 337.097 54.072C336.593 54.208 336.021 54.276 335.381 54.276C334.261 54.276 333.353 53.968 332.657 53.352C331.961 52.728 331.613 51.868 331.613 50.772V37.872H327.737V36.276H333.629ZM347.912 41.1C349.104 41.1 350.1 41.372 350.9 41.916C351.708 42.452 352.312 43.212 352.712 44.196C353.12 45.18 353.324 46.34 353.324 47.676C353.324 48.964 353.116 50.104 352.7 51.096C352.284 52.088 351.672 52.868 350.864 53.436C350.064 53.996 349.072 54.276 347.888 54.276C346.704 54.276 345.708 54.004 344.9 53.46C344.092 52.916 343.48 52.152 343.064 51.168C342.656 50.176 342.451 49.02 342.451 47.7C342.451 46.396 342.66 45.248 343.076 44.256C343.492 43.264 344.104 42.492 344.912 41.94C345.728 41.38 346.728 41.1 347.912 41.1ZM347.912 42.744C346.824 42.744 346 43.148 345.44 43.956C344.888 44.756 344.612 46.004 344.612 47.7C344.612 49.364 344.884 50.6 345.428 51.408C345.98 52.216 346.8 52.62 347.888 52.62C348.976 52.62 349.792 52.216 350.336 51.408C350.888 50.6 351.164 49.356 351.164 47.676C351.164 45.996 350.892 44.756 350.348 43.956C349.804 43.148 348.992 42.744 347.912 42.744ZM358.018 36.852C358.018 36.356 358.198 35.94 358.558 35.604C358.926 35.26 359.354 35.088 359.842 35.088C360.338 35.088 360.766 35.26 361.126 35.604C361.486 35.94 361.666 36.356 361.666 36.852C361.666 37.068 361.634 37.288 361.57 37.512C361.506 37.728 361.378 38.032 361.186 38.424L359.242 42.564H357.682L358.63 38.16C358.446 38.016 358.298 37.828 358.186 37.596C358.074 37.364 358.018 37.116 358.018 36.852ZM363.202 36.852C363.202 36.356 363.382 35.94 363.742 35.604C364.11 35.26 364.538 35.088 365.026 35.088C365.53 35.088 365.958 35.26 366.31 35.604C366.67 35.94 366.85 36.356 366.85 36.852C366.85 37.068 366.822 37.288 366.766 37.512C366.71 37.728 366.59 38.032 366.406 38.424L364.438 42.564H362.866L363.838 38.16C363.646 38.016 363.49 37.828 363.37 37.596C363.258 37.364 363.202 37.116 363.202 36.852Z" fill="black"/>
<path d="M79.252 154.788C79.252 155.284 79.072 155.7 78.712 156.036C78.36 156.372 77.932 156.54 77.428 156.54C76.916 156.54 76.488 156.372 76.144 156.036C75.8 155.7 75.628 155.284 75.628 154.788C75.628 154.588 75.652 154.372 75.7 154.14C75.748 153.9 75.864 153.588 76.048 153.204L77.992 149.064H79.588L78.604 153.468C78.804 153.604 78.96 153.792 79.072 154.032C79.192 154.264 79.252 154.516 79.252 154.788ZM84.436 154.788C84.436 155.284 84.252 155.7 83.884 156.036C83.524 156.372 83.1 156.54 82.612 156.54C82.116 156.54 81.692 156.372 81.34 156.036C80.988 155.7 80.812 155.284 80.812 154.788C80.812 154.588 80.836 154.372 80.884 154.14C80.932 153.9 81.048 153.588 81.232 153.204L83.212 149.064H84.772L83.8 153.468C83.992 153.604 84.144 153.792 84.256 154.032C84.376 154.264 84.436 154.516 84.436 154.788ZM97.7106 168V160.164H91.4706V168H89.3946V151.476H91.4706V158.46H97.7106V151.476H99.7866V168H97.7106ZM110.589 155.364V166.404H114.153V168H104.673V166.404H108.573V156.96H104.793V155.364H110.589ZM108.981 149.448C109.429 149.448 109.785 149.584 110.049 149.856C110.321 150.128 110.457 150.46 110.457 150.852C110.457 151.26 110.321 151.604 110.049 151.884C109.785 152.156 109.429 152.292 108.981 152.292C108.557 152.292 108.209 152.156 107.937 151.884C107.665 151.604 107.529 151.26 107.529 150.852C107.529 150.46 107.665 150.128 107.937 149.856C108.209 149.584 108.557 149.448 108.981 149.448ZM119.112 150.852C119.112 150.356 119.292 149.94 119.652 149.604C120.02 149.26 120.448 149.088 120.936 149.088C121.432 149.088 121.86 149.26 122.22 149.604C122.58 149.94 122.76 150.356 122.76 150.852C122.76 151.068 122.728 151.288 122.664 151.512C122.6 151.728 122.472 152.032 122.28 152.424L120.336 156.564H118.776L119.724 152.16C119.54 152.016 119.392 151.828 119.28 151.596C119.168 151.364 119.112 151.116 119.112 150.852ZM124.296 150.852C124.296 150.356 124.476 149.94 124.836 149.604C125.204 149.26 125.632 149.088 126.12 149.088C126.624 149.088 127.052 149.26 127.404 149.604C127.764 149.94 127.944 150.356 127.944 150.852C127.944 151.068 127.916 151.288 127.86 151.512C127.804 151.728 127.684 152.032 127.5 152.424L125.532 156.564H123.96L124.932 152.16C124.74 152.016 124.584 151.828 124.464 151.596C124.352 151.364 124.296 151.116 124.296 150.852ZM153.053 146.4V175.2H151.253V146.4H153.053ZM179.986 154.788C179.986 155.284 179.806 155.7 179.446 156.036C179.094 156.372 178.666 156.54 178.162 156.54C177.65 156.54 177.222 156.372 176.878 156.036C176.534 155.7 176.362 155.284 176.362 154.788C176.362 154.588 176.386 154.372 176.434 154.14C176.482 153.9 176.598 153.588 176.782 153.204L178.726 149.064H180.322L179.338 153.468C179.538 153.604 179.694 153.792 179.806 154.032C179.926 154.264 179.986 154.516 179.986 154.788ZM185.17 154.788C185.17 155.284 184.986 155.7 184.618 156.036C184.258 156.372 183.834 156.54 183.346 156.54C182.85 156.54 182.426 156.372 182.074 156.036C181.722 155.7 181.546 155.284 181.546 154.788C181.546 154.588 181.57 154.372 181.618 154.14C181.666 153.9 181.782 153.588 181.966 153.204L183.946 149.064H185.506L184.534 153.468C184.726 153.604 184.878 153.792 184.99 154.032C185.11 154.264 185.17 154.516 185.17 154.788ZM198.445 168V160.164H192.205V168H190.129V151.476H192.205V158.46H198.445V151.476H200.521V168H198.445ZM206.512 162.396C206.552 163.372 206.74 164.172 207.076 164.796C207.412 165.412 207.856 165.868 208.408 166.164C208.96 166.452 209.56 166.596 210.208 166.596C210.856 166.596 211.44 166.5 211.96 166.308C212.488 166.116 213.028 165.832 213.58 165.456L214.528 166.788C213.936 167.252 213.26 167.616 212.5 167.88C211.748 168.144 210.976 168.276 210.184 168.276C208.96 168.276 207.916 168 207.052 167.448C206.188 166.896 205.528 166.128 205.072 165.144C204.624 164.152 204.4 163.004 204.4 161.7C204.4 160.42 204.628 159.284 205.084 158.292C205.54 157.3 206.18 156.52 207.004 155.952C207.828 155.384 208.8 155.1 209.92 155.1C210.984 155.1 211.9 155.352 212.668 155.856C213.436 156.352 214.024 157.064 214.432 157.992C214.848 158.912 215.056 160.012 215.056 161.292C215.056 161.508 215.052 161.712 215.044 161.904C215.036 162.088 215.024 162.252 215.008 162.396H206.512ZM209.944 156.756C209.008 156.756 208.224 157.088 207.592 157.752C206.968 158.416 206.612 159.444 206.524 160.836H213.112C213.088 159.484 212.792 158.468 212.224 157.788C211.656 157.1 210.896 156.756 209.944 156.756ZM224.238 150.276V164.88C224.238 165.504 224.43 165.948 224.814 166.212C225.206 166.468 225.71 166.596 226.326 166.596C226.71 166.596 227.074 166.556 227.418 166.476C227.762 166.396 228.106 166.288 228.45 166.152L228.99 167.628C228.646 167.796 228.218 167.944 227.706 168.072C227.202 168.208 226.63 168.276 225.99 168.276C224.87 168.276 223.962 167.968 223.266 167.352C222.57 166.728 222.222 165.868 222.222 164.772V151.872H218.346V150.276H224.238ZM238.629 150.276V164.88C238.629 165.504 238.821 165.948 239.205 166.212C239.597 166.468 240.101 166.596 240.717 166.596C241.101 166.596 241.465 166.556 241.809 166.476C242.153 166.396 242.497 166.288 242.841 166.152L243.381 167.628C243.037 167.796 242.609 167.944 242.097 168.072C241.593 168.208 241.021 168.276 240.381 168.276C239.261 168.276 238.353 167.968 237.657 167.352C236.961 166.728 236.613 165.868 236.613 164.772V151.872H232.737V150.276H238.629ZM252.912 155.1C254.104 155.1 255.1 155.372 255.9 155.916C256.708 156.452 257.312 157.212 257.712 158.196C258.12 159.18 258.324 160.34 258.324 161.676C258.324 162.964 258.116 164.104 257.7 165.096C257.284 166.088 256.672 166.868 255.864 167.436C255.064 167.996 254.072 168.276 252.888 168.276C251.704 168.276 250.708 168.004 249.9 167.46C249.092 166.916 248.48 166.152 248.064 165.168C247.656 164.176 247.451 163.02 247.451 161.7C247.451 160.396 247.66 159.248 248.076 158.256C248.492 157.264 249.104 156.492 249.912 155.94C250.728 155.38 251.728 155.1 252.912 155.1ZM252.912 156.744C251.824 156.744 251 157.148 250.44 157.956C249.888 158.756 249.612 160.004 249.612 161.7C249.612 163.364 249.884 164.6 250.428 165.408C250.98 166.216 251.8 166.62 252.888 166.62C253.976 166.62 254.792 166.216 255.336 165.408C255.888 164.6 256.164 163.356 256.164 161.676C256.164 159.996 255.892 158.756 255.348 157.956C254.804 157.148 253.992 156.744 252.912 156.744ZM263.018 150.852C263.018 150.356 263.198 149.94 263.558 149.604C263.926 149.26 264.354 149.088 264.842 149.088C265.338 149.088 265.766 149.26 266.126 149.604C266.486 149.94 266.666 150.356 266.666 150.852C266.666 151.068 266.634 151.288 266.57 151.512C266.506 151.728 266.378 152.032 266.186 152.424L264.242 156.564H262.682L263.63 152.16C263.446 152.016 263.298 151.828 263.186 151.596C263.074 151.364 263.018 151.116 263.018 150.852ZM268.202 150.852C268.202 150.356 268.382 149.94 268.742 149.604C269.11 149.26 269.538 149.088 270.026 149.088C270.53 149.088 270.958 149.26 271.31 149.604C271.67 149.94 271.85 150.356 271.85 150.852C271.85 151.068 271.822 151.288 271.766 151.512C271.71 151.728 271.59 152.032 271.406 152.424L269.438 156.564H267.866L268.838 152.16C268.646 152.016 268.49 151.828 268.37 151.596C268.258 151.364 268.202 151.116 268.202 150.852Z" fill="black"/>
<path d="M399.412 168V155.364H401.128L401.284 157.116C401.796 156.468 402.436 155.972 403.204 155.628C403.98 155.276 404.732 155.1 405.46 155.1C406.7 155.1 407.6 155.428 408.16 156.084C408.728 156.74 409.012 157.652 409.012 158.82V168H406.996V160.308C406.996 159.444 406.948 158.748 406.852 158.22C406.756 157.684 406.556 157.296 406.252 157.056C405.948 156.808 405.476 156.684 404.836 156.684C404.34 156.684 403.872 156.792 403.432 157.008C403 157.224 402.612 157.496 402.268 157.824C401.932 158.144 401.652 158.468 401.428 158.796V168H399.412ZM415.387 162.396C415.427 163.372 415.615 164.172 415.951 164.796C416.287 165.412 416.731 165.868 417.283 166.164C417.835 166.452 418.435 166.596 419.083 166.596C419.731 166.596 420.315 166.5 420.835 166.308C421.363 166.116 421.903 165.832 422.455 165.456L423.403 166.788C422.811 167.252 422.135 167.616 421.375 167.88C420.623 168.144 419.851 168.276 419.059 168.276C417.835 168.276 416.791 168 415.927 167.448C415.063 166.896 414.403 166.128 413.947 165.144C413.499 164.152 413.275 163.004 413.275 161.7C413.275 160.42 413.503 159.284 413.959 158.292C414.415 157.3 415.055 156.52 415.879 155.952C416.703 155.384 417.675 155.1 418.795 155.1C419.859 155.1 420.775 155.352 421.543 155.856C422.311 156.352 422.899 157.064 423.307 157.992C423.723 158.912 423.931 160.012 423.931 161.292C423.931 161.508 423.927 161.712 423.919 161.904C423.911 162.088 423.899 162.252 423.883 162.396H415.387ZM418.819 156.756C417.883 156.756 417.099 157.088 416.467 157.752C415.843 158.416 415.487 159.444 415.399 160.836H421.987C421.963 159.484 421.667 158.468 421.099 157.788C420.531 157.1 419.771 156.756 418.819 156.756ZM438.729 155.364L434.133 168H431.793L427.233 155.364H429.369L433.029 166.164L436.641 155.364H438.729ZM444.168 162.396C444.208 163.372 444.396 164.172 444.732 164.796C445.068 165.412 445.512 165.868 446.064 166.164C446.616 166.452 447.216 166.596 447.864 166.596C448.512 166.596 449.096 166.5 449.616 166.308C450.144 166.116 450.684 165.832 451.236 165.456L452.184 166.788C451.592 167.252 450.916 167.616 450.156 167.88C449.404 168.144 448.632 168.276 447.84 168.276C446.616 168.276 445.572 168 444.708 167.448C443.844 166.896 443.184 166.128 442.728 165.144C442.28 164.152 442.056 163.004 442.056 161.7C442.056 160.42 442.284 159.284 442.74 158.292C443.196 157.3 443.836 156.52 444.66 155.952C445.484 155.384 446.456 155.1 447.576 155.1C448.64 155.1 449.556 155.352 450.324 155.856C451.092 156.352 451.68 157.064 452.088 157.992C452.504 158.912 452.712 160.012 452.712 161.292C452.712 161.508 452.708 161.712 452.7 161.904C452.692 162.088 452.68 162.252 452.664 162.396H444.168ZM447.6 156.756C446.664 156.756 445.88 157.088 445.248 157.752C444.624 158.416 444.268 159.444 444.18 160.836H450.768C450.744 159.484 450.448 158.468 449.88 157.788C449.312 157.1 448.552 156.756 447.6 156.756ZM457.095 168V166.452H459.063V156.912H457.095V155.364H460.599L460.971 158.352C461.459 157.312 462.051 156.508 462.747 155.94C463.443 155.372 464.363 155.088 465.507 155.088C465.859 155.088 466.171 155.116 466.443 155.172C466.723 155.22 467.007 155.284 467.295 155.364L466.707 157.164C466.443 157.092 466.203 157.04 465.987 157.008C465.771 156.968 465.523 156.948 465.243 156.948C464.275 156.948 463.443 157.292 462.747 157.98C462.051 158.668 461.495 159.708 461.079 161.1V166.452H463.647V168H457.095ZM465.351 159.636V156.888L465.555 155.364H467.295L467.007 159.636H465.351Z" fill="black"/>
</svg>
