<svg width="531" height="183" viewBox="0 0 531 183" fill="none" xmlns="http://www.w3.org/2000/svg">
<path d="M232 91.5C232 141.27 180.527 182 116.5 182C52.4726 182 1 141.27 1 91.5C1 41.7298 52.4726 1 116.5 1C180.527 1 232 41.7298 232 91.5Z" fill="#B1D6FF" fill-opacity="0.5" stroke="#3077C6" stroke-width="2"/>
<path d="M86.708 98.608C87.676 98.608 88.44 98.428 89 98.068C89.568 97.7 89.852 97.212 89.852 96.604C89.852 96.22 89.78 95.888 89.636 95.608C89.5 95.328 89.216 95.076 88.784 94.852C88.352 94.628 87.688 94.404 86.792 94.18C85.92 93.964 85.16 93.716 84.512 93.436C83.872 93.148 83.372 92.776 83.012 92.32C82.66 91.864 82.484 91.272 82.484 90.544C82.484 89.832 82.684 89.22 83.084 88.708C83.492 88.188 84.056 87.792 84.776 87.52C85.496 87.24 86.332 87.1 87.284 87.1C88.3 87.1 89.184 87.236 89.936 87.508C90.696 87.772 91.34 88.1 91.868 88.492L90.98 89.86C90.5 89.532 89.972 89.264 89.396 89.056C88.82 88.84 88.124 88.732 87.308 88.732C86.316 88.732 85.612 88.888 85.196 89.2C84.78 89.504 84.572 89.9 84.572 90.388C84.572 90.756 84.672 91.064 84.872 91.312C85.08 91.552 85.428 91.772 85.916 91.972C86.404 92.164 87.076 92.376 87.932 92.608C88.756 92.824 89.472 93.084 90.08 93.388C90.696 93.692 91.176 94.092 91.52 94.588C91.864 95.084 92.036 95.724 92.036 96.508C92.036 97.404 91.78 98.132 91.268 98.692C90.756 99.244 90.092 99.648 89.276 99.904C88.468 100.152 87.612 100.276 86.708 100.276C85.564 100.276 84.588 100.112 83.78 99.784C82.98 99.448 82.308 99.044 81.764 98.572L82.916 97.24C83.412 97.648 83.98 97.98 84.62 98.236C85.268 98.484 85.964 98.608 86.708 98.608ZM106.835 99.364C106.403 99.652 105.879 99.876 105.263 100.036C104.647 100.196 104.043 100.276 103.451 100.276C102.091 100.276 101.043 99.92 100.307 99.208C99.5706 98.496 99.2026 97.58 99.2026 96.46V88.924H96.2986V87.364H99.2026V84.496L101.219 84.256V87.364H105.587L105.347 88.924H101.219V96.436C101.219 97.14 101.403 97.676 101.771 98.044C102.147 98.412 102.767 98.596 103.631 98.596C104.103 98.596 104.539 98.54 104.939 98.428C105.339 98.316 105.711 98.172 106.055 97.996L106.835 99.364ZM111.313 100V98.452H113.281V88.912H111.313V87.364H114.817L115.189 90.352C115.677 89.312 116.269 88.508 116.965 87.94C117.661 87.372 118.581 87.088 119.725 87.088C120.077 87.088 120.389 87.116 120.661 87.172C120.941 87.22 121.225 87.284 121.513 87.364L120.925 89.164C120.661 89.092 120.421 89.04 120.205 89.008C119.989 88.968 119.741 88.948 119.461 88.948C118.493 88.948 117.661 89.292 116.965 89.98C116.269 90.668 115.713 91.708 115.297 93.1V98.452H117.865V100H111.313ZM119.569 91.636V88.888L119.773 87.364H121.513L121.225 91.636H119.569ZM131.98 87.364V98.404H135.544V100H126.064V98.404H129.964V88.96H126.184V87.364H131.98ZM130.372 81.448C130.82 81.448 131.176 81.584 131.44 81.856C131.712 82.128 131.848 82.46 131.848 82.852C131.848 83.26 131.712 83.604 131.44 83.884C131.176 84.156 130.82 84.292 130.372 84.292C129.948 84.292 129.6 84.156 129.328 83.884C129.056 83.604 128.92 83.26 128.92 82.852C128.92 82.46 129.056 82.128 129.328 81.856C129.6 81.584 129.948 81.448 130.372 81.448ZM139.975 100V87.364H141.691L141.847 89.116C142.359 88.468 142.999 87.972 143.767 87.628C144.543 87.276 145.295 87.1 146.023 87.1C147.263 87.1 148.163 87.428 148.723 88.084C149.291 88.74 149.575 89.652 149.575 90.82V100H147.559V92.308C147.559 91.444 147.511 90.748 147.415 90.22C147.319 89.684 147.119 89.296 146.815 89.056C146.511 88.808 146.039 88.684 145.399 88.684C144.903 88.684 144.435 88.792 143.995 89.008C143.563 89.224 143.175 89.496 142.831 89.824C142.495 90.144 142.215 90.468 141.991 90.796V100H139.975ZM164.637 86.02L165.261 87.916C164.725 88.084 164.153 88.188 163.545 88.228C162.937 88.268 162.277 88.288 161.565 88.288C162.293 88.624 162.841 89.06 163.209 89.596C163.577 90.124 163.761 90.748 163.761 91.468C163.761 92.3 163.573 93.04 163.197 93.688C162.821 94.336 162.277 94.844 161.565 95.212C160.861 95.58 160.009 95.764 159.009 95.764C158.585 95.764 158.229 95.744 157.941 95.704C157.661 95.664 157.389 95.604 157.125 95.524C156.933 95.652 156.773 95.828 156.645 96.052C156.525 96.276 156.465 96.508 156.465 96.748C156.465 97.052 156.585 97.304 156.825 97.504C157.065 97.704 157.509 97.804 158.157 97.804H160.437C161.285 97.804 162.045 97.956 162.717 98.26C163.397 98.564 163.929 98.972 164.313 99.484C164.705 99.996 164.901 100.58 164.901 101.236C164.901 102.476 164.373 103.428 163.317 104.092C162.269 104.756 160.785 105.088 158.865 105.088C157.521 105.088 156.461 104.948 155.685 104.668C154.909 104.396 154.353 103.976 154.017 103.408C153.689 102.848 153.525 102.14 153.525 101.284H155.349C155.349 101.772 155.445 102.176 155.637 102.496C155.829 102.816 156.177 103.052 156.681 103.204C157.185 103.364 157.909 103.444 158.853 103.444C159.781 103.444 160.537 103.364 161.121 103.204C161.713 103.052 162.149 102.82 162.429 102.508C162.717 102.204 162.861 101.824 162.861 101.368C162.861 100.768 162.589 100.316 162.045 100.012C161.501 99.708 160.821 99.556 160.005 99.556H157.749C156.661 99.556 155.857 99.316 155.337 98.836C154.825 98.356 154.569 97.804 154.569 97.18C154.569 96.772 154.685 96.376 154.917 95.992C155.157 95.608 155.505 95.268 155.961 94.972C155.233 94.588 154.697 94.112 154.353 93.544C154.009 92.976 153.837 92.288 153.837 91.48C153.837 90.624 154.049 89.868 154.473 89.212C154.897 88.548 155.489 88.028 156.249 87.652C157.009 87.276 157.885 87.088 158.877 87.088C159.941 87.08 160.805 87.036 161.469 86.956C162.133 86.868 162.701 86.744 163.173 86.584C163.653 86.424 164.141 86.236 164.637 86.02ZM158.877 88.564C157.861 88.564 157.109 88.84 156.621 89.392C156.141 89.936 155.901 90.632 155.901 91.48C155.901 92.336 156.149 93.04 156.645 93.592C157.141 94.144 157.901 94.42 158.925 94.42C159.821 94.42 160.501 94.16 160.965 93.64C161.437 93.12 161.673 92.396 161.673 91.468C161.673 90.516 161.437 89.796 160.965 89.308C160.501 88.812 159.805 88.564 158.877 88.564Z" fill="black"/>
<path d="M530 91.5C530 116.366 516.068 138.967 493.363 155.39C470.659 171.812 439.245 182 404.5 182C369.755 182 338.341 171.812 315.637 155.39C292.932 138.967 279 116.366 279 91.5C279 66.6341 292.932 44.0328 315.637 27.61C338.341 11.1881 369.755 1 404.5 1C439.245 1 470.659 11.1881 493.363 27.61C516.068 44.0328 530 66.6341 530 91.5Z" fill="#B1D6FF" fill-opacity="0.5" stroke="#3077C6" stroke-width="2"/>
<path d="M370.412 100V87.364H372.128L372.284 89.116C372.796 88.468 373.436 87.972 374.204 87.628C374.98 87.276 375.732 87.1 376.46 87.1C377.7 87.1 378.6 87.428 379.16 88.084C379.728 88.74 380.012 89.652 380.012 90.82V100H377.996V92.308C377.996 91.444 377.948 90.748 377.852 90.22C377.756 89.684 377.556 89.296 377.252 89.056C376.948 88.808 376.476 88.684 375.836 88.684C375.34 88.684 374.872 88.792 374.432 89.008C374 89.224 373.612 89.496 373.268 89.824C372.932 90.144 372.652 90.468 372.428 90.796V100H370.412ZM386.819 87.364V96.316C386.819 97.148 386.991 97.748 387.335 98.116C387.679 98.484 388.215 98.668 388.943 98.668C389.639 98.668 390.295 98.472 390.911 98.08C391.535 97.68 392.019 97.208 392.363 96.664V87.364H394.379V100H392.663L392.495 98.296C391.999 98.936 391.387 99.428 390.659 99.772C389.931 100.108 389.195 100.276 388.451 100.276C387.227 100.276 386.311 99.952 385.703 99.304C385.103 98.648 384.803 97.732 384.803 96.556V87.364H386.819ZM407.521 87.1C407.929 87.1 408.317 87.188 408.685 87.364C409.061 87.54 409.369 87.88 409.609 88.384C409.849 88.888 409.969 89.624 409.969 90.592V100H408.097V90.916C408.097 90.124 408.049 89.552 407.953 89.2C407.857 88.848 407.581 88.672 407.125 88.672C406.749 88.672 406.373 88.792 405.997 89.032C405.629 89.264 405.269 89.648 404.917 90.184V100H403.033V90.916C403.033 90.124 402.985 89.552 402.889 89.2C402.793 88.848 402.517 88.672 402.061 88.672C401.669 88.672 401.289 88.792 400.921 89.032C400.561 89.264 400.205 89.648 399.853 90.184V100H397.993V87.364H399.577L399.697 88.828C400.041 88.34 400.425 87.932 400.849 87.604C401.281 87.268 401.813 87.1 402.445 87.1C402.925 87.1 403.377 87.216 403.801 87.448C404.225 87.672 404.537 88.112 404.737 88.768C405.081 88.272 405.469 87.872 405.901 87.568C406.333 87.256 406.873 87.1 407.521 87.1ZM415.6 89.008C416.064 88.4 416.596 87.932 417.196 87.604C417.804 87.268 418.472 87.1 419.2 87.1C420.328 87.1 421.24 87.372 421.936 87.916C422.632 88.46 423.14 89.228 423.46 90.22C423.78 91.204 423.94 92.356 423.94 93.676C423.94 94.948 423.748 96.084 423.364 97.084C422.98 98.076 422.416 98.856 421.672 99.424C420.936 99.992 420.024 100.276 418.936 100.276C417.472 100.276 416.324 99.748 415.492 98.692L415.348 100H413.584V82.276L415.6 82.024V89.008ZM418.456 98.644C419.512 98.644 420.324 98.236 420.892 97.42C421.46 96.604 421.744 95.352 421.744 93.664C421.744 92.56 421.632 91.644 421.408 90.916C421.184 90.18 420.848 89.632 420.4 89.272C419.96 88.904 419.416 88.72 418.768 88.72C418.064 88.72 417.444 88.932 416.908 89.356C416.38 89.772 415.944 90.236 415.6 90.748V97.012C415.928 97.508 416.34 97.904 416.836 98.2C417.34 98.496 417.88 98.644 418.456 98.644ZM429.559 94.396C429.599 95.372 429.787 96.172 430.123 96.796C430.459 97.412 430.903 97.868 431.455 98.164C432.007 98.452 432.607 98.596 433.255 98.596C433.903 98.596 434.487 98.5 435.007 98.308C435.535 98.116 436.075 97.832 436.627 97.456L437.575 98.788C436.983 99.252 436.307 99.616 435.547 99.88C434.795 100.144 434.023 100.276 433.231 100.276C432.007 100.276 430.963 100 430.099 99.448C429.235 98.896 428.575 98.128 428.119 97.144C427.671 96.152 427.447 95.004 427.447 93.7C427.447 92.42 427.675 91.284 428.131 90.292C428.587 89.3 429.227 88.52 430.051 87.952C430.875 87.384 431.847 87.1 432.967 87.1C434.031 87.1 434.947 87.352 435.715 87.856C436.483 88.352 437.071 89.064 437.479 89.992C437.895 90.912 438.103 92.012 438.103 93.292C438.103 93.508 438.099 93.712 438.091 93.904C438.083 94.088 438.071 94.252 438.055 94.396H429.559ZM432.991 88.756C432.055 88.756 431.271 89.088 430.639 89.752C430.015 90.416 429.659 91.444 429.571 92.836H436.159C436.135 91.484 435.839 90.468 435.271 89.788C434.703 89.1 433.943 88.756 432.991 88.756ZM442.485 100V98.452H444.453V88.912H442.485V87.364H445.989L446.361 90.352C446.849 89.312 447.441 88.508 448.137 87.94C448.833 87.372 449.753 87.088 450.897 87.088C451.249 87.088 451.561 87.116 451.833 87.172C452.113 87.22 452.397 87.284 452.685 87.364L452.097 89.164C451.833 89.092 451.593 89.04 451.377 89.008C451.161 88.968 450.913 88.948 450.633 88.948C449.665 88.948 448.833 89.292 448.137 89.98C447.441 90.668 446.885 91.708 446.469 93.1V98.452H449.037V100H442.485ZM450.741 91.636V88.888L450.945 87.364H452.685L452.397 91.636H450.741Z" fill="black"/>
</svg>
