<svg width="398" height="182" viewBox="0 0 398 182" fill="none" xmlns="http://www.w3.org/2000/svg">
<path d="M397 91C397 115.718 382.854 138.194 359.785 154.531C336.719 170.865 304.802 181 269.5 181C234.198 181 202.281 170.865 179.215 154.531C156.146 138.194 142 115.718 142 91C142 66.2817 156.146 43.8058 179.215 27.4694C202.281 11.1347 234.198 1 269.5 1C304.802 1 336.719 11.1347 359.785 27.4694C382.854 43.8058 397 66.2817 397 91Z" fill="#B1D6FF" fill-opacity="0.5" stroke="#3077C6" stroke-width="2"/>
<path d="M256 91C256 115.718 241.854 138.194 218.785 154.531C195.719 170.865 163.802 181 128.5 181C93.1982 181 61.2807 170.865 38.2147 154.531C15.1463 138.194 1 115.718 1 91C1 66.2817 15.1463 43.8058 38.2147 27.4694C61.2807 11.1347 93.1982 1 128.5 1C163.802 1 195.719 11.1347 218.785 27.4694C241.854 43.8058 256 66.2817 256 91Z" fill="#B1D6FF" fill-opacity="0.5" stroke="#3077C6" stroke-width="2"/>
<path d="M100.404 94.788H93.864L92.544 99H90.492L95.868 82.476H98.532L103.908 99H101.724L100.404 94.788ZM94.404 93.06H99.864L97.152 84.228L94.404 93.06Z" fill="black"/>
<path d="M306.752 92.356C306.752 91.524 306.588 90.884 306.26 90.436C305.94 89.98 305.512 89.664 304.976 89.488C304.44 89.312 303.852 89.224 303.212 89.224H300.392V95.284H303.116C303.524 95.284 303.94 95.244 304.364 95.164C304.788 95.084 305.18 94.94 305.54 94.732C305.908 94.524 306.2 94.232 306.416 93.856C306.64 93.472 306.752 92.972 306.752 92.356ZM306.092 84.748C306.092 83.812 305.8 83.148 305.216 82.756C304.64 82.356 303.852 82.156 302.852 82.156H300.392V87.508H303.056C304.032 87.508 304.78 87.292 305.3 86.86C305.828 86.42 306.092 85.716 306.092 84.748ZM308.948 92.284C308.948 93.18 308.768 93.932 308.408 94.54C308.056 95.148 307.58 95.632 306.98 95.992C306.388 96.352 305.724 96.612 304.988 96.772C304.26 96.924 303.516 97 302.756 97H298.316V80.476H302.384C303.112 80.476 303.82 80.544 304.508 80.68C305.204 80.808 305.828 81.032 306.38 81.352C306.94 81.664 307.388 82.088 307.724 82.624C308.06 83.16 308.228 83.832 308.228 84.64C308.228 85.352 308.08 85.956 307.784 86.452C307.496 86.94 307.116 87.332 306.644 87.628C306.18 87.924 305.684 88.132 305.156 88.252C305.772 88.348 306.368 88.536 306.944 88.816C307.528 89.088 308.008 89.504 308.384 90.064C308.76 90.616 308.948 91.356 308.948 92.284Z" fill="black"/>
</svg>
