<svg width="430" height="182" viewBox="0 0 430 182" fill="none" xmlns="http://www.w3.org/2000/svg">
<path d="M397 91C397 115.718 382.854 138.194 359.785 154.531C336.719 170.865 304.802 181 269.5 181C234.198 181 202.281 170.865 179.215 154.531C156.146 138.194 142 115.718 142 91C142 66.2817 156.146 43.8058 179.215 27.4694C202.281 11.1347 234.198 1 269.5 1C304.802 1 336.719 11.1347 359.785 27.4694C382.854 43.8058 397 66.2817 397 91Z" fill="#B1D6FF" fill-opacity="0.5" stroke="#3077C6" stroke-width="2"/>
<path d="M256 91C256 115.718 241.854 138.194 218.785 154.531C195.719 170.865 163.802 181 128.5 181C93.1982 181 61.2807 170.865 38.2147 154.531C15.1463 138.194 1 115.718 1 91C1 66.2817 15.1463 43.8058 38.2147 27.4694C61.2807 11.1347 93.1982 1 128.5 1C163.802 1 195.719 11.1347 218.785 27.4694C241.854 43.8058 256 66.2817 256 91Z" fill="#B1D6FF" fill-opacity="0.5" stroke="#3077C6" stroke-width="2"/>
<path d="M7.126 90.394C7.126 90.642 7.036 90.85 6.856 91.018C6.68 91.186 6.466 91.27 6.214 91.27C5.958 91.27 5.744 91.186 5.572 91.018C5.4 90.85 5.314 90.642 5.314 90.394C5.314 90.294 5.326 90.186 5.35 90.07C5.374 89.95 5.432 89.794 5.524 89.602L6.496 87.532H7.294L6.802 89.734C6.902 89.802 6.98 89.896 7.036 90.016C7.096 90.132 7.126 90.258 7.126 90.394ZM9.718 90.394C9.718 90.642 9.626 90.85 9.442 91.018C9.262 91.186 9.05 91.27 8.806 91.27C8.558 91.27 8.346 91.186 8.17 91.018C7.994 90.85 7.906 90.642 7.906 90.394C7.906 90.294 7.918 90.186 7.942 90.07C7.966 89.95 8.024 89.794 8.116 89.602L9.106 87.532H9.886L9.4 89.734C9.496 89.802 9.572 89.896 9.628 90.016C9.688 90.132 9.718 90.258 9.718 90.394ZM17.5373 90.01L17.8493 90.958C17.5813 91.042 17.2953 91.094 16.9913 91.114C16.6873 91.134 16.3573 91.144 16.0013 91.144C16.3653 91.312 16.6393 91.53 16.8233 91.798C17.0073 92.062 17.0993 92.374 17.0993 92.734C17.0993 93.15 17.0053 93.52 16.8173 93.844C16.6293 94.168 16.3573 94.422 16.0013 94.606C15.6493 94.79 15.2233 94.882 14.7233 94.882C14.5113 94.882 14.3333 94.872 14.1893 94.852C14.0493 94.832 13.9133 94.802 13.7813 94.762C13.6853 94.826 13.6053 94.914 13.5413 95.026C13.4813 95.138 13.4513 95.254 13.4513 95.374C13.4513 95.526 13.5113 95.652 13.6313 95.752C13.7513 95.852 13.9733 95.902 14.2973 95.902H15.4373C15.8613 95.902 16.2413 95.978 16.5773 96.13C16.9173 96.282 17.1833 96.486 17.3753 96.742C17.5713 96.998 17.6693 97.29 17.6693 97.618C17.6693 98.238 17.4053 98.714 16.8773 99.046C16.3533 99.378 15.6113 99.544 14.6513 99.544C13.9793 99.544 13.4493 99.474 13.0613 99.334C12.6733 99.198 12.3953 98.988 12.2273 98.704C12.0633 98.424 11.9813 98.07 11.9813 97.642H12.8933C12.8933 97.886 12.9413 98.088 13.0373 98.248C13.1333 98.408 13.3073 98.526 13.5593 98.602C13.8113 98.682 14.1733 98.722 14.6453 98.722C15.1093 98.722 15.4873 98.682 15.7793 98.602C16.0753 98.526 16.2933 98.41 16.4333 98.254C16.5773 98.102 16.6493 97.912 16.6493 97.684C16.6493 97.384 16.5133 97.158 16.2413 97.006C15.9693 96.854 15.6293 96.778 15.2213 96.778H14.0933C13.5493 96.778 13.1473 96.658 12.8873 96.418C12.6313 96.178 12.5033 95.902 12.5033 95.59C12.5033 95.386 12.5613 95.188 12.6773 94.996C12.7973 94.804 12.9713 94.634 13.1993 94.486C12.8353 94.294 12.5673 94.056 12.3953 93.772C12.2233 93.488 12.1373 93.144 12.1373 92.74C12.1373 92.312 12.2433 91.934 12.4553 91.606C12.6673 91.274 12.9633 91.014 13.3433 90.826C13.7233 90.638 14.1613 90.544 14.6573 90.544C15.1893 90.54 15.6213 90.518 15.9533 90.478C16.2853 90.434 16.5693 90.372 16.8053 90.292C17.0453 90.212 17.2893 90.118 17.5373 90.01ZM14.6573 91.282C14.1493 91.282 13.7733 91.42 13.5293 91.696C13.2893 91.968 13.1693 92.316 13.1693 92.74C13.1693 93.168 13.2933 93.52 13.5413 93.796C13.7893 94.072 14.1693 94.21 14.6813 94.21C15.1293 94.21 15.4693 94.08 15.7013 93.82C15.9373 93.56 16.0553 93.198 16.0553 92.734C16.0553 92.258 15.9373 91.898 15.7013 91.654C15.4693 91.406 15.1213 91.282 14.6573 91.282ZM19.6566 97V96.226H20.6406V91.456H19.6566V90.682H21.4086L21.5946 92.176C21.8386 91.656 22.1346 91.254 22.4826 90.97C22.8306 90.686 23.2906 90.544 23.8626 90.544C24.0386 90.544 24.1946 90.558 24.3306 90.586C24.4706 90.61 24.6126 90.642 24.7566 90.682L24.4626 91.582C24.3306 91.546 24.2106 91.52 24.1026 91.504C23.9946 91.484 23.8706 91.474 23.7306 91.474C23.2466 91.474 22.8306 91.646 22.4826 91.99C22.1346 92.334 21.8566 92.854 21.6486 93.55V96.226H22.9326V97H19.6566ZM23.7846 92.818V91.444L23.8866 90.682H24.7566L24.6126 92.818H23.7846ZM27.5839 94.198C27.6039 94.686 27.6979 95.086 27.8659 95.398C28.0339 95.706 28.2559 95.934 28.5319 96.082C28.8079 96.226 29.1079 96.298 29.4319 96.298C29.7559 96.298 30.0479 96.25 30.3079 96.154C30.5719 96.058 30.8419 95.916 31.1179 95.728L31.5919 96.394C31.2959 96.626 30.9579 96.808 30.5779 96.94C30.2019 97.072 29.8159 97.138 29.4199 97.138C28.8079 97.138 28.2859 97 27.8539 96.724C27.4219 96.448 27.0919 96.064 26.8639 95.572C26.6399 95.076 26.5279 94.502 26.5279 93.85C26.5279 93.21 26.6419 92.642 26.8699 92.146C27.0979 91.65 27.4179 91.26 27.8299 90.976C28.2419 90.692 28.7279 90.55 29.2879 90.55C29.8199 90.55 30.2779 90.676 30.6619 90.928C31.0459 91.176 31.3399 91.532 31.5439 91.996C31.7519 92.456 31.8559 93.006 31.8559 93.646C31.8559 93.754 31.8539 93.856 31.8499 93.952C31.8459 94.044 31.8399 94.126 31.8319 94.198H27.5839ZM29.2999 91.378C28.8319 91.378 28.4399 91.544 28.1239 91.876C27.8119 92.208 27.6339 92.722 27.5899 93.418H30.8839C30.8719 92.742 30.7239 92.234 30.4399 91.894C30.1559 91.55 29.7759 91.378 29.2999 91.378ZM34.7793 94.198C34.7993 94.686 34.8933 95.086 35.0613 95.398C35.2293 95.706 35.4513 95.934 35.7273 96.082C36.0033 96.226 36.3033 96.298 36.6273 96.298C36.9513 96.298 37.2433 96.25 37.5033 96.154C37.7673 96.058 38.0373 95.916 38.3133 95.728L38.7873 96.394C38.4913 96.626 38.1533 96.808 37.7733 96.94C37.3973 97.072 37.0113 97.138 36.6153 97.138C36.0033 97.138 35.4813 97 35.0493 96.724C34.6173 96.448 34.2873 96.064 34.0593 95.572C33.8353 95.076 33.7233 94.502 33.7233 93.85C33.7233 93.21 33.8373 92.642 34.0653 92.146C34.2933 91.65 34.6133 91.26 35.0253 90.976C35.4373 90.692 35.9233 90.55 36.4833 90.55C37.0153 90.55 37.4733 90.676 37.8573 90.928C38.2413 91.176 38.5353 91.532 38.7393 91.996C38.9473 92.456 39.0513 93.006 39.0513 93.646C39.0513 93.754 39.0493 93.856 39.0453 93.952C39.0413 94.044 39.0353 94.126 39.0273 94.198H34.7793ZM36.4953 91.378C36.0273 91.378 35.6353 91.544 35.3193 91.876C35.0073 92.208 34.8293 92.722 34.7853 93.418H38.0793C38.0673 92.742 37.9193 92.234 37.6353 91.894C37.3513 91.55 36.9713 91.378 36.4953 91.378ZM41.1826 97V90.682H42.0406L42.1186 91.558C42.3746 91.234 42.6946 90.986 43.0786 90.814C43.4666 90.638 43.8426 90.55 44.2066 90.55C44.8266 90.55 45.2766 90.714 45.5566 91.042C45.8406 91.37 45.9826 91.826 45.9826 92.41V97H44.9746V93.154C44.9746 92.722 44.9506 92.374 44.9026 92.11C44.8546 91.842 44.7546 91.648 44.6026 91.528C44.4506 91.404 44.2146 91.342 43.8946 91.342C43.6466 91.342 43.4126 91.396 43.1926 91.504C42.9766 91.612 42.7826 91.748 42.6106 91.912C42.4426 92.072 42.3026 92.234 42.1906 92.398V97H41.1826ZM48.6419 88.426C48.6419 88.178 48.7319 87.97 48.9119 87.802C49.0959 87.63 49.3099 87.544 49.5539 87.544C49.8019 87.544 50.0159 87.63 50.1959 87.802C50.3759 87.97 50.4659 88.178 50.4659 88.426C50.4659 88.534 50.4499 88.644 50.4179 88.756C50.3859 88.864 50.3219 89.016 50.2259 89.212L49.2539 91.282H48.4739L48.9479 89.08C48.8559 89.008 48.7819 88.914 48.7259 88.798C48.6699 88.682 48.6419 88.558 48.6419 88.426ZM51.2339 88.426C51.2339 88.178 51.3239 87.97 51.5039 87.802C51.6879 87.63 51.9019 87.544 52.1459 87.544C52.3979 87.544 52.6119 87.63 52.7879 87.802C52.9679 87.97 53.0579 88.178 53.0579 88.426C53.0579 88.534 53.0439 88.644 53.0159 88.756C52.9879 88.864 52.9279 89.016 52.8359 89.212L51.8519 91.282H51.0659L51.5519 89.08C51.4559 89.008 51.3779 88.914 51.3179 88.798C51.2619 88.682 51.2339 88.558 51.2339 88.426ZM65.6125 86.2V100.6H64.7125V86.2H65.6125ZM79.0791 90.394C79.0791 90.642 78.9891 90.85 78.8091 91.018C78.6331 91.186 78.4191 91.27 78.1671 91.27C77.9111 91.27 77.6971 91.186 77.5251 91.018C77.3531 90.85 77.2671 90.642 77.2671 90.394C77.2671 90.294 77.2791 90.186 77.3031 90.07C77.3271 89.95 77.3851 89.794 77.4771 89.602L78.4491 87.532H79.2471L78.7551 89.734C78.8551 89.802 78.9331 89.896 78.9891 90.016C79.0491 90.132 79.0791 90.258 79.0791 90.394ZM81.6711 90.394C81.6711 90.642 81.5791 90.85 81.3951 91.018C81.2151 91.186 81.0031 91.27 80.7591 91.27C80.5111 91.27 80.2991 91.186 80.1231 91.018C79.9471 90.85 79.8591 90.642 79.8591 90.394C79.8591 90.294 79.8711 90.186 79.8951 90.07C79.9191 89.95 79.9771 89.794 80.0691 89.602L81.0591 87.532H81.8391L81.3531 89.734C81.4491 89.802 81.5251 89.896 81.5811 90.016C81.6411 90.132 81.6711 90.258 81.6711 90.394ZM86.7604 90.55C87.3564 90.55 87.8544 90.686 88.2544 90.958C88.6584 91.226 88.9604 91.606 89.1604 92.098C89.3644 92.59 89.4664 93.17 89.4664 93.838C89.4664 94.482 89.3624 95.052 89.1544 95.548C88.9464 96.044 88.6404 96.434 88.2364 96.718C87.8364 96.998 87.3404 97.138 86.7484 97.138C86.1564 97.138 85.6584 97.002 85.2544 96.73C84.8504 96.458 84.5444 96.076 84.3364 95.584C84.1324 95.088 84.0304 94.51 84.0304 93.85C84.0304 93.198 84.1344 92.624 84.3424 92.128C84.5504 91.632 84.8564 91.246 85.2604 90.97C85.6684 90.69 86.1684 90.55 86.7604 90.55ZM86.7604 91.372C86.2164 91.372 85.8044 91.574 85.5244 91.978C85.2484 92.378 85.1104 93.002 85.1104 93.85C85.1104 94.682 85.2464 95.3 85.5184 95.704C85.7944 96.108 86.2044 96.31 86.7484 96.31C87.2924 96.31 87.7004 96.108 87.9724 95.704C88.2484 95.3 88.3864 94.678 88.3864 93.838C88.3864 92.998 88.2504 92.378 87.9784 91.978C87.7064 91.574 87.3004 91.372 86.7604 91.372ZM91.6098 97V96.226H92.5938V91.456H91.6098V90.682H93.3618L93.5478 92.176C93.7918 91.656 94.0878 91.254 94.4358 90.97C94.7838 90.686 95.2438 90.544 95.8158 90.544C95.9918 90.544 96.1478 90.558 96.2838 90.586C96.4238 90.61 96.5658 90.642 96.7098 90.682L96.4158 91.582C96.2838 91.546 96.1638 91.52 96.0558 91.504C95.9478 91.484 95.8238 91.474 95.6838 91.474C95.1998 91.474 94.7838 91.646 94.4358 91.99C94.0878 92.334 93.8098 92.854 93.6018 93.55V96.226H94.8858V97H91.6098ZM95.7378 92.818V91.444L95.8398 90.682H96.7098L96.5658 92.818H95.7378ZM103.269 95.62C103.269 95.872 103.311 96.056 103.395 96.172C103.479 96.288 103.609 96.374 103.785 96.43L103.539 97.138C103.267 97.102 103.029 97.016 102.825 96.88C102.621 96.74 102.473 96.53 102.381 96.25C102.153 96.542 101.869 96.764 101.529 96.916C101.189 97.064 100.813 97.138 100.401 97.138C99.7691 97.138 99.2711 96.96 98.9071 96.604C98.5431 96.248 98.3611 95.776 98.3611 95.188C98.3611 94.536 98.6151 94.036 99.1231 93.688C99.6311 93.34 100.365 93.166 101.325 93.166H102.255V92.638C102.255 92.182 102.121 91.86 101.853 91.672C101.589 91.48 101.221 91.384 100.749 91.384C100.541 91.384 100.297 91.41 100.017 91.462C99.7371 91.51 99.4331 91.592 99.1051 91.708L98.8411 90.946C99.2291 90.802 99.5931 90.7 99.9331 90.64C100.273 90.58 100.597 90.55 100.905 90.55C101.693 90.55 102.283 90.734 102.675 91.102C103.071 91.466 103.269 91.962 103.269 92.59V95.62ZM100.659 96.37C100.971 96.37 101.269 96.292 101.553 96.136C101.837 95.976 102.071 95.756 102.255 95.476V93.85H101.343C100.647 93.85 100.155 93.97 99.8671 94.21C99.5831 94.45 99.4411 94.772 99.4411 95.176C99.4411 95.568 99.5411 95.866 99.7411 96.07C99.9451 96.27 100.251 96.37 100.659 96.37ZM105.94 97V90.682H106.798L106.876 91.558C107.132 91.234 107.452 90.986 107.836 90.814C108.224 90.638 108.6 90.55 108.964 90.55C109.584 90.55 110.034 90.714 110.314 91.042C110.598 91.37 110.74 91.826 110.74 92.41V97H109.732V93.154C109.732 92.722 109.708 92.374 109.66 92.11C109.612 91.842 109.512 91.648 109.36 91.528C109.208 91.404 108.972 91.342 108.652 91.342C108.404 91.342 108.17 91.396 107.95 91.504C107.734 91.612 107.54 91.748 107.368 91.912C107.2 92.072 107.06 92.234 106.948 92.398V97H105.94ZM118.272 90.01L118.584 90.958C118.316 91.042 118.03 91.094 117.726 91.114C117.422 91.134 117.092 91.144 116.736 91.144C117.1 91.312 117.374 91.53 117.558 91.798C117.742 92.062 117.834 92.374 117.834 92.734C117.834 93.15 117.74 93.52 117.552 93.844C117.364 94.168 117.092 94.422 116.736 94.606C116.384 94.79 115.958 94.882 115.458 94.882C115.246 94.882 115.068 94.872 114.924 94.852C114.784 94.832 114.648 94.802 114.516 94.762C114.42 94.826 114.34 94.914 114.276 95.026C114.216 95.138 114.186 95.254 114.186 95.374C114.186 95.526 114.246 95.652 114.366 95.752C114.486 95.852 114.708 95.902 115.032 95.902H116.172C116.596 95.902 116.976 95.978 117.312 96.13C117.652 96.282 117.918 96.486 118.11 96.742C118.306 96.998 118.404 97.29 118.404 97.618C118.404 98.238 118.14 98.714 117.612 99.046C117.088 99.378 116.346 99.544 115.386 99.544C114.714 99.544 114.184 99.474 113.796 99.334C113.408 99.198 113.13 98.988 112.962 98.704C112.798 98.424 112.716 98.07 112.716 97.642H113.628C113.628 97.886 113.676 98.088 113.772 98.248C113.868 98.408 114.042 98.526 114.294 98.602C114.546 98.682 114.908 98.722 115.38 98.722C115.844 98.722 116.222 98.682 116.514 98.602C116.81 98.526 117.028 98.41 117.168 98.254C117.312 98.102 117.384 97.912 117.384 97.684C117.384 97.384 117.248 97.158 116.976 97.006C116.704 96.854 116.364 96.778 115.956 96.778H114.828C114.284 96.778 113.882 96.658 113.622 96.418C113.366 96.178 113.238 95.902 113.238 95.59C113.238 95.386 113.296 95.188 113.412 94.996C113.532 94.804 113.706 94.634 113.934 94.486C113.57 94.294 113.302 94.056 113.13 93.772C112.958 93.488 112.872 93.144 112.872 92.74C112.872 92.312 112.978 91.934 113.19 91.606C113.402 91.274 113.698 91.014 114.078 90.826C114.458 90.638 114.896 90.544 115.392 90.544C115.924 90.54 116.356 90.518 116.688 90.478C117.02 90.434 117.304 90.372 117.54 90.292C117.78 90.212 118.024 90.118 118.272 90.01ZM115.392 91.282C114.884 91.282 114.508 91.42 114.264 91.696C114.024 91.968 113.904 92.316 113.904 92.74C113.904 93.168 114.028 93.52 114.276 93.796C114.524 94.072 114.904 94.21 115.416 94.21C115.864 94.21 116.204 94.08 116.436 93.82C116.672 93.56 116.79 93.198 116.79 92.734C116.79 92.258 116.672 91.898 116.436 91.654C116.204 91.406 115.856 91.282 115.392 91.282ZM121.123 94.198C121.143 94.686 121.237 95.086 121.405 95.398C121.573 95.706 121.795 95.934 122.071 96.082C122.347 96.226 122.647 96.298 122.971 96.298C123.295 96.298 123.587 96.25 123.847 96.154C124.111 96.058 124.381 95.916 124.657 95.728L125.131 96.394C124.835 96.626 124.497 96.808 124.117 96.94C123.741 97.072 123.355 97.138 122.959 97.138C122.347 97.138 121.825 97 121.393 96.724C120.961 96.448 120.631 96.064 120.403 95.572C120.179 95.076 120.067 94.502 120.067 93.85C120.067 93.21 120.181 92.642 120.409 92.146C120.637 91.65 120.957 91.26 121.369 90.976C121.781 90.692 122.267 90.55 122.827 90.55C123.359 90.55 123.817 90.676 124.201 90.928C124.585 91.176 124.879 91.532 125.083 91.996C125.291 92.456 125.395 93.006 125.395 93.646C125.395 93.754 125.393 93.856 125.389 93.952C125.385 94.044 125.379 94.126 125.371 94.198H121.123ZM122.839 91.378C122.371 91.378 121.979 91.544 121.663 91.876C121.351 92.208 121.173 92.722 121.129 93.418H124.423C124.411 92.742 124.263 92.234 123.979 91.894C123.695 91.55 123.315 91.378 122.839 91.378ZM127.79 88.426C127.79 88.178 127.88 87.97 128.06 87.802C128.244 87.63 128.458 87.544 128.702 87.544C128.95 87.544 129.164 87.63 129.344 87.802C129.524 87.97 129.614 88.178 129.614 88.426C129.614 88.534 129.598 88.644 129.566 88.756C129.534 88.864 129.47 89.016 129.374 89.212L128.402 91.282H127.622L128.096 89.08C128.004 89.008 127.93 88.914 127.874 88.798C127.818 88.682 127.79 88.558 127.79 88.426ZM130.382 88.426C130.382 88.178 130.472 87.97 130.652 87.802C130.836 87.63 131.05 87.544 131.294 87.544C131.546 87.544 131.76 87.63 131.936 87.802C132.116 87.97 132.206 88.178 132.206 88.426C132.206 88.534 132.192 88.644 132.164 88.756C132.136 88.864 132.076 89.016 131.984 89.212L131 91.282H130.214L130.7 89.08C130.604 89.008 130.526 88.914 130.466 88.798C130.41 88.682 130.382 88.558 130.382 88.426Z" fill="black"/>
<path d="M273.126 90.394C273.126 90.642 273.036 90.85 272.856 91.018C272.68 91.186 272.466 91.27 272.214 91.27C271.958 91.27 271.744 91.186 271.572 91.018C271.4 90.85 271.314 90.642 271.314 90.394C271.314 90.294 271.326 90.186 271.35 90.07C271.374 89.95 271.432 89.794 271.524 89.602L272.496 87.532H273.294L272.802 89.734C272.902 89.802 272.98 89.896 273.036 90.016C273.096 90.132 273.126 90.258 273.126 90.394ZM275.718 90.394C275.718 90.642 275.626 90.85 275.442 91.018C275.262 91.186 275.05 91.27 274.806 91.27C274.558 91.27 274.346 91.186 274.17 91.018C273.994 90.85 273.906 90.642 273.906 90.394C273.906 90.294 273.918 90.186 273.942 90.07C273.966 89.95 274.024 89.794 274.116 89.602L275.106 87.532H275.886L275.4 89.734C275.496 89.802 275.572 89.896 275.628 90.016C275.688 90.132 275.718 90.258 275.718 90.394ZM280.807 90.55C281.403 90.55 281.901 90.686 282.301 90.958C282.705 91.226 283.007 91.606 283.207 92.098C283.411 92.59 283.513 93.17 283.513 93.838C283.513 94.482 283.409 95.052 283.201 95.548C282.993 96.044 282.687 96.434 282.283 96.718C281.883 96.998 281.387 97.138 280.795 97.138C280.203 97.138 279.705 97.002 279.301 96.73C278.897 96.458 278.591 96.076 278.383 95.584C278.179 95.088 278.077 94.51 278.077 93.85C278.077 93.198 278.181 92.624 278.389 92.128C278.597 91.632 278.903 91.246 279.307 90.97C279.715 90.69 280.215 90.55 280.807 90.55ZM280.807 91.372C280.263 91.372 279.851 91.574 279.571 91.978C279.295 92.378 279.157 93.002 279.157 93.85C279.157 94.682 279.293 95.3 279.565 95.704C279.841 96.108 280.251 96.31 280.795 96.31C281.339 96.31 281.747 96.108 282.019 95.704C282.295 95.3 282.433 94.678 282.433 93.838C282.433 92.998 282.297 92.378 282.025 91.978C281.753 91.574 281.347 91.372 280.807 91.372ZM285.657 97V96.226H286.641V91.456H285.657V90.682H287.409L287.595 92.176C287.839 91.656 288.135 91.254 288.483 90.97C288.831 90.686 289.291 90.544 289.863 90.544C290.039 90.544 290.195 90.558 290.331 90.586C290.471 90.61 290.613 90.642 290.757 90.682L290.463 91.582C290.331 91.546 290.211 91.52 290.103 91.504C289.995 91.484 289.871 91.474 289.731 91.474C289.247 91.474 288.831 91.646 288.483 91.99C288.135 92.334 287.857 92.854 287.649 93.55V96.226H288.933V97H285.657ZM289.785 92.818V91.444L289.887 90.682H290.757L290.613 92.818H289.785ZM297.316 95.62C297.316 95.872 297.358 96.056 297.442 96.172C297.526 96.288 297.656 96.374 297.832 96.43L297.586 97.138C297.314 97.102 297.076 97.016 296.872 96.88C296.668 96.74 296.52 96.53 296.428 96.25C296.2 96.542 295.916 96.764 295.576 96.916C295.236 97.064 294.86 97.138 294.448 97.138C293.816 97.138 293.318 96.96 292.954 96.604C292.59 96.248 292.408 95.776 292.408 95.188C292.408 94.536 292.662 94.036 293.17 93.688C293.678 93.34 294.412 93.166 295.372 93.166H296.302V92.638C296.302 92.182 296.168 91.86 295.9 91.672C295.636 91.48 295.268 91.384 294.796 91.384C294.588 91.384 294.344 91.41 294.064 91.462C293.784 91.51 293.48 91.592 293.152 91.708L292.888 90.946C293.276 90.802 293.64 90.7 293.98 90.64C294.32 90.58 294.644 90.55 294.952 90.55C295.74 90.55 296.33 90.734 296.722 91.102C297.118 91.466 297.316 91.962 297.316 92.59V95.62ZM294.706 96.37C295.018 96.37 295.316 96.292 295.6 96.136C295.884 95.976 296.118 95.756 296.302 95.476V93.85H295.39C294.694 93.85 294.202 93.97 293.914 94.21C293.63 94.45 293.488 94.772 293.488 95.176C293.488 95.568 293.588 95.866 293.788 96.07C293.992 96.27 294.298 96.37 294.706 96.37ZM299.987 97V90.682H300.845L300.923 91.558C301.179 91.234 301.499 90.986 301.883 90.814C302.271 90.638 302.647 90.55 303.011 90.55C303.631 90.55 304.081 90.714 304.361 91.042C304.645 91.37 304.787 91.826 304.787 92.41V97H303.779V93.154C303.779 92.722 303.755 92.374 303.707 92.11C303.659 91.842 303.559 91.648 303.407 91.528C303.255 91.404 303.019 91.342 302.699 91.342C302.451 91.342 302.217 91.396 301.997 91.504C301.781 91.612 301.587 91.748 301.415 91.912C301.247 92.072 301.107 92.234 300.995 92.398V97H299.987ZM312.319 90.01L312.631 90.958C312.363 91.042 312.077 91.094 311.773 91.114C311.469 91.134 311.139 91.144 310.783 91.144C311.147 91.312 311.421 91.53 311.605 91.798C311.789 92.062 311.881 92.374 311.881 92.734C311.881 93.15 311.787 93.52 311.599 93.844C311.411 94.168 311.139 94.422 310.783 94.606C310.431 94.79 310.005 94.882 309.505 94.882C309.293 94.882 309.115 94.872 308.971 94.852C308.831 94.832 308.695 94.802 308.563 94.762C308.467 94.826 308.387 94.914 308.323 95.026C308.263 95.138 308.233 95.254 308.233 95.374C308.233 95.526 308.293 95.652 308.413 95.752C308.533 95.852 308.755 95.902 309.079 95.902H310.219C310.643 95.902 311.023 95.978 311.359 96.13C311.699 96.282 311.965 96.486 312.157 96.742C312.353 96.998 312.451 97.29 312.451 97.618C312.451 98.238 312.187 98.714 311.659 99.046C311.135 99.378 310.393 99.544 309.433 99.544C308.761 99.544 308.231 99.474 307.843 99.334C307.455 99.198 307.177 98.988 307.009 98.704C306.845 98.424 306.763 98.07 306.763 97.642H307.675C307.675 97.886 307.723 98.088 307.819 98.248C307.915 98.408 308.089 98.526 308.341 98.602C308.593 98.682 308.955 98.722 309.427 98.722C309.891 98.722 310.269 98.682 310.561 98.602C310.857 98.526 311.075 98.41 311.215 98.254C311.359 98.102 311.431 97.912 311.431 97.684C311.431 97.384 311.295 97.158 311.023 97.006C310.751 96.854 310.411 96.778 310.003 96.778H308.875C308.331 96.778 307.929 96.658 307.669 96.418C307.413 96.178 307.285 95.902 307.285 95.59C307.285 95.386 307.343 95.188 307.459 94.996C307.579 94.804 307.753 94.634 307.981 94.486C307.617 94.294 307.349 94.056 307.177 93.772C307.005 93.488 306.919 93.144 306.919 92.74C306.919 92.312 307.025 91.934 307.237 91.606C307.449 91.274 307.745 91.014 308.125 90.826C308.505 90.638 308.943 90.544 309.439 90.544C309.971 90.54 310.403 90.518 310.735 90.478C311.067 90.434 311.351 90.372 311.587 90.292C311.827 90.212 312.071 90.118 312.319 90.01ZM309.439 91.282C308.931 91.282 308.555 91.42 308.311 91.696C308.071 91.968 307.951 92.316 307.951 92.74C307.951 93.168 308.075 93.52 308.323 93.796C308.571 94.072 308.951 94.21 309.463 94.21C309.911 94.21 310.251 94.08 310.483 93.82C310.719 93.56 310.837 93.198 310.837 92.734C310.837 92.258 310.719 91.898 310.483 91.654C310.251 91.406 309.903 91.282 309.439 91.282ZM315.17 94.198C315.19 94.686 315.284 95.086 315.452 95.398C315.62 95.706 315.842 95.934 316.118 96.082C316.394 96.226 316.694 96.298 317.018 96.298C317.342 96.298 317.634 96.25 317.894 96.154C318.158 96.058 318.428 95.916 318.704 95.728L319.178 96.394C318.882 96.626 318.544 96.808 318.164 96.94C317.788 97.072 317.402 97.138 317.006 97.138C316.394 97.138 315.872 97 315.44 96.724C315.008 96.448 314.678 96.064 314.45 95.572C314.226 95.076 314.114 94.502 314.114 93.85C314.114 93.21 314.228 92.642 314.456 92.146C314.684 91.65 315.004 91.26 315.416 90.976C315.828 90.692 316.314 90.55 316.874 90.55C317.406 90.55 317.864 90.676 318.248 90.928C318.632 91.176 318.926 91.532 319.13 91.996C319.338 92.456 319.442 93.006 319.442 93.646C319.442 93.754 319.44 93.856 319.436 93.952C319.432 94.044 319.426 94.126 319.418 94.198H315.17ZM316.886 91.378C316.418 91.378 316.026 91.544 315.71 91.876C315.398 92.208 315.22 92.722 315.176 93.418H318.47C318.458 92.742 318.31 92.234 318.026 91.894C317.742 91.55 317.362 91.378 316.886 91.378ZM321.837 88.426C321.837 88.178 321.927 87.97 322.107 87.802C322.291 87.63 322.505 87.544 322.749 87.544C322.997 87.544 323.211 87.63 323.391 87.802C323.571 87.97 323.661 88.178 323.661 88.426C323.661 88.534 323.645 88.644 323.613 88.756C323.581 88.864 323.517 89.016 323.421 89.212L322.449 91.282H321.669L322.143 89.08C322.051 89.008 321.977 88.914 321.921 88.798C321.865 88.682 321.837 88.558 321.837 88.426ZM324.429 88.426C324.429 88.178 324.519 87.97 324.699 87.802C324.883 87.63 325.097 87.544 325.341 87.544C325.593 87.544 325.807 87.63 325.983 87.802C326.163 87.97 326.253 88.178 326.253 88.426C326.253 88.534 326.239 88.644 326.211 88.756C326.183 88.864 326.123 89.016 326.031 89.212L325.047 91.282H324.261L324.747 89.08C324.651 89.008 324.573 88.914 324.513 88.798C324.457 88.682 324.429 88.558 324.429 88.426ZM338.808 86.2V100.6H337.908V86.2H338.808ZM352.274 90.394C352.274 90.642 352.184 90.85 352.004 91.018C351.828 91.186 351.614 91.27 351.362 91.27C351.106 91.27 350.892 91.186 350.72 91.018C350.548 90.85 350.462 90.642 350.462 90.394C350.462 90.294 350.474 90.186 350.498 90.07C350.522 89.95 350.58 89.794 350.672 89.602L351.644 87.532H352.442L351.95 89.734C352.05 89.802 352.128 89.896 352.184 90.016C352.244 90.132 352.274 90.258 352.274 90.394ZM354.866 90.394C354.866 90.642 354.774 90.85 354.59 91.018C354.41 91.186 354.198 91.27 353.954 91.27C353.706 91.27 353.494 91.186 353.318 91.018C353.142 90.85 353.054 90.642 353.054 90.394C353.054 90.294 353.066 90.186 353.09 90.07C353.114 89.95 353.172 89.794 353.264 89.602L354.254 87.532H355.034L354.548 89.734C354.644 89.802 354.72 89.896 354.776 90.016C354.836 90.132 354.866 90.258 354.866 90.394ZM357.61 97V96.226H358.594V91.456H357.61V90.682H359.362L359.548 92.176C359.792 91.656 360.088 91.254 360.436 90.97C360.784 90.686 361.244 90.544 361.816 90.544C361.992 90.544 362.148 90.558 362.284 90.586C362.424 90.61 362.566 90.642 362.71 90.682L362.416 91.582C362.284 91.546 362.164 91.52 362.056 91.504C361.948 91.484 361.824 91.474 361.684 91.474C361.2 91.474 360.784 91.646 360.436 91.99C360.088 92.334 359.81 92.854 359.602 93.55V96.226H360.886V97H357.61ZM361.738 92.818V91.444L361.84 90.682H362.71L362.566 92.818H361.738ZM365.537 94.198C365.557 94.686 365.651 95.086 365.819 95.398C365.987 95.706 366.209 95.934 366.485 96.082C366.761 96.226 367.061 96.298 367.385 96.298C367.709 96.298 368.001 96.25 368.261 96.154C368.525 96.058 368.795 95.916 369.071 95.728L369.545 96.394C369.249 96.626 368.911 96.808 368.531 96.94C368.155 97.072 367.769 97.138 367.373 97.138C366.761 97.138 366.239 97 365.807 96.724C365.375 96.448 365.045 96.064 364.817 95.572C364.593 95.076 364.481 94.502 364.481 93.85C364.481 93.21 364.595 92.642 364.823 92.146C365.051 91.65 365.371 91.26 365.783 90.976C366.195 90.692 366.681 90.55 367.241 90.55C367.773 90.55 368.231 90.676 368.615 90.928C368.999 91.176 369.293 91.532 369.497 91.996C369.705 92.456 369.809 93.006 369.809 93.646C369.809 93.754 369.807 93.856 369.803 93.952C369.799 94.044 369.793 94.126 369.785 94.198H365.537ZM367.253 91.378C366.785 91.378 366.393 91.544 366.077 91.876C365.765 92.208 365.587 92.722 365.543 93.418H368.837C368.825 92.742 368.677 92.234 368.393 91.894C368.109 91.55 367.729 91.378 367.253 91.378ZM375.72 88.012L376.728 88.138V97H375.846L375.75 96.166C375.514 96.502 375.242 96.748 374.934 96.904C374.63 97.06 374.304 97.138 373.956 97.138C373.408 97.138 372.956 97 372.6 96.724C372.244 96.448 371.98 96.064 371.808 95.572C371.636 95.076 371.55 94.502 371.55 93.85C371.55 93.218 371.648 92.654 371.844 92.158C372.04 91.658 372.322 91.266 372.69 90.982C373.062 90.694 373.508 90.55 374.028 90.55C374.392 90.55 374.712 90.614 374.988 90.742C375.264 90.866 375.508 91.05 375.72 91.294V88.012ZM374.292 91.36C373.764 91.36 373.358 91.566 373.074 91.978C372.79 92.39 372.648 93.014 372.648 93.85C372.648 94.394 372.706 94.85 372.822 95.218C372.938 95.586 373.108 95.862 373.332 96.046C373.56 96.23 373.838 96.322 374.166 96.322C374.526 96.322 374.832 96.22 375.084 96.016C375.34 95.812 375.552 95.582 375.72 95.326V92.17C375.548 91.914 375.34 91.716 375.096 91.576C374.852 91.432 374.584 91.36 374.292 91.36ZM379.4 88.426C379.4 88.178 379.49 87.97 379.67 87.802C379.854 87.63 380.068 87.544 380.312 87.544C380.56 87.544 380.774 87.63 380.954 87.802C381.134 87.97 381.224 88.178 381.224 88.426C381.224 88.534 381.208 88.644 381.176 88.756C381.144 88.864 381.08 89.016 380.984 89.212L380.012 91.282H379.232L379.706 89.08C379.614 89.008 379.54 88.914 379.484 88.798C379.428 88.682 379.4 88.558 379.4 88.426ZM381.992 88.426C381.992 88.178 382.082 87.97 382.262 87.802C382.446 87.63 382.66 87.544 382.904 87.544C383.156 87.544 383.37 87.63 383.546 87.802C383.726 87.97 383.816 88.178 383.816 88.426C383.816 88.534 383.802 88.644 383.774 88.756C383.746 88.864 383.686 89.016 383.594 89.212L382.61 91.282H381.824L382.31 89.08C382.214 89.008 382.136 88.914 382.076 88.798C382.02 88.682 381.992 88.558 381.992 88.426Z" fill="black"/>
<path d="M176.126 90.394C176.126 90.642 176.036 90.85 175.856 91.018C175.68 91.186 175.466 91.27 175.214 91.27C174.958 91.27 174.744 91.186 174.572 91.018C174.4 90.85 174.314 90.642 174.314 90.394C174.314 90.294 174.326 90.186 174.35 90.07C174.374 89.95 174.432 89.794 174.524 89.602L175.496 87.532H176.294L175.802 89.734C175.902 89.802 175.98 89.896 176.036 90.016C176.096 90.132 176.126 90.258 176.126 90.394ZM178.718 90.394C178.718 90.642 178.626 90.85 178.442 91.018C178.262 91.186 178.05 91.27 177.806 91.27C177.558 91.27 177.346 91.186 177.17 91.018C176.994 90.85 176.906 90.642 176.906 90.394C176.906 90.294 176.918 90.186 176.942 90.07C176.966 89.95 177.024 89.794 177.116 89.602L178.106 87.532H178.886L178.4 89.734C178.496 89.802 178.572 89.896 178.628 90.016C178.688 90.132 178.718 90.258 178.718 90.394ZM183.807 90.55C184.403 90.55 184.901 90.686 185.301 90.958C185.705 91.226 186.007 91.606 186.207 92.098C186.411 92.59 186.513 93.17 186.513 93.838C186.513 94.482 186.409 95.052 186.201 95.548C185.993 96.044 185.687 96.434 185.283 96.718C184.883 96.998 184.387 97.138 183.795 97.138C183.203 97.138 182.705 97.002 182.301 96.73C181.897 96.458 181.591 96.076 181.383 95.584C181.179 95.088 181.077 94.51 181.077 93.85C181.077 93.198 181.181 92.624 181.389 92.128C181.597 91.632 181.903 91.246 182.307 90.97C182.715 90.69 183.215 90.55 183.807 90.55ZM183.807 91.372C183.263 91.372 182.851 91.574 182.571 91.978C182.295 92.378 182.157 93.002 182.157 93.85C182.157 94.682 182.293 95.3 182.565 95.704C182.841 96.108 183.251 96.31 183.795 96.31C184.339 96.31 184.747 96.108 185.019 95.704C185.295 95.3 185.433 94.678 185.433 93.838C185.433 92.998 185.297 92.378 185.025 91.978C184.753 91.574 184.347 91.372 183.807 91.372ZM188.657 97V96.226H189.641V91.456H188.657V90.682H190.409L190.595 92.176C190.839 91.656 191.135 91.254 191.483 90.97C191.831 90.686 192.291 90.544 192.863 90.544C193.039 90.544 193.195 90.558 193.331 90.586C193.471 90.61 193.613 90.642 193.757 90.682L193.463 91.582C193.331 91.546 193.211 91.52 193.103 91.504C192.995 91.484 192.871 91.474 192.731 91.474C192.247 91.474 191.831 91.646 191.483 91.99C191.135 92.334 190.857 92.854 190.649 93.55V96.226H191.933V97H188.657ZM192.785 92.818V91.444L192.887 90.682H193.757L193.613 92.818H192.785ZM200.316 95.62C200.316 95.872 200.358 96.056 200.442 96.172C200.526 96.288 200.656 96.374 200.832 96.43L200.586 97.138C200.314 97.102 200.076 97.016 199.872 96.88C199.668 96.74 199.52 96.53 199.428 96.25C199.2 96.542 198.916 96.764 198.576 96.916C198.236 97.064 197.86 97.138 197.448 97.138C196.816 97.138 196.318 96.96 195.954 96.604C195.59 96.248 195.408 95.776 195.408 95.188C195.408 94.536 195.662 94.036 196.17 93.688C196.678 93.34 197.412 93.166 198.372 93.166H199.302V92.638C199.302 92.182 199.168 91.86 198.9 91.672C198.636 91.48 198.268 91.384 197.796 91.384C197.588 91.384 197.344 91.41 197.064 91.462C196.784 91.51 196.48 91.592 196.152 91.708L195.888 90.946C196.276 90.802 196.64 90.7 196.98 90.64C197.32 90.58 197.644 90.55 197.952 90.55C198.74 90.55 199.33 90.734 199.722 91.102C200.118 91.466 200.316 91.962 200.316 92.59V95.62ZM197.706 96.37C198.018 96.37 198.316 96.292 198.6 96.136C198.884 95.976 199.118 95.756 199.302 95.476V93.85H198.39C197.694 93.85 197.202 93.97 196.914 94.21C196.63 94.45 196.488 94.772 196.488 95.176C196.488 95.568 196.588 95.866 196.788 96.07C196.992 96.27 197.298 96.37 197.706 96.37ZM202.987 97V90.682H203.845L203.923 91.558C204.179 91.234 204.499 90.986 204.883 90.814C205.271 90.638 205.647 90.55 206.011 90.55C206.631 90.55 207.081 90.714 207.361 91.042C207.645 91.37 207.787 91.826 207.787 92.41V97H206.779V93.154C206.779 92.722 206.755 92.374 206.707 92.11C206.659 91.842 206.559 91.648 206.407 91.528C206.255 91.404 206.019 91.342 205.699 91.342C205.451 91.342 205.217 91.396 204.997 91.504C204.781 91.612 204.587 91.748 204.415 91.912C204.247 92.072 204.107 92.234 203.995 92.398V97H202.987ZM215.319 90.01L215.631 90.958C215.363 91.042 215.077 91.094 214.773 91.114C214.469 91.134 214.139 91.144 213.783 91.144C214.147 91.312 214.421 91.53 214.605 91.798C214.789 92.062 214.881 92.374 214.881 92.734C214.881 93.15 214.787 93.52 214.599 93.844C214.411 94.168 214.139 94.422 213.783 94.606C213.431 94.79 213.005 94.882 212.505 94.882C212.293 94.882 212.115 94.872 211.971 94.852C211.831 94.832 211.695 94.802 211.563 94.762C211.467 94.826 211.387 94.914 211.323 95.026C211.263 95.138 211.233 95.254 211.233 95.374C211.233 95.526 211.293 95.652 211.413 95.752C211.533 95.852 211.755 95.902 212.079 95.902H213.219C213.643 95.902 214.023 95.978 214.359 96.13C214.699 96.282 214.965 96.486 215.157 96.742C215.353 96.998 215.451 97.29 215.451 97.618C215.451 98.238 215.187 98.714 214.659 99.046C214.135 99.378 213.393 99.544 212.433 99.544C211.761 99.544 211.231 99.474 210.843 99.334C210.455 99.198 210.177 98.988 210.009 98.704C209.845 98.424 209.763 98.07 209.763 97.642H210.675C210.675 97.886 210.723 98.088 210.819 98.248C210.915 98.408 211.089 98.526 211.341 98.602C211.593 98.682 211.955 98.722 212.427 98.722C212.891 98.722 213.269 98.682 213.561 98.602C213.857 98.526 214.075 98.41 214.215 98.254C214.359 98.102 214.431 97.912 214.431 97.684C214.431 97.384 214.295 97.158 214.023 97.006C213.751 96.854 213.411 96.778 213.003 96.778H211.875C211.331 96.778 210.929 96.658 210.669 96.418C210.413 96.178 210.285 95.902 210.285 95.59C210.285 95.386 210.343 95.188 210.459 94.996C210.579 94.804 210.753 94.634 210.981 94.486C210.617 94.294 210.349 94.056 210.177 93.772C210.005 93.488 209.919 93.144 209.919 92.74C209.919 92.312 210.025 91.934 210.237 91.606C210.449 91.274 210.745 91.014 211.125 90.826C211.505 90.638 211.943 90.544 212.439 90.544C212.971 90.54 213.403 90.518 213.735 90.478C214.067 90.434 214.351 90.372 214.587 90.292C214.827 90.212 215.071 90.118 215.319 90.01ZM212.439 91.282C211.931 91.282 211.555 91.42 211.311 91.696C211.071 91.968 210.951 92.316 210.951 92.74C210.951 93.168 211.075 93.52 211.323 93.796C211.571 94.072 211.951 94.21 212.463 94.21C212.911 94.21 213.251 94.08 213.483 93.82C213.719 93.56 213.837 93.198 213.837 92.734C213.837 92.258 213.719 91.898 213.483 91.654C213.251 91.406 212.903 91.282 212.439 91.282ZM218.17 94.198C218.19 94.686 218.284 95.086 218.452 95.398C218.62 95.706 218.842 95.934 219.118 96.082C219.394 96.226 219.694 96.298 220.018 96.298C220.342 96.298 220.634 96.25 220.894 96.154C221.158 96.058 221.428 95.916 221.704 95.728L222.178 96.394C221.882 96.626 221.544 96.808 221.164 96.94C220.788 97.072 220.402 97.138 220.006 97.138C219.394 97.138 218.872 97 218.44 96.724C218.008 96.448 217.678 96.064 217.45 95.572C217.226 95.076 217.114 94.502 217.114 93.85C217.114 93.21 217.228 92.642 217.456 92.146C217.684 91.65 218.004 91.26 218.416 90.976C218.828 90.692 219.314 90.55 219.874 90.55C220.406 90.55 220.864 90.676 221.248 90.928C221.632 91.176 221.926 91.532 222.13 91.996C222.338 92.456 222.442 93.006 222.442 93.646C222.442 93.754 222.44 93.856 222.436 93.952C222.432 94.044 222.426 94.126 222.418 94.198H218.17ZM219.886 91.378C219.418 91.378 219.026 91.544 218.71 91.876C218.398 92.208 218.22 92.722 218.176 93.418H221.47C221.458 92.742 221.31 92.234 221.026 91.894C220.742 91.55 220.362 91.378 219.886 91.378ZM224.837 88.426C224.837 88.178 224.927 87.97 225.107 87.802C225.291 87.63 225.505 87.544 225.749 87.544C225.997 87.544 226.211 87.63 226.391 87.802C226.571 87.97 226.661 88.178 226.661 88.426C226.661 88.534 226.645 88.644 226.613 88.756C226.581 88.864 226.517 89.016 226.421 89.212L225.449 91.282H224.669L225.143 89.08C225.051 89.008 224.977 88.914 224.921 88.798C224.865 88.682 224.837 88.558 224.837 88.426ZM227.429 88.426C227.429 88.178 227.519 87.97 227.699 87.802C227.883 87.63 228.097 87.544 228.341 87.544C228.593 87.544 228.807 87.63 228.983 87.802C229.163 87.97 229.253 88.178 229.253 88.426C229.253 88.534 229.239 88.644 229.211 88.756C229.183 88.864 229.123 89.016 229.031 89.212L228.047 91.282H227.261L227.747 89.08C227.651 89.008 227.573 88.914 227.513 88.798C227.457 88.682 227.429 88.558 227.429 88.426Z" fill="black"/>
</svg>
