<svg width="398" height="244" viewBox="0 0 398 244" fill="none" xmlns="http://www.w3.org/2000/svg">
<path d="M398 153C398 203.258 340.469 244 269.5 244C198.531 244 141 203.258 141 153C141 102.742 198.531 62 269.5 62C340.469 62 398 102.742 398 153Z" fill="#B1D6FF" fill-opacity="0.2"/>
<path d="M397 153C397 177.718 382.854 200.194 359.785 216.531C336.719 232.865 304.802 243 269.5 243C234.198 243 202.281 232.865 179.215 216.531C156.146 200.194 142 177.718 142 153C142 128.282 156.146 105.806 179.215 89.4694C202.281 73.1347 234.198 63 269.5 63C304.802 63 336.719 73.1347 359.785 89.4694C382.854 105.806 397 128.282 397 153Z" stroke="#3077C6" stroke-opacity="0.3" stroke-width="2"/>
<path d="M257 153C257 203.258 199.469 244 128.5 244C57.5314 244 0 203.258 0 153C0 102.742 57.5314 62 128.5 62C199.469 62 257 102.742 257 153Z" fill="#B1D6FF" fill-opacity="0.2"/>
<path d="M256 153C256 177.718 241.854 200.194 218.785 216.531C195.719 232.865 163.802 243 128.5 243C93.1982 243 61.2807 232.865 38.2147 216.531C15.1463 200.194 1 177.718 1 153C1 128.282 15.1463 105.806 38.2147 89.4694C61.2807 73.1347 93.1982 63 128.5 63C163.802 63 195.719 73.1347 218.785 89.4694C241.854 105.806 256 128.282 256 153Z" stroke="#3077C6" stroke-opacity="0.3" stroke-width="2"/>
<mask id="path-5-inside-1_33_30" fill="white">
<path fill-rule="evenodd" clip-rule="evenodd" d="M199 229.094C178.759 238.517 154.534 244 128.5 244C57.5314 244 0 203.258 0 153C0 102.742 57.5314 62 128.5 62C154.534 62 178.759 67.4826 199 76.9063C219.241 67.4826 243.466 62 269.5 62C340.469 62 398 102.742 398 153C398 203.258 340.469 244 269.5 244C243.466 244 219.241 238.517 199 229.094Z"/>
</mask>
<path fill-rule="evenodd" clip-rule="evenodd" d="M199 229.094C178.759 238.517 154.534 244 128.5 244C57.5314 244 0 203.258 0 153C0 102.742 57.5314 62 128.5 62C154.534 62 178.759 67.4826 199 76.9063C219.241 67.4826 243.466 62 269.5 62C340.469 62 398 102.742 398 153C398 203.258 340.469 244 269.5 244C243.466 244 219.241 238.517 199 229.094Z" fill="#B1D6FF" fill-opacity="0.5"/>
<path d="M199 229.094L199.844 227.281L199 226.888L198.156 227.281L199 229.094ZM199 76.9063L198.156 78.7194L199 79.1124L199.844 78.7194L199 76.9063ZM198.156 227.281C178.194 236.575 154.258 242 128.5 242V246C154.809 246 179.325 240.46 199.844 230.907L198.156 227.281ZM128.5 242C93.3807 242 61.6707 231.916 38.7926 215.715C15.9097 199.51 2 177.308 2 153H-2C-2 178.95 12.856 202.248 36.4809 218.979C60.1107 235.713 92.6507 246 128.5 246V242ZM2 153C2 128.692 15.9097 106.49 38.7926 90.2855C61.6707 74.0839 93.3807 64 128.5 64V60C92.6507 60 60.1107 70.2872 36.4809 87.0211C12.856 103.752 -2 127.05 -2 153H2ZM128.5 64C154.258 64 178.194 69.4255 198.156 78.7194L199.844 75.0932C179.325 65.5397 154.809 60 128.5 60V64ZM199.844 78.7194C219.806 69.4255 243.742 64 269.5 64V60C243.191 60 218.675 65.5397 198.156 75.0932L199.844 78.7194ZM269.5 64C304.619 64 336.329 74.0839 359.207 90.2855C382.09 106.49 396 128.692 396 153H400C400 127.05 385.144 103.752 361.519 87.0211C337.889 70.2872 305.349 60 269.5 60V64ZM396 153C396 177.308 382.09 199.51 359.207 215.715C336.329 231.916 304.619 242 269.5 242V246C305.349 246 337.889 235.713 361.519 218.979C385.144 202.248 400 178.95 400 153H396ZM269.5 242C243.742 242 219.806 236.575 199.844 227.281L198.156 230.907C218.675 240.46 243.191 246 269.5 246V242Z" fill="#3077C6" mask="url(#path-5-inside-1_33_30)"/>
<path d="M7.126 152.394C7.126 152.642 7.036 152.85 6.856 153.018C6.68 153.186 6.466 153.27 6.214 153.27C5.958 153.27 5.744 153.186 5.572 153.018C5.4 152.85 5.314 152.642 5.314 152.394C5.314 152.294 5.326 152.186 5.35 152.07C5.374 151.95 5.432 151.794 5.524 151.602L6.496 149.532H7.294L6.802 151.734C6.902 151.802 6.98 151.896 7.036 152.016C7.096 152.132 7.126 152.258 7.126 152.394ZM9.718 152.394C9.718 152.642 9.626 152.85 9.442 153.018C9.262 153.186 9.05 153.27 8.806 153.27C8.558 153.27 8.346 153.186 8.17 153.018C7.994 152.85 7.906 152.642 7.906 152.394C7.906 152.294 7.918 152.186 7.942 152.07C7.966 151.95 8.024 151.794 8.116 151.602L9.106 149.532H9.886L9.4 151.734C9.496 151.802 9.572 151.896 9.628 152.016C9.688 152.132 9.718 152.258 9.718 152.394ZM17.5373 152.01L17.8493 152.958C17.5813 153.042 17.2953 153.094 16.9913 153.114C16.6873 153.134 16.3573 153.144 16.0013 153.144C16.3653 153.312 16.6393 153.53 16.8233 153.798C17.0073 154.062 17.0993 154.374 17.0993 154.734C17.0993 155.15 17.0053 155.52 16.8173 155.844C16.6293 156.168 16.3573 156.422 16.0013 156.606C15.6493 156.79 15.2233 156.882 14.7233 156.882C14.5113 156.882 14.3333 156.872 14.1893 156.852C14.0493 156.832 13.9133 156.802 13.7813 156.762C13.6853 156.826 13.6053 156.914 13.5413 157.026C13.4813 157.138 13.4513 157.254 13.4513 157.374C13.4513 157.526 13.5113 157.652 13.6313 157.752C13.7513 157.852 13.9733 157.902 14.2973 157.902H15.4373C15.8613 157.902 16.2413 157.978 16.5773 158.13C16.9173 158.282 17.1833 158.486 17.3753 158.742C17.5713 158.998 17.6693 159.29 17.6693 159.618C17.6693 160.238 17.4053 160.714 16.8773 161.046C16.3533 161.378 15.6113 161.544 14.6513 161.544C13.9793 161.544 13.4493 161.474 13.0613 161.334C12.6733 161.198 12.3953 160.988 12.2273 160.704C12.0633 160.424 11.9813 160.07 11.9813 159.642H12.8933C12.8933 159.886 12.9413 160.088 13.0373 160.248C13.1333 160.408 13.3073 160.526 13.5593 160.602C13.8113 160.682 14.1733 160.722 14.6453 160.722C15.1093 160.722 15.4873 160.682 15.7793 160.602C16.0753 160.526 16.2933 160.41 16.4333 160.254C16.5773 160.102 16.6493 159.912 16.6493 159.684C16.6493 159.384 16.5133 159.158 16.2413 159.006C15.9693 158.854 15.6293 158.778 15.2213 158.778H14.0933C13.5493 158.778 13.1473 158.658 12.8873 158.418C12.6313 158.178 12.5033 157.902 12.5033 157.59C12.5033 157.386 12.5613 157.188 12.6773 156.996C12.7973 156.804 12.9713 156.634 13.1993 156.486C12.8353 156.294 12.5673 156.056 12.3953 155.772C12.2233 155.488 12.1373 155.144 12.1373 154.74C12.1373 154.312 12.2433 153.934 12.4553 153.606C12.6673 153.274 12.9633 153.014 13.3433 152.826C13.7233 152.638 14.1613 152.544 14.6573 152.544C15.1893 152.54 15.6213 152.518 15.9533 152.478C16.2853 152.434 16.5693 152.372 16.8053 152.292C17.0453 152.212 17.2893 152.118 17.5373 152.01ZM14.6573 153.282C14.1493 153.282 13.7733 153.42 13.5293 153.696C13.2893 153.968 13.1693 154.316 13.1693 154.74C13.1693 155.168 13.2933 155.52 13.5413 155.796C13.7893 156.072 14.1693 156.21 14.6813 156.21C15.1293 156.21 15.4693 156.08 15.7013 155.82C15.9373 155.56 16.0553 155.198 16.0553 154.734C16.0553 154.258 15.9373 153.898 15.7013 153.654C15.4693 153.406 15.1213 153.282 14.6573 153.282ZM19.6566 159V158.226H20.6406V153.456H19.6566V152.682H21.4086L21.5946 154.176C21.8386 153.656 22.1346 153.254 22.4826 152.97C22.8306 152.686 23.2906 152.544 23.8626 152.544C24.0386 152.544 24.1946 152.558 24.3306 152.586C24.4706 152.61 24.6126 152.642 24.7566 152.682L24.4626 153.582C24.3306 153.546 24.2106 153.52 24.1026 153.504C23.9946 153.484 23.8706 153.474 23.7306 153.474C23.2466 153.474 22.8306 153.646 22.4826 153.99C22.1346 154.334 21.8566 154.854 21.6486 155.55V158.226H22.9326V159H19.6566ZM23.7846 154.818V153.444L23.8866 152.682H24.7566L24.6126 154.818H23.7846ZM27.5839 156.198C27.6039 156.686 27.6979 157.086 27.8659 157.398C28.0339 157.706 28.2559 157.934 28.5319 158.082C28.8079 158.226 29.1079 158.298 29.4319 158.298C29.7559 158.298 30.0479 158.25 30.3079 158.154C30.5719 158.058 30.8419 157.916 31.1179 157.728L31.5919 158.394C31.2959 158.626 30.9579 158.808 30.5779 158.94C30.2019 159.072 29.8159 159.138 29.4199 159.138C28.8079 159.138 28.2859 159 27.8539 158.724C27.4219 158.448 27.0919 158.064 26.8639 157.572C26.6399 157.076 26.5279 156.502 26.5279 155.85C26.5279 155.21 26.6419 154.642 26.8699 154.146C27.0979 153.65 27.4179 153.26 27.8299 152.976C28.2419 152.692 28.7279 152.55 29.2879 152.55C29.8199 152.55 30.2779 152.676 30.6619 152.928C31.0459 153.176 31.3399 153.532 31.5439 153.996C31.7519 154.456 31.8559 155.006 31.8559 155.646C31.8559 155.754 31.8539 155.856 31.8499 155.952C31.8459 156.044 31.8399 156.126 31.8319 156.198H27.5839ZM29.2999 153.378C28.8319 153.378 28.4399 153.544 28.1239 153.876C27.8119 154.208 27.6339 154.722 27.5899 155.418H30.8839C30.8719 154.742 30.7239 154.234 30.4399 153.894C30.1559 153.55 29.7759 153.378 29.2999 153.378ZM34.7793 156.198C34.7993 156.686 34.8933 157.086 35.0613 157.398C35.2293 157.706 35.4513 157.934 35.7273 158.082C36.0033 158.226 36.3033 158.298 36.6273 158.298C36.9513 158.298 37.2433 158.25 37.5033 158.154C37.7673 158.058 38.0373 157.916 38.3133 157.728L38.7873 158.394C38.4913 158.626 38.1533 158.808 37.7733 158.94C37.3973 159.072 37.0113 159.138 36.6153 159.138C36.0033 159.138 35.4813 159 35.0493 158.724C34.6173 158.448 34.2873 158.064 34.0593 157.572C33.8353 157.076 33.7233 156.502 33.7233 155.85C33.7233 155.21 33.8373 154.642 34.0653 154.146C34.2933 153.65 34.6133 153.26 35.0253 152.976C35.4373 152.692 35.9233 152.55 36.4833 152.55C37.0153 152.55 37.4733 152.676 37.8573 152.928C38.2413 153.176 38.5353 153.532 38.7393 153.996C38.9473 154.456 39.0513 155.006 39.0513 155.646C39.0513 155.754 39.0493 155.856 39.0453 155.952C39.0413 156.044 39.0353 156.126 39.0273 156.198H34.7793ZM36.4953 153.378C36.0273 153.378 35.6353 153.544 35.3193 153.876C35.0073 154.208 34.8293 154.722 34.7853 155.418H38.0793C38.0673 154.742 37.9193 154.234 37.6353 153.894C37.3513 153.55 36.9713 153.378 36.4953 153.378ZM41.1826 159V152.682H42.0406L42.1186 153.558C42.3746 153.234 42.6946 152.986 43.0786 152.814C43.4666 152.638 43.8426 152.55 44.2066 152.55C44.8266 152.55 45.2766 152.714 45.5566 153.042C45.8406 153.37 45.9826 153.826 45.9826 154.41V159H44.9746V155.154C44.9746 154.722 44.9506 154.374 44.9026 154.11C44.8546 153.842 44.7546 153.648 44.6026 153.528C44.4506 153.404 44.2146 153.342 43.8946 153.342C43.6466 153.342 43.4126 153.396 43.1926 153.504C42.9766 153.612 42.7826 153.748 42.6106 153.912C42.4426 154.072 42.3026 154.234 42.1906 154.398V159H41.1826ZM48.6419 150.426C48.6419 150.178 48.7319 149.97 48.9119 149.802C49.0959 149.63 49.3099 149.544 49.5539 149.544C49.8019 149.544 50.0159 149.63 50.1959 149.802C50.3759 149.97 50.4659 150.178 50.4659 150.426C50.4659 150.534 50.4499 150.644 50.4179 150.756C50.3859 150.864 50.3219 151.016 50.2259 151.212L49.2539 153.282H48.4739L48.9479 151.08C48.8559 151.008 48.7819 150.914 48.7259 150.798C48.6699 150.682 48.6419 150.558 48.6419 150.426ZM51.2339 150.426C51.2339 150.178 51.3239 149.97 51.5039 149.802C51.6879 149.63 51.9019 149.544 52.1459 149.544C52.3979 149.544 52.6119 149.63 52.7879 149.802C52.9679 149.97 53.0579 150.178 53.0579 150.426C53.0579 150.534 53.0439 150.644 53.0159 150.756C52.9879 150.864 52.9279 151.016 52.8359 151.212L51.8519 153.282H51.0659L51.5519 151.08C51.4559 151.008 51.3779 150.914 51.3179 150.798C51.2619 150.682 51.2339 150.558 51.2339 150.426ZM65.6125 148.2V162.6H64.7125V148.2H65.6125ZM79.0791 152.394C79.0791 152.642 78.9891 152.85 78.8091 153.018C78.6331 153.186 78.4191 153.27 78.1671 153.27C77.9111 153.27 77.6971 153.186 77.5251 153.018C77.3531 152.85 77.2671 152.642 77.2671 152.394C77.2671 152.294 77.2791 152.186 77.3031 152.07C77.3271 151.95 77.3851 151.794 77.4771 151.602L78.4491 149.532H79.2471L78.7551 151.734C78.8551 151.802 78.9331 151.896 78.9891 152.016C79.0491 152.132 79.0791 152.258 79.0791 152.394ZM81.6711 152.394C81.6711 152.642 81.5791 152.85 81.3951 153.018C81.2151 153.186 81.0031 153.27 80.7591 153.27C80.5111 153.27 80.2991 153.186 80.1231 153.018C79.9471 152.85 79.8591 152.642 79.8591 152.394C79.8591 152.294 79.8711 152.186 79.8951 152.07C79.9191 151.95 79.9771 151.794 80.0691 151.602L81.0591 149.532H81.8391L81.3531 151.734C81.4491 151.802 81.5251 151.896 81.5811 152.016C81.6411 152.132 81.6711 152.258 81.6711 152.394ZM86.7604 152.55C87.3564 152.55 87.8544 152.686 88.2544 152.958C88.6584 153.226 88.9604 153.606 89.1604 154.098C89.3644 154.59 89.4664 155.17 89.4664 155.838C89.4664 156.482 89.3624 157.052 89.1544 157.548C88.9464 158.044 88.6404 158.434 88.2364 158.718C87.8364 158.998 87.3404 159.138 86.7484 159.138C86.1564 159.138 85.6584 159.002 85.2544 158.73C84.8504 158.458 84.5444 158.076 84.3364 157.584C84.1324 157.088 84.0304 156.51 84.0304 155.85C84.0304 155.198 84.1344 154.624 84.3424 154.128C84.5504 153.632 84.8564 153.246 85.2604 152.97C85.6684 152.69 86.1684 152.55 86.7604 152.55ZM86.7604 153.372C86.2164 153.372 85.8044 153.574 85.5244 153.978C85.2484 154.378 85.1104 155.002 85.1104 155.85C85.1104 156.682 85.2464 157.3 85.5184 157.704C85.7944 158.108 86.2044 158.31 86.7484 158.31C87.2924 158.31 87.7004 158.108 87.9724 157.704C88.2484 157.3 88.3864 156.678 88.3864 155.838C88.3864 154.998 88.2504 154.378 87.9784 153.978C87.7064 153.574 87.3004 153.372 86.7604 153.372ZM91.6098 159V158.226H92.5938V153.456H91.6098V152.682H93.3618L93.5478 154.176C93.7918 153.656 94.0878 153.254 94.4358 152.97C94.7838 152.686 95.2438 152.544 95.8158 152.544C95.9918 152.544 96.1478 152.558 96.2838 152.586C96.4238 152.61 96.5658 152.642 96.7098 152.682L96.4158 153.582C96.2838 153.546 96.1638 153.52 96.0558 153.504C95.9478 153.484 95.8238 153.474 95.6838 153.474C95.1998 153.474 94.7838 153.646 94.4358 153.99C94.0878 154.334 93.8098 154.854 93.6018 155.55V158.226H94.8858V159H91.6098ZM95.7378 154.818V153.444L95.8398 152.682H96.7098L96.5658 154.818H95.7378ZM103.269 157.62C103.269 157.872 103.311 158.056 103.395 158.172C103.479 158.288 103.609 158.374 103.785 158.43L103.539 159.138C103.267 159.102 103.029 159.016 102.825 158.88C102.621 158.74 102.473 158.53 102.381 158.25C102.153 158.542 101.869 158.764 101.529 158.916C101.189 159.064 100.813 159.138 100.401 159.138C99.7691 159.138 99.2711 158.96 98.9071 158.604C98.5431 158.248 98.3611 157.776 98.3611 157.188C98.3611 156.536 98.6151 156.036 99.1231 155.688C99.6311 155.34 100.365 155.166 101.325 155.166H102.255V154.638C102.255 154.182 102.121 153.86 101.853 153.672C101.589 153.48 101.221 153.384 100.749 153.384C100.541 153.384 100.297 153.41 100.017 153.462C99.7371 153.51 99.4331 153.592 99.1051 153.708L98.8411 152.946C99.2291 152.802 99.5931 152.7 99.9331 152.64C100.273 152.58 100.597 152.55 100.905 152.55C101.693 152.55 102.283 152.734 102.675 153.102C103.071 153.466 103.269 153.962 103.269 154.59V157.62ZM100.659 158.37C100.971 158.37 101.269 158.292 101.553 158.136C101.837 157.976 102.071 157.756 102.255 157.476V155.85H101.343C100.647 155.85 100.155 155.97 99.8671 156.21C99.5831 156.45 99.4411 156.772 99.4411 157.176C99.4411 157.568 99.5411 157.866 99.7411 158.07C99.9451 158.27 100.251 158.37 100.659 158.37ZM105.94 159V152.682H106.798L106.876 153.558C107.132 153.234 107.452 152.986 107.836 152.814C108.224 152.638 108.6 152.55 108.964 152.55C109.584 152.55 110.034 152.714 110.314 153.042C110.598 153.37 110.74 153.826 110.74 154.41V159H109.732V155.154C109.732 154.722 109.708 154.374 109.66 154.11C109.612 153.842 109.512 153.648 109.36 153.528C109.208 153.404 108.972 153.342 108.652 153.342C108.404 153.342 108.17 153.396 107.95 153.504C107.734 153.612 107.54 153.748 107.368 153.912C107.2 154.072 107.06 154.234 106.948 154.398V159H105.94ZM118.272 152.01L118.584 152.958C118.316 153.042 118.03 153.094 117.726 153.114C117.422 153.134 117.092 153.144 116.736 153.144C117.1 153.312 117.374 153.53 117.558 153.798C117.742 154.062 117.834 154.374 117.834 154.734C117.834 155.15 117.74 155.52 117.552 155.844C117.364 156.168 117.092 156.422 116.736 156.606C116.384 156.79 115.958 156.882 115.458 156.882C115.246 156.882 115.068 156.872 114.924 156.852C114.784 156.832 114.648 156.802 114.516 156.762C114.42 156.826 114.34 156.914 114.276 157.026C114.216 157.138 114.186 157.254 114.186 157.374C114.186 157.526 114.246 157.652 114.366 157.752C114.486 157.852 114.708 157.902 115.032 157.902H116.172C116.596 157.902 116.976 157.978 117.312 158.13C117.652 158.282 117.918 158.486 118.11 158.742C118.306 158.998 118.404 159.29 118.404 159.618C118.404 160.238 118.14 160.714 117.612 161.046C117.088 161.378 116.346 161.544 115.386 161.544C114.714 161.544 114.184 161.474 113.796 161.334C113.408 161.198 113.13 160.988 112.962 160.704C112.798 160.424 112.716 160.07 112.716 159.642H113.628C113.628 159.886 113.676 160.088 113.772 160.248C113.868 160.408 114.042 160.526 114.294 160.602C114.546 160.682 114.908 160.722 115.38 160.722C115.844 160.722 116.222 160.682 116.514 160.602C116.81 160.526 117.028 160.41 117.168 160.254C117.312 160.102 117.384 159.912 117.384 159.684C117.384 159.384 117.248 159.158 116.976 159.006C116.704 158.854 116.364 158.778 115.956 158.778H114.828C114.284 158.778 113.882 158.658 113.622 158.418C113.366 158.178 113.238 157.902 113.238 157.59C113.238 157.386 113.296 157.188 113.412 156.996C113.532 156.804 113.706 156.634 113.934 156.486C113.57 156.294 113.302 156.056 113.13 155.772C112.958 155.488 112.872 155.144 112.872 154.74C112.872 154.312 112.978 153.934 113.19 153.606C113.402 153.274 113.698 153.014 114.078 152.826C114.458 152.638 114.896 152.544 115.392 152.544C115.924 152.54 116.356 152.518 116.688 152.478C117.02 152.434 117.304 152.372 117.54 152.292C117.78 152.212 118.024 152.118 118.272 152.01ZM115.392 153.282C114.884 153.282 114.508 153.42 114.264 153.696C114.024 153.968 113.904 154.316 113.904 154.74C113.904 155.168 114.028 155.52 114.276 155.796C114.524 156.072 114.904 156.21 115.416 156.21C115.864 156.21 116.204 156.08 116.436 155.82C116.672 155.56 116.79 155.198 116.79 154.734C116.79 154.258 116.672 153.898 116.436 153.654C116.204 153.406 115.856 153.282 115.392 153.282ZM121.123 156.198C121.143 156.686 121.237 157.086 121.405 157.398C121.573 157.706 121.795 157.934 122.071 158.082C122.347 158.226 122.647 158.298 122.971 158.298C123.295 158.298 123.587 158.25 123.847 158.154C124.111 158.058 124.381 157.916 124.657 157.728L125.131 158.394C124.835 158.626 124.497 158.808 124.117 158.94C123.741 159.072 123.355 159.138 122.959 159.138C122.347 159.138 121.825 159 121.393 158.724C120.961 158.448 120.631 158.064 120.403 157.572C120.179 157.076 120.067 156.502 120.067 155.85C120.067 155.21 120.181 154.642 120.409 154.146C120.637 153.65 120.957 153.26 121.369 152.976C121.781 152.692 122.267 152.55 122.827 152.55C123.359 152.55 123.817 152.676 124.201 152.928C124.585 153.176 124.879 153.532 125.083 153.996C125.291 154.456 125.395 155.006 125.395 155.646C125.395 155.754 125.393 155.856 125.389 155.952C125.385 156.044 125.379 156.126 125.371 156.198H121.123ZM122.839 153.378C122.371 153.378 121.979 153.544 121.663 153.876C121.351 154.208 121.173 154.722 121.129 155.418H124.423C124.411 154.742 124.263 154.234 123.979 153.894C123.695 153.55 123.315 153.378 122.839 153.378ZM127.79 150.426C127.79 150.178 127.88 149.97 128.06 149.802C128.244 149.63 128.458 149.544 128.702 149.544C128.95 149.544 129.164 149.63 129.344 149.802C129.524 149.97 129.614 150.178 129.614 150.426C129.614 150.534 129.598 150.644 129.566 150.756C129.534 150.864 129.47 151.016 129.374 151.212L128.402 153.282H127.622L128.096 151.08C128.004 151.008 127.93 150.914 127.874 150.798C127.818 150.682 127.79 150.558 127.79 150.426ZM130.382 150.426C130.382 150.178 130.472 149.97 130.652 149.802C130.836 149.63 131.05 149.544 131.294 149.544C131.546 149.544 131.76 149.63 131.936 149.802C132.116 149.97 132.206 150.178 132.206 150.426C132.206 150.534 132.192 150.644 132.164 150.756C132.136 150.864 132.076 151.016 131.984 151.212L131 153.282H130.214L130.7 151.08C130.604 151.008 130.526 150.914 130.466 150.798C130.41 150.682 130.382 150.558 130.382 150.426Z" fill="black"/>
<path d="M109.126 36.394C109.126 36.642 109.036 36.85 108.856 37.018C108.68 37.186 108.466 37.27 108.214 37.27C107.958 37.27 107.744 37.186 107.572 37.018C107.4 36.85 107.314 36.642 107.314 36.394C107.314 36.294 107.326 36.186 107.35 36.07C107.374 35.95 107.432 35.794 107.524 35.602L108.496 33.532H109.294L108.802 35.734C108.902 35.802 108.98 35.896 109.036 36.016C109.096 36.132 109.126 36.258 109.126 36.394ZM111.718 36.394C111.718 36.642 111.626 36.85 111.442 37.018C111.262 37.186 111.05 37.27 110.806 37.27C110.558 37.27 110.346 37.186 110.17 37.018C109.994 36.85 109.906 36.642 109.906 36.394C109.906 36.294 109.918 36.186 109.942 36.07C109.966 35.95 110.024 35.794 110.116 35.602L111.106 33.532H111.886L111.4 35.734C111.496 35.802 111.572 35.896 111.628 36.016C111.688 36.132 111.718 36.258 111.718 36.394ZM119.537 36.01L119.849 36.958C119.581 37.042 119.295 37.094 118.991 37.114C118.687 37.134 118.357 37.144 118.001 37.144C118.365 37.312 118.639 37.53 118.823 37.798C119.007 38.062 119.099 38.374 119.099 38.734C119.099 39.15 119.005 39.52 118.817 39.844C118.629 40.168 118.357 40.422 118.001 40.606C117.649 40.79 117.223 40.882 116.723 40.882C116.511 40.882 116.333 40.872 116.189 40.852C116.049 40.832 115.913 40.802 115.781 40.762C115.685 40.826 115.605 40.914 115.541 41.026C115.481 41.138 115.451 41.254 115.451 41.374C115.451 41.526 115.511 41.652 115.631 41.752C115.751 41.852 115.973 41.902 116.297 41.902H117.437C117.861 41.902 118.241 41.978 118.577 42.13C118.917 42.282 119.183 42.486 119.375 42.742C119.571 42.998 119.669 43.29 119.669 43.618C119.669 44.238 119.405 44.714 118.877 45.046C118.353 45.378 117.611 45.544 116.651 45.544C115.979 45.544 115.449 45.474 115.061 45.334C114.673 45.198 114.395 44.988 114.227 44.704C114.063 44.424 113.981 44.07 113.981 43.642H114.893C114.893 43.886 114.941 44.088 115.037 44.248C115.133 44.408 115.307 44.526 115.559 44.602C115.811 44.682 116.173 44.722 116.645 44.722C117.109 44.722 117.487 44.682 117.779 44.602C118.075 44.526 118.293 44.41 118.433 44.254C118.577 44.102 118.649 43.912 118.649 43.684C118.649 43.384 118.513 43.158 118.241 43.006C117.969 42.854 117.629 42.778 117.221 42.778H116.093C115.549 42.778 115.147 42.658 114.887 42.418C114.631 42.178 114.503 41.902 114.503 41.59C114.503 41.386 114.561 41.188 114.677 40.996C114.797 40.804 114.971 40.634 115.199 40.486C114.835 40.294 114.567 40.056 114.395 39.772C114.223 39.488 114.137 39.144 114.137 38.74C114.137 38.312 114.243 37.934 114.455 37.606C114.667 37.274 114.963 37.014 115.343 36.826C115.723 36.638 116.161 36.544 116.657 36.544C117.189 36.54 117.621 36.518 117.953 36.478C118.285 36.434 118.569 36.372 118.805 36.292C119.045 36.212 119.289 36.118 119.537 36.01ZM116.657 37.282C116.149 37.282 115.773 37.42 115.529 37.696C115.289 37.968 115.169 38.316 115.169 38.74C115.169 39.168 115.293 39.52 115.541 39.796C115.789 40.072 116.169 40.21 116.681 40.21C117.129 40.21 117.469 40.08 117.701 39.82C117.937 39.56 118.055 39.198 118.055 38.734C118.055 38.258 117.937 37.898 117.701 37.654C117.469 37.406 117.121 37.282 116.657 37.282ZM121.657 43V42.226H122.641V37.456H121.657V36.682H123.409L123.595 38.176C123.839 37.656 124.135 37.254 124.483 36.97C124.831 36.686 125.291 36.544 125.863 36.544C126.039 36.544 126.195 36.558 126.331 36.586C126.471 36.61 126.613 36.642 126.757 36.682L126.463 37.582C126.331 37.546 126.211 37.52 126.103 37.504C125.995 37.484 125.871 37.474 125.731 37.474C125.247 37.474 124.831 37.646 124.483 37.99C124.135 38.334 123.857 38.854 123.649 39.55V42.226H124.933V43H121.657ZM125.785 38.818V37.444L125.887 36.682H126.757L126.613 38.818H125.785ZM129.584 40.198C129.604 40.686 129.698 41.086 129.866 41.398C130.034 41.706 130.256 41.934 130.532 42.082C130.808 42.226 131.108 42.298 131.432 42.298C131.756 42.298 132.048 42.25 132.308 42.154C132.572 42.058 132.842 41.916 133.118 41.728L133.592 42.394C133.296 42.626 132.958 42.808 132.578 42.94C132.202 43.072 131.816 43.138 131.42 43.138C130.808 43.138 130.286 43 129.854 42.724C129.422 42.448 129.092 42.064 128.864 41.572C128.64 41.076 128.528 40.502 128.528 39.85C128.528 39.21 128.642 38.642 128.87 38.146C129.098 37.65 129.418 37.26 129.83 36.976C130.242 36.692 130.728 36.55 131.288 36.55C131.82 36.55 132.278 36.676 132.662 36.928C133.046 37.176 133.34 37.532 133.544 37.996C133.752 38.456 133.856 39.006 133.856 39.646C133.856 39.754 133.854 39.856 133.85 39.952C133.846 40.044 133.84 40.126 133.832 40.198H129.584ZM131.3 37.378C130.832 37.378 130.44 37.544 130.124 37.876C129.812 38.208 129.634 38.722 129.59 39.418H132.884C132.872 38.742 132.724 38.234 132.44 37.894C132.156 37.55 131.776 37.378 131.3 37.378ZM136.779 40.198C136.799 40.686 136.893 41.086 137.061 41.398C137.229 41.706 137.451 41.934 137.727 42.082C138.003 42.226 138.303 42.298 138.627 42.298C138.951 42.298 139.243 42.25 139.503 42.154C139.767 42.058 140.037 41.916 140.313 41.728L140.787 42.394C140.491 42.626 140.153 42.808 139.773 42.94C139.397 43.072 139.011 43.138 138.615 43.138C138.003 43.138 137.481 43 137.049 42.724C136.617 42.448 136.287 42.064 136.059 41.572C135.835 41.076 135.723 40.502 135.723 39.85C135.723 39.21 135.837 38.642 136.065 38.146C136.293 37.65 136.613 37.26 137.025 36.976C137.437 36.692 137.923 36.55 138.483 36.55C139.015 36.55 139.473 36.676 139.857 36.928C140.241 37.176 140.535 37.532 140.739 37.996C140.947 38.456 141.051 39.006 141.051 39.646C141.051 39.754 141.049 39.856 141.045 39.952C141.041 40.044 141.035 40.126 141.027 40.198H136.779ZM138.495 37.378C138.027 37.378 137.635 37.544 137.319 37.876C137.007 38.208 136.829 38.722 136.785 39.418H140.079C140.067 38.742 139.919 38.234 139.635 37.894C139.351 37.55 138.971 37.378 138.495 37.378ZM143.183 43V36.682H144.041L144.119 37.558C144.375 37.234 144.695 36.986 145.079 36.814C145.467 36.638 145.843 36.55 146.207 36.55C146.827 36.55 147.277 36.714 147.557 37.042C147.841 37.37 147.983 37.826 147.983 38.41V43H146.975V39.154C146.975 38.722 146.951 38.374 146.903 38.11C146.855 37.842 146.755 37.648 146.603 37.528C146.451 37.404 146.215 37.342 145.895 37.342C145.647 37.342 145.413 37.396 145.193 37.504C144.977 37.612 144.783 37.748 144.611 37.912C144.443 38.072 144.303 38.234 144.191 38.398V43H143.183ZM150.642 34.426C150.642 34.178 150.732 33.97 150.912 33.802C151.096 33.63 151.31 33.544 151.554 33.544C151.802 33.544 152.016 33.63 152.196 33.802C152.376 33.97 152.466 34.178 152.466 34.426C152.466 34.534 152.45 34.644 152.418 34.756C152.386 34.864 152.322 35.016 152.226 35.212L151.254 37.282H150.474L150.948 35.08C150.856 35.008 150.782 34.914 150.726 34.798C150.67 34.682 150.642 34.558 150.642 34.426ZM153.234 34.426C153.234 34.178 153.324 33.97 153.504 33.802C153.688 33.63 153.902 33.544 154.146 33.544C154.398 33.544 154.612 33.63 154.788 33.802C154.968 33.97 155.058 34.178 155.058 34.426C155.058 34.534 155.044 34.644 155.016 34.756C154.988 34.864 154.928 35.016 154.836 35.212L153.852 37.282H153.066L153.552 35.08C153.456 35.008 153.378 34.914 153.318 34.798C153.262 34.682 153.234 34.558 153.234 34.426ZM167.613 32.2V46.6H166.713V32.2H167.613ZM181.079 36.394C181.079 36.642 180.989 36.85 180.809 37.018C180.633 37.186 180.419 37.27 180.167 37.27C179.911 37.27 179.697 37.186 179.525 37.018C179.353 36.85 179.267 36.642 179.267 36.394C179.267 36.294 179.279 36.186 179.303 36.07C179.327 35.95 179.385 35.794 179.477 35.602L180.449 33.532H181.247L180.755 35.734C180.855 35.802 180.933 35.896 180.989 36.016C181.049 36.132 181.079 36.258 181.079 36.394ZM183.671 36.394C183.671 36.642 183.579 36.85 183.395 37.018C183.215 37.186 183.003 37.27 182.759 37.27C182.511 37.27 182.299 37.186 182.123 37.018C181.947 36.85 181.859 36.642 181.859 36.394C181.859 36.294 181.871 36.186 181.895 36.07C181.919 35.95 181.977 35.794 182.069 35.602L183.059 33.532H183.839L183.353 35.734C183.449 35.802 183.525 35.896 183.581 36.016C183.641 36.132 183.671 36.258 183.671 36.394ZM188.76 36.55C189.356 36.55 189.854 36.686 190.254 36.958C190.658 37.226 190.96 37.606 191.16 38.098C191.364 38.59 191.466 39.17 191.466 39.838C191.466 40.482 191.362 41.052 191.154 41.548C190.946 42.044 190.64 42.434 190.236 42.718C189.836 42.998 189.34 43.138 188.748 43.138C188.156 43.138 187.658 43.002 187.254 42.73C186.85 42.458 186.544 42.076 186.336 41.584C186.132 41.088 186.03 40.51 186.03 39.85C186.03 39.198 186.134 38.624 186.342 38.128C186.55 37.632 186.856 37.246 187.26 36.97C187.668 36.69 188.168 36.55 188.76 36.55ZM188.76 37.372C188.216 37.372 187.804 37.574 187.524 37.978C187.248 38.378 187.11 39.002 187.11 39.85C187.11 40.682 187.246 41.3 187.518 41.704C187.794 42.108 188.204 42.31 188.748 42.31C189.292 42.31 189.7 42.108 189.972 41.704C190.248 41.3 190.386 40.678 190.386 39.838C190.386 38.998 190.25 38.378 189.978 37.978C189.706 37.574 189.3 37.372 188.76 37.372ZM193.61 43V42.226H194.594V37.456H193.61V36.682H195.362L195.548 38.176C195.792 37.656 196.088 37.254 196.436 36.97C196.784 36.686 197.244 36.544 197.816 36.544C197.992 36.544 198.148 36.558 198.284 36.586C198.424 36.61 198.566 36.642 198.71 36.682L198.416 37.582C198.284 37.546 198.164 37.52 198.056 37.504C197.948 37.484 197.824 37.474 197.684 37.474C197.2 37.474 196.784 37.646 196.436 37.99C196.088 38.334 195.81 38.854 195.602 39.55V42.226H196.886V43H193.61ZM197.738 38.818V37.444L197.84 36.682H198.71L198.566 38.818H197.738ZM205.269 41.62C205.269 41.872 205.311 42.056 205.395 42.172C205.479 42.288 205.609 42.374 205.785 42.43L205.539 43.138C205.267 43.102 205.029 43.016 204.825 42.88C204.621 42.74 204.473 42.53 204.381 42.25C204.153 42.542 203.869 42.764 203.529 42.916C203.189 43.064 202.813 43.138 202.401 43.138C201.769 43.138 201.271 42.96 200.907 42.604C200.543 42.248 200.361 41.776 200.361 41.188C200.361 40.536 200.615 40.036 201.123 39.688C201.631 39.34 202.365 39.166 203.325 39.166H204.255V38.638C204.255 38.182 204.121 37.86 203.853 37.672C203.589 37.48 203.221 37.384 202.749 37.384C202.541 37.384 202.297 37.41 202.017 37.462C201.737 37.51 201.433 37.592 201.105 37.708L200.841 36.946C201.229 36.802 201.593 36.7 201.933 36.64C202.273 36.58 202.597 36.55 202.905 36.55C203.693 36.55 204.283 36.734 204.675 37.102C205.071 37.466 205.269 37.962 205.269 38.59V41.62ZM202.659 42.37C202.971 42.37 203.269 42.292 203.553 42.136C203.837 41.976 204.071 41.756 204.255 41.476V39.85H203.343C202.647 39.85 202.155 39.97 201.867 40.21C201.583 40.45 201.441 40.772 201.441 41.176C201.441 41.568 201.541 41.866 201.741 42.07C201.945 42.27 202.251 42.37 202.659 42.37ZM207.94 43V36.682H208.798L208.876 37.558C209.132 37.234 209.452 36.986 209.836 36.814C210.224 36.638 210.6 36.55 210.964 36.55C211.584 36.55 212.034 36.714 212.314 37.042C212.598 37.37 212.74 37.826 212.74 38.41V43H211.732V39.154C211.732 38.722 211.708 38.374 211.66 38.11C211.612 37.842 211.512 37.648 211.36 37.528C211.208 37.404 210.972 37.342 210.652 37.342C210.404 37.342 210.17 37.396 209.95 37.504C209.734 37.612 209.54 37.748 209.368 37.912C209.2 38.072 209.06 38.234 208.948 38.398V43H207.94ZM220.272 36.01L220.584 36.958C220.316 37.042 220.03 37.094 219.726 37.114C219.422 37.134 219.092 37.144 218.736 37.144C219.1 37.312 219.374 37.53 219.558 37.798C219.742 38.062 219.834 38.374 219.834 38.734C219.834 39.15 219.74 39.52 219.552 39.844C219.364 40.168 219.092 40.422 218.736 40.606C218.384 40.79 217.958 40.882 217.458 40.882C217.246 40.882 217.068 40.872 216.924 40.852C216.784 40.832 216.648 40.802 216.516 40.762C216.42 40.826 216.34 40.914 216.276 41.026C216.216 41.138 216.186 41.254 216.186 41.374C216.186 41.526 216.246 41.652 216.366 41.752C216.486 41.852 216.708 41.902 217.032 41.902H218.172C218.596 41.902 218.976 41.978 219.312 42.13C219.652 42.282 219.918 42.486 220.11 42.742C220.306 42.998 220.404 43.29 220.404 43.618C220.404 44.238 220.14 44.714 219.612 45.046C219.088 45.378 218.346 45.544 217.386 45.544C216.714 45.544 216.184 45.474 215.796 45.334C215.408 45.198 215.13 44.988 214.962 44.704C214.798 44.424 214.716 44.07 214.716 43.642H215.628C215.628 43.886 215.676 44.088 215.772 44.248C215.868 44.408 216.042 44.526 216.294 44.602C216.546 44.682 216.908 44.722 217.38 44.722C217.844 44.722 218.222 44.682 218.514 44.602C218.81 44.526 219.028 44.41 219.168 44.254C219.312 44.102 219.384 43.912 219.384 43.684C219.384 43.384 219.248 43.158 218.976 43.006C218.704 42.854 218.364 42.778 217.956 42.778H216.828C216.284 42.778 215.882 42.658 215.622 42.418C215.366 42.178 215.238 41.902 215.238 41.59C215.238 41.386 215.296 41.188 215.412 40.996C215.532 40.804 215.706 40.634 215.934 40.486C215.57 40.294 215.302 40.056 215.13 39.772C214.958 39.488 214.872 39.144 214.872 38.74C214.872 38.312 214.978 37.934 215.19 37.606C215.402 37.274 215.698 37.014 216.078 36.826C216.458 36.638 216.896 36.544 217.392 36.544C217.924 36.54 218.356 36.518 218.688 36.478C219.02 36.434 219.304 36.372 219.54 36.292C219.78 36.212 220.024 36.118 220.272 36.01ZM217.392 37.282C216.884 37.282 216.508 37.42 216.264 37.696C216.024 37.968 215.904 38.316 215.904 38.74C215.904 39.168 216.028 39.52 216.276 39.796C216.524 40.072 216.904 40.21 217.416 40.21C217.864 40.21 218.204 40.08 218.436 39.82C218.672 39.56 218.79 39.198 218.79 38.734C218.79 38.258 218.672 37.898 218.436 37.654C218.204 37.406 217.856 37.282 217.392 37.282ZM223.123 40.198C223.143 40.686 223.237 41.086 223.405 41.398C223.573 41.706 223.795 41.934 224.071 42.082C224.347 42.226 224.647 42.298 224.971 42.298C225.295 42.298 225.587 42.25 225.847 42.154C226.111 42.058 226.381 41.916 226.657 41.728L227.131 42.394C226.835 42.626 226.497 42.808 226.117 42.94C225.741 43.072 225.355 43.138 224.959 43.138C224.347 43.138 223.825 43 223.393 42.724C222.961 42.448 222.631 42.064 222.403 41.572C222.179 41.076 222.067 40.502 222.067 39.85C222.067 39.21 222.181 38.642 222.409 38.146C222.637 37.65 222.957 37.26 223.369 36.976C223.781 36.692 224.267 36.55 224.827 36.55C225.359 36.55 225.817 36.676 226.201 36.928C226.585 37.176 226.879 37.532 227.083 37.996C227.291 38.456 227.395 39.006 227.395 39.646C227.395 39.754 227.393 39.856 227.389 39.952C227.385 40.044 227.379 40.126 227.371 40.198H223.123ZM224.839 37.378C224.371 37.378 223.979 37.544 223.663 37.876C223.351 38.208 223.173 38.722 223.129 39.418H226.423C226.411 38.742 226.263 38.234 225.979 37.894C225.695 37.55 225.315 37.378 224.839 37.378ZM229.79 34.426C229.79 34.178 229.88 33.97 230.06 33.802C230.244 33.63 230.458 33.544 230.702 33.544C230.95 33.544 231.164 33.63 231.344 33.802C231.524 33.97 231.614 34.178 231.614 34.426C231.614 34.534 231.598 34.644 231.566 34.756C231.534 34.864 231.47 35.016 231.374 35.212L230.402 37.282H229.622L230.096 35.08C230.004 35.008 229.93 34.914 229.874 34.798C229.818 34.682 229.79 34.558 229.79 34.426ZM232.382 34.426C232.382 34.178 232.472 33.97 232.652 33.802C232.836 33.63 233.05 33.544 233.294 33.544C233.546 33.544 233.76 33.63 233.936 33.802C234.116 33.97 234.206 34.178 234.206 34.426C234.206 34.534 234.192 34.644 234.164 34.756C234.136 34.864 234.076 35.016 233.984 35.212L233 37.282H232.214L232.7 35.08C232.604 35.008 232.526 34.914 232.466 34.798C232.41 34.682 232.382 34.558 232.382 34.426ZM246.761 32.2V46.6H245.861V32.2H246.761ZM260.228 36.394C260.228 36.642 260.138 36.85 259.958 37.018C259.782 37.186 259.568 37.27 259.316 37.27C259.06 37.27 258.846 37.186 258.674 37.018C258.502 36.85 258.416 36.642 258.416 36.394C258.416 36.294 258.428 36.186 258.452 36.07C258.476 35.95 258.534 35.794 258.626 35.602L259.598 33.532H260.396L259.904 35.734C260.004 35.802 260.082 35.896 260.138 36.016C260.198 36.132 260.228 36.258 260.228 36.394ZM262.82 36.394C262.82 36.642 262.728 36.85 262.544 37.018C262.364 37.186 262.152 37.27 261.908 37.27C261.66 37.27 261.448 37.186 261.272 37.018C261.096 36.85 261.008 36.642 261.008 36.394C261.008 36.294 261.02 36.186 261.044 36.07C261.068 35.95 261.126 35.794 261.218 35.602L262.208 33.532H262.988L262.502 35.734C262.598 35.802 262.674 35.896 262.73 36.016C262.79 36.132 262.82 36.258 262.82 36.394ZM265.563 43V42.226H266.547V37.456H265.563V36.682H267.315L267.501 38.176C267.745 37.656 268.041 37.254 268.389 36.97C268.737 36.686 269.197 36.544 269.769 36.544C269.945 36.544 270.101 36.558 270.237 36.586C270.377 36.61 270.519 36.642 270.663 36.682L270.369 37.582C270.237 37.546 270.117 37.52 270.009 37.504C269.901 37.484 269.777 37.474 269.637 37.474C269.153 37.474 268.737 37.646 268.389 37.99C268.041 38.334 267.763 38.854 267.555 39.55V42.226H268.839V43H265.563ZM269.691 38.818V37.444L269.793 36.682H270.663L270.519 38.818H269.691ZM273.49 40.198C273.51 40.686 273.604 41.086 273.772 41.398C273.94 41.706 274.162 41.934 274.438 42.082C274.714 42.226 275.014 42.298 275.338 42.298C275.662 42.298 275.954 42.25 276.214 42.154C276.478 42.058 276.748 41.916 277.024 41.728L277.498 42.394C277.202 42.626 276.864 42.808 276.484 42.94C276.108 43.072 275.722 43.138 275.326 43.138C274.714 43.138 274.192 43 273.76 42.724C273.328 42.448 272.998 42.064 272.77 41.572C272.546 41.076 272.434 40.502 272.434 39.85C272.434 39.21 272.548 38.642 272.776 38.146C273.004 37.65 273.324 37.26 273.736 36.976C274.148 36.692 274.634 36.55 275.194 36.55C275.726 36.55 276.184 36.676 276.568 36.928C276.952 37.176 277.246 37.532 277.45 37.996C277.658 38.456 277.762 39.006 277.762 39.646C277.762 39.754 277.76 39.856 277.756 39.952C277.752 40.044 277.746 40.126 277.738 40.198H273.49ZM275.206 37.378C274.738 37.378 274.346 37.544 274.03 37.876C273.718 38.208 273.54 38.722 273.496 39.418H276.79C276.778 38.742 276.63 38.234 276.346 37.894C276.062 37.55 275.682 37.378 275.206 37.378ZM283.674 34.012L284.682 34.138V43H283.8L283.704 42.166C283.468 42.502 283.196 42.748 282.888 42.904C282.584 43.06 282.258 43.138 281.91 43.138C281.362 43.138 280.91 43 280.554 42.724C280.198 42.448 279.934 42.064 279.762 41.572C279.59 41.076 279.504 40.502 279.504 39.85C279.504 39.218 279.602 38.654 279.798 38.158C279.994 37.658 280.276 37.266 280.644 36.982C281.016 36.694 281.462 36.55 281.982 36.55C282.346 36.55 282.666 36.614 282.942 36.742C283.218 36.866 283.462 37.05 283.674 37.294V34.012ZM282.246 37.36C281.718 37.36 281.312 37.566 281.028 37.978C280.744 38.39 280.602 39.014 280.602 39.85C280.602 40.394 280.66 40.85 280.776 41.218C280.892 41.586 281.062 41.862 281.286 42.046C281.514 42.23 281.792 42.322 282.12 42.322C282.48 42.322 282.786 42.22 283.038 42.016C283.294 41.812 283.506 41.582 283.674 41.326V38.17C283.502 37.914 283.294 37.716 283.05 37.576C282.806 37.432 282.538 37.36 282.246 37.36ZM287.353 34.426C287.353 34.178 287.443 33.97 287.623 33.802C287.807 33.63 288.021 33.544 288.265 33.544C288.513 33.544 288.727 33.63 288.907 33.802C289.087 33.97 289.177 34.178 289.177 34.426C289.177 34.534 289.161 34.644 289.129 34.756C289.097 34.864 289.033 35.016 288.937 35.212L287.965 37.282H287.185L287.659 35.08C287.567 35.008 287.493 34.914 287.437 34.798C287.381 34.682 287.353 34.558 287.353 34.426ZM289.945 34.426C289.945 34.178 290.035 33.97 290.215 33.802C290.399 33.63 290.613 33.544 290.857 33.544C291.109 33.544 291.323 33.63 291.499 33.802C291.679 33.97 291.769 34.178 291.769 34.426C291.769 34.534 291.755 34.644 291.727 34.756C291.699 34.864 291.639 35.016 291.547 35.212L290.563 37.282H289.777L290.263 35.08C290.167 35.008 290.089 34.914 290.029 34.798C289.973 34.682 289.945 34.558 289.945 34.426Z" fill="black"/>
<path d="M273.126 152.394C273.126 152.642 273.036 152.85 272.856 153.018C272.68 153.186 272.466 153.27 272.214 153.27C271.958 153.27 271.744 153.186 271.572 153.018C271.4 152.85 271.314 152.642 271.314 152.394C271.314 152.294 271.326 152.186 271.35 152.07C271.374 151.95 271.432 151.794 271.524 151.602L272.496 149.532H273.294L272.802 151.734C272.902 151.802 272.98 151.896 273.036 152.016C273.096 152.132 273.126 152.258 273.126 152.394ZM275.718 152.394C275.718 152.642 275.626 152.85 275.442 153.018C275.262 153.186 275.05 153.27 274.806 153.27C274.558 153.27 274.346 153.186 274.17 153.018C273.994 152.85 273.906 152.642 273.906 152.394C273.906 152.294 273.918 152.186 273.942 152.07C273.966 151.95 274.024 151.794 274.116 151.602L275.106 149.532H275.886L275.4 151.734C275.496 151.802 275.572 151.896 275.628 152.016C275.688 152.132 275.718 152.258 275.718 152.394ZM280.807 152.55C281.403 152.55 281.901 152.686 282.301 152.958C282.705 153.226 283.007 153.606 283.207 154.098C283.411 154.59 283.513 155.17 283.513 155.838C283.513 156.482 283.409 157.052 283.201 157.548C282.993 158.044 282.687 158.434 282.283 158.718C281.883 158.998 281.387 159.138 280.795 159.138C280.203 159.138 279.705 159.002 279.301 158.73C278.897 158.458 278.591 158.076 278.383 157.584C278.179 157.088 278.077 156.51 278.077 155.85C278.077 155.198 278.181 154.624 278.389 154.128C278.597 153.632 278.903 153.246 279.307 152.97C279.715 152.69 280.215 152.55 280.807 152.55ZM280.807 153.372C280.263 153.372 279.851 153.574 279.571 153.978C279.295 154.378 279.157 155.002 279.157 155.85C279.157 156.682 279.293 157.3 279.565 157.704C279.841 158.108 280.251 158.31 280.795 158.31C281.339 158.31 281.747 158.108 282.019 157.704C282.295 157.3 282.433 156.678 282.433 155.838C282.433 154.998 282.297 154.378 282.025 153.978C281.753 153.574 281.347 153.372 280.807 153.372ZM285.657 159V158.226H286.641V153.456H285.657V152.682H287.409L287.595 154.176C287.839 153.656 288.135 153.254 288.483 152.97C288.831 152.686 289.291 152.544 289.863 152.544C290.039 152.544 290.195 152.558 290.331 152.586C290.471 152.61 290.613 152.642 290.757 152.682L290.463 153.582C290.331 153.546 290.211 153.52 290.103 153.504C289.995 153.484 289.871 153.474 289.731 153.474C289.247 153.474 288.831 153.646 288.483 153.99C288.135 154.334 287.857 154.854 287.649 155.55V158.226H288.933V159H285.657ZM289.785 154.818V153.444L289.887 152.682H290.757L290.613 154.818H289.785ZM297.316 157.62C297.316 157.872 297.358 158.056 297.442 158.172C297.526 158.288 297.656 158.374 297.832 158.43L297.586 159.138C297.314 159.102 297.076 159.016 296.872 158.88C296.668 158.74 296.52 158.53 296.428 158.25C296.2 158.542 295.916 158.764 295.576 158.916C295.236 159.064 294.86 159.138 294.448 159.138C293.816 159.138 293.318 158.96 292.954 158.604C292.59 158.248 292.408 157.776 292.408 157.188C292.408 156.536 292.662 156.036 293.17 155.688C293.678 155.34 294.412 155.166 295.372 155.166H296.302V154.638C296.302 154.182 296.168 153.86 295.9 153.672C295.636 153.48 295.268 153.384 294.796 153.384C294.588 153.384 294.344 153.41 294.064 153.462C293.784 153.51 293.48 153.592 293.152 153.708L292.888 152.946C293.276 152.802 293.64 152.7 293.98 152.64C294.32 152.58 294.644 152.55 294.952 152.55C295.74 152.55 296.33 152.734 296.722 153.102C297.118 153.466 297.316 153.962 297.316 154.59V157.62ZM294.706 158.37C295.018 158.37 295.316 158.292 295.6 158.136C295.884 157.976 296.118 157.756 296.302 157.476V155.85H295.39C294.694 155.85 294.202 155.97 293.914 156.21C293.63 156.45 293.488 156.772 293.488 157.176C293.488 157.568 293.588 157.866 293.788 158.07C293.992 158.27 294.298 158.37 294.706 158.37ZM299.987 159V152.682H300.845L300.923 153.558C301.179 153.234 301.499 152.986 301.883 152.814C302.271 152.638 302.647 152.55 303.011 152.55C303.631 152.55 304.081 152.714 304.361 153.042C304.645 153.37 304.787 153.826 304.787 154.41V159H303.779V155.154C303.779 154.722 303.755 154.374 303.707 154.11C303.659 153.842 303.559 153.648 303.407 153.528C303.255 153.404 303.019 153.342 302.699 153.342C302.451 153.342 302.217 153.396 301.997 153.504C301.781 153.612 301.587 153.748 301.415 153.912C301.247 154.072 301.107 154.234 300.995 154.398V159H299.987ZM312.319 152.01L312.631 152.958C312.363 153.042 312.077 153.094 311.773 153.114C311.469 153.134 311.139 153.144 310.783 153.144C311.147 153.312 311.421 153.53 311.605 153.798C311.789 154.062 311.881 154.374 311.881 154.734C311.881 155.15 311.787 155.52 311.599 155.844C311.411 156.168 311.139 156.422 310.783 156.606C310.431 156.79 310.005 156.882 309.505 156.882C309.293 156.882 309.115 156.872 308.971 156.852C308.831 156.832 308.695 156.802 308.563 156.762C308.467 156.826 308.387 156.914 308.323 157.026C308.263 157.138 308.233 157.254 308.233 157.374C308.233 157.526 308.293 157.652 308.413 157.752C308.533 157.852 308.755 157.902 309.079 157.902H310.219C310.643 157.902 311.023 157.978 311.359 158.13C311.699 158.282 311.965 158.486 312.157 158.742C312.353 158.998 312.451 159.29 312.451 159.618C312.451 160.238 312.187 160.714 311.659 161.046C311.135 161.378 310.393 161.544 309.433 161.544C308.761 161.544 308.231 161.474 307.843 161.334C307.455 161.198 307.177 160.988 307.009 160.704C306.845 160.424 306.763 160.07 306.763 159.642H307.675C307.675 159.886 307.723 160.088 307.819 160.248C307.915 160.408 308.089 160.526 308.341 160.602C308.593 160.682 308.955 160.722 309.427 160.722C309.891 160.722 310.269 160.682 310.561 160.602C310.857 160.526 311.075 160.41 311.215 160.254C311.359 160.102 311.431 159.912 311.431 159.684C311.431 159.384 311.295 159.158 311.023 159.006C310.751 158.854 310.411 158.778 310.003 158.778H308.875C308.331 158.778 307.929 158.658 307.669 158.418C307.413 158.178 307.285 157.902 307.285 157.59C307.285 157.386 307.343 157.188 307.459 156.996C307.579 156.804 307.753 156.634 307.981 156.486C307.617 156.294 307.349 156.056 307.177 155.772C307.005 155.488 306.919 155.144 306.919 154.74C306.919 154.312 307.025 153.934 307.237 153.606C307.449 153.274 307.745 153.014 308.125 152.826C308.505 152.638 308.943 152.544 309.439 152.544C309.971 152.54 310.403 152.518 310.735 152.478C311.067 152.434 311.351 152.372 311.587 152.292C311.827 152.212 312.071 152.118 312.319 152.01ZM309.439 153.282C308.931 153.282 308.555 153.42 308.311 153.696C308.071 153.968 307.951 154.316 307.951 154.74C307.951 155.168 308.075 155.52 308.323 155.796C308.571 156.072 308.951 156.21 309.463 156.21C309.911 156.21 310.251 156.08 310.483 155.82C310.719 155.56 310.837 155.198 310.837 154.734C310.837 154.258 310.719 153.898 310.483 153.654C310.251 153.406 309.903 153.282 309.439 153.282ZM315.17 156.198C315.19 156.686 315.284 157.086 315.452 157.398C315.62 157.706 315.842 157.934 316.118 158.082C316.394 158.226 316.694 158.298 317.018 158.298C317.342 158.298 317.634 158.25 317.894 158.154C318.158 158.058 318.428 157.916 318.704 157.728L319.178 158.394C318.882 158.626 318.544 158.808 318.164 158.94C317.788 159.072 317.402 159.138 317.006 159.138C316.394 159.138 315.872 159 315.44 158.724C315.008 158.448 314.678 158.064 314.45 157.572C314.226 157.076 314.114 156.502 314.114 155.85C314.114 155.21 314.228 154.642 314.456 154.146C314.684 153.65 315.004 153.26 315.416 152.976C315.828 152.692 316.314 152.55 316.874 152.55C317.406 152.55 317.864 152.676 318.248 152.928C318.632 153.176 318.926 153.532 319.13 153.996C319.338 154.456 319.442 155.006 319.442 155.646C319.442 155.754 319.44 155.856 319.436 155.952C319.432 156.044 319.426 156.126 319.418 156.198H315.17ZM316.886 153.378C316.418 153.378 316.026 153.544 315.71 153.876C315.398 154.208 315.22 154.722 315.176 155.418H318.47C318.458 154.742 318.31 154.234 318.026 153.894C317.742 153.55 317.362 153.378 316.886 153.378ZM321.837 150.426C321.837 150.178 321.927 149.97 322.107 149.802C322.291 149.63 322.505 149.544 322.749 149.544C322.997 149.544 323.211 149.63 323.391 149.802C323.571 149.97 323.661 150.178 323.661 150.426C323.661 150.534 323.645 150.644 323.613 150.756C323.581 150.864 323.517 151.016 323.421 151.212L322.449 153.282H321.669L322.143 151.08C322.051 151.008 321.977 150.914 321.921 150.798C321.865 150.682 321.837 150.558 321.837 150.426ZM324.429 150.426C324.429 150.178 324.519 149.97 324.699 149.802C324.883 149.63 325.097 149.544 325.341 149.544C325.593 149.544 325.807 149.63 325.983 149.802C326.163 149.97 326.253 150.178 326.253 150.426C326.253 150.534 326.239 150.644 326.211 150.756C326.183 150.864 326.123 151.016 326.031 151.212L325.047 153.282H324.261L324.747 151.08C324.651 151.008 324.573 150.914 324.513 150.798C324.457 150.682 324.429 150.558 324.429 150.426ZM338.808 148.2V162.6H337.908V148.2H338.808ZM352.274 152.394C352.274 152.642 352.184 152.85 352.004 153.018C351.828 153.186 351.614 153.27 351.362 153.27C351.106 153.27 350.892 153.186 350.72 153.018C350.548 152.85 350.462 152.642 350.462 152.394C350.462 152.294 350.474 152.186 350.498 152.07C350.522 151.95 350.58 151.794 350.672 151.602L351.644 149.532H352.442L351.95 151.734C352.05 151.802 352.128 151.896 352.184 152.016C352.244 152.132 352.274 152.258 352.274 152.394ZM354.866 152.394C354.866 152.642 354.774 152.85 354.59 153.018C354.41 153.186 354.198 153.27 353.954 153.27C353.706 153.27 353.494 153.186 353.318 153.018C353.142 152.85 353.054 152.642 353.054 152.394C353.054 152.294 353.066 152.186 353.09 152.07C353.114 151.95 353.172 151.794 353.264 151.602L354.254 149.532H355.034L354.548 151.734C354.644 151.802 354.72 151.896 354.776 152.016C354.836 152.132 354.866 152.258 354.866 152.394ZM357.61 159V158.226H358.594V153.456H357.61V152.682H359.362L359.548 154.176C359.792 153.656 360.088 153.254 360.436 152.97C360.784 152.686 361.244 152.544 361.816 152.544C361.992 152.544 362.148 152.558 362.284 152.586C362.424 152.61 362.566 152.642 362.71 152.682L362.416 153.582C362.284 153.546 362.164 153.52 362.056 153.504C361.948 153.484 361.824 153.474 361.684 153.474C361.2 153.474 360.784 153.646 360.436 153.99C360.088 154.334 359.81 154.854 359.602 155.55V158.226H360.886V159H357.61ZM361.738 154.818V153.444L361.84 152.682H362.71L362.566 154.818H361.738ZM365.537 156.198C365.557 156.686 365.651 157.086 365.819 157.398C365.987 157.706 366.209 157.934 366.485 158.082C366.761 158.226 367.061 158.298 367.385 158.298C367.709 158.298 368.001 158.25 368.261 158.154C368.525 158.058 368.795 157.916 369.071 157.728L369.545 158.394C369.249 158.626 368.911 158.808 368.531 158.94C368.155 159.072 367.769 159.138 367.373 159.138C366.761 159.138 366.239 159 365.807 158.724C365.375 158.448 365.045 158.064 364.817 157.572C364.593 157.076 364.481 156.502 364.481 155.85C364.481 155.21 364.595 154.642 364.823 154.146C365.051 153.65 365.371 153.26 365.783 152.976C366.195 152.692 366.681 152.55 367.241 152.55C367.773 152.55 368.231 152.676 368.615 152.928C368.999 153.176 369.293 153.532 369.497 153.996C369.705 154.456 369.809 155.006 369.809 155.646C369.809 155.754 369.807 155.856 369.803 155.952C369.799 156.044 369.793 156.126 369.785 156.198H365.537ZM367.253 153.378C366.785 153.378 366.393 153.544 366.077 153.876C365.765 154.208 365.587 154.722 365.543 155.418H368.837C368.825 154.742 368.677 154.234 368.393 153.894C368.109 153.55 367.729 153.378 367.253 153.378ZM375.72 150.012L376.728 150.138V159H375.846L375.75 158.166C375.514 158.502 375.242 158.748 374.934 158.904C374.63 159.06 374.304 159.138 373.956 159.138C373.408 159.138 372.956 159 372.6 158.724C372.244 158.448 371.98 158.064 371.808 157.572C371.636 157.076 371.55 156.502 371.55 155.85C371.55 155.218 371.648 154.654 371.844 154.158C372.04 153.658 372.322 153.266 372.69 152.982C373.062 152.694 373.508 152.55 374.028 152.55C374.392 152.55 374.712 152.614 374.988 152.742C375.264 152.866 375.508 153.05 375.72 153.294V150.012ZM374.292 153.36C373.764 153.36 373.358 153.566 373.074 153.978C372.79 154.39 372.648 155.014 372.648 155.85C372.648 156.394 372.706 156.85 372.822 157.218C372.938 157.586 373.108 157.862 373.332 158.046C373.56 158.23 373.838 158.322 374.166 158.322C374.526 158.322 374.832 158.22 375.084 158.016C375.34 157.812 375.552 157.582 375.72 157.326V154.17C375.548 153.914 375.34 153.716 375.096 153.576C374.852 153.432 374.584 153.36 374.292 153.36ZM379.4 150.426C379.4 150.178 379.49 149.97 379.67 149.802C379.854 149.63 380.068 149.544 380.312 149.544C380.56 149.544 380.774 149.63 380.954 149.802C381.134 149.97 381.224 150.178 381.224 150.426C381.224 150.534 381.208 150.644 381.176 150.756C381.144 150.864 381.08 151.016 380.984 151.212L380.012 153.282H379.232L379.706 151.08C379.614 151.008 379.54 150.914 379.484 150.798C379.428 150.682 379.4 150.558 379.4 150.426ZM381.992 150.426C381.992 150.178 382.082 149.97 382.262 149.802C382.446 149.63 382.66 149.544 382.904 149.544C383.156 149.544 383.37 149.63 383.546 149.802C383.726 149.97 383.816 150.178 383.816 150.426C383.816 150.534 383.802 150.644 383.774 150.756C383.746 150.864 383.686 151.016 383.594 151.212L382.61 153.282H381.824L382.31 151.08C382.214 151.008 382.136 150.914 382.076 150.798C382.02 150.682 381.992 150.558 381.992 150.426Z" fill="black"/>
<path d="M176.126 152.394C176.126 152.642 176.036 152.85 175.856 153.018C175.68 153.186 175.466 153.27 175.214 153.27C174.958 153.27 174.744 153.186 174.572 153.018C174.4 152.85 174.314 152.642 174.314 152.394C174.314 152.294 174.326 152.186 174.35 152.07C174.374 151.95 174.432 151.794 174.524 151.602L175.496 149.532H176.294L175.802 151.734C175.902 151.802 175.98 151.896 176.036 152.016C176.096 152.132 176.126 152.258 176.126 152.394ZM178.718 152.394C178.718 152.642 178.626 152.85 178.442 153.018C178.262 153.186 178.05 153.27 177.806 153.27C177.558 153.27 177.346 153.186 177.17 153.018C176.994 152.85 176.906 152.642 176.906 152.394C176.906 152.294 176.918 152.186 176.942 152.07C176.966 151.95 177.024 151.794 177.116 151.602L178.106 149.532H178.886L178.4 151.734C178.496 151.802 178.572 151.896 178.628 152.016C178.688 152.132 178.718 152.258 178.718 152.394ZM183.807 152.55C184.403 152.55 184.901 152.686 185.301 152.958C185.705 153.226 186.007 153.606 186.207 154.098C186.411 154.59 186.513 155.17 186.513 155.838C186.513 156.482 186.409 157.052 186.201 157.548C185.993 158.044 185.687 158.434 185.283 158.718C184.883 158.998 184.387 159.138 183.795 159.138C183.203 159.138 182.705 159.002 182.301 158.73C181.897 158.458 181.591 158.076 181.383 157.584C181.179 157.088 181.077 156.51 181.077 155.85C181.077 155.198 181.181 154.624 181.389 154.128C181.597 153.632 181.903 153.246 182.307 152.97C182.715 152.69 183.215 152.55 183.807 152.55ZM183.807 153.372C183.263 153.372 182.851 153.574 182.571 153.978C182.295 154.378 182.157 155.002 182.157 155.85C182.157 156.682 182.293 157.3 182.565 157.704C182.841 158.108 183.251 158.31 183.795 158.31C184.339 158.31 184.747 158.108 185.019 157.704C185.295 157.3 185.433 156.678 185.433 155.838C185.433 154.998 185.297 154.378 185.025 153.978C184.753 153.574 184.347 153.372 183.807 153.372ZM188.657 159V158.226H189.641V153.456H188.657V152.682H190.409L190.595 154.176C190.839 153.656 191.135 153.254 191.483 152.97C191.831 152.686 192.291 152.544 192.863 152.544C193.039 152.544 193.195 152.558 193.331 152.586C193.471 152.61 193.613 152.642 193.757 152.682L193.463 153.582C193.331 153.546 193.211 153.52 193.103 153.504C192.995 153.484 192.871 153.474 192.731 153.474C192.247 153.474 191.831 153.646 191.483 153.99C191.135 154.334 190.857 154.854 190.649 155.55V158.226H191.933V159H188.657ZM192.785 154.818V153.444L192.887 152.682H193.757L193.613 154.818H192.785ZM200.316 157.62C200.316 157.872 200.358 158.056 200.442 158.172C200.526 158.288 200.656 158.374 200.832 158.43L200.586 159.138C200.314 159.102 200.076 159.016 199.872 158.88C199.668 158.74 199.52 158.53 199.428 158.25C199.2 158.542 198.916 158.764 198.576 158.916C198.236 159.064 197.86 159.138 197.448 159.138C196.816 159.138 196.318 158.96 195.954 158.604C195.59 158.248 195.408 157.776 195.408 157.188C195.408 156.536 195.662 156.036 196.17 155.688C196.678 155.34 197.412 155.166 198.372 155.166H199.302V154.638C199.302 154.182 199.168 153.86 198.9 153.672C198.636 153.48 198.268 153.384 197.796 153.384C197.588 153.384 197.344 153.41 197.064 153.462C196.784 153.51 196.48 153.592 196.152 153.708L195.888 152.946C196.276 152.802 196.64 152.7 196.98 152.64C197.32 152.58 197.644 152.55 197.952 152.55C198.74 152.55 199.33 152.734 199.722 153.102C200.118 153.466 200.316 153.962 200.316 154.59V157.62ZM197.706 158.37C198.018 158.37 198.316 158.292 198.6 158.136C198.884 157.976 199.118 157.756 199.302 157.476V155.85H198.39C197.694 155.85 197.202 155.97 196.914 156.21C196.63 156.45 196.488 156.772 196.488 157.176C196.488 157.568 196.588 157.866 196.788 158.07C196.992 158.27 197.298 158.37 197.706 158.37ZM202.987 159V152.682H203.845L203.923 153.558C204.179 153.234 204.499 152.986 204.883 152.814C205.271 152.638 205.647 152.55 206.011 152.55C206.631 152.55 207.081 152.714 207.361 153.042C207.645 153.37 207.787 153.826 207.787 154.41V159H206.779V155.154C206.779 154.722 206.755 154.374 206.707 154.11C206.659 153.842 206.559 153.648 206.407 153.528C206.255 153.404 206.019 153.342 205.699 153.342C205.451 153.342 205.217 153.396 204.997 153.504C204.781 153.612 204.587 153.748 204.415 153.912C204.247 154.072 204.107 154.234 203.995 154.398V159H202.987ZM215.319 152.01L215.631 152.958C215.363 153.042 215.077 153.094 214.773 153.114C214.469 153.134 214.139 153.144 213.783 153.144C214.147 153.312 214.421 153.53 214.605 153.798C214.789 154.062 214.881 154.374 214.881 154.734C214.881 155.15 214.787 155.52 214.599 155.844C214.411 156.168 214.139 156.422 213.783 156.606C213.431 156.79 213.005 156.882 212.505 156.882C212.293 156.882 212.115 156.872 211.971 156.852C211.831 156.832 211.695 156.802 211.563 156.762C211.467 156.826 211.387 156.914 211.323 157.026C211.263 157.138 211.233 157.254 211.233 157.374C211.233 157.526 211.293 157.652 211.413 157.752C211.533 157.852 211.755 157.902 212.079 157.902H213.219C213.643 157.902 214.023 157.978 214.359 158.13C214.699 158.282 214.965 158.486 215.157 158.742C215.353 158.998 215.451 159.29 215.451 159.618C215.451 160.238 215.187 160.714 214.659 161.046C214.135 161.378 213.393 161.544 212.433 161.544C211.761 161.544 211.231 161.474 210.843 161.334C210.455 161.198 210.177 160.988 210.009 160.704C209.845 160.424 209.763 160.07 209.763 159.642H210.675C210.675 159.886 210.723 160.088 210.819 160.248C210.915 160.408 211.089 160.526 211.341 160.602C211.593 160.682 211.955 160.722 212.427 160.722C212.891 160.722 213.269 160.682 213.561 160.602C213.857 160.526 214.075 160.41 214.215 160.254C214.359 160.102 214.431 159.912 214.431 159.684C214.431 159.384 214.295 159.158 214.023 159.006C213.751 158.854 213.411 158.778 213.003 158.778H211.875C211.331 158.778 210.929 158.658 210.669 158.418C210.413 158.178 210.285 157.902 210.285 157.59C210.285 157.386 210.343 157.188 210.459 156.996C210.579 156.804 210.753 156.634 210.981 156.486C210.617 156.294 210.349 156.056 210.177 155.772C210.005 155.488 209.919 155.144 209.919 154.74C209.919 154.312 210.025 153.934 210.237 153.606C210.449 153.274 210.745 153.014 211.125 152.826C211.505 152.638 211.943 152.544 212.439 152.544C212.971 152.54 213.403 152.518 213.735 152.478C214.067 152.434 214.351 152.372 214.587 152.292C214.827 152.212 215.071 152.118 215.319 152.01ZM212.439 153.282C211.931 153.282 211.555 153.42 211.311 153.696C211.071 153.968 210.951 154.316 210.951 154.74C210.951 155.168 211.075 155.52 211.323 155.796C211.571 156.072 211.951 156.21 212.463 156.21C212.911 156.21 213.251 156.08 213.483 155.82C213.719 155.56 213.837 155.198 213.837 154.734C213.837 154.258 213.719 153.898 213.483 153.654C213.251 153.406 212.903 153.282 212.439 153.282ZM218.17 156.198C218.19 156.686 218.284 157.086 218.452 157.398C218.62 157.706 218.842 157.934 219.118 158.082C219.394 158.226 219.694 158.298 220.018 158.298C220.342 158.298 220.634 158.25 220.894 158.154C221.158 158.058 221.428 157.916 221.704 157.728L222.178 158.394C221.882 158.626 221.544 158.808 221.164 158.94C220.788 159.072 220.402 159.138 220.006 159.138C219.394 159.138 218.872 159 218.44 158.724C218.008 158.448 217.678 158.064 217.45 157.572C217.226 157.076 217.114 156.502 217.114 155.85C217.114 155.21 217.228 154.642 217.456 154.146C217.684 153.65 218.004 153.26 218.416 152.976C218.828 152.692 219.314 152.55 219.874 152.55C220.406 152.55 220.864 152.676 221.248 152.928C221.632 153.176 221.926 153.532 222.13 153.996C222.338 154.456 222.442 155.006 222.442 155.646C222.442 155.754 222.44 155.856 222.436 155.952C222.432 156.044 222.426 156.126 222.418 156.198H218.17ZM219.886 153.378C219.418 153.378 219.026 153.544 218.71 153.876C218.398 154.208 218.22 154.722 218.176 155.418H221.47C221.458 154.742 221.31 154.234 221.026 153.894C220.742 153.55 220.362 153.378 219.886 153.378ZM224.837 150.426C224.837 150.178 224.927 149.97 225.107 149.802C225.291 149.63 225.505 149.544 225.749 149.544C225.997 149.544 226.211 149.63 226.391 149.802C226.571 149.97 226.661 150.178 226.661 150.426C226.661 150.534 226.645 150.644 226.613 150.756C226.581 150.864 226.517 151.016 226.421 151.212L225.449 153.282H224.669L225.143 151.08C225.051 151.008 224.977 150.914 224.921 150.798C224.865 150.682 224.837 150.558 224.837 150.426ZM227.429 150.426C227.429 150.178 227.519 149.97 227.699 149.802C227.883 149.63 228.097 149.544 228.341 149.544C228.593 149.544 228.807 149.63 228.983 149.802C229.163 149.97 229.253 150.178 229.253 150.426C229.253 150.534 229.239 150.644 229.211 150.756C229.183 150.864 229.123 151.016 229.031 151.212L228.047 153.282H227.261L227.747 151.08C227.651 151.008 227.573 150.914 227.513 150.798C227.457 150.682 227.429 150.558 227.429 150.426Z" fill="black"/>
<path d="M34.444 123.409C35.254 123.409 35.932 123.511 36.478 123.715C37.024 123.919 37.543 124.219 38.035 124.615L37.162 125.632C36.772 125.302 36.358 125.068 35.92 124.93C35.488 124.786 35.035 124.714 34.561 124.714C33.883 124.714 33.256 124.876 32.68 125.2C32.104 125.518 31.639 126.049 31.285 126.793C30.937 127.531 30.763 128.533 30.763 129.799C30.763 131.029 30.928 132.016 31.258 132.76C31.594 133.504 32.047 134.041 32.617 134.371C33.187 134.701 33.823 134.866 34.525 134.866C35.221 134.866 35.791 134.761 36.235 134.551C36.685 134.341 37.075 134.101 37.405 133.831L38.215 134.857C37.837 135.223 37.345 135.541 36.739 135.811C36.133 136.075 35.389 136.207 34.507 136.207C33.505 136.207 32.596 135.961 31.78 135.469C30.97 134.977 30.328 134.257 29.854 133.309C29.38 132.355 29.143 131.185 29.143 129.799C29.143 128.407 29.383 127.237 29.863 126.289C30.349 125.341 30.994 124.624 31.798 124.138C32.608 123.652 33.49 123.409 34.444 123.409ZM47.388 133.93C47.388 134.308 47.451 134.584 47.577 134.758C47.703 134.932 47.898 135.061 48.162 135.145L47.793 136.207C47.385 136.153 47.028 136.024 46.722 135.82C46.416 135.61 46.194 135.295 46.056 134.875C45.714 135.313 45.288 135.646 44.778 135.874C44.268 136.096 43.704 136.207 43.086 136.207C42.138 136.207 41.391 135.94 40.845 135.406C40.299 134.872 40.026 134.164 40.026 133.282C40.026 132.304 40.407 131.554 41.169 131.032C41.931 130.51 43.032 130.249 44.472 130.249H45.867V129.457C45.867 128.773 45.666 128.29 45.264 128.008C44.868 127.72 44.316 127.576 43.608 127.576C43.296 127.576 42.93 127.615 42.51 127.693C42.09 127.765 41.634 127.888 41.142 128.062L40.746 126.919C41.328 126.703 41.874 126.55 42.384 126.46C42.894 126.37 43.38 126.325 43.842 126.325C45.024 126.325 45.909 126.601 46.497 127.153C47.091 127.699 47.388 128.443 47.388 129.385V133.93ZM43.473 135.055C43.941 135.055 44.388 134.938 44.814 134.704C45.24 134.464 45.591 134.134 45.867 133.714V131.275H44.499C43.455 131.275 42.717 131.455 42.285 131.815C41.859 132.175 41.646 132.658 41.646 133.264C41.646 133.852 41.796 134.299 42.096 134.605C42.402 134.905 42.861 135.055 43.473 135.055ZM51.3949 136V126.523H52.6819L52.7989 127.837C53.1829 127.351 53.6629 126.979 54.2389 126.721C54.8209 126.457 55.3849 126.325 55.9309 126.325C56.8609 126.325 57.5359 126.571 57.9559 127.063C58.3819 127.555 58.5949 128.239 58.5949 129.115V136H57.0829V130.231C57.0829 129.583 57.0469 129.061 56.9749 128.665C56.9029 128.263 56.7529 127.972 56.5249 127.792C56.2969 127.606 55.9429 127.513 55.4629 127.513C55.0909 127.513 54.7399 127.594 54.4099 127.756C54.0859 127.918 53.7949 128.122 53.5369 128.368C53.2849 128.608 53.0749 128.851 52.9069 129.097V136H51.3949ZM66.8229 123.409C67.6329 123.409 68.3109 123.511 68.8569 123.715C69.4029 123.919 69.9219 124.219 70.4139 124.615L69.5409 125.632C69.1509 125.302 68.7369 125.068 68.2989 124.93C67.8669 124.786 67.4139 124.714 66.9399 124.714C66.2619 124.714 65.6349 124.876 65.0589 125.2C64.4829 125.518 64.0179 126.049 63.6639 126.793C63.3159 127.531 63.1419 128.533 63.1419 129.799C63.1419 131.029 63.3069 132.016 63.6369 132.76C63.9729 133.504 64.4259 134.041 64.9959 134.371C65.5659 134.701 66.2019 134.866 66.9039 134.866C67.5999 134.866 68.1699 134.761 68.6139 134.551C69.0639 134.341 69.4539 134.101 69.7839 133.831L70.5939 134.857C70.2159 135.223 69.7239 135.541 69.1179 135.811C68.5119 136.075 67.7679 136.207 66.8859 136.207C65.8839 136.207 64.9749 135.961 64.1589 135.469C63.3489 134.977 62.7069 134.257 62.2329 133.309C61.7589 132.355 61.5219 131.185 61.5219 129.799C61.5219 128.407 61.7619 127.237 62.2419 126.289C62.7279 125.341 63.3729 124.624 64.1769 124.138C64.9869 123.652 65.8689 123.409 66.8229 123.409ZM73.0709 136V134.839H74.5469V127.684H73.0709V126.523H75.6989L75.9779 128.764C76.3439 127.984 76.7879 127.381 77.3099 126.955C77.8319 126.529 78.5219 126.316 79.3799 126.316C79.6439 126.316 79.8779 126.337 80.0819 126.379C80.2919 126.415 80.5049 126.463 80.7209 126.523L80.2799 127.873C80.0819 127.819 79.9019 127.78 79.7399 127.756C79.5779 127.726 79.3919 127.711 79.1819 127.711C78.4559 127.711 77.8319 127.969 77.3099 128.485C76.7879 129.001 76.3709 129.781 76.0589 130.825V134.839H77.9849V136H73.0709ZM79.2629 129.727V127.666L79.4159 126.523H80.7209L80.5049 129.727H79.2629ZM87.3828 126.325C88.2768 126.325 89.0238 126.529 89.6238 126.937C90.2298 127.339 90.6828 127.909 90.9828 128.647C91.2888 129.385 91.4418 130.255 91.4418 131.257C91.4418 132.223 91.2858 133.078 90.9738 133.822C90.6618 134.566 90.2028 135.151 89.5968 135.577C88.9968 135.997 88.2528 136.207 87.3648 136.207C86.4768 136.207 85.7298 136.003 85.1238 135.595C84.5178 135.187 84.0588 134.614 83.7468 133.876C83.4408 133.132 83.2878 132.265 83.2878 131.275C83.2878 130.297 83.4438 129.436 83.7558 128.692C84.0678 127.948 84.5268 127.369 85.1328 126.955C85.7448 126.535 86.4948 126.325 87.3828 126.325ZM87.3828 127.558C86.5668 127.558 85.9488 127.861 85.5288 128.467C85.1148 129.067 84.9078 130.003 84.9078 131.275C84.9078 132.523 85.1118 133.45 85.5198 134.056C85.9338 134.662 86.5488 134.965 87.3648 134.965C88.1808 134.965 88.7928 134.662 89.2008 134.056C89.6148 133.45 89.8218 132.517 89.8218 131.257C89.8218 129.997 89.6178 129.067 89.2098 128.467C88.8018 127.861 88.1928 127.558 87.3828 127.558ZM97.7888 134.956C98.5148 134.956 99.0878 134.821 99.5078 134.551C99.9338 134.275 100.147 133.909 100.147 133.453C100.147 133.165 100.093 132.916 99.9848 132.706C99.8828 132.496 99.6698 132.307 99.3458 132.139C99.0218 131.971 98.5238 131.803 97.8518 131.635C97.1978 131.473 96.6278 131.287 96.1418 131.077C95.6618 130.861 95.2868 130.582 95.0168 130.24C94.7528 129.898 94.6208 129.454 94.6208 128.908C94.6208 128.374 94.7708 127.915 95.0708 127.531C95.3768 127.141 95.7998 126.844 96.3398 126.64C96.8798 126.43 97.5068 126.325 98.2208 126.325C98.9828 126.325 99.6458 126.427 100.21 126.631C100.78 126.829 101.263 127.075 101.659 127.369L100.993 128.395C100.633 128.149 100.237 127.948 99.8048 127.792C99.3728 127.63 98.8508 127.549 98.2388 127.549C97.4948 127.549 96.9668 127.666 96.6548 127.9C96.3428 128.128 96.1868 128.425 96.1868 128.791C96.1868 129.067 96.2618 129.298 96.4118 129.484C96.5678 129.664 96.8288 129.829 97.1948 129.979C97.5608 130.123 98.0648 130.282 98.7068 130.456C99.3248 130.618 99.8618 130.813 100.318 131.041C100.78 131.269 101.14 131.569 101.398 131.941C101.656 132.313 101.785 132.793 101.785 133.381C101.785 134.053 101.593 134.599 101.209 135.019C100.825 135.433 100.327 135.736 99.7148 135.928C99.1088 136.114 98.4668 136.207 97.7888 136.207C96.9308 136.207 96.1988 136.084 95.5928 135.838C94.9928 135.586 94.4888 135.283 94.0808 134.929L94.9448 133.93C95.3168 134.236 95.7428 134.485 96.2228 134.677C96.7088 134.863 97.2308 134.956 97.7888 134.956ZM108.582 134.956C109.308 134.956 109.881 134.821 110.301 134.551C110.727 134.275 110.94 133.909 110.94 133.453C110.94 133.165 110.886 132.916 110.778 132.706C110.676 132.496 110.463 132.307 110.139 132.139C109.815 131.971 109.317 131.803 108.645 131.635C107.991 131.473 107.421 131.287 106.935 131.077C106.455 130.861 106.08 130.582 105.81 130.24C105.546 129.898 105.414 129.454 105.414 128.908C105.414 128.374 105.564 127.915 105.864 127.531C106.17 127.141 106.593 126.844 107.133 126.64C107.673 126.43 108.3 126.325 109.014 126.325C109.776 126.325 110.439 126.427 111.003 126.631C111.573 126.829 112.056 127.075 112.452 127.369L111.786 128.395C111.426 128.149 111.03 127.948 110.598 127.792C110.166 127.63 109.644 127.549 109.032 127.549C108.288 127.549 107.76 127.666 107.448 127.9C107.136 128.128 106.98 128.425 106.98 128.791C106.98 129.067 107.055 129.298 107.205 129.484C107.361 129.664 107.622 129.829 107.988 129.979C108.354 130.123 108.858 130.282 109.5 130.456C110.118 130.618 110.655 130.813 111.111 131.041C111.573 131.269 111.933 131.569 112.191 131.941C112.449 132.313 112.578 132.793 112.578 133.381C112.578 134.053 112.386 134.599 112.002 135.019C111.618 135.433 111.12 135.736 110.508 135.928C109.902 136.114 109.26 136.207 108.582 136.207C107.724 136.207 106.992 136.084 106.386 135.838C105.786 135.586 105.282 135.283 104.874 134.929L105.738 133.93C106.11 134.236 106.536 134.485 107.016 134.677C107.502 134.863 108.024 134.956 108.582 134.956Z" fill="black"/>
<path d="M123.196 9.264V24H121.12V9.264H115.96V7.476H128.428L128.212 9.264H123.196ZM131.923 24V22.452H133.891V12.912H131.923V11.364H135.427L135.799 14.352C136.287 13.312 136.879 12.508 137.575 11.94C138.271 11.372 139.191 11.088 140.335 11.088C140.687 11.088 140.999 11.116 141.271 11.172C141.551 11.22 141.835 11.284 142.123 11.364L141.535 13.164C141.271 13.092 141.031 13.04 140.815 13.008C140.599 12.968 140.351 12.948 140.071 12.948C139.103 12.948 138.271 13.292 137.575 13.98C136.879 14.668 136.323 15.708 135.907 17.1V22.452H138.475V24H131.923ZM140.179 15.636V12.888L140.383 11.364H142.123L141.835 15.636H140.179ZM155.241 21.24C155.241 21.744 155.325 22.112 155.493 22.344C155.661 22.576 155.921 22.748 156.273 22.86L155.781 24.276C155.237 24.204 154.761 24.032 154.353 23.76C153.945 23.48 153.649 23.06 153.465 22.5C153.009 23.084 152.441 23.528 151.761 23.832C151.081 24.128 150.329 24.276 149.505 24.276C148.241 24.276 147.245 23.92 146.517 23.208C145.789 22.496 145.425 21.552 145.425 20.376C145.425 19.072 145.933 18.072 146.949 17.376C147.965 16.68 149.433 16.332 151.353 16.332H153.213V15.276C153.213 14.364 152.945 13.72 152.409 13.344C151.881 12.96 151.145 12.768 150.201 12.768C149.785 12.768 149.297 12.82 148.737 12.924C148.177 13.02 147.569 13.184 146.913 13.416L146.385 11.892C147.161 11.604 147.889 11.4 148.569 11.28C149.249 11.16 149.897 11.1 150.513 11.1C152.089 11.1 153.269 11.468 154.053 12.204C154.845 12.932 155.241 13.924 155.241 15.18V21.24ZM150.021 22.74C150.645 22.74 151.241 22.584 151.809 22.272C152.377 21.952 152.845 21.512 153.213 20.952V17.7H151.389C149.997 17.7 149.013 17.94 148.437 18.42C147.869 18.9 147.585 19.544 147.585 20.352C147.585 21.136 147.785 21.732 148.185 22.14C148.593 22.54 149.205 22.74 150.021 22.74ZM168.048 6.024C168.728 6.024 169.344 6.084 169.896 6.204C170.448 6.324 170.972 6.492 171.468 6.708L170.82 8.208C170.412 8.032 169.98 7.9 169.524 7.812C169.068 7.724 168.596 7.68 168.108 7.68C167.228 7.68 166.564 7.852 166.116 8.196C165.676 8.54 165.456 9.068 165.456 9.78V12.348H169.74L169.524 13.932H165.456V24H163.44V13.932H160.428V12.348H163.44V9.828C163.44 9.044 163.64 8.368 164.04 7.8C164.448 7.232 165 6.796 165.696 6.492C166.392 6.18 167.176 6.024 168.048 6.024ZM182.439 6.024C183.119 6.024 183.735 6.084 184.287 6.204C184.839 6.324 185.363 6.492 185.859 6.708L185.211 8.208C184.803 8.032 184.371 7.9 183.915 7.812C183.459 7.724 182.987 7.68 182.499 7.68C181.619 7.68 180.955 7.852 180.507 8.196C180.067 8.54 179.847 9.068 179.847 9.78V12.348H184.131L183.915 13.932H179.847V24H177.831V13.932H174.819V12.348H177.831V9.828C177.831 9.044 178.031 8.368 178.431 7.8C178.839 7.232 179.391 6.796 180.087 6.492C180.783 6.18 181.567 6.024 182.439 6.024ZM195.761 12.348V22.404H199.325V24H189.845V22.404H193.745V13.932H189.965V12.348H195.761ZM194.153 6.324C194.601 6.324 194.957 6.46 195.221 6.732C195.493 7.004 195.629 7.336 195.629 7.728C195.629 8.136 195.493 8.48 195.221 8.76C194.957 9.032 194.601 9.168 194.153 9.168C193.729 9.168 193.381 9.032 193.109 8.76C192.837 8.48 192.701 8.136 192.701 7.728C192.701 7.336 192.837 7.004 193.109 6.732C193.381 6.46 193.729 6.324 194.153 6.324ZM209.468 22.536C210.1 22.536 210.688 22.432 211.232 22.224C211.784 22.016 212.292 21.752 212.756 21.432L213.74 22.752C213.188 23.224 212.524 23.596 211.748 23.868C210.972 24.14 210.212 24.276 209.468 24.276C208.212 24.276 207.14 24.008 206.252 23.472C205.372 22.928 204.7 22.168 204.236 21.192C203.772 20.208 203.54 19.056 203.54 17.736C203.54 16.472 203.772 15.34 204.236 14.34C204.708 13.332 205.384 12.54 206.264 11.964C207.152 11.388 208.228 11.1 209.492 11.1C210.3 11.1 211.056 11.224 211.76 11.472C212.472 11.712 213.124 12.076 213.716 12.564L212.732 13.908C212.196 13.532 211.656 13.252 211.112 13.068C210.576 12.876 210.028 12.78 209.468 12.78C208.38 12.78 207.484 13.188 206.78 14.004C206.076 14.82 205.724 16.064 205.724 17.736C205.724 18.856 205.884 19.772 206.204 20.484C206.532 21.188 206.976 21.708 207.536 22.044C208.104 22.372 208.748 22.536 209.468 22.536ZM218.986 24V7.476H221.074V22.14H228.61L228.37 24H218.986ZM238.933 11.364V22.404H242.497V24H233.017V22.404H236.917V12.96H233.137V11.364H238.933ZM237.325 5.448C237.773 5.448 238.129 5.584 238.393 5.856C238.665 6.128 238.801 6.46 238.801 6.852C238.801 7.26 238.665 7.604 238.393 7.884C238.129 8.156 237.773 8.292 237.325 8.292C236.901 8.292 236.553 8.156 236.281 7.884C236.009 7.604 235.873 7.26 235.873 6.852C235.873 6.46 236.009 6.128 236.281 5.856C236.553 5.584 236.901 5.448 237.325 5.448ZM257.2 10.02L257.824 11.916C257.288 12.084 256.716 12.188 256.108 12.228C255.5 12.268 254.84 12.288 254.128 12.288C254.856 12.624 255.404 13.06 255.772 13.596C256.14 14.124 256.324 14.748 256.324 15.468C256.324 16.3 256.136 17.04 255.76 17.688C255.384 18.336 254.84 18.844 254.128 19.212C253.424 19.58 252.572 19.764 251.572 19.764C251.148 19.764 250.792 19.744 250.504 19.704C250.224 19.664 249.952 19.604 249.688 19.524C249.496 19.652 249.336 19.828 249.208 20.052C249.088 20.276 249.028 20.508 249.028 20.748C249.028 21.052 249.148 21.304 249.388 21.504C249.628 21.704 250.072 21.804 250.72 21.804H253C253.848 21.804 254.608 21.956 255.28 22.26C255.96 22.564 256.492 22.972 256.876 23.484C257.268 23.996 257.464 24.58 257.464 25.236C257.464 26.476 256.936 27.428 255.88 28.092C254.832 28.756 253.348 29.088 251.428 29.088C250.084 29.088 249.024 28.948 248.248 28.668C247.472 28.396 246.916 27.976 246.58 27.408C246.252 26.848 246.088 26.14 246.088 25.284H247.912C247.912 25.772 248.008 26.176 248.2 26.496C248.392 26.816 248.74 27.052 249.244 27.204C249.748 27.364 250.472 27.444 251.416 27.444C252.344 27.444 253.1 27.364 253.684 27.204C254.276 27.052 254.712 26.82 254.992 26.508C255.28 26.204 255.424 25.824 255.424 25.368C255.424 24.768 255.152 24.316 254.608 24.012C254.064 23.708 253.384 23.556 252.568 23.556H250.312C249.224 23.556 248.42 23.316 247.9 22.836C247.388 22.356 247.132 21.804 247.132 21.18C247.132 20.772 247.248 20.376 247.48 19.992C247.72 19.608 248.068 19.268 248.524 18.972C247.796 18.588 247.26 18.112 246.916 17.544C246.572 16.976 246.4 16.288 246.4 15.48C246.4 14.624 246.612 13.868 247.036 13.212C247.46 12.548 248.052 12.028 248.812 11.652C249.572 11.276 250.448 11.088 251.44 11.088C252.504 11.08 253.368 11.036 254.032 10.956C254.696 10.868 255.264 10.744 255.736 10.584C256.216 10.424 256.704 10.236 257.2 10.02ZM251.44 12.564C250.424 12.564 249.672 12.84 249.184 13.392C248.704 13.936 248.464 14.632 248.464 15.48C248.464 16.336 248.712 17.04 249.208 17.592C249.704 18.144 250.464 18.42 251.488 18.42C252.384 18.42 253.064 18.16 253.528 17.64C254 17.12 254.236 16.396 254.236 15.468C254.236 14.516 254 13.796 253.528 13.308C253.064 12.812 252.368 12.564 251.44 12.564ZM263.334 6.084V13.092C263.83 12.428 264.438 11.932 265.158 11.604C265.886 11.268 266.622 11.1 267.366 11.1C268.598 11.1 269.498 11.428 270.066 12.084C270.634 12.74 270.918 13.652 270.918 14.82V24H268.902V14.868C268.902 14.108 268.726 13.556 268.374 13.212C268.022 12.86 267.47 12.684 266.718 12.684C266.238 12.684 265.782 12.792 265.35 13.008C264.918 13.224 264.53 13.492 264.186 13.812C263.842 14.132 263.558 14.46 263.334 14.796V24H261.318V6.3L263.334 6.084ZM285.741 23.364C285.309 23.652 284.785 23.876 284.169 24.036C283.553 24.196 282.949 24.276 282.357 24.276C280.997 24.276 279.949 23.92 279.213 23.208C278.477 22.496 278.109 21.58 278.109 20.46V12.924H275.205V11.364H278.109V8.496L280.125 8.256V11.364H284.493L284.253 12.924H280.125V20.436C280.125 21.14 280.309 21.676 280.677 22.044C281.053 22.412 281.673 22.596 282.537 22.596C283.009 22.596 283.445 22.54 283.845 22.428C284.245 22.316 284.617 22.172 284.961 21.996L285.741 23.364Z" fill="black"/>
<path d="M284.657 132.571C284.657 133.279 284.48 133.909 284.126 134.461C283.772 135.007 283.259 135.436 282.587 135.748C281.915 136.054 281.096 136.207 280.13 136.207C279.224 136.207 278.402 136.069 277.664 135.793C276.932 135.517 276.305 135.127 275.783 134.623L276.71 133.579C277.142 133.981 277.637 134.302 278.195 134.542C278.753 134.776 279.407 134.893 280.157 134.893C280.661 134.893 281.132 134.812 281.57 134.65C282.008 134.482 282.362 134.23 282.632 133.894C282.902 133.552 283.037 133.12 283.037 132.598C283.037 132.196 282.959 131.854 282.803 131.572C282.647 131.29 282.371 131.041 281.975 130.825C281.579 130.603 281.027 130.387 280.319 130.177C279.503 129.937 278.795 129.667 278.195 129.367C277.601 129.061 277.139 128.686 276.809 128.242C276.485 127.798 276.323 127.249 276.323 126.595C276.323 125.977 276.494 125.428 276.836 124.948C277.178 124.468 277.649 124.093 278.249 123.823C278.855 123.547 279.551 123.409 280.337 123.409C281.195 123.409 281.939 123.532 282.569 123.778C283.205 124.018 283.781 124.366 284.297 124.822L283.379 125.839C282.935 125.443 282.458 125.158 281.948 124.984C281.438 124.804 280.919 124.714 280.391 124.714C279.941 124.714 279.527 124.783 279.149 124.921C278.777 125.053 278.477 125.254 278.249 125.524C278.027 125.788 277.916 126.127 277.916 126.541C277.916 126.895 278.012 127.201 278.204 127.459C278.396 127.717 278.72 127.954 279.176 128.17C279.632 128.38 280.253 128.602 281.039 128.836C281.681 129.022 282.275 129.256 282.821 129.538C283.373 129.814 283.817 130.192 284.153 130.672C284.489 131.146 284.657 131.779 284.657 132.571ZM289.114 122.563V127.819C289.486 127.321 289.942 126.949 290.482 126.703C291.028 126.451 291.58 126.325 292.138 126.325C293.062 126.325 293.737 126.571 294.163 127.063C294.589 127.555 294.802 128.239 294.802 129.115V136H293.29V129.151C293.29 128.581 293.158 128.167 292.894 127.909C292.63 127.645 292.216 127.513 291.652 127.513C291.292 127.513 290.95 127.594 290.626 127.756C290.302 127.918 290.011 128.119 289.753 128.359C289.495 128.599 289.282 128.845 289.114 129.097V136H287.602V122.725L289.114 122.563ZM302.004 126.325C302.898 126.325 303.645 126.529 304.245 126.937C304.851 127.339 305.304 127.909 305.604 128.647C305.91 129.385 306.063 130.255 306.063 131.257C306.063 132.223 305.907 133.078 305.595 133.822C305.283 134.566 304.824 135.151 304.218 135.577C303.618 135.997 302.874 136.207 301.986 136.207C301.098 136.207 300.351 136.003 299.745 135.595C299.139 135.187 298.68 134.614 298.368 133.876C298.062 133.132 297.909 132.265 297.909 131.275C297.909 130.297 298.065 129.436 298.377 128.692C298.689 127.948 299.148 127.369 299.754 126.955C300.366 126.535 301.116 126.325 302.004 126.325ZM302.004 127.558C301.188 127.558 300.57 127.861 300.15 128.467C299.736 129.067 299.529 130.003 299.529 131.275C299.529 132.523 299.733 133.45 300.141 134.056C300.555 134.662 301.17 134.965 301.986 134.965C302.802 134.965 303.414 134.662 303.822 134.056C304.236 133.45 304.443 132.517 304.443 131.257C304.443 129.997 304.239 129.067 303.831 128.467C303.423 127.861 302.814 127.558 302.004 127.558ZM310.7 126.523V133.237C310.7 133.861 310.829 134.311 311.087 134.587C311.345 134.863 311.747 135.001 312.293 135.001C312.815 135.001 313.307 134.854 313.769 134.56C314.237 134.26 314.6 133.906 314.858 133.498V126.523H316.37V136H315.083L314.957 134.722C314.585 135.202 314.126 135.571 313.58 135.829C313.034 136.081 312.482 136.207 311.924 136.207C311.006 136.207 310.319 135.964 309.863 135.478C309.413 134.986 309.188 134.299 309.188 133.417V126.523H310.7ZM323.671 122.707V133.66C323.671 134.128 323.815 134.461 324.103 134.659C324.397 134.851 324.775 134.947 325.237 134.947C325.525 134.947 325.798 134.917 326.056 134.857C326.314 134.797 326.572 134.716 326.83 134.614L327.235 135.721C326.977 135.847 326.656 135.958 326.272 136.054C325.894 136.156 325.465 136.207 324.985 136.207C324.145 136.207 323.464 135.976 322.942 135.514C322.42 135.046 322.159 134.401 322.159 133.579V123.904H319.252V122.707H323.671ZM336.444 122.518L337.956 122.707V136H336.633L336.489 134.749C336.135 135.253 335.727 135.622 335.265 135.856C334.809 136.09 334.32 136.207 333.798 136.207C332.976 136.207 332.298 136 331.764 135.586C331.23 135.172 330.834 134.596 330.576 133.858C330.318 133.114 330.189 132.253 330.189 131.275C330.189 130.327 330.336 129.481 330.63 128.737C330.924 127.987 331.347 127.399 331.899 126.973C332.457 126.541 333.126 126.325 333.906 126.325C334.452 126.325 334.932 126.421 335.346 126.613C335.76 126.799 336.126 127.075 336.444 127.441V122.518ZM334.302 127.54C333.51 127.54 332.901 127.849 332.475 128.467C332.049 129.085 331.836 130.021 331.836 131.275C331.836 132.091 331.923 132.775 332.097 133.327C332.271 133.879 332.526 134.293 332.862 134.569C333.204 134.845 333.621 134.983 334.113 134.983C334.653 134.983 335.112 134.83 335.49 134.524C335.874 134.218 336.192 133.873 336.444 133.489V128.755C336.186 128.371 335.874 128.074 335.508 127.864C335.142 127.648 334.74 127.54 334.302 127.54ZM349.415 132.571C349.415 133.279 349.238 133.909 348.884 134.461C348.53 135.007 348.017 135.436 347.345 135.748C346.673 136.054 345.854 136.207 344.888 136.207C343.982 136.207 343.16 136.069 342.422 135.793C341.69 135.517 341.063 135.127 340.541 134.623L341.468 133.579C341.9 133.981 342.395 134.302 342.953 134.542C343.511 134.776 344.165 134.893 344.915 134.893C345.419 134.893 345.89 134.812 346.328 134.65C346.766 134.482 347.12 134.23 347.39 133.894C347.66 133.552 347.795 133.12 347.795 132.598C347.795 132.196 347.717 131.854 347.561 131.572C347.405 131.29 347.129 131.041 346.733 130.825C346.337 130.603 345.785 130.387 345.077 130.177C344.261 129.937 343.553 129.667 342.953 129.367C342.359 129.061 341.897 128.686 341.567 128.242C341.243 127.798 341.081 127.249 341.081 126.595C341.081 125.977 341.252 125.428 341.594 124.948C341.936 124.468 342.407 124.093 343.007 123.823C343.613 123.547 344.309 123.409 345.095 123.409C345.953 123.409 346.697 123.532 347.327 123.778C347.963 124.018 348.539 124.366 349.055 124.822L348.137 125.839C347.693 125.443 347.216 125.158 346.706 124.984C346.196 124.804 345.677 124.714 345.149 124.714C344.699 124.714 344.285 124.783 343.907 124.921C343.535 125.053 343.235 125.254 343.007 125.524C342.785 125.788 342.674 126.127 342.674 126.541C342.674 126.895 342.77 127.201 342.962 127.459C343.154 127.717 343.478 127.954 343.934 128.17C344.39 128.38 345.011 128.602 345.797 128.836C346.439 129.022 347.033 129.256 347.579 129.538C348.131 129.814 348.575 130.192 348.911 130.672C349.247 131.146 349.415 131.779 349.415 132.571ZM359.884 135.523C359.56 135.739 359.167 135.907 358.705 136.027C358.243 136.147 357.79 136.207 357.346 136.207C356.326 136.207 355.54 135.94 354.988 135.406C354.436 134.872 354.16 134.185 354.16 133.345V127.693H351.982V126.523H354.16V124.372L355.672 124.192V126.523H358.948L358.768 127.693H355.672V133.327C355.672 133.855 355.81 134.257 356.086 134.533C356.368 134.809 356.833 134.947 357.481 134.947C357.835 134.947 358.162 134.905 358.462 134.821C358.762 134.737 359.041 134.629 359.299 134.497L359.884 135.523ZM366.762 126.325C367.656 126.325 368.403 126.529 369.003 126.937C369.609 127.339 370.062 127.909 370.362 128.647C370.668 129.385 370.821 130.255 370.821 131.257C370.821 132.223 370.665 133.078 370.353 133.822C370.041 134.566 369.582 135.151 368.976 135.577C368.376 135.997 367.632 136.207 366.744 136.207C365.856 136.207 365.109 136.003 364.503 135.595C363.897 135.187 363.438 134.614 363.126 133.876C362.82 133.132 362.667 132.265 362.667 131.275C362.667 130.297 362.823 129.436 363.135 128.692C363.447 127.948 363.906 127.369 364.512 126.955C365.124 126.535 365.874 126.325 366.762 126.325ZM366.762 127.558C365.946 127.558 365.328 127.861 364.908 128.467C364.494 129.067 364.287 130.003 364.287 131.275C364.287 132.523 364.491 133.45 364.899 134.056C365.313 134.662 365.928 134.965 366.744 134.965C367.56 134.965 368.172 134.662 368.58 134.056C368.994 133.45 369.201 132.517 369.201 131.257C369.201 129.997 368.997 129.067 368.589 128.467C368.181 127.861 367.572 127.558 366.762 127.558ZM378.185 126.325C379.025 126.325 379.694 126.529 380.192 126.937C380.696 127.345 381.059 127.921 381.281 128.665C381.503 129.403 381.614 130.267 381.614 131.257C381.614 132.211 381.479 133.063 381.209 133.813C380.945 134.557 380.543 135.142 380.003 135.568C379.463 135.994 378.782 136.207 377.96 136.207C376.922 136.207 376.088 135.841 375.458 135.109V139.627L373.946 139.816V126.523H375.233L375.359 127.846C375.707 127.36 376.121 126.985 376.601 126.721C377.087 126.457 377.615 126.325 378.185 126.325ZM377.825 127.54C377.303 127.54 376.841 127.699 376.439 128.017C376.043 128.329 375.716 128.677 375.458 129.061V133.759C375.704 134.125 376.013 134.416 376.385 134.632C376.763 134.842 377.177 134.947 377.627 134.947C378.413 134.947 379.004 134.647 379.4 134.047C379.796 133.447 379.994 132.514 379.994 131.248C379.994 130.42 379.916 129.733 379.76 129.187C379.604 128.635 379.367 128.224 379.049 127.954C378.731 127.678 378.323 127.54 377.825 127.54Z" fill="black"/>
</svg>
