<svg width="939" height="519" viewBox="0 0 939 519" fill="none" xmlns="http://www.w3.org/2000/svg">
<path d="M938 259.5C938 330.628 885.826 395.236 801.003 442.119C716.214 488.983 599.012 518 469.5 518C339.988 518 222.786 488.983 137.997 442.119C53.1737 395.236 1 330.628 1 259.5C1 188.372 53.1737 123.764 137.997 76.881C222.786 30.0171 339.988 1 469.5 1C599.012 1 716.214 30.0171 801.003 76.881C885.826 123.764 938 188.372 938 259.5Z" fill="#B1D6FF" fill-opacity="0.5" stroke="#3077C6" stroke-width="2"/>
<path d="M454.344 276.5C454.344 364.915 361.176 437 245.672 437C130.167 437 37 364.915 37 276.5C37 188.085 130.167 116 245.672 116C361.176 116 454.344 188.085 454.344 276.5Z" fill="#B1D6FF" fill-opacity="0.5" stroke="#3077C6" stroke-width="2"/>
<path d="M431.321 299.5C431.321 332.602 410.708 362.702 377.107 384.575C343.515 406.442 297.048 420 245.672 420C194.295 420 147.829 406.442 114.236 384.575C80.635 362.702 60.0227 332.602 60.0227 299.5C60.0227 266.398 80.635 236.298 114.236 214.425C147.829 192.558 194.295 179 245.672 179C297.048 179 343.515 192.558 377.107 214.425C410.708 236.298 431.321 266.398 431.321 299.5Z" fill="#B1D6FF" fill-opacity="0.5" stroke="#3077C6" stroke-width="2"/>
<path d="M221.649 318.5C221.649 350.245 195.603 376 163.448 376C131.293 376 105.246 350.245 105.246 318.5C105.246 286.755 131.293 261 163.448 261C195.603 261 221.649 286.755 221.649 318.5Z" fill="#B1D6FF" fill-opacity="0.5" stroke="#3077C6" stroke-width="2"/>
<path d="M381.164 318.5C381.164 350.245 355.118 376 322.963 376C290.808 376 264.761 350.245 264.761 318.5C264.761 286.755 290.808 261 322.963 261C355.118 261 381.164 286.755 381.164 318.5Z" fill="#B1D6FF" fill-opacity="0.5" stroke="#3077C6" stroke-width="2"/>
<path d="M307.666 313.788C307.666 314.284 307.486 314.7 307.126 315.036C306.774 315.372 306.346 315.54 305.842 315.54C305.33 315.54 304.902 315.372 304.558 315.036C304.214 314.7 304.042 314.284 304.042 313.788C304.042 313.588 304.066 313.372 304.114 313.14C304.162 312.9 304.278 312.588 304.462 312.204L306.406 308.064H308.002L307.018 312.468C307.218 312.604 307.374 312.792 307.486 313.032C307.606 313.264 307.666 313.516 307.666 313.788ZM312.85 313.788C312.85 314.284 312.666 314.7 312.298 315.036C311.938 315.372 311.514 315.54 311.026 315.54C310.53 315.54 310.106 315.372 309.754 315.036C309.402 314.7 309.226 314.284 309.226 313.788C309.226 313.588 309.25 313.372 309.298 313.14C309.346 312.9 309.462 312.588 309.646 312.204L311.626 308.064H313.186L312.214 312.468C312.406 312.604 312.558 312.792 312.67 313.032C312.79 313.264 312.85 313.516 312.85 313.788ZM320.233 316.008C320.697 315.4 321.229 314.932 321.829 314.604C322.437 314.268 323.105 314.1 323.833 314.1C324.961 314.1 325.873 314.372 326.569 314.916C327.265 315.46 327.773 316.228 328.093 317.22C328.413 318.204 328.573 319.356 328.573 320.676C328.573 321.948 328.381 323.084 327.997 324.084C327.613 325.076 327.049 325.856 326.305 326.424C325.569 326.992 324.657 327.276 323.569 327.276C322.105 327.276 320.957 326.748 320.125 325.692L319.981 327H318.217V309.276L320.233 309.024V316.008ZM323.089 325.644C324.145 325.644 324.957 325.236 325.525 324.42C326.093 323.604 326.377 322.352 326.377 320.664C326.377 319.56 326.265 318.644 326.041 317.916C325.817 317.18 325.481 316.632 325.033 316.272C324.593 315.904 324.049 315.72 323.401 315.72C322.697 315.72 322.077 315.932 321.541 316.356C321.013 316.772 320.577 317.236 320.233 317.748V324.012C320.561 324.508 320.973 324.904 321.469 325.2C321.973 325.496 322.513 325.644 323.089 325.644ZM333.135 309.852C333.135 309.356 333.315 308.94 333.675 308.604C334.043 308.26 334.471 308.088 334.959 308.088C335.455 308.088 335.883 308.26 336.243 308.604C336.603 308.94 336.783 309.356 336.783 309.852C336.783 310.068 336.751 310.288 336.687 310.512C336.623 310.728 336.495 311.032 336.303 311.424L334.359 315.564H332.799L333.747 311.16C333.563 311.016 333.415 310.828 333.303 310.596C333.191 310.364 333.135 310.116 333.135 309.852ZM338.319 309.852C338.319 309.356 338.499 308.94 338.859 308.604C339.227 308.26 339.655 308.088 340.143 308.088C340.647 308.088 341.075 308.26 341.427 308.604C341.787 308.94 341.967 309.356 341.967 309.852C341.967 310.068 341.939 310.288 341.883 310.512C341.827 310.728 341.707 311.032 341.523 311.424L339.555 315.564H337.983L338.955 311.16C338.763 311.016 338.607 310.828 338.487 310.596C338.375 310.364 338.319 310.116 338.319 309.852Z" fill="black"/>
<path d="M148.166 313.788C148.166 314.284 147.986 314.7 147.626 315.036C147.274 315.372 146.846 315.54 146.342 315.54C145.83 315.54 145.402 315.372 145.058 315.036C144.714 314.7 144.542 314.284 144.542 313.788C144.542 313.588 144.566 313.372 144.614 313.14C144.662 312.9 144.778 312.588 144.962 312.204L146.906 308.064H148.502L147.518 312.468C147.718 312.604 147.874 312.792 147.986 313.032C148.106 313.264 148.166 313.516 148.166 313.788ZM153.35 313.788C153.35 314.284 153.166 314.7 152.798 315.036C152.438 315.372 152.014 315.54 151.526 315.54C151.03 315.54 150.606 315.372 150.254 315.036C149.902 314.7 149.726 314.284 149.726 313.788C149.726 313.588 149.75 313.372 149.798 313.14C149.846 312.9 149.962 312.588 150.146 312.204L152.126 308.064H153.686L152.714 312.468C152.906 312.604 153.058 312.792 153.17 313.032C153.29 313.264 153.35 313.516 153.35 313.788ZM167.765 324.24C167.765 324.744 167.849 325.112 168.017 325.344C168.185 325.576 168.445 325.748 168.797 325.86L168.305 327.276C167.761 327.204 167.285 327.032 166.877 326.76C166.469 326.48 166.173 326.06 165.989 325.5C165.533 326.084 164.965 326.528 164.285 326.832C163.605 327.128 162.853 327.276 162.029 327.276C160.765 327.276 159.769 326.92 159.041 326.208C158.313 325.496 157.949 324.552 157.949 323.376C157.949 322.072 158.457 321.072 159.473 320.376C160.489 319.68 161.957 319.332 163.877 319.332H165.737V318.276C165.737 317.364 165.469 316.72 164.933 316.344C164.405 315.96 163.669 315.768 162.725 315.768C162.309 315.768 161.821 315.82 161.261 315.924C160.701 316.02 160.093 316.184 159.437 316.416L158.909 314.892C159.685 314.604 160.413 314.4 161.093 314.28C161.773 314.16 162.421 314.1 163.037 314.1C164.613 314.1 165.793 314.468 166.577 315.204C167.369 315.932 167.765 316.924 167.765 318.18V324.24ZM162.545 325.74C163.169 325.74 163.765 325.584 164.333 325.272C164.901 324.952 165.369 324.512 165.737 323.952V320.7H163.913C162.521 320.7 161.537 320.94 160.961 321.42C160.393 321.9 160.109 322.544 160.109 323.352C160.109 324.136 160.309 324.732 160.709 325.14C161.117 325.54 161.729 325.74 162.545 325.74ZM173.635 309.852C173.635 309.356 173.815 308.94 174.175 308.604C174.543 308.26 174.971 308.088 175.459 308.088C175.955 308.088 176.383 308.26 176.743 308.604C177.103 308.94 177.283 309.356 177.283 309.852C177.283 310.068 177.251 310.288 177.187 310.512C177.123 310.728 176.995 311.032 176.803 311.424L174.859 315.564H173.299L174.247 311.16C174.063 311.016 173.915 310.828 173.803 310.596C173.691 310.364 173.635 310.116 173.635 309.852ZM178.819 309.852C178.819 309.356 178.999 308.94 179.359 308.604C179.727 308.26 180.155 308.088 180.643 308.088C181.147 308.088 181.575 308.26 181.927 308.604C182.287 308.94 182.467 309.356 182.467 309.852C182.467 310.068 182.439 310.288 182.383 310.512C182.327 310.728 182.207 311.032 182.023 311.424L180.055 315.564H178.483L179.455 311.16C179.263 311.016 179.107 310.828 178.987 310.596C178.875 310.364 178.819 310.116 178.819 309.852Z" fill="black"/>
<path d="M186.994 222.788C186.994 223.284 186.814 223.7 186.454 224.036C186.102 224.372 185.674 224.54 185.17 224.54C184.658 224.54 184.23 224.372 183.886 224.036C183.542 223.7 183.37 223.284 183.37 222.788C183.37 222.588 183.394 222.372 183.442 222.14C183.49 221.9 183.606 221.588 183.79 221.204L185.734 217.064H187.33L186.346 221.468C186.546 221.604 186.702 221.792 186.814 222.032C186.934 222.264 186.994 222.516 186.994 222.788ZM192.178 222.788C192.178 223.284 191.994 223.7 191.626 224.036C191.266 224.372 190.842 224.54 190.354 224.54C189.858 224.54 189.434 224.372 189.082 224.036C188.73 223.7 188.554 223.284 188.554 222.788C188.554 222.588 188.578 222.372 188.626 222.14C188.674 221.9 188.79 221.588 188.974 221.204L190.954 217.064H192.514L191.542 221.468C191.734 221.604 191.886 221.792 191.998 222.032C192.118 222.264 192.178 222.516 192.178 222.788ZM206.593 233.24C206.593 233.744 206.677 234.112 206.845 234.344C207.013 234.576 207.273 234.748 207.625 234.86L207.133 236.276C206.589 236.204 206.113 236.032 205.705 235.76C205.297 235.48 205.001 235.06 204.817 234.5C204.361 235.084 203.793 235.528 203.113 235.832C202.433 236.128 201.681 236.276 200.857 236.276C199.593 236.276 198.597 235.92 197.869 235.208C197.141 234.496 196.777 233.552 196.777 232.376C196.777 231.072 197.285 230.072 198.301 229.376C199.317 228.68 200.785 228.332 202.705 228.332H204.565V227.276C204.565 226.364 204.297 225.72 203.761 225.344C203.233 224.96 202.497 224.768 201.553 224.768C201.137 224.768 200.649 224.82 200.089 224.924C199.529 225.02 198.921 225.184 198.265 225.416L197.737 223.892C198.513 223.604 199.241 223.4 199.921 223.28C200.601 223.16 201.249 223.1 201.865 223.1C203.441 223.1 204.621 223.468 205.405 224.204C206.197 224.932 206.593 225.924 206.593 227.18V233.24ZM201.373 234.74C201.997 234.74 202.593 234.584 203.161 234.272C203.729 233.952 204.197 233.512 204.565 232.952V229.7H202.741C201.349 229.7 200.365 229.94 199.789 230.42C199.221 230.9 198.937 231.544 198.937 232.352C198.937 233.136 199.137 233.732 199.537 234.14C199.945 234.54 200.557 234.74 201.373 234.74ZM212.463 218.852C212.463 218.356 212.643 217.94 213.003 217.604C213.371 217.26 213.799 217.088 214.287 217.088C214.783 217.088 215.211 217.26 215.571 217.604C215.931 217.94 216.111 218.356 216.111 218.852C216.111 219.068 216.079 219.288 216.015 219.512C215.951 219.728 215.823 220.032 215.631 220.424L213.687 224.564H212.127L213.075 220.16C212.891 220.016 212.743 219.828 212.631 219.596C212.519 219.364 212.463 219.116 212.463 218.852ZM217.647 218.852C217.647 218.356 217.827 217.94 218.187 217.604C218.555 217.26 218.983 217.088 219.471 217.088C219.975 217.088 220.403 217.26 220.755 217.604C221.115 217.94 221.295 218.356 221.295 218.852C221.295 219.068 221.267 219.288 221.211 219.512C221.155 219.728 221.035 220.032 220.851 220.424L218.883 224.564H217.311L218.283 220.16C218.091 220.016 217.935 219.828 217.815 219.596C217.703 219.364 217.647 219.116 217.647 218.852ZM246.405 214.4V243.2H244.605V214.4H246.405ZM273.338 222.788C273.338 223.284 273.158 223.7 272.798 224.036C272.446 224.372 272.018 224.54 271.514 224.54C271.002 224.54 270.574 224.372 270.23 224.036C269.886 223.7 269.714 223.284 269.714 222.788C269.714 222.588 269.738 222.372 269.786 222.14C269.834 221.9 269.95 221.588 270.134 221.204L272.078 217.064H273.674L272.69 221.468C272.89 221.604 273.046 221.792 273.158 222.032C273.278 222.264 273.338 222.516 273.338 222.788ZM278.522 222.788C278.522 223.284 278.338 223.7 277.97 224.036C277.61 224.372 277.186 224.54 276.698 224.54C276.202 224.54 275.778 224.372 275.426 224.036C275.074 223.7 274.898 223.284 274.898 222.788C274.898 222.588 274.922 222.372 274.97 222.14C275.018 221.9 275.134 221.588 275.318 221.204L277.298 217.064H278.858L277.886 221.468C278.078 221.604 278.23 221.792 278.342 222.032C278.462 222.264 278.522 222.516 278.522 222.788ZM285.905 225.008C286.369 224.4 286.901 223.932 287.501 223.604C288.109 223.268 288.777 223.1 289.505 223.1C290.633 223.1 291.545 223.372 292.241 223.916C292.937 224.46 293.445 225.228 293.765 226.22C294.085 227.204 294.245 228.356 294.245 229.676C294.245 230.948 294.053 232.084 293.669 233.084C293.285 234.076 292.721 234.856 291.977 235.424C291.241 235.992 290.329 236.276 289.241 236.276C287.777 236.276 286.629 235.748 285.797 234.692L285.653 236H283.889V218.276L285.905 218.024V225.008ZM288.761 234.644C289.817 234.644 290.629 234.236 291.197 233.42C291.765 232.604 292.049 231.352 292.049 229.664C292.049 228.56 291.937 227.644 291.713 226.916C291.489 226.18 291.153 225.632 290.705 225.272C290.265 224.904 289.721 224.72 289.073 224.72C288.369 224.72 287.749 224.932 287.213 225.356C286.685 225.772 286.249 226.236 285.905 226.748V233.012C286.233 233.508 286.645 233.904 287.141 234.2C287.645 234.496 288.185 234.644 288.761 234.644ZM298.807 218.852C298.807 218.356 298.987 217.94 299.347 217.604C299.715 217.26 300.143 217.088 300.631 217.088C301.127 217.088 301.555 217.26 301.915 217.604C302.275 217.94 302.455 218.356 302.455 218.852C302.455 219.068 302.423 219.288 302.359 219.512C302.295 219.728 302.167 220.032 301.975 220.424L300.031 224.564H298.471L299.419 220.16C299.235 220.016 299.087 219.828 298.975 219.596C298.863 219.364 298.807 219.116 298.807 218.852ZM303.991 218.852C303.991 218.356 304.171 217.94 304.531 217.604C304.899 217.26 305.327 217.088 305.815 217.088C306.319 217.088 306.747 217.26 307.099 217.604C307.459 217.94 307.639 218.356 307.639 218.852C307.639 219.068 307.611 219.288 307.555 219.512C307.499 219.728 307.379 220.032 307.195 220.424L305.227 224.564H303.655L304.627 220.16C304.435 220.016 304.279 219.828 304.159 219.596C304.047 219.364 303.991 219.116 303.991 218.852Z" fill="black"/>
<path d="M209.036 151.608C210.004 151.608 210.768 151.428 211.328 151.068C211.896 150.7 212.18 150.212 212.18 149.604C212.18 149.22 212.108 148.888 211.964 148.608C211.828 148.328 211.544 148.076 211.112 147.852C210.68 147.628 210.016 147.404 209.12 147.18C208.248 146.964 207.488 146.716 206.84 146.436C206.2 146.148 205.7 145.776 205.34 145.32C204.988 144.864 204.812 144.272 204.812 143.544C204.812 142.832 205.012 142.22 205.412 141.708C205.82 141.188 206.384 140.792 207.104 140.52C207.824 140.24 208.66 140.1 209.612 140.1C210.628 140.1 211.512 140.236 212.264 140.508C213.024 140.772 213.668 141.1 214.196 141.492L213.308 142.86C212.828 142.532 212.3 142.264 211.724 142.056C211.148 141.84 210.452 141.732 209.636 141.732C208.644 141.732 207.94 141.888 207.524 142.2C207.108 142.504 206.9 142.9 206.9 143.388C206.9 143.756 207 144.064 207.2 144.312C207.408 144.552 207.756 144.772 208.244 144.972C208.732 145.164 209.404 145.376 210.26 145.608C211.084 145.824 211.8 146.084 212.408 146.388C213.024 146.692 213.504 147.092 213.848 147.588C214.192 148.084 214.364 148.724 214.364 149.508C214.364 150.404 214.108 151.132 213.596 151.692C213.084 152.244 212.42 152.648 211.604 152.904C210.796 153.152 209.94 153.276 209.036 153.276C207.892 153.276 206.916 153.112 206.108 152.784C205.308 152.448 204.636 152.044 204.092 151.572L205.244 150.24C205.74 150.648 206.308 150.98 206.948 151.236C207.596 151.484 208.292 151.608 209.036 151.608ZM229.163 152.364C228.731 152.652 228.207 152.876 227.591 153.036C226.975 153.196 226.371 153.276 225.779 153.276C224.419 153.276 223.371 152.92 222.635 152.208C221.899 151.496 221.531 150.58 221.531 149.46V141.924H218.627V140.364H221.531V137.496L223.547 137.256V140.364H227.915L227.675 141.924H223.547V149.436C223.547 150.14 223.731 150.676 224.099 151.044C224.475 151.412 225.095 151.596 225.959 151.596C226.431 151.596 226.867 151.54 227.267 151.428C227.667 151.316 228.039 151.172 228.383 150.996L229.163 152.364ZM233.641 153V151.452H235.609V141.912H233.641V140.364H237.145L237.517 143.352C238.005 142.312 238.597 141.508 239.293 140.94C239.989 140.372 240.909 140.088 242.053 140.088C242.405 140.088 242.717 140.116 242.989 140.172C243.269 140.22 243.553 140.284 243.841 140.364L243.253 142.164C242.989 142.092 242.749 142.04 242.533 142.008C242.317 141.968 242.069 141.948 241.789 141.948C240.821 141.948 239.989 142.292 239.293 142.98C238.597 143.668 238.041 144.708 237.625 146.1V151.452H240.193V153H233.641ZM241.897 144.636V141.888L242.101 140.364H243.841L243.553 144.636H241.897ZM254.308 140.364V151.404H257.872V153H248.392V151.404H252.292V141.96H248.512V140.364H254.308ZM252.7 134.448C253.148 134.448 253.504 134.584 253.768 134.856C254.04 135.128 254.176 135.46 254.176 135.852C254.176 136.26 254.04 136.604 253.768 136.884C253.504 137.156 253.148 137.292 252.7 137.292C252.276 137.292 251.928 137.156 251.656 136.884C251.384 136.604 251.248 136.26 251.248 135.852C251.248 135.46 251.384 135.128 251.656 134.856C251.928 134.584 252.276 134.448 252.7 134.448ZM262.303 153V140.364H264.019L264.175 142.116C264.687 141.468 265.327 140.972 266.095 140.628C266.871 140.276 267.623 140.1 268.351 140.1C269.591 140.1 270.491 140.428 271.051 141.084C271.619 141.74 271.903 142.652 271.903 143.82V153H269.887V145.308C269.887 144.444 269.839 143.748 269.743 143.22C269.647 142.684 269.447 142.296 269.143 142.056C268.839 141.808 268.367 141.684 267.727 141.684C267.231 141.684 266.763 141.792 266.323 142.008C265.891 142.224 265.503 142.496 265.159 142.824C264.823 143.144 264.543 143.468 264.319 143.796V153H262.303ZM286.965 139.02L287.589 140.916C287.053 141.084 286.481 141.188 285.873 141.228C285.265 141.268 284.605 141.288 283.893 141.288C284.621 141.624 285.169 142.06 285.537 142.596C285.905 143.124 286.089 143.748 286.089 144.468C286.089 145.3 285.901 146.04 285.525 146.688C285.149 147.336 284.605 147.844 283.893 148.212C283.189 148.58 282.337 148.764 281.337 148.764C280.913 148.764 280.557 148.744 280.269 148.704C279.989 148.664 279.717 148.604 279.453 148.524C279.261 148.652 279.101 148.828 278.973 149.052C278.853 149.276 278.793 149.508 278.793 149.748C278.793 150.052 278.913 150.304 279.153 150.504C279.393 150.704 279.837 150.804 280.485 150.804H282.765C283.613 150.804 284.373 150.956 285.045 151.26C285.725 151.564 286.257 151.972 286.641 152.484C287.033 152.996 287.229 153.58 287.229 154.236C287.229 155.476 286.701 156.428 285.645 157.092C284.597 157.756 283.113 158.088 281.193 158.088C279.849 158.088 278.789 157.948 278.013 157.668C277.237 157.396 276.681 156.976 276.345 156.408C276.017 155.848 275.853 155.14 275.853 154.284H277.677C277.677 154.772 277.773 155.176 277.965 155.496C278.157 155.816 278.505 156.052 279.009 156.204C279.513 156.364 280.237 156.444 281.181 156.444C282.109 156.444 282.865 156.364 283.449 156.204C284.041 156.052 284.477 155.82 284.757 155.508C285.045 155.204 285.189 154.824 285.189 154.368C285.189 153.768 284.917 153.316 284.373 153.012C283.829 152.708 283.149 152.556 282.333 152.556H280.077C278.989 152.556 278.185 152.316 277.665 151.836C277.153 151.356 276.897 150.804 276.897 150.18C276.897 149.772 277.013 149.376 277.245 148.992C277.485 148.608 277.833 148.268 278.289 147.972C277.561 147.588 277.025 147.112 276.681 146.544C276.337 145.976 276.165 145.288 276.165 144.48C276.165 143.624 276.377 142.868 276.801 142.212C277.225 141.548 277.817 141.028 278.577 140.652C279.337 140.276 280.213 140.088 281.205 140.088C282.269 140.08 283.133 140.036 283.797 139.956C284.461 139.868 285.029 139.744 285.501 139.584C285.981 139.424 286.469 139.236 286.965 139.02ZM281.205 141.564C280.189 141.564 279.437 141.84 278.949 142.392C278.469 142.936 278.229 143.632 278.229 144.48C278.229 145.336 278.477 146.04 278.973 146.592C279.469 147.144 280.229 147.42 281.253 147.42C282.149 147.42 282.829 147.16 283.293 146.64C283.765 146.12 284.001 145.396 284.001 144.468C284.001 143.516 283.765 142.796 283.293 142.308C282.829 141.812 282.133 141.564 281.205 141.564Z" fill="black"/>
<path d="M902.344 276.5C902.344 364.915 809.176 437 693.672 437C578.167 437 485 364.915 485 276.5C485 188.085 578.167 116 693.672 116C809.176 116 902.344 188.085 902.344 276.5Z" fill="#B1D6FF" fill-opacity="0.5" stroke="#3077C6" stroke-width="2"/>
<path d="M879.321 299.5C879.321 332.602 858.709 362.702 825.107 384.575C791.515 406.442 745.049 420 693.672 420C642.295 420 595.829 406.442 562.237 384.575C528.635 362.702 508.023 332.602 508.023 299.5C508.023 266.398 528.635 236.298 562.237 214.425C595.829 192.558 642.295 179 693.672 179C745.049 179 791.515 192.558 825.107 214.425C858.709 236.298 879.321 266.398 879.321 299.5Z" fill="#B1D6FF" fill-opacity="0.5" stroke="#3077C6" stroke-width="2"/>
<path d="M669.649 318.5C669.649 350.245 643.603 376 611.448 376C579.293 376 553.246 350.245 553.246 318.5C553.246 286.755 579.293 261 611.448 261C643.603 261 669.649 286.755 669.649 318.5Z" fill="#B1D6FF" fill-opacity="0.5" stroke="#3077C6" stroke-width="2"/>
<path d="M829.164 318.5C829.164 350.245 803.118 376 770.963 376C738.808 376 712.761 350.245 712.761 318.5C712.761 286.755 738.808 261 770.963 261C803.118 261 829.164 286.755 829.164 318.5Z" fill="#B1D6FF" fill-opacity="0.5" stroke="#3077C6" stroke-width="2"/>
<path d="M770.853 310.212C771.893 310.212 772.781 310.412 773.517 310.812C774.261 311.212 774.833 311.76 775.233 312.456C775.633 313.152 775.833 313.94 775.833 314.82C775.833 315.58 775.701 316.324 775.437 317.052C775.173 317.772 774.749 318.532 774.165 319.332C773.589 320.124 772.829 321.004 771.885 321.972C770.949 322.94 769.797 324.044 768.429 325.284H776.217L775.965 327H766.137V325.356C767.385 324.164 768.445 323.12 769.317 322.224C770.197 321.328 770.921 320.544 771.489 319.872C772.065 319.192 772.513 318.576 772.833 318.024C773.161 317.472 773.389 316.948 773.517 316.452C773.645 315.948 773.709 315.428 773.709 314.892C773.709 313.964 773.445 313.232 772.917 312.696C772.397 312.16 771.677 311.892 770.757 311.892C769.941 311.892 769.273 312.032 768.753 312.312C768.233 312.592 767.713 313.04 767.193 313.656L765.801 312.576C766.457 311.776 767.185 311.184 767.985 310.8C768.785 310.408 769.741 310.212 770.853 310.212Z" fill="black"/>
<path d="M613.834 310.476V326.52H611.818V312.66L608.026 314.964L607.15 313.524L612.07 310.476H613.834ZM617.29 325.356V327H607.75V325.356H617.29Z" fill="black"/>
<path d="M666.831 219.476V235.52H664.815V221.66L661.023 223.964L660.147 222.524L665.067 219.476H666.831ZM670.287 234.356V236H660.747V234.356H670.287ZM694.748 214.4V243.2H692.948V214.4H694.748ZM721.898 219.212C722.938 219.212 723.826 219.412 724.562 219.812C725.306 220.212 725.878 220.76 726.278 221.456C726.678 222.152 726.878 222.94 726.878 223.82C726.878 224.58 726.746 225.324 726.482 226.052C726.218 226.772 725.794 227.532 725.21 228.332C724.634 229.124 723.874 230.004 722.93 230.972C721.994 231.94 720.842 233.044 719.474 234.284H727.262L727.01 236H717.182V234.356C718.43 233.164 719.49 232.12 720.362 231.224C721.242 230.328 721.966 229.544 722.534 228.872C723.11 228.192 723.558 227.576 723.878 227.024C724.206 226.472 724.434 225.948 724.562 225.452C724.69 224.948 724.754 224.428 724.754 223.892C724.754 222.964 724.49 222.232 723.962 221.696C723.442 221.16 722.722 220.892 721.802 220.892C720.986 220.892 720.318 221.032 719.798 221.312C719.278 221.592 718.758 222.04 718.238 222.656L716.846 221.576C717.502 220.776 718.23 220.184 719.03 219.8C719.83 219.408 720.786 219.212 721.898 219.212Z" fill="black"/>
<path d="M652.584 153V140.364H654.3L654.456 142.116C654.968 141.468 655.608 140.972 656.376 140.628C657.152 140.276 657.904 140.1 658.632 140.1C659.872 140.1 660.772 140.428 661.332 141.084C661.9 141.74 662.184 142.652 662.184 143.82V153H660.168V145.308C660.168 144.444 660.12 143.748 660.024 143.22C659.928 142.684 659.728 142.296 659.424 142.056C659.12 141.808 658.648 141.684 658.008 141.684C657.512 141.684 657.044 141.792 656.604 142.008C656.172 142.224 655.784 142.496 655.44 142.824C655.104 143.144 654.824 143.468 654.6 143.796V153H652.584ZM668.991 140.364V149.316C668.991 150.148 669.163 150.748 669.507 151.116C669.851 151.484 670.387 151.668 671.115 151.668C671.811 151.668 672.467 151.472 673.083 151.08C673.707 150.68 674.191 150.208 674.535 149.664V140.364H676.551V153H674.835L674.667 151.296C674.171 151.936 673.559 152.428 672.831 152.772C672.103 153.108 671.367 153.276 670.622 153.276C669.399 153.276 668.483 152.952 667.875 152.304C667.275 151.648 666.975 150.732 666.975 149.556V140.364H668.991ZM689.693 140.1C690.101 140.1 690.489 140.188 690.857 140.364C691.233 140.54 691.541 140.88 691.781 141.384C692.021 141.888 692.141 142.624 692.141 143.592V153H690.269V143.916C690.269 143.124 690.221 142.552 690.125 142.2C690.029 141.848 689.753 141.672 689.297 141.672C688.921 141.672 688.545 141.792 688.169 142.032C687.801 142.264 687.441 142.648 687.089 143.184V153H685.205V143.916C685.205 143.124 685.157 142.552 685.061 142.2C684.965 141.848 684.689 141.672 684.233 141.672C683.841 141.672 683.461 141.792 683.093 142.032C682.733 142.264 682.377 142.648 682.025 143.184V153H680.165V140.364H681.749L681.869 141.828C682.213 141.34 682.597 140.932 683.021 140.604C683.453 140.268 683.985 140.1 684.617 140.1C685.097 140.1 685.549 140.216 685.973 140.448C686.397 140.672 686.709 141.112 686.909 141.768C687.253 141.272 687.641 140.872 688.073 140.568C688.505 140.256 689.045 140.1 689.693 140.1ZM697.772 142.008C698.236 141.4 698.768 140.932 699.368 140.604C699.976 140.268 700.644 140.1 701.372 140.1C702.5 140.1 703.412 140.372 704.108 140.916C704.804 141.46 705.312 142.228 705.632 143.22C705.952 144.204 706.112 145.356 706.112 146.676C706.112 147.948 705.92 149.084 705.536 150.084C705.152 151.076 704.588 151.856 703.844 152.424C703.108 152.992 702.196 153.276 701.108 153.276C699.644 153.276 698.496 152.748 697.664 151.692L697.52 153H695.756V135.276L697.772 135.024V142.008ZM700.628 151.644C701.684 151.644 702.496 151.236 703.064 150.42C703.632 149.604 703.916 148.352 703.916 146.664C703.916 145.56 703.804 144.644 703.58 143.916C703.356 143.18 703.02 142.632 702.572 142.272C702.132 141.904 701.588 141.72 700.94 141.72C700.236 141.72 699.616 141.932 699.08 142.356C698.552 142.772 698.116 143.236 697.772 143.748V150.012C698.1 150.508 698.512 150.904 699.008 151.2C699.512 151.496 700.052 151.644 700.628 151.644ZM711.73 147.396C711.77 148.372 711.958 149.172 712.294 149.796C712.63 150.412 713.074 150.868 713.626 151.164C714.178 151.452 714.778 151.596 715.426 151.596C716.074 151.596 716.658 151.5 717.178 151.308C717.706 151.116 718.246 150.832 718.798 150.456L719.746 151.788C719.154 152.252 718.478 152.616 717.718 152.88C716.966 153.144 716.194 153.276 715.402 153.276C714.178 153.276 713.134 153 712.27 152.448C711.406 151.896 710.746 151.128 710.29 150.144C709.842 149.152 709.618 148.004 709.618 146.7C709.618 145.42 709.846 144.284 710.302 143.292C710.758 142.3 711.398 141.52 712.222 140.952C713.046 140.384 714.018 140.1 715.138 140.1C716.202 140.1 717.118 140.352 717.886 140.856C718.654 141.352 719.242 142.064 719.65 142.992C720.066 143.912 720.274 145.012 720.274 146.292C720.274 146.508 720.27 146.712 720.262 146.904C720.254 147.088 720.242 147.252 720.226 147.396H711.73ZM715.162 141.756C714.226 141.756 713.442 142.088 712.81 142.752C712.186 143.416 711.83 144.444 711.742 145.836H718.33C718.306 144.484 718.01 143.468 717.442 142.788C716.874 142.1 716.114 141.756 715.162 141.756ZM724.657 153V151.452H726.625V141.912H724.657V140.364H728.161L728.533 143.352C729.021 142.312 729.613 141.508 730.309 140.94C731.005 140.372 731.925 140.088 733.069 140.088C733.421 140.088 733.733 140.116 734.005 140.172C734.285 140.22 734.569 140.284 734.857 140.364L734.269 142.164C734.005 142.092 733.765 142.04 733.549 142.008C733.333 141.968 733.085 141.948 732.805 141.948C731.837 141.948 731.005 142.292 730.309 142.98C729.613 143.668 729.057 144.708 728.641 146.1V151.452H731.209V153H724.657ZM732.913 144.636V141.888L733.117 140.364H734.857L734.569 144.636H732.913Z" fill="black"/>
<path d="M346.908 86.376C348.037 86.376 348.929 86.166 349.582 85.746C350.245 85.3167 350.576 84.7473 350.576 84.038C350.576 83.59 350.492 83.2027 350.324 82.876C350.165 82.5493 349.834 82.2553 349.33 81.994C348.826 81.7327 348.051 81.4713 347.006 81.21C345.989 80.958 345.102 80.6687 344.346 80.342C343.599 80.006 343.016 79.572 342.596 79.04C342.185 78.508 341.98 77.8173 341.98 76.968C341.98 76.1373 342.213 75.4233 342.68 74.826C343.156 74.2193 343.814 73.7573 344.654 73.44C345.494 73.1133 346.469 72.95 347.58 72.95C348.765 72.95 349.797 73.1087 350.674 73.426C351.561 73.734 352.312 74.1167 352.928 74.574L351.892 76.17C351.332 75.7873 350.716 75.4747 350.044 75.232C349.372 74.98 348.56 74.854 347.608 74.854C346.451 74.854 345.629 75.036 345.144 75.4C344.659 75.7547 344.416 76.2167 344.416 76.786C344.416 77.2153 344.533 77.5747 344.766 77.864C345.009 78.144 345.415 78.4007 345.984 78.634C346.553 78.858 347.337 79.1053 348.336 79.376C349.297 79.628 350.133 79.9313 350.842 80.286C351.561 80.6407 352.121 81.1073 352.522 81.686C352.923 82.2647 353.124 83.0113 353.124 83.926C353.124 84.9713 352.825 85.8207 352.228 86.474C351.631 87.118 350.856 87.5893 349.904 87.888C348.961 88.1773 347.963 88.322 346.908 88.322C345.573 88.322 344.435 88.1307 343.492 87.748C342.559 87.356 341.775 86.8847 341.14 86.334L342.484 84.78C343.063 85.256 343.725 85.6433 344.472 85.942C345.228 86.2313 346.04 86.376 346.908 86.376ZM370.389 87.258C369.885 87.594 369.274 87.8553 368.555 88.042C367.836 88.2287 367.132 88.322 366.441 88.322C364.854 88.322 363.632 87.9067 362.773 87.076C361.914 86.2453 361.485 85.1767 361.485 83.87V75.078H358.097V73.258H361.485V69.912L363.837 69.632V73.258H368.933L368.653 75.078H363.837V83.842C363.837 84.6633 364.052 85.2887 364.481 85.718C364.92 86.1473 365.643 86.362 366.651 86.362C367.202 86.362 367.71 86.2967 368.177 86.166C368.644 86.0353 369.078 85.8673 369.479 85.662L370.389 87.258ZM375.614 88V86.194H377.91V75.064H375.614V73.258H379.702L380.136 76.744C380.705 75.5307 381.396 74.5927 382.208 73.93C383.02 73.2673 384.093 72.936 385.428 72.936C385.839 72.936 386.203 72.9687 386.52 73.034C386.847 73.09 387.178 73.1647 387.514 73.258L386.828 75.358C386.52 75.274 386.24 75.2133 385.988 75.176C385.736 75.1293 385.447 75.106 385.12 75.106C383.991 75.106 383.02 75.5073 382.208 76.31C381.396 77.1127 380.747 78.326 380.262 79.95V86.194H383.258V88H375.614ZM385.246 78.242V75.036L385.484 73.258H387.514L387.178 78.242H385.246ZM399.725 73.258V86.138H403.883V88H392.823V86.138H397.373V75.12H392.963V73.258H399.725ZM397.849 66.356C398.372 66.356 398.787 66.5147 399.095 66.832C399.413 67.1493 399.571 67.5367 399.571 67.994C399.571 68.47 399.413 68.8713 399.095 69.198C398.787 69.5153 398.372 69.674 397.849 69.674C397.355 69.674 396.949 69.5153 396.631 69.198C396.314 68.8713 396.155 68.47 396.155 67.994C396.155 67.5367 396.314 67.1493 396.631 66.832C396.949 66.5147 397.355 66.356 397.849 66.356ZM409.052 88V73.258H411.054L411.236 75.302C411.834 74.546 412.58 73.9673 413.476 73.566C414.382 73.1553 415.259 72.95 416.108 72.95C417.555 72.95 418.605 73.3327 419.258 74.098C419.921 74.8633 420.252 75.9273 420.252 77.29V88H417.9V79.026C417.9 78.018 417.844 77.206 417.732 76.59C417.62 75.9647 417.387 75.512 417.032 75.232C416.678 74.9427 416.127 74.798 415.38 74.798C414.802 74.798 414.256 74.924 413.742 75.176C413.238 75.428 412.786 75.7453 412.384 76.128C411.992 76.5013 411.666 76.8793 411.404 77.262V88H409.052ZM437.825 71.69L438.553 73.902C437.928 74.098 437.261 74.2193 436.551 74.266C435.842 74.3127 435.072 74.336 434.241 74.336C435.091 74.728 435.73 75.2367 436.159 75.862C436.589 76.478 436.803 77.206 436.803 78.046C436.803 79.0167 436.584 79.88 436.145 80.636C435.707 81.392 435.072 81.9847 434.241 82.414C433.42 82.8433 432.426 83.058 431.259 83.058C430.765 83.058 430.349 83.0347 430.013 82.988C429.687 82.9413 429.369 82.8713 429.061 82.778C428.837 82.9273 428.651 83.1327 428.501 83.394C428.361 83.6553 428.291 83.926 428.291 84.206C428.291 84.5607 428.431 84.8547 428.711 85.088C428.991 85.3213 429.509 85.438 430.265 85.438H432.925C433.915 85.438 434.801 85.6153 435.585 85.97C436.379 86.3247 436.999 86.8007 437.447 87.398C437.905 87.9953 438.133 88.6767 438.133 89.442C438.133 90.8887 437.517 91.9993 436.285 92.774C435.063 93.5487 433.331 93.936 431.091 93.936C429.523 93.936 428.287 93.7727 427.381 93.446C426.476 93.1287 425.827 92.6387 425.435 91.976C425.053 91.3227 424.861 90.4967 424.861 89.498H426.989C426.989 90.0673 427.101 90.5387 427.325 90.912C427.549 91.2853 427.955 91.5607 428.543 91.738C429.131 91.9247 429.976 92.018 431.077 92.018C432.16 92.018 433.042 91.9247 433.723 91.738C434.414 91.5607 434.923 91.29 435.249 90.926C435.585 90.5713 435.753 90.128 435.753 89.596C435.753 88.896 435.436 88.3687 434.801 88.014C434.167 87.6593 433.373 87.482 432.421 87.482H429.789C428.52 87.482 427.582 87.202 426.975 86.642C426.378 86.082 426.079 85.438 426.079 84.71C426.079 84.234 426.215 83.772 426.485 83.324C426.765 82.876 427.171 82.4793 427.703 82.134C426.854 81.686 426.229 81.1307 425.827 80.468C425.426 79.8053 425.225 79.0027 425.225 78.06C425.225 77.0613 425.473 76.1793 425.967 75.414C426.462 74.6393 427.153 74.0327 428.039 73.594C428.926 73.1553 429.948 72.936 431.105 72.936C432.347 72.9267 433.355 72.8753 434.129 72.782C434.904 72.6793 435.567 72.5347 436.117 72.348C436.677 72.1613 437.247 71.942 437.825 71.69ZM431.105 74.658C429.92 74.658 429.043 74.98 428.473 75.624C427.913 76.2587 427.633 77.0707 427.633 78.06C427.633 79.0587 427.923 79.88 428.501 80.524C429.08 81.168 429.967 81.49 431.161 81.49C432.207 81.49 433 81.1867 433.541 80.58C434.092 79.9733 434.367 79.1287 434.367 78.046C434.367 76.9353 434.092 76.0953 433.541 75.526C433 74.9473 432.188 74.658 431.105 74.658ZM466.055 62.8V96.4H463.955V62.8H466.055ZM492.998 88V73.258H495L495.182 75.302C495.779 74.546 496.526 73.9673 497.422 73.566C498.327 73.1553 499.204 72.95 500.054 72.95C501.5 72.95 502.55 73.3327 503.204 74.098C503.866 74.8633 504.198 75.9273 504.198 77.29V88H501.846V79.026C501.846 78.018 501.79 77.206 501.678 76.59C501.566 75.9647 501.332 75.512 500.978 75.232C500.623 74.9427 500.072 74.798 499.326 74.798C498.747 74.798 498.201 74.924 497.688 75.176C497.184 75.428 496.731 75.7453 496.33 76.128C495.938 76.5013 495.611 76.8793 495.35 77.262V88H492.998ZM512.139 73.258V83.702C512.139 84.6727 512.339 85.3727 512.741 85.802C513.142 86.2313 513.767 86.446 514.617 86.446C515.429 86.446 516.194 86.2173 516.913 85.76C517.641 85.2933 518.205 84.7427 518.607 84.108V73.258H520.959V88H518.957L518.761 86.012C518.182 86.7587 517.468 87.3327 516.619 87.734C515.769 88.126 514.911 88.322 514.043 88.322C512.615 88.322 511.546 87.944 510.837 87.188C510.137 86.4227 509.787 85.354 509.787 83.982V73.258H512.139ZM536.292 72.95C536.768 72.95 537.22 73.0527 537.65 73.258C538.088 73.4633 538.448 73.86 538.728 74.448C539.008 75.036 539.148 75.8947 539.148 77.024V88H536.964V77.402C536.964 76.478 536.908 75.8107 536.796 75.4C536.684 74.9893 536.362 74.784 535.83 74.784C535.391 74.784 534.952 74.924 534.514 75.204C534.084 75.4747 533.664 75.9227 533.254 76.548V88H531.056V77.402C531.056 76.478 531 75.8107 530.888 75.4C530.776 74.9893 530.454 74.784 529.922 74.784C529.464 74.784 529.021 74.924 528.592 75.204C528.172 75.4747 527.756 75.9227 527.346 76.548V88H525.176V73.258H527.024L527.164 74.966C527.565 74.3967 528.013 73.9207 528.508 73.538C529.012 73.146 529.632 72.95 530.37 72.95C530.93 72.95 531.457 73.0853 531.952 73.356C532.446 73.6173 532.81 74.1307 533.044 74.896C533.445 74.3173 533.898 73.8507 534.402 73.496C534.906 73.132 535.536 72.95 536.292 72.95ZM545.717 75.176C546.258 74.4667 546.879 73.9207 547.579 73.538C548.288 73.146 549.067 72.95 549.917 72.95C551.233 72.95 552.297 73.2673 553.109 73.902C553.921 74.5367 554.513 75.4327 554.887 76.59C555.26 77.738 555.447 79.082 555.447 80.622C555.447 82.106 555.223 83.4313 554.775 84.598C554.327 85.7553 553.669 86.6653 552.801 87.328C551.942 87.9907 550.878 88.322 549.609 88.322C547.901 88.322 546.561 87.706 545.591 86.474L545.423 88H543.365V67.322L545.717 67.028V75.176ZM549.049 86.418C550.281 86.418 551.228 85.942 551.891 84.99C552.553 84.038 552.885 82.5773 552.885 80.608C552.885 79.32 552.754 78.2513 552.493 77.402C552.231 76.5433 551.839 75.904 551.317 75.484C550.803 75.0547 550.169 74.84 549.413 74.84C548.591 74.84 547.868 75.0873 547.243 75.582C546.627 76.0673 546.118 76.6087 545.717 77.206V84.514C546.099 85.0927 546.58 85.5547 547.159 85.9C547.747 86.2453 548.377 86.418 549.049 86.418ZM562.002 81.462C562.049 82.6007 562.268 83.534 562.66 84.262C563.052 84.9807 563.57 85.5127 564.214 85.858C564.858 86.194 565.558 86.362 566.314 86.362C567.07 86.362 567.751 86.25 568.358 86.026C568.974 85.802 569.604 85.4707 570.248 85.032L571.354 86.586C570.663 87.1273 569.875 87.552 568.988 87.86C568.111 88.168 567.21 88.322 566.286 88.322C564.858 88.322 563.64 88 562.632 87.356C561.624 86.712 560.854 85.816 560.322 84.668C559.799 83.5107 559.538 82.1713 559.538 80.65C559.538 79.1567 559.804 77.8313 560.336 76.674C560.868 75.5167 561.615 74.6067 562.576 73.944C563.537 73.2813 564.671 72.95 565.978 72.95C567.219 72.95 568.288 73.244 569.184 73.832C570.08 74.4107 570.766 75.2413 571.242 76.324C571.727 77.3973 571.97 78.6807 571.97 80.174C571.97 80.426 571.965 80.664 571.956 80.888C571.947 81.1027 571.933 81.294 571.914 81.462H562.002ZM566.006 74.882C564.914 74.882 563.999 75.2693 563.262 76.044C562.534 76.8187 562.119 78.018 562.016 79.642H569.702C569.674 78.0647 569.329 76.8793 568.666 76.086C568.003 75.2833 567.117 74.882 566.006 74.882ZM577.083 88V86.194H579.379V75.064H577.083V73.258H581.171L581.605 76.744C582.174 75.5307 582.865 74.5927 583.677 73.93C584.489 73.2673 585.562 72.936 586.897 72.936C587.308 72.936 587.672 72.9687 587.989 73.034C588.316 73.09 588.647 73.1647 588.983 73.258L588.297 75.358C587.989 75.274 587.709 75.2133 587.457 75.176C587.205 75.1293 586.916 75.106 586.589 75.106C585.46 75.106 584.489 75.5073 583.677 76.31C582.865 77.1127 582.216 78.326 581.731 79.95V86.194H584.727V88H577.083ZM586.715 78.242V75.036L586.953 73.258H588.983L588.647 78.242H586.715Z" fill="black"/>
</svg>
