<svg width="427" height="278" viewBox="0 0 427 278" fill="none" xmlns="http://www.w3.org/2000/svg">
<path d="M426 139C426 176.934 402.382 211.41 363.922 236.45C325.47 261.484 272.291 277 213.5 277C154.709 277 101.53 261.484 63.0783 236.45C24.6178 211.41 1 176.934 1 139C1 101.066 24.6178 66.5901 63.0783 41.5502C101.53 16.5164 154.709 1 213.5 1C272.291 1 325.47 16.5164 363.922 41.5502C402.382 66.5901 426 101.066 426 139Z" fill="#B1D6FF" fill-opacity="0.5" stroke="#3077C6" stroke-width="2"/>
<path d="M348 180.5C348 189.343 342.973 197.444 334.654 203.374C326.336 209.302 314.795 213 302 213C289.205 213 277.664 209.302 269.346 203.374C261.027 197.444 256 189.343 256 180.5C256 171.657 261.027 163.556 269.346 157.626C277.664 151.698 289.205 148 302 148C314.795 148 326.336 151.698 334.654 157.626C342.973 163.556 348 171.657 348 180.5Z" fill="#B1D6FF" fill-opacity="0.5" stroke="#3077C6" stroke-width="2"/>
<path d="M305.209 184.788H298.669L297.349 189H295.297L300.673 172.476H303.337L308.713 189H306.529L305.209 184.788ZM299.209 183.06H304.669L301.957 174.228L299.209 183.06Z" fill="black"/>
<path d="M167.561 88.364V97.316C167.561 98.148 167.733 98.748 168.077 99.116C168.421 99.484 168.957 99.668 169.685 99.668C170.381 99.668 171.037 99.472 171.653 99.08C172.277 98.68 172.761 98.208 173.105 97.664V88.364H175.121V101H173.405L173.237 99.296C172.741 99.936 172.129 100.428 171.401 100.772C170.673 101.108 169.937 101.276 169.193 101.276C167.969 101.276 167.053 100.952 166.445 100.304C165.845 99.648 165.545 98.732 165.545 97.556V88.364H167.561ZM179.935 101V88.364H181.651L181.807 90.116C182.319 89.468 182.959 88.972 183.727 88.628C184.503 88.276 185.255 88.1 185.983 88.1C187.223 88.1 188.123 88.428 188.683 89.084C189.251 89.74 189.535 90.652 189.535 91.82V101H187.519V93.308C187.519 92.444 187.471 91.748 187.375 91.22C187.279 90.684 187.079 90.296 186.775 90.056C186.471 89.808 185.999 89.684 185.359 89.684C184.863 89.684 184.395 89.792 183.955 90.008C183.523 90.224 183.135 90.496 182.791 90.824C182.455 91.144 182.175 91.468 181.951 91.796V101H179.935ZM204.91 88.364L199.222 94.052L205.57 101H202.918L196.702 94.1L202.294 88.364H204.91ZM196.474 83.024V101H194.458V83.276L196.474 83.024ZM208.717 101V88.364H210.433L210.589 90.116C211.101 89.468 211.741 88.972 212.509 88.628C213.285 88.276 214.037 88.1 214.765 88.1C216.005 88.1 216.905 88.428 217.465 89.084C218.033 89.74 218.317 90.652 218.317 91.82V101H216.301V93.308C216.301 92.444 216.253 91.748 216.157 91.22C216.061 90.684 215.861 90.296 215.557 90.056C215.253 89.808 214.781 89.684 214.141 89.684C213.645 89.684 213.177 89.792 212.737 90.008C212.305 90.224 211.917 90.496 211.573 90.824C211.237 91.144 210.957 91.468 210.733 91.796V101H208.717ZM227.919 88.1C229.111 88.1 230.107 88.372 230.907 88.916C231.715 89.452 232.319 90.212 232.719 91.196C233.127 92.18 233.331 93.34 233.331 94.676C233.331 95.964 233.123 97.104 232.707 98.096C232.291 99.088 231.679 99.868 230.871 100.436C230.071 100.996 229.079 101.276 227.895 101.276C226.711 101.276 225.715 101.004 224.907 100.46C224.099 99.916 223.487 99.152 223.071 98.168C222.663 97.176 222.459 96.02 222.459 94.7C222.459 93.396 222.667 92.248 223.083 91.256C223.499 90.264 224.111 89.492 224.919 88.94C225.735 88.38 226.735 88.1 227.919 88.1ZM227.919 89.744C226.831 89.744 226.007 90.148 225.447 90.956C224.895 91.756 224.619 93.004 224.619 94.7C224.619 96.364 224.891 97.6 225.435 98.408C225.987 99.216 226.807 99.62 227.895 99.62C228.983 99.62 229.799 99.216 230.343 98.408C230.895 97.6 231.171 96.356 231.171 94.676C231.171 92.996 230.899 91.756 230.355 90.956C229.811 90.148 228.999 89.744 227.919 89.744ZM246.858 101H244.002L242.37 91.724L240.594 101H237.81L235.506 88.364H237.57L239.178 99.752L241.194 89.972H243.582L245.49 99.752L247.098 88.364H249.066L246.858 101ZM251.889 101V88.364H253.605L253.761 90.116C254.273 89.468 254.913 88.972 255.681 88.628C256.457 88.276 257.209 88.1 257.937 88.1C259.177 88.1 260.077 88.428 260.637 89.084C261.205 89.74 261.489 90.652 261.489 91.82V101H259.473V93.308C259.473 92.444 259.425 91.748 259.329 91.22C259.233 90.684 259.033 90.296 258.729 90.056C258.425 89.808 257.953 89.684 257.313 89.684C256.817 89.684 256.349 89.792 255.909 90.008C255.477 90.224 255.089 90.496 254.745 90.824C254.409 91.144 254.129 91.468 253.905 91.796V101H251.889Z" fill="black"/>
</svg>
