<svg width="852" height="672" viewBox="0 0 852 672" fill="none" xmlns="http://www.w3.org/2000/svg">
<path d="M851 336C851 520.807 660.955 671 426 671C191.045 671 1 520.807 1 336C1 151.193 191.045 1 426 1C660.955 1 851 151.193 851 336Z" fill="#B1D6FF" fill-opacity="0.5" stroke="#3077C6" stroke-width="2"/>
<path d="M801 381C801 456.818 758.858 525.544 690.551 575.353C622.244 625.162 527.831 656 423.5 656C319.169 656 224.756 625.162 156.449 575.353C88.142 525.544 46 456.818 46 381C46 305.182 88.142 236.456 156.449 186.647C224.756 136.838 319.169 106 423.5 106C527.831 106 622.244 136.838 690.551 186.647C758.858 236.456 801 305.182 801 381Z" fill="#B1D6FF" fill-opacity="0.5" stroke="#3077C6" stroke-width="2"/>
<path d="M737 430C737 487.835 702.393 540.311 646.203 578.372C590.019 616.429 512.345 640 426.5 640C340.655 640 262.981 616.429 206.797 578.372C150.607 540.311 116 487.835 116 430C116 372.165 150.607 319.689 206.797 281.628C262.981 243.571 340.655 220 426.5 220C512.345 220 590.019 243.571 646.203 281.628C702.393 319.689 737 372.165 737 430Z" fill="#B1D6FF" fill-opacity="0.5" stroke="#3077C6" stroke-width="2"/>
<path d="M616.117 504.031C616.117 536.151 595.095 565.386 560.777 586.642C526.475 607.889 479.024 621.063 426.559 621.063C374.093 621.063 326.642 607.889 292.34 586.642C258.022 565.386 237 536.151 237 504.031C237 471.911 258.022 442.677 292.34 421.421C326.642 400.174 374.093 387 426.559 387C479.024 387 526.475 400.174 560.777 421.421C595.095 442.677 616.117 471.911 616.117 504.031Z" fill="#B1D6FF" fill-opacity="0.5" stroke="#3077C6" stroke-width="2"/>
<path d="M410.344 443.23V454.402C410.344 455.514 410.116 456.494 409.66 457.342C409.212 458.19 408.576 458.85 407.752 459.322C406.936 459.794 405.972 460.03 404.86 460.03C403.724 460.03 402.748 459.794 401.932 459.322C401.124 458.842 400.504 458.178 400.072 457.33C399.64 456.482 399.424 455.506 399.424 454.402V443.23H401.488V454.474C401.488 455.73 401.78 456.67 402.364 457.294C402.956 457.918 403.788 458.23 404.86 458.23C405.94 458.23 406.772 457.918 407.356 457.294C407.948 456.67 408.244 455.73 408.244 454.474V443.23H410.344ZM418.783 458.362C419.751 458.362 420.515 458.182 421.075 457.822C421.643 457.454 421.927 456.966 421.927 456.358C421.927 455.974 421.855 455.642 421.711 455.362C421.575 455.082 421.291 454.83 420.859 454.606C420.427 454.382 419.763 454.158 418.867 453.934C417.995 453.718 417.235 453.47 416.587 453.19C415.947 452.902 415.447 452.53 415.087 452.074C414.735 451.618 414.559 451.026 414.559 450.298C414.559 449.586 414.759 448.974 415.159 448.462C415.567 447.942 416.131 447.546 416.851 447.274C417.571 446.994 418.407 446.854 419.359 446.854C420.375 446.854 421.259 446.99 422.011 447.262C422.771 447.526 423.415 447.854 423.943 448.246L423.055 449.614C422.575 449.286 422.047 449.018 421.471 448.81C420.895 448.594 420.199 448.486 419.383 448.486C418.391 448.486 417.687 448.642 417.271 448.954C416.855 449.258 416.647 449.654 416.647 450.142C416.647 450.51 416.747 450.818 416.947 451.066C417.155 451.306 417.503 451.526 417.991 451.726C418.479 451.918 419.151 452.13 420.007 452.362C420.831 452.578 421.547 452.838 422.155 453.142C422.771 453.446 423.251 453.846 423.595 454.342C423.939 454.838 424.111 455.478 424.111 456.262C424.111 457.158 423.855 457.886 423.343 458.446C422.831 458.998 422.167 459.402 421.351 459.658C420.543 459.906 419.687 460.03 418.783 460.03C417.639 460.03 416.663 459.866 415.855 459.538C415.055 459.202 414.383 458.798 413.839 458.326L414.991 456.994C415.487 457.402 416.055 457.734 416.695 457.99C417.343 458.238 418.039 458.362 418.783 458.362ZM430.461 454.15C430.501 455.126 430.689 455.926 431.025 456.55C431.361 457.166 431.805 457.622 432.357 457.918C432.909 458.206 433.509 458.35 434.157 458.35C434.805 458.35 435.389 458.254 435.909 458.062C436.437 457.87 436.977 457.586 437.529 457.21L438.477 458.542C437.885 459.006 437.209 459.37 436.449 459.634C435.697 459.898 434.925 460.03 434.133 460.03C432.909 460.03 431.865 459.754 431.001 459.202C430.137 458.65 429.477 457.882 429.021 456.898C428.573 455.906 428.349 454.758 428.349 453.454C428.349 452.174 428.577 451.038 429.033 450.046C429.489 449.054 430.129 448.274 430.953 447.706C431.777 447.138 432.749 446.854 433.869 446.854C434.933 446.854 435.849 447.106 436.617 447.61C437.385 448.106 437.973 448.818 438.381 449.746C438.797 450.666 439.005 451.766 439.005 453.046C439.005 453.262 439.001 453.466 438.993 453.658C438.985 453.842 438.973 454.006 438.957 454.15H430.461ZM433.893 448.51C432.957 448.51 432.173 448.842 431.541 449.506C430.917 450.17 430.561 451.198 430.473 452.59H437.061C437.037 451.238 436.741 450.222 436.173 449.542C435.605 448.854 434.845 448.51 433.893 448.51ZM443.388 459.754V458.206H445.356V448.666H443.388V447.118H446.892L447.264 450.106C447.752 449.066 448.344 448.262 449.04 447.694C449.736 447.126 450.656 446.842 451.8 446.842C452.152 446.842 452.464 446.87 452.736 446.926C453.016 446.974 453.3 447.038 453.588 447.118L453 448.918C452.736 448.846 452.496 448.794 452.28 448.762C452.064 448.722 451.816 448.702 451.536 448.702C450.568 448.702 449.736 449.046 449.04 449.734C448.344 450.422 447.788 451.462 447.372 452.854V458.206H449.94V459.754H443.388ZM451.644 451.39V448.642L451.848 447.118H453.588L453.3 451.39H451.644Z" fill="black"/>
<path d="M543.878 555.78C543.878 561.744 540.696 567.543 534.689 572.933C528.682 578.323 519.934 583.222 509.038 587.358C487.253 595.625 457.09 600.76 423.724 600.76C390.358 600.76 360.195 595.625 338.41 587.358C327.514 583.222 318.766 578.323 312.759 572.933C306.752 567.543 303.57 561.744 303.57 555.78C303.57 549.815 306.752 544.017 312.759 538.626C318.766 533.237 327.514 528.337 338.41 524.202C360.195 515.934 390.358 510.8 423.724 510.8C457.09 510.8 487.253 515.934 509.038 524.202C519.934 528.337 528.682 533.237 534.689 538.626C540.696 544.017 543.878 549.815 543.878 555.78Z" fill="#B1D6FF" fill-opacity="0.5" stroke="#3077C6" stroke-width="2"/>
<path d="M357.238 549.221C357.238 549.984 357.133 550.661 356.924 551.251C356.719 551.838 356.409 552.298 355.995 552.631C355.581 552.962 355.065 553.127 354.449 553.127C353.837 553.127 353.322 552.965 352.904 552.642C352.49 552.316 352.178 551.861 351.969 551.278C351.764 550.695 351.661 550.013 351.661 549.232C351.661 548.466 351.764 547.788 351.969 547.197C352.178 546.607 352.49 546.145 352.904 545.811C353.322 545.474 353.837 545.305 354.449 545.305C355.065 545.305 355.581 545.469 355.995 545.795C356.409 546.121 356.719 546.578 356.924 547.164C357.133 547.751 357.238 548.437 357.238 549.221ZM356.237 549.221C356.237 548.213 356.098 547.441 355.819 546.906C355.544 546.371 355.087 546.103 354.449 546.103C353.811 546.103 353.353 546.372 353.074 546.912C352.799 547.45 352.662 548.224 352.662 549.232C352.662 550.241 352.805 551.009 353.091 551.537C353.377 552.061 353.83 552.323 354.449 552.323C355.087 552.323 355.544 552.059 355.819 551.531C356.098 551 356.237 550.23 356.237 549.221ZM359.775 547.962C359.987 547.683 360.231 547.469 360.506 547.319C360.785 547.164 361.091 547.087 361.425 547.087C361.942 547.087 362.36 547.212 362.679 547.461C362.998 547.711 363.23 548.063 363.377 548.517C363.524 548.968 363.597 549.496 363.597 550.101C363.597 550.684 363.509 551.205 363.333 551.663C363.157 552.118 362.899 552.476 362.558 552.736C362.22 552.996 361.802 553.127 361.304 553.127C360.633 553.127 360.106 552.884 359.725 552.4L359.659 553H358.851V544.876L359.775 544.761V547.962ZM361.084 552.378C361.568 552.378 361.94 552.191 362.2 551.817C362.46 551.443 362.591 550.87 362.591 550.096C362.591 549.59 362.539 549.17 362.437 548.836C362.334 548.499 362.18 548.248 361.975 548.083C361.773 547.914 361.524 547.83 361.227 547.83C360.904 547.83 360.62 547.927 360.374 548.121C360.132 548.312 359.932 548.525 359.775 548.759V551.63C359.925 551.858 360.114 552.039 360.341 552.175C360.572 552.311 360.82 552.378 361.084 552.378ZM369.236 547.208V552.07C369.236 552.716 369.091 553.255 368.801 553.688C368.512 554.124 368.092 554.474 367.542 554.738C366.992 555.002 366.326 555.2 365.545 555.332L365.391 554.617C365.963 554.522 366.469 554.379 366.909 554.188C367.349 553.997 367.692 553.735 367.938 553.402C368.187 553.072 368.312 552.648 368.312 552.131V547.94H365.903V547.208H369.236ZM368.372 544.497C368.578 544.497 368.743 544.559 368.867 544.684C368.992 544.809 369.054 544.961 369.054 545.14C369.054 545.327 368.992 545.485 368.867 545.613C368.743 545.738 368.578 545.8 368.372 545.8C368.174 545.8 368.015 545.738 367.894 545.613C367.773 545.485 367.712 545.327 367.712 545.14C367.712 544.961 367.773 544.809 367.894 544.684C368.015 544.559 368.174 544.497 368.372 544.497ZM372.768 550.431C372.786 550.879 372.873 551.245 373.027 551.531C373.181 551.814 373.384 552.023 373.637 552.158C373.89 552.29 374.165 552.356 374.462 552.356C374.759 552.356 375.027 552.312 375.265 552.224C375.507 552.136 375.755 552.006 376.008 551.834L376.442 552.444C376.171 552.657 375.861 552.824 375.513 552.945C375.168 553.066 374.814 553.127 374.451 553.127C373.89 553.127 373.412 553 373.016 552.747C372.62 552.494 372.317 552.142 372.108 551.691C371.903 551.236 371.8 550.71 371.8 550.112C371.8 549.526 371.905 549.005 372.114 548.55C372.323 548.096 372.616 547.738 372.994 547.478C373.371 547.218 373.817 547.087 374.33 547.087C374.818 547.087 375.238 547.203 375.59 547.434C375.942 547.661 376.211 547.988 376.398 548.413C376.589 548.835 376.684 549.339 376.684 549.925C376.684 550.024 376.682 550.118 376.679 550.206C376.675 550.29 376.669 550.365 376.662 550.431H372.768ZM374.341 547.846C373.912 547.846 373.553 547.999 373.263 548.303C372.977 548.607 372.814 549.078 372.774 549.716H375.793C375.782 549.097 375.646 548.631 375.386 548.319C375.126 548.004 374.777 547.846 374.341 547.846ZM381.256 552.329C381.545 552.329 381.815 552.281 382.064 552.186C382.317 552.091 382.55 551.97 382.763 551.823L383.214 552.428C382.961 552.644 382.656 552.815 382.301 552.939C381.945 553.064 381.597 553.127 381.256 553.127C380.68 553.127 380.189 553.004 379.782 552.758C379.378 552.509 379.07 552.16 378.858 551.713C378.645 551.262 378.539 550.734 378.539 550.129C378.539 549.55 378.645 549.031 378.858 548.572C379.074 548.11 379.384 547.747 379.787 547.483C380.194 547.219 380.687 547.087 381.267 547.087C381.637 547.087 381.984 547.144 382.306 547.258C382.633 547.368 382.931 547.535 383.203 547.758L382.752 548.374C382.506 548.202 382.259 548.074 382.009 547.989C381.764 547.901 381.512 547.857 381.256 547.857C380.757 547.857 380.346 548.044 380.024 548.418C379.701 548.792 379.54 549.363 379.54 550.129C379.54 550.642 379.613 551.062 379.76 551.388C379.91 551.711 380.114 551.949 380.37 552.103C380.631 552.254 380.926 552.329 381.256 552.329ZM389.831 552.708C389.633 552.84 389.393 552.943 389.111 553.017C388.829 553.09 388.552 553.127 388.28 553.127C387.657 553.127 387.177 552.963 386.839 552.637C386.502 552.311 386.333 551.891 386.333 551.377V547.923H385.002V547.208H386.333V545.894L387.257 545.784V547.208H389.259L389.149 547.923H387.257V551.366C387.257 551.689 387.342 551.935 387.51 552.103C387.683 552.272 387.967 552.356 388.363 552.356C388.579 552.356 388.779 552.331 388.962 552.279C389.146 552.228 389.316 552.162 389.474 552.081L389.831 552.708ZM393.798 552.362C394.242 552.362 394.592 552.279 394.849 552.114C395.109 551.946 395.239 551.722 395.239 551.443C395.239 551.267 395.206 551.115 395.14 550.987C395.078 550.859 394.948 550.743 394.75 550.64C394.552 550.538 394.247 550.435 393.837 550.332C393.437 550.233 393.089 550.12 392.792 549.991C392.498 549.859 392.269 549.689 392.104 549.48C391.943 549.271 391.862 549 391.862 548.666C391.862 548.34 391.954 548.059 392.137 547.824C392.324 547.586 392.583 547.405 392.913 547.28C393.243 547.152 393.626 547.087 394.062 547.087C394.528 547.087 394.933 547.15 395.278 547.274C395.626 547.395 395.921 547.546 396.163 547.725L395.756 548.352C395.536 548.202 395.294 548.079 395.03 547.984C394.766 547.885 394.447 547.835 394.073 547.835C393.618 547.835 393.296 547.907 393.105 548.05C392.914 548.189 392.819 548.371 392.819 548.594C392.819 548.763 392.865 548.904 392.957 549.018C393.052 549.128 393.211 549.229 393.435 549.32C393.659 549.408 393.967 549.506 394.359 549.612C394.737 549.711 395.065 549.83 395.344 549.97C395.626 550.109 395.846 550.292 396.004 550.519C396.161 550.747 396.24 551.04 396.24 551.399C396.24 551.81 396.123 552.144 395.888 552.4C395.653 552.653 395.349 552.839 394.975 552.956C394.605 553.07 394.212 553.127 393.798 553.127C393.274 553.127 392.826 553.051 392.456 552.901C392.089 552.747 391.781 552.562 391.532 552.345L392.06 551.735C392.287 551.922 392.548 552.074 392.841 552.192C393.138 552.305 393.457 552.362 393.798 552.362ZM409.311 553H408.002L407.254 548.748L406.44 553H405.164L404.108 547.208H405.054L405.791 552.428L406.715 547.945H407.809L408.684 552.428L409.421 547.208H410.323L409.311 553ZM414.548 547.208V552.268H416.181V553H411.836V552.268H413.624V547.94H411.891V547.208H414.548ZM413.811 544.497C414.016 544.497 414.179 544.559 414.3 544.684C414.425 544.809 414.487 544.961 414.487 545.14C414.487 545.327 414.425 545.485 414.3 545.613C414.179 545.738 414.016 545.8 413.811 545.8C413.616 545.8 413.457 545.738 413.332 545.613C413.208 545.485 413.145 545.327 413.145 545.14C413.145 544.961 413.208 544.809 413.332 544.684C413.457 544.559 413.616 544.497 413.811 544.497ZM422.81 552.708C422.612 552.84 422.372 552.943 422.089 553.017C421.807 553.09 421.53 553.127 421.259 553.127C420.636 553.127 420.155 552.963 419.818 552.637C419.481 552.311 419.312 551.891 419.312 551.377V547.923H417.981V547.208H419.312V545.894L420.236 545.784V547.208H422.238L422.128 547.923H420.236V551.366C420.236 551.689 420.32 551.935 420.489 552.103C420.661 552.272 420.945 552.356 421.341 552.356C421.558 552.356 421.758 552.331 421.941 552.279C422.124 552.228 422.295 552.162 422.452 552.081L422.81 552.708ZM425.732 544.788V548C425.959 547.696 426.238 547.469 426.568 547.319C426.901 547.164 427.239 547.087 427.58 547.087C428.144 547.087 428.557 547.238 428.817 547.538C429.077 547.839 429.208 548.257 429.208 548.792V553H428.284V548.814C428.284 548.466 428.203 548.213 428.042 548.055C427.88 547.894 427.627 547.813 427.283 547.813C427.063 547.813 426.854 547.863 426.656 547.962C426.458 548.061 426.28 548.184 426.122 548.33C425.964 548.477 425.834 548.627 425.732 548.781V553H424.808V544.887L425.732 544.788ZM441.816 547.087C442.003 547.087 442.181 547.128 442.35 547.208C442.522 547.289 442.663 547.445 442.773 547.676C442.883 547.907 442.938 548.244 442.938 548.688V553H442.08V548.836C442.08 548.473 442.058 548.211 442.014 548.05C441.97 547.889 441.844 547.808 441.635 547.808C441.462 547.808 441.29 547.863 441.118 547.973C440.949 548.079 440.784 548.255 440.623 548.501V553H439.759V548.836C439.759 548.473 439.737 548.211 439.693 548.05C439.649 547.889 439.523 547.808 439.314 547.808C439.134 547.808 438.96 547.863 438.791 547.973C438.626 548.079 438.463 548.255 438.302 548.501V553H437.449V547.208H438.175L438.23 547.879C438.388 547.656 438.564 547.469 438.758 547.319C438.956 547.164 439.2 547.087 439.49 547.087C439.71 547.087 439.917 547.141 440.111 547.247C440.305 547.35 440.448 547.551 440.54 547.852C440.698 547.625 440.876 547.441 441.074 547.302C441.272 547.159 441.519 547.087 441.816 547.087ZM446.8 547.087C447.347 547.087 447.803 547.212 448.17 547.461C448.54 547.707 448.817 548.055 449 548.506C449.187 548.957 449.281 549.489 449.281 550.101C449.281 550.692 449.185 551.214 448.995 551.669C448.804 552.124 448.524 552.481 448.153 552.741C447.787 552.998 447.332 553.127 446.789 553.127C446.247 553.127 445.79 553.002 445.42 552.752C445.049 552.503 444.769 552.153 444.578 551.702C444.391 551.247 444.298 550.717 444.298 550.112C444.298 549.515 444.393 548.989 444.584 548.534C444.774 548.079 445.055 547.725 445.425 547.473C445.799 547.216 446.258 547.087 446.8 547.087ZM446.8 547.841C446.302 547.841 445.924 548.026 445.667 548.396C445.414 548.763 445.288 549.335 445.288 550.112C445.288 550.875 445.412 551.442 445.662 551.812C445.915 552.182 446.291 552.367 446.789 552.367C447.288 552.367 447.662 552.182 447.911 551.812C448.164 551.442 448.291 550.871 448.291 550.101C448.291 549.331 448.166 548.763 447.917 548.396C447.667 548.026 447.295 547.841 446.8 547.841ZM451.245 553V552.29H452.147V547.918H451.245V547.208H452.851L453.022 548.578C453.246 548.101 453.517 547.733 453.836 547.473C454.155 547.212 454.577 547.082 455.101 547.082C455.262 547.082 455.405 547.095 455.53 547.12C455.658 547.142 455.788 547.172 455.92 547.208L455.651 548.033C455.53 548 455.42 547.977 455.321 547.962C455.222 547.944 455.108 547.934 454.98 547.934C454.536 547.934 454.155 548.092 453.836 548.407C453.517 548.723 453.262 549.199 453.071 549.837V552.29H454.248V553H451.245ZM455.029 549.166V547.907L455.123 547.208H455.92L455.788 549.166H455.029ZM458.512 550.431C458.53 550.879 458.617 551.245 458.771 551.531C458.925 551.814 459.128 552.023 459.381 552.158C459.634 552.29 459.909 552.356 460.206 552.356C460.503 552.356 460.771 552.312 461.009 552.224C461.251 552.136 461.499 552.006 461.752 551.834L462.186 552.444C461.915 552.657 461.605 552.824 461.257 552.945C460.912 553.066 460.558 553.127 460.195 553.127C459.634 553.127 459.156 553 458.76 552.747C458.364 552.494 458.061 552.142 457.852 551.691C457.647 551.236 457.544 550.71 457.544 550.112C457.544 549.526 457.649 549.005 457.858 548.55C458.067 548.096 458.36 547.738 458.738 547.478C459.115 547.218 459.561 547.087 460.074 547.087C460.562 547.087 460.982 547.203 461.334 547.434C461.686 547.661 461.955 547.988 462.142 548.413C462.333 548.835 462.428 549.339 462.428 549.925C462.428 550.024 462.426 550.118 462.423 550.206C462.419 550.29 462.413 550.365 462.406 550.431H458.512ZM460.085 547.846C459.656 547.846 459.297 547.999 459.007 548.303C458.721 548.607 458.558 549.078 458.518 549.716H461.537C461.526 549.097 461.39 548.631 461.13 548.319C460.87 548.004 460.521 547.846 460.085 547.846ZM473.568 547.087C474.081 547.087 474.49 547.212 474.795 547.461C475.103 547.711 475.324 548.063 475.46 548.517C475.596 548.968 475.664 549.496 475.664 550.101C475.664 550.684 475.581 551.205 475.416 551.663C475.255 552.118 475.009 552.476 474.679 552.736C474.349 552.996 473.933 553.127 473.431 553.127C472.796 553.127 472.287 552.903 471.902 552.455V555.217L470.978 555.332V547.208H471.764L471.841 548.017C472.054 547.72 472.307 547.491 472.6 547.329C472.897 547.168 473.22 547.087 473.568 547.087ZM473.348 547.83C473.029 547.83 472.747 547.927 472.501 548.121C472.259 548.312 472.059 548.525 471.902 548.759V551.63C472.052 551.854 472.241 552.032 472.468 552.164C472.699 552.292 472.952 552.356 473.227 552.356C473.707 552.356 474.069 552.173 474.311 551.806C474.553 551.44 474.674 550.87 474.674 550.096C474.674 549.59 474.626 549.17 474.531 548.836C474.435 548.499 474.29 548.248 474.096 548.083C473.902 547.914 473.652 547.83 473.348 547.83ZM477.628 553V552.29H478.53V547.918H477.628V547.208H479.234L479.405 548.578C479.628 548.101 479.9 547.733 480.219 547.473C480.538 547.212 480.959 547.082 481.484 547.082C481.645 547.082 481.788 547.095 481.913 547.12C482.041 547.142 482.171 547.172 482.303 547.208L482.034 548.033C481.913 548 481.803 547.977 481.704 547.962C481.605 547.944 481.491 547.934 481.363 547.934C480.919 547.934 480.538 548.092 480.219 548.407C479.9 548.723 479.645 549.199 479.454 549.837V552.29H480.631V553H477.628ZM481.412 549.166V547.907L481.506 547.208H482.303L482.171 549.166H481.412ZM486.374 547.087C486.921 547.087 487.377 547.212 487.744 547.461C488.114 547.707 488.391 548.055 488.574 548.506C488.761 548.957 488.855 549.489 488.855 550.101C488.855 550.692 488.76 551.214 488.569 551.669C488.378 552.124 488.098 552.481 487.727 552.741C487.361 552.998 486.906 553.127 486.363 553.127C485.821 553.127 485.364 553.002 484.994 552.752C484.624 552.503 484.343 552.153 484.152 551.702C483.965 551.247 483.872 550.717 483.872 550.112C483.872 549.515 483.967 548.989 484.158 548.534C484.349 548.079 484.629 547.725 484.999 547.473C485.373 547.216 485.832 547.087 486.374 547.087ZM486.374 547.841C485.876 547.841 485.498 548.026 485.241 548.396C484.988 548.763 484.862 549.335 484.862 550.112C484.862 550.875 484.987 551.442 485.236 551.812C485.489 552.182 485.865 552.367 486.363 552.367C486.862 552.367 487.236 552.182 487.485 551.812C487.738 551.442 487.865 550.871 487.865 550.101C487.865 549.331 487.74 548.763 487.491 548.396C487.242 548.026 486.869 547.841 486.374 547.841ZM493.355 547.087C493.869 547.087 494.277 547.212 494.582 547.461C494.89 547.711 495.112 548.063 495.247 548.517C495.383 548.968 495.451 549.496 495.451 550.101C495.451 550.684 495.368 551.205 495.203 551.663C495.042 552.118 494.796 552.476 494.466 552.736C494.136 552.996 493.72 553.127 493.218 553.127C492.583 553.127 492.074 552.903 491.689 552.455V555.217L490.765 555.332V547.208H491.551L491.628 548.017C491.841 547.72 492.094 547.491 492.387 547.329C492.684 547.168 493.007 547.087 493.355 547.087ZM493.135 547.83C492.816 547.83 492.534 547.927 492.288 548.121C492.046 548.312 491.846 548.525 491.689 548.759V551.63C491.839 551.854 492.028 552.032 492.255 552.164C492.486 552.292 492.739 552.356 493.014 552.356C493.495 552.356 493.856 552.173 494.098 551.806C494.34 551.44 494.461 550.87 494.461 550.096C494.461 549.59 494.413 549.17 494.318 548.836C494.222 548.499 494.078 548.248 493.883 548.083C493.689 547.914 493.44 547.83 493.135 547.83ZM499.329 552.362C499.773 552.362 500.123 552.279 500.38 552.114C500.64 551.946 500.77 551.722 500.77 551.443C500.77 551.267 500.737 551.115 500.671 550.987C500.609 550.859 500.479 550.743 500.281 550.64C500.083 550.538 499.779 550.435 499.368 550.332C498.968 550.233 498.62 550.12 498.323 549.991C498.03 549.859 497.8 549.689 497.635 549.48C497.474 549.271 497.393 549 497.393 548.666C497.393 548.34 497.485 548.059 497.668 547.824C497.855 547.586 498.114 547.405 498.444 547.28C498.774 547.152 499.157 547.087 499.593 547.087C500.059 547.087 500.464 547.15 500.809 547.274C501.157 547.395 501.452 547.546 501.694 547.725L501.287 548.352C501.067 548.202 500.825 548.079 500.561 547.984C500.297 547.885 499.978 547.835 499.604 547.835C499.15 547.835 498.827 547.907 498.636 548.05C498.446 548.189 498.35 548.371 498.35 548.594C498.35 548.763 498.396 548.904 498.488 549.018C498.583 549.128 498.743 549.229 498.966 549.32C499.19 549.408 499.498 549.506 499.89 549.612C500.268 549.711 500.596 549.83 500.875 549.97C501.157 550.109 501.377 550.292 501.535 550.519C501.693 550.747 501.771 551.04 501.771 551.399C501.771 551.81 501.654 552.144 501.419 552.4C501.185 552.653 500.88 552.839 500.506 552.956C500.136 553.07 499.744 553.127 499.329 553.127C498.805 553.127 498.358 553.051 497.987 552.901C497.621 552.747 497.313 552.562 497.063 552.345L497.591 551.735C497.819 551.922 498.079 552.074 498.372 552.192C498.669 552.305 498.988 552.362 499.329 552.362ZM359.7 565.735C359.7 565.966 359.738 566.135 359.815 566.241C359.892 566.347 360.011 566.426 360.173 566.477L359.947 567.127C359.698 567.094 359.48 567.015 359.293 566.89C359.106 566.762 358.97 566.569 358.886 566.312C358.677 566.58 358.416 566.784 358.105 566.923C357.793 567.059 357.448 567.127 357.071 567.127C356.491 567.127 356.035 566.963 355.701 566.637C355.368 566.311 355.201 565.878 355.201 565.339C355.201 564.741 355.434 564.283 355.899 563.964C356.365 563.645 357.038 563.485 357.918 563.485H358.77V563.001C358.77 562.583 358.647 562.288 358.402 562.116C358.16 561.94 357.822 561.852 357.39 561.852C357.199 561.852 356.975 561.876 356.719 561.923C356.462 561.967 356.183 562.043 355.883 562.149L355.641 561.45C355.996 561.318 356.33 561.225 356.642 561.17C356.953 561.115 357.25 561.087 357.533 561.087C358.255 561.087 358.796 561.256 359.155 561.593C359.518 561.927 359.7 562.382 359.7 562.957V565.735ZM357.307 566.422C357.593 566.422 357.866 566.351 358.127 566.208C358.387 566.061 358.602 565.86 358.77 565.603V564.112H357.934C357.296 564.112 356.845 564.222 356.581 564.442C356.321 564.662 356.191 564.958 356.191 565.328C356.191 565.687 356.282 565.96 356.466 566.147C356.653 566.331 356.933 566.422 357.307 566.422ZM362.203 567V566.29H363.105V561.918H362.203V561.208H363.809L363.98 562.578C364.204 562.101 364.475 561.733 364.794 561.473C365.113 561.212 365.535 561.082 366.059 561.082C366.22 561.082 366.363 561.095 366.488 561.12C366.616 561.142 366.746 561.172 366.878 561.208L366.609 562.033C366.488 562 366.378 561.977 366.279 561.962C366.18 561.944 366.066 561.934 365.938 561.934C365.494 561.934 365.113 562.092 364.794 562.407C364.475 562.723 364.22 563.199 364.029 563.837V566.29H365.206V567H362.203ZM365.987 563.166V561.907L366.081 561.208H366.878L366.746 563.166H365.987ZM369.47 564.431C369.489 564.879 369.575 565.245 369.729 565.531C369.883 565.814 370.086 566.023 370.339 566.158C370.592 566.29 370.867 566.356 371.164 566.356C371.461 566.356 371.729 566.312 371.967 566.224C372.209 566.136 372.457 566.006 372.71 565.834L373.144 566.444C372.873 566.657 372.563 566.824 372.215 566.945C371.87 567.066 371.516 567.127 371.153 567.127C370.592 567.127 370.114 567 369.718 566.747C369.322 566.494 369.019 566.142 368.81 565.691C368.605 565.236 368.502 564.71 368.502 564.112C368.502 563.526 368.607 563.005 368.816 562.55C369.025 562.096 369.318 561.738 369.696 561.478C370.073 561.218 370.519 561.087 371.032 561.087C371.52 561.087 371.94 561.203 372.292 561.434C372.644 561.661 372.913 561.988 373.1 562.413C373.291 562.835 373.386 563.339 373.386 563.925C373.386 564.024 373.384 564.118 373.381 564.206C373.377 564.29 373.372 564.365 373.364 564.431H369.47ZM371.043 561.846C370.614 561.846 370.255 561.999 369.965 562.303C369.679 562.607 369.516 563.078 369.476 563.716H372.495C372.484 563.097 372.349 562.631 372.088 562.319C371.828 562.004 371.48 561.846 371.043 561.846ZM382.86 558.788V562C383.087 561.696 383.366 561.469 383.696 561.319C384.029 561.164 384.367 561.087 384.708 561.087C385.272 561.087 385.685 561.238 385.945 561.538C386.205 561.839 386.336 562.257 386.336 562.792V567H385.412V562.814C385.412 562.466 385.331 562.213 385.17 562.055C385.008 561.894 384.755 561.813 384.411 561.813C384.191 561.813 383.982 561.863 383.784 561.962C383.586 562.061 383.408 562.184 383.25 562.33C383.092 562.477 382.962 562.627 382.86 562.781V567H381.936V558.887L382.86 558.788ZM391.463 561.208V566.268H393.096V567H388.751V566.268H390.539V561.94H388.806V561.208H391.463ZM390.726 558.497C390.931 558.497 391.094 558.559 391.215 558.684C391.34 558.809 391.402 558.961 391.402 559.14C391.402 559.327 391.34 559.485 391.215 559.613C391.094 559.738 390.931 559.8 390.726 559.8C390.531 559.8 390.372 559.738 390.247 559.613C390.123 559.485 390.06 559.327 390.06 559.14C390.06 558.961 390.123 558.809 390.247 558.684C390.372 558.559 390.531 558.497 390.726 558.497ZM398.592 558.761L399.516 558.876V567H398.707L398.619 566.235C398.403 566.543 398.154 566.769 397.871 566.912C397.593 567.055 397.294 567.127 396.975 567.127C396.473 567.127 396.058 567 395.732 566.747C395.406 566.494 395.164 566.142 395.006 565.691C394.848 565.236 394.769 564.71 394.769 564.112C394.769 563.533 394.859 563.016 395.039 562.561C395.219 562.103 395.477 561.744 395.814 561.483C396.155 561.219 396.564 561.087 397.041 561.087C397.375 561.087 397.668 561.146 397.921 561.263C398.174 561.377 398.398 561.546 398.592 561.769V558.761ZM397.283 561.83C396.799 561.83 396.427 562.019 396.166 562.396C395.906 562.774 395.776 563.346 395.776 564.112C395.776 564.611 395.829 565.029 395.935 565.366C396.042 565.704 396.198 565.957 396.403 566.125C396.612 566.294 396.867 566.378 397.167 566.378C397.497 566.378 397.778 566.285 398.009 566.098C398.244 565.911 398.438 565.7 398.592 565.465V562.572C398.434 562.338 398.244 562.156 398.02 562.028C397.796 561.896 397.551 561.83 397.283 561.83ZM405.188 558.761L406.112 558.876V567H405.303L405.215 566.235C404.999 566.543 404.75 566.769 404.467 566.912C404.189 567.055 403.89 567.127 403.571 567.127C403.068 567.127 402.654 567 402.328 566.747C402.001 566.494 401.759 566.142 401.602 565.691C401.444 565.236 401.365 564.71 401.365 564.112C401.365 563.533 401.455 563.016 401.635 562.561C401.814 562.103 402.073 561.744 402.41 561.483C402.751 561.219 403.16 561.087 403.637 561.087C403.97 561.087 404.264 561.146 404.517 561.263C404.77 561.377 404.993 561.546 405.188 561.769V558.761ZM403.879 561.83C403.395 561.83 403.023 562.019 402.762 562.396C402.502 562.774 402.372 563.346 402.372 564.112C402.372 564.611 402.425 565.029 402.531 565.366C402.638 565.704 402.793 565.957 402.999 566.125C403.208 566.294 403.463 566.378 403.763 566.378C404.093 566.378 404.374 566.285 404.605 566.098C404.839 565.911 405.034 565.7 405.188 565.465V562.572C405.03 562.338 404.839 562.156 404.616 562.028C404.392 561.896 404.146 561.83 403.879 561.83ZM411.25 561.208V566.268H412.883V567H408.538V566.268H410.326V561.94H408.593V561.208H411.25ZM410.513 558.497C410.718 558.497 410.881 558.559 411.002 558.684C411.127 558.809 411.189 558.961 411.189 559.14C411.189 559.327 411.127 559.485 411.002 559.613C410.881 559.738 410.718 559.8 410.513 559.8C410.319 559.8 410.159 559.738 410.034 559.613C409.91 559.485 409.847 559.327 409.847 559.14C409.847 558.961 409.91 558.809 410.034 558.684C410.159 558.559 410.319 558.497 410.513 558.497ZM414.914 567V561.208H415.701L415.772 562.011C416.007 561.714 416.3 561.487 416.652 561.329C417.008 561.168 417.352 561.087 417.686 561.087C418.254 561.087 418.667 561.238 418.924 561.538C419.184 561.839 419.314 562.257 419.314 562.792V567H418.39V563.474C418.39 563.078 418.368 562.759 418.324 562.517C418.28 562.272 418.188 562.094 418.049 561.984C417.91 561.87 417.693 561.813 417.4 561.813C417.173 561.813 416.958 561.863 416.757 561.962C416.559 562.061 416.381 562.186 416.223 562.336C416.069 562.483 415.941 562.631 415.838 562.781V567H414.914ZM426.218 560.592L426.504 561.461C426.258 561.538 425.996 561.586 425.717 561.604C425.439 561.623 425.136 561.632 424.81 561.632C425.143 561.786 425.395 561.986 425.563 562.231C425.732 562.473 425.816 562.759 425.816 563.089C425.816 563.471 425.73 563.81 425.558 564.107C425.385 564.404 425.136 564.637 424.81 564.805C424.487 564.974 424.097 565.058 423.638 565.058C423.444 565.058 423.281 565.049 423.149 565.031C423.02 565.013 422.896 564.985 422.775 564.948C422.687 565.007 422.613 565.088 422.555 565.19C422.5 565.293 422.472 565.399 422.472 565.509C422.472 565.649 422.527 565.764 422.637 565.856C422.747 565.948 422.951 565.993 423.248 565.993H424.293C424.681 565.993 425.03 566.063 425.338 566.202C425.649 566.342 425.893 566.529 426.069 566.763C426.249 566.998 426.339 567.266 426.339 567.567C426.339 568.135 426.097 568.571 425.613 568.876C425.132 569.18 424.452 569.332 423.572 569.332C422.956 569.332 422.47 569.268 422.115 569.14C421.759 569.015 421.504 568.822 421.35 568.562C421.2 568.305 421.125 567.981 421.125 567.589H421.961C421.961 567.812 422.005 567.997 422.093 568.144C422.181 568.291 422.34 568.399 422.571 568.469C422.802 568.542 423.134 568.579 423.567 568.579C423.992 568.579 424.339 568.542 424.606 568.469C424.878 568.399 425.077 568.293 425.206 568.15C425.338 568.01 425.404 567.836 425.404 567.627C425.404 567.352 425.279 567.145 425.03 567.006C424.78 566.866 424.469 566.796 424.095 566.796H423.061C422.562 566.796 422.194 566.686 421.955 566.466C421.721 566.246 421.603 565.993 421.603 565.707C421.603 565.52 421.656 565.339 421.763 565.163C421.873 564.987 422.032 564.831 422.241 564.695C421.908 564.519 421.662 564.301 421.504 564.041C421.347 563.781 421.268 563.465 421.268 563.095C421.268 562.703 421.365 562.356 421.559 562.055C421.754 561.751 422.025 561.513 422.373 561.34C422.722 561.168 423.123 561.082 423.578 561.082C424.065 561.078 424.461 561.058 424.766 561.021C425.07 560.981 425.33 560.924 425.547 560.851C425.767 560.778 425.99 560.691 426.218 560.592ZM423.578 561.758C423.112 561.758 422.767 561.885 422.544 562.138C422.324 562.387 422.214 562.706 422.214 563.095C422.214 563.487 422.327 563.81 422.555 564.063C422.782 564.316 423.13 564.442 423.6 564.442C424.01 564.442 424.322 564.323 424.535 564.085C424.751 563.847 424.859 563.515 424.859 563.089C424.859 562.653 424.751 562.323 424.535 562.099C424.322 561.872 424.003 561.758 423.578 561.758ZM437.633 561.208V566.268H439.266V567H434.921V566.268H436.709V561.94H434.976V561.208H437.633ZM436.896 558.497C437.101 558.497 437.264 558.559 437.385 558.684C437.51 558.809 437.572 558.961 437.572 559.14C437.572 559.327 437.51 559.485 437.385 559.613C437.264 559.738 437.101 559.8 436.896 559.8C436.701 559.8 436.542 559.738 436.417 559.613C436.293 559.485 436.23 559.327 436.23 559.14C436.23 558.961 436.293 558.809 436.417 558.684C436.542 558.559 436.701 558.497 436.896 558.497ZM441.297 567V561.208H442.083L442.155 562.011C442.39 561.714 442.683 561.487 443.035 561.329C443.391 561.168 443.735 561.087 444.069 561.087C444.637 561.087 445.05 561.238 445.306 561.538C445.567 561.839 445.697 562.257 445.697 562.792V567H444.773V563.474C444.773 563.078 444.751 562.759 444.707 562.517C444.663 562.272 444.571 562.094 444.432 561.984C444.293 561.87 444.076 561.813 443.783 561.813C443.556 561.813 443.341 561.863 443.139 561.962C442.941 562.061 442.764 562.186 442.606 562.336C442.452 562.483 442.324 562.631 442.221 562.781V567H441.297ZM455.412 558.788V562C455.64 561.696 455.918 561.469 456.248 561.319C456.582 561.164 456.919 561.087 457.26 561.087C457.825 561.087 458.237 561.238 458.498 561.538C458.758 561.839 458.888 562.257 458.888 562.792V567H457.964V562.814C457.964 562.466 457.884 562.213 457.722 562.055C457.561 561.894 457.308 561.813 456.963 561.813C456.743 561.813 456.534 561.863 456.336 561.962C456.138 562.061 455.96 562.184 455.803 562.33C455.645 562.477 455.515 562.627 455.412 562.781V567H454.488V558.887L455.412 558.788ZM461.81 564.431C461.828 564.879 461.915 565.245 462.069 565.531C462.223 565.814 462.426 566.023 462.679 566.158C462.932 566.29 463.207 566.356 463.504 566.356C463.801 566.356 464.069 566.312 464.307 566.224C464.549 566.136 464.797 566.006 465.05 565.834L465.484 566.444C465.213 566.657 464.903 566.824 464.555 566.945C464.21 567.066 463.856 567.127 463.493 567.127C462.932 567.127 462.454 567 462.058 566.747C461.662 566.494 461.359 566.142 461.15 565.691C460.945 565.236 460.842 564.71 460.842 564.112C460.842 563.526 460.947 563.005 461.156 562.55C461.365 562.096 461.658 561.738 462.036 561.478C462.413 561.218 462.859 561.087 463.372 561.087C463.86 561.087 464.28 561.203 464.632 561.434C464.984 561.661 465.253 561.988 465.44 562.413C465.631 562.835 465.726 563.339 465.726 563.925C465.726 564.024 465.724 564.118 465.721 564.206C465.717 564.29 465.711 564.365 465.704 564.431H461.81ZM463.383 561.846C462.954 561.846 462.595 561.999 462.305 562.303C462.019 562.607 461.856 563.078 461.816 563.716H464.835C464.824 563.097 464.688 562.631 464.428 562.319C464.168 562.004 463.819 561.846 463.383 561.846ZM467.735 567V566.29H468.637V561.918H467.735V561.208H469.341L469.511 562.578C469.735 562.101 470.006 561.733 470.325 561.473C470.644 561.212 471.066 561.082 471.59 561.082C471.752 561.082 471.895 561.095 472.019 561.12C472.148 561.142 472.278 561.172 472.41 561.208L472.14 562.033C472.019 562 471.909 561.977 471.81 561.962C471.711 561.944 471.598 561.934 471.469 561.934C471.026 561.934 470.644 562.092 470.325 562.407C470.006 562.723 469.751 563.199 469.561 563.837V566.29H470.738V567H467.735ZM471.519 563.166V561.907L471.612 561.208H472.41L472.278 563.166H471.519ZM475.001 564.431C475.02 564.879 475.106 565.245 475.26 565.531C475.414 565.814 475.617 566.023 475.87 566.158C476.123 566.29 476.398 566.356 476.695 566.356C476.992 566.356 477.26 566.312 477.498 566.224C477.74 566.136 477.988 566.006 478.241 565.834L478.675 566.444C478.404 566.657 478.094 566.824 477.746 566.945C477.401 567.066 477.047 567.127 476.684 567.127C476.123 567.127 475.645 567 475.249 566.747C474.853 566.494 474.55 566.142 474.341 565.691C474.136 565.236 474.033 564.71 474.033 564.112C474.033 563.526 474.138 563.005 474.347 562.55C474.556 562.096 474.849 561.738 475.227 561.478C475.605 561.218 476.05 561.087 476.563 561.087C477.051 561.087 477.471 561.203 477.823 561.434C478.175 561.661 478.444 561.988 478.631 562.413C478.822 562.835 478.917 563.339 478.917 563.925C478.917 564.024 478.916 564.118 478.912 564.206C478.908 564.29 478.903 564.365 478.895 564.431H475.001ZM476.574 561.846C476.145 561.846 475.786 561.999 475.496 562.303C475.21 562.607 475.047 563.078 475.007 563.716H478.026C478.015 563.097 477.88 562.631 477.619 562.319C477.359 562.004 477.011 561.846 476.574 561.846ZM488.695 566.153C488.695 565.973 488.737 565.812 488.821 565.669C488.905 565.522 489.021 565.407 489.168 565.322C489.311 565.234 489.474 565.19 489.657 565.19C489.844 565.19 490.011 565.234 490.158 565.322C490.304 565.407 490.42 565.522 490.504 565.669C490.588 565.812 490.631 565.973 490.631 566.153C490.631 566.333 490.588 566.498 490.504 566.648C490.42 566.795 490.304 566.912 490.158 567C490.011 567.084 489.844 567.127 489.657 567.127C489.474 567.127 489.311 567.084 489.168 567C489.021 566.912 488.905 566.795 488.821 566.648C488.737 566.498 488.695 566.333 488.695 566.153ZM493.095 566.153C493.095 565.973 493.137 565.812 493.221 565.669C493.305 565.522 493.419 565.407 493.562 565.322C493.709 565.234 493.874 565.19 494.057 565.19C494.244 565.19 494.411 565.234 494.558 565.322C494.704 565.407 494.82 565.522 494.904 565.669C494.988 565.812 495.031 565.973 495.031 566.153C495.031 566.333 494.988 566.498 494.904 566.648C494.82 566.795 494.704 566.912 494.558 567C494.411 567.084 494.244 567.127 494.057 567.127C493.874 567.127 493.709 567.084 493.562 567C493.419 566.912 493.305 566.795 493.221 566.648C493.137 566.498 493.095 566.333 493.095 566.153ZM484.295 566.153C484.295 565.973 484.337 565.812 484.421 565.669C484.505 565.522 484.621 565.407 484.768 565.322C484.911 565.234 485.074 565.19 485.257 565.19C485.444 565.19 485.611 565.234 485.758 565.322C485.904 565.407 486.02 565.522 486.104 565.669C486.188 565.812 486.231 565.973 486.231 566.153C486.231 566.333 486.188 566.498 486.104 566.648C486.02 566.795 485.904 566.912 485.758 567C485.611 567.084 485.444 567.127 485.257 567.127C485.074 567.127 484.911 567.084 484.768 567C484.621 566.912 484.505 566.795 484.421 566.648C484.337 566.498 484.295 566.333 484.295 566.153Z" fill="black"/>
<path d="M322.595 157.948V159.532C322.011 159.532 321.479 159.592 320.999 159.712C320.527 159.824 320.159 160.02 319.895 160.3C319.639 160.58 319.531 160.964 319.571 161.452L320.075 166.372C320.147 167.044 320.107 167.6 319.955 168.04C319.803 168.48 319.547 168.824 319.187 169.072C318.835 169.32 318.383 169.496 317.831 169.6C318.391 169.696 318.851 169.864 319.211 170.104C319.571 170.336 319.823 170.672 319.967 171.112C320.111 171.544 320.147 172.116 320.075 172.828L319.571 177.748C319.531 178.244 319.639 178.632 319.895 178.912C320.151 179.192 320.519 179.388 320.999 179.5C321.479 179.612 322.011 179.668 322.595 179.668V181.252C321.923 181.252 321.279 181.192 320.663 181.072C320.047 180.96 319.503 180.764 319.031 180.484C318.559 180.204 318.203 179.82 317.963 179.332C317.723 178.852 317.643 178.244 317.723 177.508L318.203 172.948C318.267 172.396 318.215 171.932 318.047 171.556C317.887 171.18 317.535 170.896 316.991 170.704C316.455 170.504 315.651 170.404 314.579 170.404V168.796C315.651 168.796 316.455 168.7 316.991 168.508C317.535 168.316 317.887 168.032 318.047 167.656C318.215 167.28 318.267 166.82 318.203 166.276L317.723 161.692C317.643 160.956 317.723 160.348 317.963 159.868C318.203 159.38 318.555 158.996 319.019 158.716C319.491 158.436 320.035 158.24 320.651 158.128C321.275 158.008 321.923 157.948 322.595 157.948ZM342.952 178V165.364H344.668L344.824 167.116C345.336 166.468 345.976 165.972 346.744 165.628C347.52 165.276 348.272 165.1 349 165.1C350.24 165.1 351.14 165.428 351.7 166.084C352.268 166.74 352.552 167.652 352.552 168.82V178H350.536V170.308C350.536 169.444 350.488 168.748 350.392 168.22C350.296 167.684 350.096 167.296 349.792 167.056C349.488 166.808 349.016 166.684 348.376 166.684C347.88 166.684 347.412 166.792 346.972 167.008C346.54 167.224 346.152 167.496 345.808 167.824C345.472 168.144 345.192 168.468 344.968 168.796V178H342.952ZM366.39 175.24C366.39 175.744 366.474 176.112 366.642 176.344C366.81 176.576 367.07 176.748 367.422 176.86L366.93 178.276C366.386 178.204 365.91 178.032 365.502 177.76C365.094 177.48 364.798 177.06 364.614 176.5C364.158 177.084 363.59 177.528 362.91 177.832C362.23 178.128 361.478 178.276 360.654 178.276C359.39 178.276 358.394 177.92 357.666 177.208C356.938 176.496 356.574 175.552 356.574 174.376C356.574 173.072 357.082 172.072 358.098 171.376C359.114 170.68 360.582 170.332 362.502 170.332H364.362V169.276C364.362 168.364 364.094 167.72 363.558 167.344C363.03 166.96 362.294 166.768 361.35 166.768C360.934 166.768 360.446 166.82 359.886 166.924C359.326 167.02 358.718 167.184 358.062 167.416L357.534 165.892C358.31 165.604 359.038 165.4 359.718 165.28C360.398 165.16 361.046 165.1 361.662 165.1C363.238 165.1 364.418 165.468 365.202 166.204C365.994 166.932 366.39 167.924 366.39 169.18V175.24ZM361.17 176.74C361.794 176.74 362.39 176.584 362.958 176.272C363.526 175.952 363.994 175.512 364.362 174.952V171.7H362.538C361.146 171.7 360.162 171.94 359.586 172.42C359.018 172.9 358.734 173.544 358.734 174.352C358.734 175.136 358.934 175.732 359.334 176.14C359.742 176.54 360.354 176.74 361.17 176.74ZM380.061 165.1C380.469 165.1 380.857 165.188 381.225 165.364C381.601 165.54 381.909 165.88 382.149 166.384C382.389 166.888 382.509 167.624 382.509 168.592V178H380.637V168.916C380.637 168.124 380.589 167.552 380.493 167.2C380.397 166.848 380.121 166.672 379.665 166.672C379.289 166.672 378.913 166.792 378.537 167.032C378.169 167.264 377.809 167.648 377.457 168.184V178H375.573V168.916C375.573 168.124 375.525 167.552 375.429 167.2C375.333 166.848 375.057 166.672 374.601 166.672C374.209 166.672 373.829 166.792 373.461 167.032C373.101 167.264 372.745 167.648 372.393 168.184V178H370.533V165.364H372.117L372.237 166.828C372.581 166.34 372.965 165.932 373.389 165.604C373.821 165.268 374.353 165.1 374.985 165.1C375.465 165.1 375.917 165.216 376.341 165.448C376.765 165.672 377.077 166.112 377.277 166.768C377.621 166.272 378.009 165.872 378.441 165.568C378.873 165.256 379.413 165.1 380.061 165.1ZM387.708 172.396C387.748 173.372 387.936 174.172 388.272 174.796C388.608 175.412 389.052 175.868 389.604 176.164C390.156 176.452 390.756 176.596 391.404 176.596C392.052 176.596 392.636 176.5 393.156 176.308C393.684 176.116 394.224 175.832 394.776 175.456L395.724 176.788C395.132 177.252 394.456 177.616 393.696 177.88C392.944 178.144 392.172 178.276 391.38 178.276C390.156 178.276 389.112 178 388.248 177.448C387.384 176.896 386.724 176.128 386.268 175.144C385.82 174.152 385.596 173.004 385.596 171.7C385.596 170.42 385.824 169.284 386.28 168.292C386.736 167.3 387.376 166.52 388.2 165.952C389.024 165.384 389.996 165.1 391.116 165.1C392.18 165.1 393.096 165.352 393.864 165.856C394.632 166.352 395.22 167.064 395.628 167.992C396.044 168.912 396.252 170.012 396.252 171.292C396.252 171.508 396.248 171.712 396.24 171.904C396.232 172.088 396.22 172.252 396.204 172.396H387.708ZM391.14 166.756C390.204 166.756 389.42 167.088 388.788 167.752C388.164 168.416 387.808 169.444 387.72 170.836H394.308C394.284 169.484 393.988 168.468 393.42 167.788C392.852 167.1 392.092 166.756 391.14 166.756ZM403.346 176.32C403.346 175.8 403.53 175.348 403.898 174.964C404.274 174.58 404.734 174.388 405.278 174.388C405.838 174.388 406.302 174.58 406.67 174.964C407.046 175.348 407.234 175.8 407.234 176.32C407.234 176.864 407.046 177.328 406.67 177.712C406.302 178.088 405.838 178.276 405.278 178.276C404.734 178.276 404.274 178.088 403.898 177.712C403.53 177.328 403.346 176.864 403.346 176.32ZM403.346 167.668C403.346 167.3 403.43 166.972 403.598 166.684C403.766 166.396 403.998 166.168 404.294 166C404.59 165.824 404.918 165.736 405.278 165.736C405.838 165.736 406.302 165.924 406.67 166.3C407.046 166.676 407.234 167.132 407.234 167.668C407.234 168.196 407.046 168.656 406.67 169.048C406.302 169.432 405.838 169.624 405.278 169.624C404.734 169.624 404.274 169.432 403.898 169.048C403.53 168.656 403.346 168.196 403.346 167.668ZM433.592 176.608C434.56 176.608 435.324 176.428 435.884 176.068C436.452 175.7 436.736 175.212 436.736 174.604C436.736 174.22 436.664 173.888 436.52 173.608C436.384 173.328 436.1 173.076 435.668 172.852C435.236 172.628 434.572 172.404 433.676 172.18C432.804 171.964 432.044 171.716 431.396 171.436C430.756 171.148 430.256 170.776 429.896 170.32C429.544 169.864 429.368 169.272 429.368 168.544C429.368 167.832 429.568 167.22 429.968 166.708C430.376 166.188 430.94 165.792 431.66 165.52C432.38 165.24 433.216 165.1 434.168 165.1C435.184 165.1 436.068 165.236 436.82 165.508C437.58 165.772 438.224 166.1 438.752 166.492L437.864 167.86C437.384 167.532 436.856 167.264 436.28 167.056C435.704 166.84 435.008 166.732 434.192 166.732C433.2 166.732 432.496 166.888 432.08 167.2C431.664 167.504 431.456 167.9 431.456 168.388C431.456 168.756 431.556 169.064 431.756 169.312C431.964 169.552 432.312 169.772 432.8 169.972C433.288 170.164 433.96 170.376 434.816 170.608C435.64 170.824 436.356 171.084 436.964 171.388C437.58 171.692 438.06 172.092 438.404 172.588C438.748 173.084 438.92 173.724 438.92 174.508C438.92 175.404 438.664 176.132 438.152 176.692C437.64 177.244 436.976 177.648 436.16 177.904C435.352 178.152 434.496 178.276 433.592 178.276C432.448 178.276 431.472 178.112 430.664 177.784C429.864 177.448 429.192 177.044 428.648 176.572L429.8 175.24C430.296 175.648 430.864 175.98 431.504 176.236C432.152 176.484 432.848 176.608 433.592 176.608ZM453.718 177.364C453.286 177.652 452.762 177.876 452.146 178.036C451.53 178.196 450.926 178.276 450.334 178.276C448.974 178.276 447.926 177.92 447.19 177.208C446.454 176.496 446.086 175.58 446.086 174.46V166.924H443.182V165.364H446.086V162.496L448.102 162.256V165.364H452.47L452.23 166.924H448.102V174.436C448.102 175.14 448.286 175.676 448.654 176.044C449.03 176.412 449.65 176.596 450.514 176.596C450.986 176.596 451.422 176.54 451.822 176.428C452.222 176.316 452.594 176.172 452.938 175.996L453.718 177.364ZM458.197 178V176.452H460.165V166.912H458.197V165.364H461.701L462.073 168.352C462.561 167.312 463.153 166.508 463.849 165.94C464.545 165.372 465.465 165.088 466.609 165.088C466.961 165.088 467.273 165.116 467.545 165.172C467.825 165.22 468.109 165.284 468.397 165.364L467.809 167.164C467.545 167.092 467.305 167.04 467.089 167.008C466.873 166.968 466.625 166.948 466.345 166.948C465.377 166.948 464.545 167.292 463.849 167.98C463.153 168.668 462.597 169.708 462.181 171.1V176.452H464.749V178H458.197ZM466.453 169.636V166.888L466.657 165.364H468.397L468.109 169.636H466.453ZM478.863 165.364V176.404H482.427V178H472.947V176.404H476.847V166.96H473.067V165.364H478.863ZM477.255 159.448C477.703 159.448 478.059 159.584 478.323 159.856C478.595 160.128 478.731 160.46 478.731 160.852C478.731 161.26 478.595 161.604 478.323 161.884C478.059 162.156 477.703 162.292 477.255 162.292C476.831 162.292 476.483 162.156 476.211 161.884C475.939 161.604 475.803 161.26 475.803 160.852C475.803 160.46 475.939 160.128 476.211 159.856C476.483 159.584 476.831 159.448 477.255 159.448ZM486.858 178V165.364H488.574L488.73 167.116C489.242 166.468 489.882 165.972 490.65 165.628C491.426 165.276 492.178 165.1 492.906 165.1C494.146 165.1 495.046 165.428 495.606 166.084C496.174 166.74 496.458 167.652 496.458 168.82V178H494.442V170.308C494.442 169.444 494.394 168.748 494.298 168.22C494.202 167.684 494.002 167.296 493.698 167.056C493.394 166.808 492.922 166.684 492.282 166.684C491.786 166.684 491.318 166.792 490.878 167.008C490.446 167.224 490.058 167.496 489.714 167.824C489.378 168.144 489.098 168.468 488.874 168.796V178H486.858ZM511.521 164.02L512.145 165.916C511.609 166.084 511.037 166.188 510.429 166.228C509.821 166.268 509.161 166.288 508.449 166.288C509.177 166.624 509.725 167.06 510.093 167.596C510.461 168.124 510.645 168.748 510.645 169.468C510.645 170.3 510.457 171.04 510.081 171.688C509.705 172.336 509.161 172.844 508.449 173.212C507.745 173.58 506.893 173.764 505.893 173.764C505.469 173.764 505.113 173.744 504.825 173.704C504.545 173.664 504.273 173.604 504.009 173.524C503.817 173.652 503.657 173.828 503.529 174.052C503.409 174.276 503.349 174.508 503.349 174.748C503.349 175.052 503.469 175.304 503.709 175.504C503.949 175.704 504.393 175.804 505.041 175.804H507.321C508.169 175.804 508.929 175.956 509.601 176.26C510.281 176.564 510.813 176.972 511.197 177.484C511.589 177.996 511.785 178.58 511.785 179.236C511.785 180.476 511.257 181.428 510.201 182.092C509.153 182.756 507.669 183.088 505.749 183.088C504.405 183.088 503.345 182.948 502.569 182.668C501.793 182.396 501.237 181.976 500.901 181.408C500.573 180.848 500.409 180.14 500.409 179.284H502.233C502.233 179.772 502.329 180.176 502.521 180.496C502.713 180.816 503.061 181.052 503.565 181.204C504.069 181.364 504.793 181.444 505.737 181.444C506.665 181.444 507.421 181.364 508.005 181.204C508.597 181.052 509.033 180.82 509.313 180.508C509.601 180.204 509.745 179.824 509.745 179.368C509.745 178.768 509.473 178.316 508.929 178.012C508.385 177.708 507.705 177.556 506.889 177.556H504.633C503.545 177.556 502.741 177.316 502.221 176.836C501.709 176.356 501.453 175.804 501.453 175.18C501.453 174.772 501.569 174.376 501.801 173.992C502.041 173.608 502.389 173.268 502.845 172.972C502.117 172.588 501.581 172.112 501.237 171.544C500.893 170.976 500.721 170.288 500.721 169.48C500.721 168.624 500.933 167.868 501.357 167.212C501.781 166.548 502.373 166.028 503.133 165.652C503.893 165.276 504.769 165.088 505.761 165.088C506.825 165.08 507.689 165.036 508.353 164.956C509.017 164.868 509.585 164.744 510.057 164.584C510.537 164.424 511.025 164.236 511.521 164.02ZM505.761 166.564C504.745 166.564 503.993 166.84 503.505 167.392C503.025 167.936 502.785 168.632 502.785 169.48C502.785 170.336 503.033 171.04 503.529 171.592C504.025 172.144 504.785 172.42 505.809 172.42C506.705 172.42 507.385 172.16 507.849 171.64C508.321 171.12 508.557 170.396 508.557 169.468C508.557 168.516 508.321 167.796 507.849 167.308C507.385 166.812 506.689 166.564 505.761 166.564ZM531.182 157.948C531.854 157.948 532.498 158.008 533.114 158.128C533.73 158.24 534.274 158.436 534.746 158.716C535.218 158.996 535.574 159.38 535.814 159.868C536.062 160.348 536.142 160.956 536.054 161.692L535.574 166.276C535.51 166.82 535.578 167.28 535.778 167.656C535.986 168.032 536.362 168.316 536.906 168.508C537.45 168.7 538.214 168.796 539.198 168.796V170.404C538.222 170.404 537.458 170.504 536.906 170.704C536.362 170.896 535.986 171.18 535.778 171.556C535.578 171.932 535.51 172.396 535.574 172.948L536.054 177.508C536.134 178.244 536.054 178.852 535.814 179.332C535.574 179.82 535.218 180.204 534.746 180.484C534.282 180.764 533.738 180.96 533.114 181.072C532.498 181.192 531.854 181.252 531.182 181.252V179.668C531.766 179.668 532.294 179.612 532.766 179.5C533.246 179.388 533.618 179.192 533.882 178.912C534.146 178.632 534.254 178.244 534.206 177.748L533.702 172.828C533.63 172.116 533.67 171.544 533.822 171.112C533.974 170.672 534.246 170.336 534.638 170.104C535.038 169.872 535.562 169.712 536.21 169.624C535.586 169.52 535.074 169.34 534.674 169.084C534.282 168.828 534.006 168.48 533.846 168.04C533.686 167.6 533.638 167.044 533.702 166.372L534.206 161.452C534.254 160.964 534.146 160.58 533.882 160.3C533.618 160.02 533.25 159.824 532.778 159.712C532.306 159.592 531.774 159.532 531.182 159.532V157.948Z" fill="black"/>
<path d="M245.541 310.619V312.071C245.006 312.071 244.518 312.126 244.078 312.236C243.645 312.339 243.308 312.518 243.066 312.775C242.831 313.032 242.732 313.384 242.769 313.831L243.231 318.341C243.297 318.957 243.26 319.467 243.121 319.87C242.982 320.273 242.747 320.589 242.417 320.816C242.094 321.043 241.68 321.205 241.174 321.3C241.687 321.388 242.109 321.542 242.439 321.762C242.769 321.975 243 322.283 243.132 322.686C243.264 323.082 243.297 323.606 243.231 324.259L242.769 328.769C242.732 329.224 242.831 329.579 243.066 329.836C243.301 330.093 243.638 330.272 244.078 330.375C244.518 330.478 245.006 330.529 245.541 330.529V331.981C244.925 331.981 244.335 331.926 243.77 331.816C243.205 331.713 242.707 331.534 242.274 331.277C241.841 331.02 241.515 330.668 241.295 330.221C241.075 329.781 241.002 329.224 241.075 328.549L241.515 324.369C241.574 323.863 241.526 323.438 241.372 323.093C241.225 322.748 240.903 322.488 240.404 322.312C239.913 322.129 239.176 322.037 238.193 322.037V320.563C239.176 320.563 239.913 320.475 240.404 320.299C240.903 320.123 241.225 319.863 241.372 319.518C241.526 319.173 241.574 318.752 241.515 318.253L241.075 314.051C241.002 313.376 241.075 312.819 241.295 312.379C241.515 311.932 241.838 311.58 242.263 311.323C242.696 311.066 243.194 310.887 243.759 310.784C244.331 310.674 244.925 310.619 245.541 310.619ZM264.202 329V317.417H265.775L265.918 319.023C266.387 318.429 266.974 317.974 267.678 317.659C268.389 317.336 269.079 317.175 269.746 317.175C270.883 317.175 271.708 317.476 272.221 318.077C272.742 318.678 273.002 319.514 273.002 320.585V329H271.154V321.949C271.154 321.157 271.11 320.519 271.022 320.035C270.934 319.544 270.751 319.188 270.472 318.968C270.193 318.741 269.761 318.627 269.174 318.627C268.719 318.627 268.29 318.726 267.887 318.924C267.491 319.122 267.135 319.371 266.82 319.672C266.512 319.965 266.255 320.262 266.05 320.563V329H264.202ZM285.687 326.47C285.687 326.932 285.764 327.269 285.918 327.482C286.072 327.695 286.311 327.852 286.633 327.955L286.182 329.253C285.684 329.187 285.247 329.029 284.873 328.78C284.499 328.523 284.228 328.138 284.059 327.625C283.641 328.16 283.121 328.567 282.497 328.846C281.874 329.117 281.185 329.253 280.429 329.253C279.271 329.253 278.358 328.927 277.69 328.274C277.023 327.621 276.689 326.756 276.689 325.678C276.689 324.483 277.155 323.566 278.086 322.928C279.018 322.29 280.363 321.971 282.123 321.971H283.828V321.003C283.828 320.167 283.583 319.577 283.091 319.232C282.607 318.88 281.933 318.704 281.067 318.704C280.686 318.704 280.239 318.752 279.725 318.847C279.212 318.935 278.655 319.085 278.053 319.298L277.569 317.901C278.281 317.637 278.948 317.45 279.571 317.34C280.195 317.23 280.789 317.175 281.353 317.175C282.798 317.175 283.88 317.512 284.598 318.187C285.324 318.854 285.687 319.764 285.687 320.915V326.47ZM280.902 327.845C281.474 327.845 282.021 327.702 282.541 327.416C283.062 327.123 283.491 326.719 283.828 326.206V323.225H282.156C280.88 323.225 279.978 323.445 279.45 323.885C278.93 324.325 278.669 324.915 278.669 325.656C278.669 326.375 278.853 326.921 279.219 327.295C279.593 327.662 280.154 327.845 280.902 327.845ZM298.219 317.175C298.593 317.175 298.948 317.256 299.286 317.417C299.63 317.578 299.913 317.89 300.133 318.352C300.353 318.814 300.463 319.489 300.463 320.376V329H298.747V320.673C298.747 319.947 298.703 319.423 298.615 319.1C298.527 318.777 298.274 318.616 297.856 318.616C297.511 318.616 297.166 318.726 296.822 318.946C296.484 319.159 296.154 319.511 295.832 320.002V329H294.105V320.673C294.105 319.947 294.061 319.423 293.973 319.1C293.885 318.777 293.632 318.616 293.214 318.616C292.854 318.616 292.506 318.726 292.169 318.946C291.839 319.159 291.512 319.511 291.19 320.002V329H289.485V317.417H290.937L291.047 318.759C291.362 318.312 291.714 317.938 292.103 317.637C292.499 317.329 292.986 317.175 293.566 317.175C294.006 317.175 294.42 317.281 294.809 317.494C295.197 317.699 295.483 318.103 295.667 318.704C295.982 318.249 296.338 317.883 296.734 317.604C297.13 317.318 297.625 317.175 298.219 317.175ZM305.228 323.863C305.265 324.758 305.437 325.491 305.745 326.063C306.053 326.628 306.46 327.046 306.966 327.317C307.472 327.581 308.022 327.713 308.616 327.713C309.21 327.713 309.745 327.625 310.222 327.449C310.706 327.273 311.201 327.013 311.707 326.668L312.576 327.889C312.033 328.314 311.414 328.648 310.717 328.89C310.028 329.132 309.32 329.253 308.594 329.253C307.472 329.253 306.515 329 305.723 328.494C304.931 327.988 304.326 327.284 303.908 326.382C303.497 325.473 303.292 324.42 303.292 323.225C303.292 322.052 303.501 321.01 303.919 320.101C304.337 319.192 304.924 318.477 305.679 317.956C306.434 317.435 307.325 317.175 308.352 317.175C309.327 317.175 310.167 317.406 310.871 317.868C311.575 318.323 312.114 318.975 312.488 319.826C312.869 320.669 313.06 321.678 313.06 322.851C313.06 323.049 313.056 323.236 313.049 323.412C313.042 323.581 313.031 323.731 313.016 323.863H305.228ZM308.374 318.693C307.516 318.693 306.797 318.997 306.218 319.606C305.646 320.215 305.32 321.157 305.239 322.433H311.278C311.256 321.194 310.985 320.262 310.464 319.639C309.943 319.008 309.247 318.693 308.374 318.693ZM319.564 327.46C319.564 326.983 319.732 326.569 320.07 326.217C320.414 325.865 320.836 325.689 321.335 325.689C321.848 325.689 322.273 325.865 322.611 326.217C322.955 326.569 323.128 326.983 323.128 327.46C323.128 327.959 322.955 328.384 322.611 328.736C322.273 329.081 321.848 329.253 321.335 329.253C320.836 329.253 320.414 329.081 320.07 328.736C319.732 328.384 319.564 327.959 319.564 327.46ZM319.564 319.529C319.564 319.192 319.641 318.891 319.795 318.627C319.949 318.363 320.161 318.154 320.433 318C320.704 317.839 321.005 317.758 321.335 317.758C321.848 317.758 322.273 317.93 322.611 318.275C322.955 318.62 323.128 319.038 323.128 319.529C323.128 320.013 322.955 320.435 322.611 320.794C322.273 321.146 321.848 321.322 321.335 321.322C320.836 321.322 320.414 321.146 320.07 320.794C319.732 320.435 319.564 320.013 319.564 319.529ZM347.288 327.724C348.176 327.724 348.876 327.559 349.389 327.229C349.91 326.892 350.17 326.444 350.17 325.887C350.17 325.535 350.104 325.231 349.972 324.974C349.848 324.717 349.587 324.486 349.191 324.281C348.795 324.076 348.187 323.87 347.365 323.665C346.566 323.467 345.869 323.24 345.275 322.983C344.689 322.719 344.23 322.378 343.9 321.96C343.578 321.542 343.416 320.999 343.416 320.332C343.416 319.679 343.6 319.118 343.966 318.649C344.34 318.172 344.857 317.809 345.517 317.56C346.177 317.303 346.944 317.175 347.816 317.175C348.748 317.175 349.558 317.3 350.247 317.549C350.944 317.791 351.534 318.092 352.018 318.451L351.204 319.705C350.764 319.404 350.28 319.159 349.752 318.968C349.224 318.77 348.586 318.671 347.838 318.671C346.929 318.671 346.284 318.814 345.902 319.1C345.521 319.379 345.33 319.742 345.33 320.189C345.33 320.526 345.422 320.809 345.605 321.036C345.796 321.256 346.115 321.458 346.562 321.641C347.01 321.817 347.626 322.011 348.41 322.224C349.166 322.422 349.822 322.66 350.379 322.939C350.944 323.218 351.384 323.584 351.699 324.039C352.015 324.494 352.172 325.08 352.172 325.799C352.172 326.62 351.938 327.288 351.468 327.801C350.999 328.307 350.39 328.677 349.642 328.912C348.902 329.139 348.117 329.253 347.288 329.253C346.24 329.253 345.345 329.103 344.604 328.802C343.871 328.494 343.255 328.124 342.756 327.691L343.812 326.47C344.267 326.844 344.788 327.148 345.374 327.383C345.968 327.61 346.606 327.724 347.288 327.724ZM365.738 328.417C365.342 328.681 364.861 328.886 364.297 329.033C363.732 329.18 363.178 329.253 362.636 329.253C361.389 329.253 360.428 328.927 359.754 328.274C359.079 327.621 358.742 326.782 358.742 325.755V318.847H356.08V317.417H358.742V314.788L360.59 314.568V317.417H364.594L364.374 318.847H360.59V325.733C360.59 326.378 360.758 326.87 361.096 327.207C361.44 327.544 362.009 327.713 362.801 327.713C363.233 327.713 363.633 327.662 364 327.559C364.366 327.456 364.707 327.324 365.023 327.163L365.738 328.417ZM369.843 329V327.581H371.647V318.836H369.843V317.417H373.055L373.396 320.156C373.844 319.203 374.386 318.466 375.024 317.945C375.662 317.424 376.506 317.164 377.554 317.164C377.877 317.164 378.163 317.19 378.412 317.241C378.669 317.285 378.929 317.344 379.193 317.417L378.654 319.067C378.412 319.001 378.192 318.953 377.994 318.924C377.796 318.887 377.569 318.869 377.312 318.869C376.425 318.869 375.662 319.184 375.024 319.815C374.386 320.446 373.877 321.399 373.495 322.675V327.581H375.849V329H369.843ZM377.411 321.333V318.814L377.598 317.417H379.193L378.929 321.333H377.411ZM388.788 317.417V327.537H392.055V329H383.365V327.537H386.94V318.88H383.475V317.417H388.788ZM387.314 311.994C387.724 311.994 388.051 312.119 388.293 312.368C388.542 312.617 388.667 312.922 388.667 313.281C388.667 313.655 388.542 313.97 388.293 314.227C388.051 314.476 387.724 314.601 387.314 314.601C386.925 314.601 386.606 314.476 386.357 314.227C386.107 313.97 385.983 313.655 385.983 313.281C385.983 312.922 386.107 312.617 386.357 312.368C386.606 312.119 386.925 311.994 387.314 311.994ZM396.116 329V317.417H397.689L397.832 319.023C398.301 318.429 398.888 317.974 399.592 317.659C400.303 317.336 400.993 317.175 401.66 317.175C402.797 317.175 403.622 317.476 404.135 318.077C404.656 318.678 404.916 319.514 404.916 320.585V329H403.068V321.949C403.068 321.157 403.024 320.519 402.936 320.035C402.848 319.544 402.665 319.188 402.386 318.968C402.107 318.741 401.675 318.627 401.088 318.627C400.633 318.627 400.204 318.726 399.801 318.924C399.405 319.122 399.049 319.371 398.734 319.672C398.426 319.965 398.169 320.262 397.964 320.563V329H396.116ZM418.723 316.185L419.295 317.923C418.804 318.077 418.28 318.172 417.722 318.209C417.165 318.246 416.56 318.264 415.907 318.264C416.575 318.572 417.077 318.972 417.414 319.463C417.752 319.947 417.92 320.519 417.92 321.179C417.92 321.942 417.748 322.62 417.403 323.214C417.059 323.808 416.56 324.274 415.907 324.611C415.262 324.948 414.481 325.117 413.564 325.117C413.176 325.117 412.849 325.099 412.585 325.062C412.329 325.025 412.079 324.97 411.837 324.897C411.661 325.014 411.515 325.176 411.397 325.381C411.287 325.586 411.232 325.799 411.232 326.019C411.232 326.298 411.342 326.529 411.562 326.712C411.782 326.895 412.189 326.987 412.783 326.987H414.873C415.651 326.987 416.347 327.126 416.963 327.405C417.587 327.684 418.074 328.058 418.426 328.527C418.786 328.996 418.965 329.532 418.965 330.133C418.965 331.27 418.481 332.142 417.513 332.751C416.553 333.36 415.192 333.664 413.432 333.664C412.2 333.664 411.229 333.536 410.517 333.279C409.806 333.03 409.296 332.645 408.988 332.124C408.688 331.611 408.537 330.962 408.537 330.177H410.209C410.209 330.624 410.297 330.995 410.473 331.288C410.649 331.581 410.968 331.798 411.43 331.937C411.892 332.084 412.556 332.157 413.421 332.157C414.272 332.157 414.965 332.084 415.5 331.937C416.043 331.798 416.443 331.585 416.699 331.299C416.963 331.02 417.095 330.672 417.095 330.254C417.095 329.704 416.846 329.29 416.347 329.011C415.849 328.732 415.225 328.593 414.477 328.593H412.409C411.412 328.593 410.675 328.373 410.198 327.933C409.729 327.493 409.494 326.987 409.494 326.415C409.494 326.041 409.601 325.678 409.813 325.326C410.033 324.974 410.352 324.662 410.77 324.391C410.103 324.039 409.612 323.603 409.296 323.082C408.981 322.561 408.823 321.931 408.823 321.19C408.823 320.405 409.018 319.712 409.406 319.111C409.795 318.502 410.338 318.026 411.034 317.681C411.731 317.336 412.534 317.164 413.443 317.164C414.419 317.157 415.211 317.116 415.819 317.043C416.428 316.962 416.949 316.849 417.381 316.702C417.821 316.555 418.269 316.383 418.723 316.185ZM413.443 318.517C412.512 318.517 411.823 318.77 411.375 319.276C410.935 319.775 410.715 320.413 410.715 321.19C410.715 321.975 410.943 322.62 411.397 323.126C411.852 323.632 412.549 323.885 413.487 323.885C414.309 323.885 414.932 323.647 415.357 323.17C415.79 322.693 416.006 322.03 416.006 321.179C416.006 320.306 415.79 319.646 415.357 319.199C414.932 318.744 414.294 318.517 413.443 318.517ZM426.888 325.381C427.394 325.381 427.815 325.553 428.153 325.898C428.497 326.243 428.67 326.657 428.67 327.141C428.67 327.405 428.637 327.673 428.571 327.944C428.512 328.215 428.402 328.523 428.241 328.868L426.459 332.949H424.787L425.843 328.604C425.623 328.443 425.447 328.234 425.315 327.977C425.19 327.713 425.128 327.434 425.128 327.141C425.128 326.65 425.296 326.235 425.634 325.898C425.971 325.553 426.389 325.381 426.888 325.381ZM457.176 326.47C457.176 326.932 457.253 327.269 457.407 327.482C457.561 327.695 457.799 327.852 458.122 327.955L457.671 329.253C457.172 329.187 456.736 329.029 456.362 328.78C455.988 328.523 455.716 328.138 455.548 327.625C455.13 328.16 454.609 328.567 453.986 328.846C453.362 329.117 452.673 329.253 451.918 329.253C450.759 329.253 449.846 328.927 449.179 328.274C448.511 327.621 448.178 326.756 448.178 325.678C448.178 324.483 448.643 323.566 449.575 322.928C450.506 322.29 451.852 321.971 453.612 321.971H455.317V321.003C455.317 320.167 455.071 319.577 454.58 319.232C454.096 318.88 453.421 318.704 452.556 318.704C452.174 318.704 451.727 318.752 451.214 318.847C450.7 318.935 450.143 319.085 449.542 319.298L449.058 317.901C449.769 317.637 450.436 317.45 451.06 317.34C451.683 317.23 452.277 317.175 452.842 317.175C454.286 317.175 455.368 317.512 456.087 318.187C456.813 318.854 457.176 319.764 457.176 320.915V326.47ZM452.391 327.845C452.963 327.845 453.509 327.702 454.03 327.416C454.55 327.123 454.979 326.719 455.317 326.206V323.225H453.645C452.369 323.225 451.467 323.445 450.939 323.885C450.418 324.325 450.158 324.915 450.158 325.656C450.158 326.375 450.341 326.921 450.708 327.295C451.082 327.662 451.643 327.845 452.391 327.845ZM471.489 316.185L472.061 317.923C471.57 318.077 471.045 318.172 470.488 318.209C469.931 318.246 469.326 318.264 468.673 318.264C469.34 318.572 469.843 318.972 470.18 319.463C470.517 319.947 470.686 320.519 470.686 321.179C470.686 321.942 470.514 322.62 470.169 323.214C469.824 323.808 469.326 324.274 468.673 324.611C468.028 324.948 467.247 325.117 466.33 325.117C465.941 325.117 465.615 325.099 465.351 325.062C465.094 325.025 464.845 324.97 464.603 324.897C464.427 325.014 464.28 325.176 464.163 325.381C464.053 325.586 463.998 325.799 463.998 326.019C463.998 326.298 464.108 326.529 464.328 326.712C464.548 326.895 464.955 326.987 465.549 326.987H467.639C468.416 326.987 469.113 327.126 469.729 327.405C470.352 327.684 470.84 328.058 471.192 328.527C471.551 328.996 471.731 329.532 471.731 330.133C471.731 331.27 471.247 332.142 470.279 332.751C469.318 333.36 467.958 333.664 466.198 333.664C464.966 333.664 463.994 333.536 463.283 333.279C462.572 333.03 462.062 332.645 461.754 332.124C461.453 331.611 461.303 330.962 461.303 330.177H462.975C462.975 330.624 463.063 330.995 463.239 331.288C463.415 331.581 463.734 331.798 464.196 331.937C464.658 332.084 465.322 332.157 466.187 332.157C467.038 332.157 467.731 332.084 468.266 331.937C468.809 331.798 469.208 331.585 469.465 331.299C469.729 331.02 469.861 330.672 469.861 330.254C469.861 329.704 469.612 329.29 469.113 329.011C468.614 328.732 467.991 328.593 467.243 328.593H465.175C464.178 328.593 463.441 328.373 462.964 327.933C462.495 327.493 462.26 326.987 462.26 326.415C462.26 326.041 462.366 325.678 462.579 325.326C462.799 324.974 463.118 324.662 463.536 324.391C462.869 324.039 462.377 323.603 462.062 323.082C461.747 322.561 461.589 321.931 461.589 321.19C461.589 320.405 461.783 319.712 462.172 319.111C462.561 318.502 463.103 318.026 463.8 317.681C464.497 317.336 465.3 317.164 466.209 317.164C467.184 317.157 467.976 317.116 468.585 317.043C469.194 316.962 469.714 316.849 470.147 316.702C470.587 316.555 471.034 316.383 471.489 316.185ZM466.209 318.517C465.278 318.517 464.588 318.77 464.141 319.276C463.701 319.775 463.481 320.413 463.481 321.19C463.481 321.975 463.708 322.62 464.163 323.126C464.618 323.632 465.314 323.885 466.253 323.885C467.074 323.885 467.698 323.647 468.123 323.17C468.556 322.693 468.772 322.03 468.772 321.179C468.772 320.306 468.556 319.646 468.123 319.199C467.698 318.744 467.06 318.517 466.209 318.517ZM476.716 323.863C476.753 324.758 476.925 325.491 477.233 326.063C477.541 326.628 477.948 327.046 478.454 327.317C478.96 327.581 479.51 327.713 480.104 327.713C480.698 327.713 481.234 327.625 481.71 327.449C482.194 327.273 482.689 327.013 483.195 326.668L484.064 327.889C483.522 328.314 482.902 328.648 482.205 328.89C481.516 329.132 480.808 329.253 480.082 329.253C478.96 329.253 478.003 329 477.211 328.494C476.419 327.988 475.814 327.284 475.396 326.382C474.986 325.473 474.78 324.42 474.78 323.225C474.78 322.052 474.989 321.01 475.407 320.101C475.825 319.192 476.412 318.477 477.167 317.956C477.923 317.435 478.814 317.175 479.84 317.175C480.816 317.175 481.655 317.406 482.359 317.868C483.063 318.323 483.602 318.975 483.976 319.826C484.358 320.669 484.548 321.678 484.548 322.851C484.548 323.049 484.545 323.236 484.537 323.412C484.53 323.581 484.519 323.731 484.504 323.863H476.716ZM479.862 318.693C479.004 318.693 478.286 318.997 477.706 319.606C477.134 320.215 476.808 321.157 476.727 322.433H482.766C482.744 321.194 482.473 320.262 481.952 319.639C481.432 319.008 480.735 318.693 479.862 318.693ZM491.052 327.46C491.052 326.983 491.221 326.569 491.558 326.217C491.903 325.865 492.324 325.689 492.823 325.689C493.336 325.689 493.762 325.865 494.099 326.217C494.444 326.569 494.616 326.983 494.616 327.46C494.616 327.959 494.444 328.384 494.099 328.736C493.762 329.081 493.336 329.253 492.823 329.253C492.324 329.253 491.903 329.081 491.558 328.736C491.221 328.384 491.052 327.959 491.052 327.46ZM491.052 319.529C491.052 319.192 491.129 318.891 491.283 318.627C491.437 318.363 491.65 318.154 491.921 318C492.192 317.839 492.493 317.758 492.823 317.758C493.336 317.758 493.762 317.93 494.099 318.275C494.444 318.62 494.616 319.038 494.616 319.529C494.616 320.013 494.444 320.435 494.099 320.794C493.762 321.146 493.336 321.322 492.823 321.322C492.324 321.322 491.903 321.146 491.558 320.794C491.221 320.435 491.052 320.013 491.052 319.529ZM514.839 329V317.417H516.412L516.555 319.023C517.024 318.429 517.611 317.974 518.315 317.659C519.026 317.336 519.715 317.175 520.383 317.175C521.519 317.175 522.344 317.476 522.858 318.077C523.378 318.678 523.639 319.514 523.639 320.585V329H521.791V321.949C521.791 321.157 521.747 320.519 521.659 320.035C521.571 319.544 521.387 319.188 521.109 318.968C520.83 318.741 520.397 318.627 519.811 318.627C519.356 318.627 518.927 318.726 518.524 318.924C518.128 319.122 517.772 319.371 517.457 319.672C517.149 319.965 516.892 320.262 516.687 320.563V329H514.839ZM529.878 317.417V325.623C529.878 326.386 530.036 326.936 530.351 327.273C530.666 327.61 531.158 327.779 531.825 327.779C532.463 327.779 533.064 327.599 533.629 327.24C534.201 326.873 534.645 326.441 534.96 325.942V317.417H536.808V329H535.235L535.081 327.438C534.626 328.025 534.065 328.476 533.398 328.791C532.731 329.099 532.056 329.253 531.374 329.253C530.252 329.253 529.412 328.956 528.855 328.362C528.305 327.761 528.03 326.921 528.03 325.843V317.417H529.878ZM548.855 317.175C549.229 317.175 549.585 317.256 549.922 317.417C550.267 317.578 550.549 317.89 550.769 318.352C550.989 318.814 551.099 319.489 551.099 320.376V329H549.383V320.673C549.383 319.947 549.339 319.423 549.251 319.1C549.163 318.777 548.91 318.616 548.492 318.616C548.148 318.616 547.803 318.726 547.458 318.946C547.121 319.159 546.791 319.511 546.468 320.002V329H544.741V320.673C544.741 319.947 544.697 319.423 544.609 319.1C544.521 318.777 544.268 318.616 543.85 318.616C543.491 318.616 543.143 318.726 542.805 318.946C542.475 319.159 542.149 319.511 541.826 320.002V329H540.121V317.417H541.573L541.683 318.759C541.999 318.312 542.351 317.938 542.739 317.637C543.135 317.329 543.623 317.175 544.202 317.175C544.642 317.175 545.057 317.281 545.445 317.494C545.834 317.699 546.12 318.103 546.303 318.704C546.619 318.249 546.974 317.883 547.37 317.604C547.766 317.318 548.261 317.175 548.855 317.175ZM556.261 318.924C556.686 318.367 557.174 317.938 557.724 317.637C558.281 317.329 558.894 317.175 559.561 317.175C560.595 317.175 561.431 317.424 562.069 317.923C562.707 318.422 563.173 319.126 563.466 320.035C563.759 320.937 563.906 321.993 563.906 323.203C563.906 324.369 563.73 325.41 563.378 326.327C563.026 327.236 562.509 327.951 561.827 328.472C561.152 328.993 560.316 329.253 559.319 329.253C557.977 329.253 556.925 328.769 556.162 327.801L556.03 329H554.413V312.753L556.261 312.522V318.924ZM558.879 327.757C559.847 327.757 560.591 327.383 561.112 326.635C561.633 325.887 561.893 324.739 561.893 323.192C561.893 322.18 561.79 321.34 561.585 320.673C561.38 319.998 561.072 319.496 560.661 319.166C560.258 318.829 559.759 318.66 559.165 318.66C558.52 318.66 557.951 318.854 557.46 319.243C556.976 319.624 556.576 320.05 556.261 320.519V326.261C556.562 326.716 556.939 327.079 557.394 327.35C557.856 327.621 558.351 327.757 558.879 327.757ZM569.056 323.863C569.093 324.758 569.265 325.491 569.573 326.063C569.881 326.628 570.288 327.046 570.794 327.317C571.3 327.581 571.85 327.713 572.444 327.713C573.038 327.713 573.574 327.625 574.05 327.449C574.534 327.273 575.029 327.013 575.535 326.668L576.404 327.889C575.862 328.314 575.242 328.648 574.545 328.89C573.856 329.132 573.148 329.253 572.422 329.253C571.3 329.253 570.343 329 569.551 328.494C568.759 327.988 568.154 327.284 567.736 326.382C567.326 325.473 567.12 324.42 567.12 323.225C567.12 322.052 567.329 321.01 567.747 320.101C568.165 319.192 568.752 318.477 569.507 317.956C570.263 317.435 571.154 317.175 572.18 317.175C573.156 317.175 573.995 317.406 574.699 317.868C575.403 318.323 575.942 318.975 576.316 319.826C576.698 320.669 576.888 321.678 576.888 322.851C576.888 323.049 576.885 323.236 576.877 323.412C576.87 323.581 576.859 323.731 576.844 323.863H569.056ZM572.202 318.693C571.344 318.693 570.626 318.997 570.046 319.606C569.474 320.215 569.148 321.157 569.067 322.433H575.106C575.084 321.194 574.813 320.262 574.292 319.639C573.772 319.008 573.075 318.693 572.202 318.693ZM580.906 329V327.581H582.71V318.836H580.906V317.417H584.118L584.459 320.156C584.906 319.203 585.449 318.466 586.087 317.945C586.725 317.424 587.568 317.164 588.617 317.164C588.939 317.164 589.225 317.19 589.475 317.241C589.731 317.285 589.992 317.344 590.256 317.417L589.717 319.067C589.475 319.001 589.255 318.953 589.057 318.924C588.859 318.887 588.631 318.869 588.375 318.869C587.487 318.869 586.725 319.184 586.087 319.815C585.449 320.446 584.939 321.399 584.558 322.675V327.581H586.912V329H580.906ZM588.474 321.333V318.814L588.661 317.417H590.256L589.992 321.333H588.474ZM608.234 310.619C608.85 310.619 609.441 310.674 610.005 310.784C610.57 310.887 611.069 311.066 611.501 311.323C611.934 311.58 612.26 311.932 612.48 312.379C612.708 312.819 612.781 313.376 612.7 314.051L612.26 318.253C612.202 318.752 612.264 319.173 612.447 319.518C612.638 319.863 612.983 320.123 613.481 320.299C613.98 320.475 614.68 320.563 615.582 320.563V322.037C614.688 322.037 613.987 322.129 613.481 322.312C612.983 322.488 612.638 322.748 612.447 323.093C612.264 323.438 612.202 323.863 612.26 324.369L612.7 328.549C612.774 329.224 612.7 329.781 612.48 330.221C612.26 330.668 611.934 331.02 611.501 331.277C611.076 331.534 610.577 331.713 610.005 331.816C609.441 331.926 608.85 331.981 608.234 331.981V330.529C608.77 330.529 609.254 330.478 609.686 330.375C610.126 330.272 610.467 330.093 610.709 329.836C610.951 329.579 611.05 329.224 611.006 328.769L610.544 324.259C610.478 323.606 610.515 323.082 610.654 322.686C610.794 322.283 611.043 321.975 611.402 321.762C611.769 321.549 612.249 321.403 612.843 321.322C612.271 321.227 611.802 321.062 611.435 320.827C611.076 320.592 610.823 320.273 610.676 319.87C610.53 319.467 610.486 318.957 610.544 318.341L611.006 313.831C611.05 313.384 610.951 313.032 610.709 312.775C610.467 312.518 610.13 312.339 609.697 312.236C609.265 312.126 608.777 312.071 608.234 312.071V310.619Z" fill="black"/>
<path d="M421.761 41.264V43.376C420.982 43.376 420.273 43.456 419.633 43.616C419.003 43.7653 418.513 44.0267 418.161 44.4C417.819 44.7733 417.675 45.2853 417.729 45.936L418.401 52.496C418.497 53.392 418.443 54.1333 418.241 54.72C418.038 55.3067 417.697 55.7653 417.217 56.096C416.747 56.4267 416.145 56.6613 415.409 56.8C416.155 56.928 416.769 57.152 417.249 57.472C417.729 57.7813 418.065 58.2293 418.257 58.816C418.449 59.392 418.497 60.1547 418.401 61.104L417.729 67.664C417.675 68.3253 417.819 68.8427 418.161 69.216C418.502 69.5893 418.993 69.8507 419.633 70C420.273 70.1493 420.982 70.224 421.761 70.224V72.336C420.865 72.336 420.006 72.256 419.185 72.096C418.363 71.9467 417.638 71.6853 417.009 71.312C416.379 70.9387 415.905 70.4267 415.585 69.776C415.265 69.136 415.158 68.3253 415.265 67.344L415.905 61.264C415.99 60.528 415.921 59.9093 415.697 59.408C415.483 58.9067 415.014 58.528 414.289 58.272C413.574 58.0053 412.502 57.872 411.073 57.872V55.728C412.502 55.728 413.574 55.6 414.289 55.344C415.014 55.088 415.483 54.7093 415.697 54.208C415.921 53.7067 415.99 53.0933 415.905 52.368L415.265 46.256C415.158 45.2747 415.265 44.464 415.585 43.824C415.905 43.1733 416.374 42.6613 416.993 42.288C417.622 41.9147 418.347 41.6533 419.169 41.504C420.001 41.344 420.865 41.264 421.761 41.264ZM431.252 41.264C432.148 41.264 433.007 41.344 433.828 41.504C434.649 41.6533 435.375 41.9147 436.004 42.288C436.633 42.6613 437.108 43.1733 437.428 43.824C437.759 44.464 437.865 45.2747 437.748 46.256L437.108 52.368C437.023 53.0933 437.113 53.7067 437.38 54.208C437.657 54.7093 438.159 55.088 438.884 55.344C439.609 55.6 440.628 55.728 441.94 55.728V57.872C440.639 57.872 439.62 58.0053 438.884 58.272C438.159 58.528 437.657 58.9067 437.38 59.408C437.113 59.9093 437.023 60.528 437.108 61.264L437.748 67.344C437.855 68.3253 437.748 69.136 437.428 69.776C437.108 70.4267 436.633 70.9387 436.004 71.312C435.385 71.6853 434.66 71.9467 433.828 72.096C433.007 72.256 432.148 72.336 431.252 72.336V70.224C432.031 70.224 432.735 70.1493 433.364 70C434.004 69.8507 434.5 69.5893 434.852 69.216C435.204 68.8427 435.348 68.3253 435.284 67.664L434.612 61.104C434.516 60.1547 434.569 59.392 434.772 58.816C434.975 58.2293 435.337 57.7813 435.86 57.472C436.393 57.1627 437.092 56.9493 437.956 56.832C437.124 56.6933 436.441 56.4533 435.908 56.112C435.385 55.7707 435.017 55.3067 434.804 54.72C434.591 54.1333 434.527 53.392 434.612 52.496L435.284 45.936C435.348 45.2853 435.204 44.7733 434.852 44.4C434.5 44.0267 434.009 43.7653 433.38 43.616C432.751 43.456 432.041 43.376 431.252 43.376V41.264Z" fill="black"/>
</svg>
