<svg width="551" height="323" viewBox="0 0 551 323" fill="none" xmlns="http://www.w3.org/2000/svg">
<path d="M550 161.5C550 205.596 519.503 245.7 469.802 274.835C420.125 303.956 351.431 322 275.5 322C199.569 322 130.875 303.956 81.1978 274.835C31.497 245.7 1 205.596 1 161.5C1 117.404 31.497 77.2999 81.1978 48.165C130.875 19.0439 199.569 1 275.5 1C351.431 1 420.125 19.0439 469.802 48.165C519.503 77.2999 550 117.404 550 161.5Z" fill="#B1D6FF" fill-opacity="0.5" stroke="#3077C6" stroke-width="2"/>
<path d="M496 194.5C496 210.101 484.038 224.462 464.167 234.982C444.342 245.478 416.884 252 386.5 252C356.116 252 328.658 245.478 308.833 234.982C288.962 224.462 277 210.101 277 194.5C277 178.899 288.962 164.538 308.833 154.018C328.658 143.522 356.116 137 386.5 137C416.884 137 444.342 143.522 464.167 154.018C484.038 164.538 496 178.899 496 194.5Z" fill="#B1D6FF" fill-opacity="0.5" stroke="#3077C6" stroke-width="2"/>
<path d="M261 194.5C261 210.101 249.038 224.462 229.167 234.982C209.342 245.478 181.884 252 151.5 252C121.116 252 93.6582 245.478 73.8326 234.982C53.9622 224.462 42 210.101 42 194.5C42 178.899 53.9622 164.538 73.8326 154.018C93.6582 143.522 121.116 137 151.5 137C181.884 137 209.342 143.522 229.167 154.018C249.038 164.538 261 178.899 261 194.5Z" fill="#B1D6FF" fill-opacity="0.5" stroke="#3077C6" stroke-width="2"/>
<path d="M297.416 205.772V183.428H303.428V185.168H299.324V204.056H303.428V205.772H297.416ZM313.643 189.788C313.643 190.284 313.463 190.7 313.103 191.036C312.751 191.372 312.323 191.54 311.819 191.54C311.307 191.54 310.879 191.372 310.535 191.036C310.191 190.7 310.019 190.284 310.019 189.788C310.019 189.588 310.043 189.372 310.091 189.14C310.139 188.9 310.255 188.588 310.439 188.204L312.383 184.064H313.979L312.995 188.468C313.195 188.604 313.351 188.792 313.463 189.032C313.583 189.264 313.643 189.516 313.643 189.788ZM318.827 189.788C318.827 190.284 318.643 190.7 318.275 191.036C317.915 191.372 317.491 191.54 317.003 191.54C316.507 191.54 316.083 191.372 315.731 191.036C315.379 190.7 315.203 190.284 315.203 189.788C315.203 189.588 315.227 189.372 315.275 189.14C315.323 188.9 315.439 188.588 315.623 188.204L317.603 184.064H319.163L318.191 188.468C318.383 188.604 318.535 188.792 318.647 189.032C318.767 189.264 318.827 189.516 318.827 189.788ZM332.185 198.788H325.645L324.325 203H322.273L327.649 186.476H330.313L335.689 203H333.505L332.185 198.788ZM326.185 197.06H331.645L328.933 188.228L326.185 197.06ZM343.504 185.276V199.88C343.504 200.504 343.696 200.948 344.08 201.212C344.472 201.468 344.976 201.596 345.592 201.596C345.976 201.596 346.34 201.556 346.684 201.476C347.028 201.396 347.372 201.288 347.716 201.152L348.256 202.628C347.912 202.796 347.484 202.944 346.972 203.072C346.468 203.208 345.896 203.276 345.256 203.276C344.136 203.276 343.228 202.968 342.532 202.352C341.836 201.728 341.488 200.868 341.488 199.772V186.872H337.612V185.276H343.504ZM359.371 190.364V201.404H362.935V203H353.455V201.404H357.355V191.96H353.575V190.364H359.371ZM357.763 184.448C358.211 184.448 358.567 184.584 358.831 184.856C359.103 185.128 359.239 185.46 359.239 185.852C359.239 186.26 359.103 186.604 358.831 186.884C358.567 187.156 358.211 187.292 357.763 187.292C357.339 187.292 356.991 187.156 356.719 186.884C356.447 186.604 356.311 186.26 356.311 185.852C356.311 185.46 356.447 185.128 356.719 184.856C356.991 184.584 357.339 184.448 357.763 184.448ZM373.077 201.536C373.709 201.536 374.297 201.432 374.841 201.224C375.393 201.016 375.901 200.752 376.365 200.432L377.349 201.752C376.797 202.224 376.133 202.596 375.357 202.868C374.581 203.14 373.821 203.276 373.077 203.276C371.821 203.276 370.749 203.008 369.861 202.472C368.981 201.928 368.309 201.168 367.845 200.192C367.381 199.208 367.149 198.056 367.149 196.736C367.149 195.472 367.381 194.34 367.845 193.34C368.317 192.332 368.993 191.54 369.873 190.964C370.761 190.388 371.837 190.1 373.101 190.1C373.909 190.1 374.665 190.224 375.369 190.472C376.081 190.712 376.733 191.076 377.325 191.564L376.341 192.908C375.805 192.532 375.265 192.252 374.721 192.068C374.185 191.876 373.637 191.78 373.077 191.78C371.989 191.78 371.093 192.188 370.389 193.004C369.685 193.82 369.333 195.064 369.333 196.736C369.333 197.856 369.493 198.772 369.813 199.484C370.141 200.188 370.585 200.708 371.145 201.044C371.713 201.372 372.357 201.536 373.077 201.536ZM383.34 197.396C383.38 198.372 383.568 199.172 383.904 199.796C384.24 200.412 384.684 200.868 385.236 201.164C385.788 201.452 386.388 201.596 387.036 201.596C387.684 201.596 388.268 201.5 388.788 201.308C389.316 201.116 389.856 200.832 390.408 200.456L391.356 201.788C390.764 202.252 390.088 202.616 389.328 202.88C388.576 203.144 387.804 203.276 387.012 203.276C385.788 203.276 384.744 203 383.88 202.448C383.016 201.896 382.356 201.128 381.9 200.144C381.452 199.152 381.228 198.004 381.228 196.7C381.228 195.42 381.456 194.284 381.912 193.292C382.368 192.3 383.008 191.52 383.832 190.952C384.656 190.384 385.628 190.1 386.748 190.1C387.812 190.1 388.728 190.352 389.496 190.856C390.264 191.352 390.852 192.064 391.26 192.992C391.676 193.912 391.884 195.012 391.884 196.292C391.884 196.508 391.88 196.712 391.872 196.904C391.864 197.088 391.852 197.252 391.836 197.396H383.34ZM386.772 191.756C385.836 191.756 385.052 192.088 384.42 192.752C383.796 193.416 383.44 194.444 383.352 195.836H389.94C389.916 194.484 389.62 193.468 389.052 192.788C388.484 192.1 387.724 191.756 386.772 191.756ZM396.674 185.852C396.674 185.356 396.854 184.94 397.214 184.604C397.582 184.26 398.01 184.088 398.498 184.088C398.994 184.088 399.422 184.26 399.782 184.604C400.142 184.94 400.322 185.356 400.322 185.852C400.322 186.068 400.29 186.288 400.226 186.512C400.162 186.728 400.034 187.032 399.842 187.424L397.898 191.564H396.338L397.286 187.16C397.102 187.016 396.954 186.828 396.842 186.596C396.73 186.364 396.674 186.116 396.674 185.852ZM401.858 185.852C401.858 185.356 402.038 184.94 402.398 184.604C402.766 184.26 403.194 184.088 403.682 184.088C404.186 184.088 404.614 184.26 404.966 184.604C405.326 184.94 405.506 185.356 405.506 185.852C405.506 186.068 405.478 186.288 405.422 186.512C405.366 186.728 405.246 187.032 405.062 187.424L403.094 191.564H401.522L402.494 187.16C402.302 187.016 402.146 186.828 402.026 186.596C401.914 186.364 401.858 186.116 401.858 185.852ZM415.325 199.052C415.877 199.052 416.337 199.24 416.705 199.616C417.081 199.992 417.269 200.444 417.269 200.972C417.269 201.26 417.233 201.552 417.161 201.848C417.097 202.144 416.977 202.48 416.801 202.856L414.857 207.308H413.033L414.185 202.568C413.945 202.392 413.753 202.164 413.609 201.884C413.473 201.596 413.405 201.292 413.405 200.972C413.405 200.436 413.589 199.984 413.957 199.616C414.325 199.24 414.781 199.052 415.325 199.052ZM443.35 186.212C444.39 186.212 445.286 186.4 446.038 186.776C446.798 187.144 447.386 187.644 447.802 188.276C448.218 188.9 448.426 189.588 448.426 190.34C448.426 191.004 448.278 191.608 447.982 192.152C447.686 192.696 447.294 193.144 446.806 193.496C446.318 193.848 445.782 194.08 445.198 194.192C445.846 194.24 446.454 194.424 447.022 194.744C447.59 195.056 448.054 195.504 448.414 196.088C448.774 196.664 448.954 197.38 448.954 198.236C448.954 199.188 448.714 200.048 448.234 200.816C447.754 201.576 447.082 202.176 446.218 202.616C445.362 203.056 444.362 203.276 443.218 203.276C442.298 203.276 441.378 203.1 440.458 202.748C439.546 202.396 438.774 201.836 438.142 201.068L439.498 199.964C439.97 200.516 440.53 200.928 441.178 201.2C441.834 201.472 442.498 201.608 443.17 201.608C444.322 201.608 445.222 201.308 445.87 200.708C446.518 200.1 446.842 199.276 446.842 198.236C446.842 197.452 446.69 196.832 446.386 196.376C446.09 195.92 445.686 195.596 445.174 195.404C444.662 195.204 444.078 195.104 443.422 195.104H442.03L442.282 193.508H443.254C443.79 193.508 444.294 193.408 444.766 193.208C445.246 193 445.638 192.68 445.942 192.248C446.246 191.816 446.398 191.276 446.398 190.628C446.398 189.716 446.094 189.02 445.486 188.54C444.878 188.06 444.142 187.82 443.278 187.82C442.558 187.82 441.93 187.948 441.394 188.204C440.858 188.452 440.318 188.832 439.774 189.344L438.658 188.108C439.362 187.444 440.11 186.964 440.902 186.668C441.694 186.364 442.51 186.212 443.35 186.212ZM460.261 186.476V202.52H458.245V188.66L454.453 190.964L453.577 189.524L458.497 186.476H460.261ZM463.717 201.356V203H454.177V201.356H463.717ZM475.672 183.428V205.772H469.66V204.068H473.764V185.168H469.66V183.428H475.672Z" fill="black"/>
<path d="M76.416 205.772V183.428H82.428V185.168H78.324V204.056H82.428V205.772H76.416ZM92.6426 189.788C92.6426 190.284 92.4626 190.7 92.1026 191.036C91.7506 191.372 91.3226 191.54 90.8186 191.54C90.3066 191.54 89.8786 191.372 89.5346 191.036C89.1906 190.7 89.0186 190.284 89.0186 189.788C89.0186 189.588 89.0426 189.372 89.0906 189.14C89.1386 188.9 89.2546 188.588 89.4386 188.204L91.3826 184.064H92.9786L91.9946 188.468C92.1946 188.604 92.3506 188.792 92.4626 189.032C92.5826 189.264 92.6426 189.516 92.6426 189.788ZM97.8266 189.788C97.8266 190.284 97.6426 190.7 97.2746 191.036C96.9146 191.372 96.4906 191.54 96.0026 191.54C95.5066 191.54 95.0826 191.372 94.7306 191.036C94.3786 190.7 94.2026 190.284 94.2026 189.788C94.2026 189.588 94.2266 189.372 94.2746 189.14C94.3226 188.9 94.4386 188.588 94.6226 188.204L96.6026 184.064H98.1626L97.1906 188.468C97.3826 188.604 97.5346 188.792 97.6466 189.032C97.7666 189.264 97.8266 189.516 97.8266 189.788ZM111.533 198.356C111.533 197.524 111.369 196.884 111.041 196.436C110.721 195.98 110.293 195.664 109.757 195.488C109.221 195.312 108.633 195.224 107.993 195.224H105.173V201.284H107.897C108.305 201.284 108.721 201.244 109.145 201.164C109.569 201.084 109.961 200.94 110.321 200.732C110.689 200.524 110.981 200.232 111.197 199.856C111.421 199.472 111.533 198.972 111.533 198.356ZM110.873 190.748C110.873 189.812 110.581 189.148 109.997 188.756C109.421 188.356 108.633 188.156 107.633 188.156H105.173V193.508H107.837C108.813 193.508 109.561 193.292 110.081 192.86C110.609 192.42 110.873 191.716 110.873 190.748ZM113.729 198.284C113.729 199.18 113.549 199.932 113.189 200.54C112.837 201.148 112.361 201.632 111.761 201.992C111.169 202.352 110.505 202.612 109.769 202.772C109.041 202.924 108.297 203 107.537 203H103.097V186.476H107.165C107.893 186.476 108.601 186.544 109.289 186.68C109.985 186.808 110.609 187.032 111.161 187.352C111.721 187.664 112.169 188.088 112.505 188.624C112.841 189.16 113.009 189.832 113.009 190.64C113.009 191.352 112.861 191.956 112.565 192.452C112.277 192.94 111.897 193.332 111.425 193.628C110.961 193.924 110.465 194.132 109.937 194.252C110.553 194.348 111.149 194.536 111.725 194.816C112.309 195.088 112.789 195.504 113.165 196.064C113.541 196.616 113.729 197.356 113.729 198.284ZM122.396 190.1C123.588 190.1 124.584 190.372 125.384 190.916C126.192 191.452 126.796 192.212 127.196 193.196C127.604 194.18 127.808 195.34 127.808 196.676C127.808 197.964 127.6 199.104 127.184 200.096C126.768 201.088 126.156 201.868 125.348 202.436C124.548 202.996 123.556 203.276 122.372 203.276C121.188 203.276 120.192 203.004 119.384 202.46C118.576 201.916 117.964 201.152 117.548 200.168C117.14 199.176 116.936 198.02 116.936 196.7C116.936 195.396 117.144 194.248 117.56 193.256C117.976 192.264 118.588 191.492 119.396 190.94C120.212 190.38 121.212 190.1 122.396 190.1ZM122.396 191.744C121.308 191.744 120.484 192.148 119.924 192.956C119.372 193.756 119.096 195.004 119.096 196.7C119.096 198.364 119.368 199.6 119.912 200.408C120.464 201.216 121.284 201.62 122.372 201.62C123.46 201.62 124.276 201.216 124.82 200.408C125.372 199.6 125.648 198.356 125.648 196.676C125.648 194.996 125.376 193.756 124.832 192.956C124.288 192.148 123.476 191.744 122.396 191.744ZM133.991 192.008C134.455 191.4 134.987 190.932 135.587 190.604C136.195 190.268 136.863 190.1 137.591 190.1C138.719 190.1 139.631 190.372 140.327 190.916C141.023 191.46 141.531 192.228 141.851 193.22C142.171 194.204 142.331 195.356 142.331 196.676C142.331 197.948 142.139 199.084 141.755 200.084C141.371 201.076 140.807 201.856 140.063 202.424C139.327 202.992 138.415 203.276 137.327 203.276C135.863 203.276 134.715 202.748 133.883 201.692L133.739 203H131.975V185.276L133.991 185.024V192.008ZM136.847 201.644C137.903 201.644 138.715 201.236 139.283 200.42C139.851 199.604 140.135 198.352 140.135 196.664C140.135 195.56 140.023 194.644 139.799 193.916C139.575 193.18 139.239 192.632 138.791 192.272C138.351 191.904 137.807 191.72 137.159 191.72C136.455 191.72 135.835 191.932 135.299 192.356C134.771 192.772 134.335 193.236 133.991 193.748V200.012C134.319 200.508 134.731 200.904 135.227 201.2C135.731 201.496 136.271 201.644 136.847 201.644ZM146.893 185.852C146.893 185.356 147.073 184.94 147.433 184.604C147.801 184.26 148.229 184.088 148.717 184.088C149.213 184.088 149.641 184.26 150.001 184.604C150.361 184.94 150.541 185.356 150.541 185.852C150.541 186.068 150.509 186.288 150.445 186.512C150.381 186.728 150.253 187.032 150.061 187.424L148.117 191.564H146.557L147.505 187.16C147.321 187.016 147.173 186.828 147.061 186.596C146.949 186.364 146.893 186.116 146.893 185.852ZM152.077 185.852C152.077 185.356 152.257 184.94 152.617 184.604C152.985 184.26 153.413 184.088 153.901 184.088C154.405 184.088 154.833 184.26 155.185 184.604C155.545 184.94 155.725 185.356 155.725 185.852C155.725 186.068 155.697 186.288 155.641 186.512C155.585 186.728 155.465 187.032 155.281 187.424L153.313 191.564H151.741L152.713 187.16C152.521 187.016 152.365 186.828 152.245 186.596C152.133 186.364 152.077 186.116 152.077 185.852ZM165.544 199.052C166.096 199.052 166.556 199.24 166.924 199.616C167.3 199.992 167.488 200.444 167.488 200.972C167.488 201.26 167.452 201.552 167.38 201.848C167.316 202.144 167.196 202.48 167.02 202.856L165.076 207.308H163.252L164.404 202.568C164.164 202.392 163.972 202.164 163.828 201.884C163.692 201.596 163.624 201.292 163.624 200.972C163.624 200.436 163.808 199.984 164.176 199.616C164.544 199.24 165 199.052 165.544 199.052ZM193.593 186.212C194.633 186.212 195.521 186.412 196.257 186.812C197.001 187.212 197.573 187.76 197.973 188.456C198.373 189.152 198.573 189.94 198.573 190.82C198.573 191.58 198.441 192.324 198.177 193.052C197.913 193.772 197.489 194.532 196.905 195.332C196.329 196.124 195.569 197.004 194.625 197.972C193.689 198.94 192.537 200.044 191.169 201.284H198.957L198.705 203H188.877V201.356C190.125 200.164 191.185 199.12 192.057 198.224C192.937 197.328 193.661 196.544 194.229 195.872C194.805 195.192 195.253 194.576 195.573 194.024C195.901 193.472 196.129 192.948 196.257 192.452C196.385 191.948 196.449 191.428 196.449 190.892C196.449 189.964 196.185 189.232 195.657 188.696C195.137 188.16 194.417 187.892 193.497 187.892C192.681 187.892 192.013 188.032 191.493 188.312C190.973 188.592 190.453 189.04 189.933 189.656L188.541 188.576C189.197 187.776 189.925 187.184 190.725 186.8C191.525 186.408 192.481 186.212 193.593 186.212ZM213.672 190.412C213.672 191.212 213.424 191.908 212.928 192.5C212.432 193.084 211.724 193.628 210.804 194.132C211.884 194.58 212.744 195.176 213.384 195.92C214.024 196.664 214.344 197.548 214.344 198.572C214.344 199.468 214.112 200.272 213.648 200.984C213.184 201.696 212.528 202.256 211.68 202.664C210.84 203.072 209.836 203.276 208.668 203.276C207.492 203.276 206.484 203.072 205.644 202.664C204.812 202.248 204.176 201.688 203.736 200.984C203.304 200.28 203.088 199.488 203.088 198.608C203.088 197.592 203.388 196.736 203.988 196.04C204.596 195.336 205.4 194.756 206.4 194.3C205.528 193.884 204.868 193.38 204.42 192.788C203.98 192.196 203.76 191.44 203.76 190.52C203.76 189.76 203.912 189.112 204.216 188.576C204.528 188.032 204.928 187.584 205.416 187.232C205.912 186.88 206.448 186.624 207.024 186.464C207.608 186.296 208.172 186.212 208.716 186.212C209.316 186.212 209.908 186.296 210.492 186.464C211.084 186.624 211.62 186.876 212.1 187.22C212.58 187.556 212.96 187.988 213.24 188.516C213.528 189.044 213.672 189.676 213.672 190.412ZM212.22 198.596C212.22 197.852 212.032 197.264 211.656 196.832C211.28 196.4 210.76 196.04 210.096 195.752C209.432 195.464 208.664 195.172 207.792 194.876C207.336 195.084 206.912 195.348 206.52 195.668C206.128 195.988 205.812 196.388 205.572 196.868C205.332 197.34 205.212 197.924 205.212 198.62C205.212 199.556 205.5 200.296 206.076 200.84C206.66 201.376 207.52 201.644 208.656 201.644C209.808 201.644 210.688 201.356 211.296 200.78C211.912 200.196 212.22 199.468 212.22 198.596ZM205.752 190.544C205.752 191.176 205.896 191.672 206.184 192.032C206.48 192.392 206.9 192.688 207.444 192.92C207.988 193.144 208.632 193.38 209.376 193.628C210.144 193.188 210.72 192.744 211.104 192.296C211.488 191.84 211.68 191.236 211.68 190.484C211.68 189.652 211.42 188.992 210.9 188.504C210.388 188.016 209.66 187.772 208.716 187.772C207.78 187.772 207.052 188.016 206.532 188.504C206.012 188.992 205.752 189.672 205.752 190.544ZM225.89 183.428V205.772H219.878V204.068H223.982V185.168H219.878V183.428H225.89Z" fill="black"/>
<path d="M164.791 100.772V78.428H170.803V80.168H166.699V99.056H170.803V100.772H164.791ZM181.474 96.608C182.442 96.608 183.206 96.428 183.766 96.068C184.334 95.7 184.618 95.212 184.618 94.604C184.618 94.22 184.546 93.888 184.402 93.608C184.266 93.328 183.982 93.076 183.55 92.852C183.118 92.628 182.454 92.404 181.558 92.18C180.686 91.964 179.926 91.716 179.278 91.436C178.638 91.148 178.138 90.776 177.778 90.32C177.426 89.864 177.25 89.272 177.25 88.544C177.25 87.832 177.45 87.22 177.85 86.708C178.258 86.188 178.822 85.792 179.542 85.52C180.262 85.24 181.098 85.1 182.05 85.1C183.066 85.1 183.95 85.236 184.702 85.508C185.462 85.772 186.106 86.1 186.634 86.492L185.746 87.86C185.266 87.532 184.738 87.264 184.162 87.056C183.586 86.84 182.89 86.732 182.074 86.732C181.082 86.732 180.378 86.888 179.962 87.2C179.546 87.504 179.338 87.9 179.338 88.388C179.338 88.756 179.438 89.064 179.638 89.312C179.846 89.552 180.194 89.772 180.682 89.972C181.17 90.164 181.842 90.376 182.698 90.608C183.522 90.824 184.238 91.084 184.846 91.388C185.462 91.692 185.942 92.092 186.286 92.588C186.63 93.084 186.802 93.724 186.802 94.508C186.802 95.404 186.546 96.132 186.034 96.692C185.522 97.244 184.858 97.648 184.042 97.904C183.234 98.152 182.378 98.276 181.474 98.276C180.33 98.276 179.354 98.112 178.546 97.784C177.746 97.448 177.074 97.044 176.53 96.572L177.682 95.24C178.178 95.648 178.746 95.98 179.386 96.236C180.034 96.484 180.73 96.608 181.474 96.608ZM201.6 97.364C201.168 97.652 200.644 97.876 200.028 98.036C199.412 98.196 198.808 98.276 198.216 98.276C196.856 98.276 195.808 97.92 195.072 97.208C194.336 96.496 193.968 95.58 193.968 94.46V86.924H191.064V85.364H193.968V82.496L195.984 82.256V85.364H200.352L200.112 86.924H195.984V94.436C195.984 95.14 196.168 95.676 196.536 96.044C196.912 96.412 197.532 96.596 198.396 96.596C198.868 96.596 199.304 96.54 199.704 96.428C200.104 96.316 200.476 96.172 200.82 95.996L201.6 97.364ZM206.079 98V96.452H208.047V86.912H206.079V85.364H209.583L209.955 88.352C210.443 87.312 211.035 86.508 211.731 85.94C212.427 85.372 213.347 85.088 214.491 85.088C214.843 85.088 215.155 85.116 215.427 85.172C215.707 85.22 215.991 85.284 216.279 85.364L215.691 87.164C215.427 87.092 215.187 87.04 214.971 87.008C214.755 86.968 214.507 86.948 214.227 86.948C213.259 86.948 212.427 87.292 211.731 87.98C211.035 88.668 210.479 89.708 210.063 91.1V96.452H212.631V98H206.079ZM214.335 89.636V86.888L214.539 85.364H216.279L215.991 89.636H214.335ZM226.746 85.364V96.404H230.31V98H220.83V96.404H224.73V86.96H220.95V85.364H226.746ZM225.138 79.448C225.586 79.448 225.942 79.584 226.206 79.856C226.478 80.128 226.614 80.46 226.614 80.852C226.614 81.26 226.478 81.604 226.206 81.884C225.942 82.156 225.586 82.292 225.138 82.292C224.714 82.292 224.366 82.156 224.094 81.884C223.822 81.604 223.686 81.26 223.686 80.852C223.686 80.46 223.822 80.128 224.094 79.856C224.366 79.584 224.714 79.448 225.138 79.448ZM234.74 98V85.364H236.456L236.612 87.116C237.124 86.468 237.764 85.972 238.532 85.628C239.308 85.276 240.06 85.1 240.788 85.1C242.028 85.1 242.928 85.428 243.488 86.084C244.056 86.74 244.34 87.652 244.34 88.82V98H242.324V90.308C242.324 89.444 242.276 88.748 242.18 88.22C242.084 87.684 241.884 87.296 241.58 87.056C241.276 86.808 240.804 86.684 240.164 86.684C239.668 86.684 239.2 86.792 238.76 87.008C238.328 87.224 237.94 87.496 237.596 87.824C237.26 88.144 236.98 88.468 236.756 88.796V98H234.74ZM259.403 84.02L260.027 85.916C259.491 86.084 258.919 86.188 258.311 86.228C257.703 86.268 257.043 86.288 256.331 86.288C257.059 86.624 257.607 87.06 257.975 87.596C258.343 88.124 258.527 88.748 258.527 89.468C258.527 90.3 258.339 91.04 257.963 91.688C257.587 92.336 257.043 92.844 256.331 93.212C255.627 93.58 254.775 93.764 253.775 93.764C253.351 93.764 252.995 93.744 252.707 93.704C252.427 93.664 252.155 93.604 251.891 93.524C251.699 93.652 251.539 93.828 251.411 94.052C251.291 94.276 251.231 94.508 251.231 94.748C251.231 95.052 251.351 95.304 251.591 95.504C251.831 95.704 252.275 95.804 252.923 95.804H255.203C256.051 95.804 256.811 95.956 257.483 96.26C258.163 96.564 258.695 96.972 259.079 97.484C259.471 97.996 259.667 98.58 259.667 99.236C259.667 100.476 259.139 101.428 258.083 102.092C257.035 102.756 255.551 103.088 253.631 103.088C252.287 103.088 251.227 102.948 250.451 102.668C249.675 102.396 249.119 101.976 248.783 101.408C248.455 100.848 248.291 100.14 248.291 99.284H250.115C250.115 99.772 250.211 100.176 250.403 100.496C250.595 100.816 250.943 101.052 251.447 101.204C251.951 101.364 252.675 101.444 253.619 101.444C254.547 101.444 255.303 101.364 255.887 101.204C256.479 101.052 256.915 100.82 257.195 100.508C257.483 100.204 257.627 99.824 257.627 99.368C257.627 98.768 257.355 98.316 256.811 98.012C256.267 97.708 255.587 97.556 254.771 97.556H252.515C251.427 97.556 250.623 97.316 250.103 96.836C249.591 96.356 249.335 95.804 249.335 95.18C249.335 94.772 249.451 94.376 249.683 93.992C249.923 93.608 250.271 93.268 250.727 92.972C249.999 92.588 249.463 92.112 249.119 91.544C248.775 90.976 248.603 90.288 248.603 89.48C248.603 88.624 248.815 87.868 249.239 87.212C249.663 86.548 250.255 86.028 251.015 85.652C251.775 85.276 252.651 85.088 253.643 85.088C254.707 85.08 255.571 85.036 256.235 84.956C256.899 84.868 257.467 84.744 257.939 84.584C258.419 84.424 258.907 84.236 259.403 84.02ZM253.643 86.564C252.627 86.564 251.875 86.84 251.387 87.392C250.907 87.936 250.667 88.632 250.667 89.48C250.667 90.336 250.915 91.04 251.411 91.592C251.907 92.144 252.667 92.42 253.691 92.42C254.587 92.42 255.267 92.16 255.731 91.64C256.203 91.12 256.439 90.396 256.439 89.468C256.439 88.516 256.203 87.796 255.731 87.308C255.267 86.812 254.571 86.564 253.643 86.564ZM268.309 94.052C268.861 94.052 269.321 94.24 269.689 94.616C270.065 94.992 270.253 95.444 270.253 95.972C270.253 96.26 270.217 96.552 270.145 96.848C270.081 97.144 269.961 97.48 269.785 97.856L267.841 102.308H266.017L267.169 97.568C266.929 97.392 266.737 97.164 266.593 96.884C266.457 96.596 266.389 96.292 266.389 95.972C266.389 95.436 266.573 94.984 266.941 94.616C267.309 94.24 267.765 94.052 268.309 94.052ZM292.303 98V85.364H294.019L294.175 87.116C294.687 86.468 295.327 85.972 296.095 85.628C296.871 85.276 297.623 85.1 298.351 85.1C299.591 85.1 300.491 85.428 301.051 86.084C301.619 86.74 301.903 87.652 301.903 88.82V98H299.887V90.308C299.887 89.444 299.839 88.748 299.743 88.22C299.647 87.684 299.447 87.296 299.143 87.056C298.839 86.808 298.367 86.684 297.727 86.684C297.231 86.684 296.763 86.792 296.323 87.008C295.891 87.224 295.503 87.496 295.159 87.824C294.823 88.144 294.543 88.468 294.319 88.796V98H292.303ZM308.709 85.364V94.316C308.709 95.148 308.881 95.748 309.225 96.116C309.569 96.484 310.105 96.668 310.833 96.668C311.529 96.668 312.185 96.472 312.801 96.08C313.425 95.68 313.909 95.208 314.253 94.664V85.364H316.269V98H314.553L314.385 96.296C313.889 96.936 313.277 97.428 312.549 97.772C311.821 98.108 311.085 98.276 310.341 98.276C309.117 98.276 308.201 97.952 307.593 97.304C306.993 96.648 306.693 95.732 306.693 94.556V85.364H308.709ZM329.412 85.1C329.82 85.1 330.208 85.188 330.576 85.364C330.952 85.54 331.26 85.88 331.5 86.384C331.74 86.888 331.86 87.624 331.86 88.592V98H329.988V88.916C329.988 88.124 329.94 87.552 329.844 87.2C329.748 86.848 329.472 86.672 329.016 86.672C328.64 86.672 328.264 86.792 327.888 87.032C327.52 87.264 327.16 87.648 326.808 88.184V98H324.924V88.916C324.924 88.124 324.876 87.552 324.78 87.2C324.684 86.848 324.408 86.672 323.952 86.672C323.56 86.672 323.18 86.792 322.812 87.032C322.452 87.264 322.096 87.648 321.744 88.184V98H319.884V85.364H321.468L321.588 86.828C321.932 86.34 322.316 85.932 322.74 85.604C323.172 85.268 323.704 85.1 324.336 85.1C324.816 85.1 325.268 85.216 325.692 85.448C326.116 85.672 326.428 86.112 326.628 86.768C326.972 86.272 327.36 85.872 327.792 85.568C328.224 85.256 328.764 85.1 329.412 85.1ZM337.491 87.008C337.955 86.4 338.487 85.932 339.087 85.604C339.695 85.268 340.363 85.1 341.091 85.1C342.219 85.1 343.131 85.372 343.827 85.916C344.523 86.46 345.031 87.228 345.351 88.22C345.671 89.204 345.831 90.356 345.831 91.676C345.831 92.948 345.639 94.084 345.255 95.084C344.871 96.076 344.307 96.856 343.563 97.424C342.827 97.992 341.915 98.276 340.827 98.276C339.363 98.276 338.215 97.748 337.383 96.692L337.239 98H335.475V80.276L337.491 80.024V87.008ZM340.347 96.644C341.403 96.644 342.215 96.236 342.783 95.42C343.351 94.604 343.635 93.352 343.635 91.664C343.635 90.56 343.523 89.644 343.299 88.916C343.075 88.18 342.739 87.632 342.291 87.272C341.851 86.904 341.307 86.72 340.659 86.72C339.955 86.72 339.335 86.932 338.799 87.356C338.271 87.772 337.835 88.236 337.491 88.748V95.012C337.819 95.508 338.231 95.904 338.727 96.2C339.231 96.496 339.771 96.644 340.347 96.644ZM351.449 92.396C351.489 93.372 351.677 94.172 352.013 94.796C352.349 95.412 352.793 95.868 353.345 96.164C353.897 96.452 354.497 96.596 355.145 96.596C355.793 96.596 356.377 96.5 356.897 96.308C357.425 96.116 357.965 95.832 358.517 95.456L359.465 96.788C358.873 97.252 358.197 97.616 357.437 97.88C356.685 98.144 355.913 98.276 355.121 98.276C353.897 98.276 352.853 98 351.989 97.448C351.125 96.896 350.465 96.128 350.009 95.144C349.561 94.152 349.337 93.004 349.337 91.7C349.337 90.42 349.565 89.284 350.021 88.292C350.477 87.3 351.117 86.52 351.941 85.952C352.765 85.384 353.737 85.1 354.857 85.1C355.921 85.1 356.837 85.352 357.605 85.856C358.373 86.352 358.961 87.064 359.369 87.992C359.785 88.912 359.993 90.012 359.993 91.292C359.993 91.508 359.989 91.712 359.981 91.904C359.973 92.088 359.961 92.252 359.945 92.396H351.449ZM354.881 86.756C353.945 86.756 353.161 87.088 352.529 87.752C351.905 88.416 351.549 89.444 351.461 90.836H358.049C358.025 89.484 357.729 88.468 357.161 87.788C356.593 87.1 355.833 86.756 354.881 86.756ZM364.376 98V96.452H366.344V86.912H364.376V85.364H367.88L368.252 88.352C368.74 87.312 369.332 86.508 370.028 85.94C370.724 85.372 371.644 85.088 372.788 85.088C373.14 85.088 373.452 85.116 373.724 85.172C374.004 85.22 374.288 85.284 374.576 85.364L373.988 87.164C373.724 87.092 373.484 87.04 373.268 87.008C373.052 86.968 372.804 86.948 372.524 86.948C371.556 86.948 370.724 87.292 370.028 87.98C369.332 88.668 368.776 89.708 368.36 91.1V96.452H370.928V98H364.376ZM372.632 89.636V86.888L372.836 85.364H374.576L374.288 89.636H372.632ZM386.218 78.428V100.772H380.206V99.068H384.31V80.168H380.206V78.428H386.218Z" fill="black"/>
</svg>
