<svg width="551" height="323" viewBox="0 0 551 323" fill="none" xmlns="http://www.w3.org/2000/svg">
<path d="M550 161.5C550 205.596 519.503 245.7 469.802 274.835C420.125 303.956 351.431 322 275.5 322C199.569 322 130.875 303.956 81.1978 274.835C31.497 245.7 1 205.596 1 161.5C1 117.404 31.497 77.2999 81.1978 48.165C130.875 19.0439 199.569 1 275.5 1C351.431 1 420.125 19.0439 469.802 48.165C519.503 77.2999 550 117.404 550 161.5Z" fill="#B1D6FF" fill-opacity="0.5" stroke="#3077C6" stroke-width="2"/>
<path d="M496 194.5C496 210.101 484.038 224.462 464.167 234.982C444.342 245.478 416.884 252 386.5 252C356.116 252 328.658 245.478 308.833 234.982C288.962 224.462 277 210.101 277 194.5C277 178.899 288.962 164.538 308.833 154.018C328.658 143.522 356.116 137 386.5 137C416.884 137 444.342 143.522 464.167 154.018C484.038 164.538 496 178.899 496 194.5Z" fill="#B1D6FF" fill-opacity="0.5" stroke="#3077C6" stroke-width="2"/>
<path d="M261 194.5C261 210.101 249.038 224.462 229.167 234.982C209.342 245.478 181.884 252 151.5 252C121.116 252 93.6582 245.478 73.8326 234.982C53.9622 224.462 42 210.101 42 194.5C42 178.899 53.9622 164.538 73.8326 154.018C93.6582 143.522 121.116 137 151.5 137C181.884 137 209.342 143.522 229.167 154.018C249.038 164.538 261 178.899 261 194.5Z" fill="#B1D6FF" fill-opacity="0.5" stroke="#3077C6" stroke-width="2"/>
<path d="M331.412 203V190.364H333.128L333.284 192.116C333.796 191.468 334.436 190.972 335.204 190.628C335.98 190.276 336.732 190.1 337.46 190.1C338.7 190.1 339.6 190.428 340.16 191.084C340.728 191.74 341.012 192.652 341.012 193.82V203H338.996V195.308C338.996 194.444 338.948 193.748 338.852 193.22C338.756 192.684 338.556 192.296 338.252 192.056C337.948 191.808 337.476 191.684 336.836 191.684C336.34 191.684 335.872 191.792 335.432 192.008C335 192.224 334.612 192.496 334.268 192.824C333.932 193.144 333.652 193.468 333.428 193.796V203H331.412ZM347.819 190.364V199.316C347.819 200.148 347.991 200.748 348.335 201.116C348.679 201.484 349.215 201.668 349.943 201.668C350.639 201.668 351.295 201.472 351.911 201.08C352.535 200.68 353.019 200.208 353.363 199.664V190.364H355.379V203H353.663L353.495 201.296C352.999 201.936 352.387 202.428 351.659 202.772C350.931 203.108 350.195 203.276 349.451 203.276C348.227 203.276 347.311 202.952 346.703 202.304C346.103 201.648 345.803 200.732 345.803 199.556V190.364H347.819ZM368.521 190.1C368.929 190.1 369.317 190.188 369.685 190.364C370.061 190.54 370.369 190.88 370.609 191.384C370.849 191.888 370.969 192.624 370.969 193.592V203H369.097V193.916C369.097 193.124 369.049 192.552 368.953 192.2C368.857 191.848 368.581 191.672 368.125 191.672C367.749 191.672 367.373 191.792 366.997 192.032C366.629 192.264 366.269 192.648 365.917 193.184V203H364.033V193.916C364.033 193.124 363.985 192.552 363.889 192.2C363.793 191.848 363.517 191.672 363.061 191.672C362.669 191.672 362.289 191.792 361.921 192.032C361.561 192.264 361.205 192.648 360.853 193.184V203H358.993V190.364H360.577L360.697 191.828C361.041 191.34 361.425 190.932 361.849 190.604C362.281 190.268 362.813 190.1 363.445 190.1C363.925 190.1 364.377 190.216 364.801 190.448C365.225 190.672 365.537 191.112 365.737 191.768C366.081 191.272 366.469 190.872 366.901 190.568C367.333 190.256 367.873 190.1 368.521 190.1ZM376.6 192.008C377.064 191.4 377.596 190.932 378.196 190.604C378.804 190.268 379.472 190.1 380.2 190.1C381.328 190.1 382.24 190.372 382.936 190.916C383.632 191.46 384.14 192.228 384.46 193.22C384.78 194.204 384.94 195.356 384.94 196.676C384.94 197.948 384.748 199.084 384.364 200.084C383.98 201.076 383.416 201.856 382.672 202.424C381.936 202.992 381.024 203.276 379.936 203.276C378.472 203.276 377.324 202.748 376.492 201.692L376.348 203H374.584V185.276L376.6 185.024V192.008ZM379.456 201.644C380.512 201.644 381.324 201.236 381.892 200.42C382.46 199.604 382.744 198.352 382.744 196.664C382.744 195.56 382.632 194.644 382.408 193.916C382.184 193.18 381.848 192.632 381.4 192.272C380.96 191.904 380.416 191.72 379.768 191.72C379.064 191.72 378.444 191.932 377.908 192.356C377.38 192.772 376.944 193.236 376.6 193.748V200.012C376.928 200.508 377.34 200.904 377.836 201.2C378.34 201.496 378.88 201.644 379.456 201.644ZM390.559 197.396C390.599 198.372 390.787 199.172 391.123 199.796C391.459 200.412 391.903 200.868 392.455 201.164C393.007 201.452 393.607 201.596 394.255 201.596C394.903 201.596 395.487 201.5 396.007 201.308C396.535 201.116 397.075 200.832 397.627 200.456L398.575 201.788C397.983 202.252 397.307 202.616 396.547 202.88C395.795 203.144 395.023 203.276 394.231 203.276C393.007 203.276 391.963 203 391.099 202.448C390.235 201.896 389.575 201.128 389.119 200.144C388.671 199.152 388.447 198.004 388.447 196.7C388.447 195.42 388.675 194.284 389.131 193.292C389.587 192.3 390.227 191.52 391.051 190.952C391.875 190.384 392.847 190.1 393.967 190.1C395.031 190.1 395.947 190.352 396.715 190.856C397.483 191.352 398.071 192.064 398.479 192.992C398.895 193.912 399.103 195.012 399.103 196.292C399.103 196.508 399.099 196.712 399.091 196.904C399.083 197.088 399.071 197.252 399.055 197.396H390.559ZM393.991 191.756C393.055 191.756 392.271 192.088 391.639 192.752C391.015 193.416 390.659 194.444 390.571 195.836H397.159C397.135 194.484 396.839 193.468 396.271 192.788C395.703 192.1 394.943 191.756 393.991 191.756ZM403.485 203V201.452H405.453V191.912H403.485V190.364H406.989L407.361 193.352C407.849 192.312 408.441 191.508 409.137 190.94C409.833 190.372 410.753 190.088 411.897 190.088C412.249 190.088 412.561 190.116 412.833 190.172C413.113 190.22 413.397 190.284 413.685 190.364L413.097 192.164C412.833 192.092 412.593 192.04 412.377 192.008C412.161 191.968 411.913 191.948 411.633 191.948C410.665 191.948 409.833 192.292 409.137 192.98C408.441 193.668 407.885 194.708 407.469 196.1V201.452H410.037V203H403.485ZM411.741 194.636V191.888L411.945 190.364H413.685L413.397 194.636H411.741ZM419.76 205.772V183.428H425.772V185.168H421.668V204.056H425.772V205.772H419.76ZM439.718 183.428V205.772H433.706V204.068H437.81V185.168H433.706V183.428H439.718Z" fill="black"/>
<path d="M100.708 201.608C101.676 201.608 102.44 201.428 103 201.068C103.568 200.7 103.852 200.212 103.852 199.604C103.852 199.22 103.78 198.888 103.636 198.608C103.5 198.328 103.216 198.076 102.784 197.852C102.352 197.628 101.688 197.404 100.792 197.18C99.92 196.964 99.16 196.716 98.512 196.436C97.872 196.148 97.372 195.776 97.012 195.32C96.66 194.864 96.484 194.272 96.484 193.544C96.484 192.832 96.684 192.22 97.084 191.708C97.492 191.188 98.056 190.792 98.776 190.52C99.496 190.24 100.332 190.1 101.284 190.1C102.3 190.1 103.184 190.236 103.936 190.508C104.696 190.772 105.34 191.1 105.868 191.492L104.98 192.86C104.5 192.532 103.972 192.264 103.396 192.056C102.82 191.84 102.124 191.732 101.308 191.732C100.316 191.732 99.612 191.888 99.196 192.2C98.78 192.504 98.572 192.9 98.572 193.388C98.572 193.756 98.672 194.064 98.872 194.312C99.08 194.552 99.428 194.772 99.916 194.972C100.404 195.164 101.076 195.376 101.932 195.608C102.756 195.824 103.472 196.084 104.08 196.388C104.696 196.692 105.176 197.092 105.52 197.588C105.864 198.084 106.036 198.724 106.036 199.508C106.036 200.404 105.78 201.132 105.268 201.692C104.756 202.244 104.092 202.648 103.276 202.904C102.468 203.152 101.612 203.276 100.708 203.276C99.564 203.276 98.588 203.112 97.78 202.784C96.98 202.448 96.308 202.044 95.764 201.572L96.916 200.24C97.412 200.648 97.98 200.98 98.62 201.236C99.268 201.484 99.964 201.608 100.708 201.608ZM120.835 202.364C120.403 202.652 119.879 202.876 119.263 203.036C118.647 203.196 118.043 203.276 117.451 203.276C116.091 203.276 115.043 202.92 114.307 202.208C113.571 201.496 113.203 200.58 113.203 199.46V191.924H110.299V190.364H113.203V187.496L115.219 187.256V190.364H119.587L119.347 191.924H115.219V199.436C115.219 200.14 115.403 200.676 115.771 201.044C116.147 201.412 116.767 201.596 117.631 201.596C118.103 201.596 118.539 201.54 118.939 201.428C119.339 201.316 119.711 201.172 120.055 200.996L120.835 202.364ZM125.313 203V201.452H127.281V191.912H125.313V190.364H128.817L129.189 193.352C129.677 192.312 130.269 191.508 130.965 190.94C131.661 190.372 132.581 190.088 133.725 190.088C134.077 190.088 134.389 190.116 134.661 190.172C134.941 190.22 135.225 190.284 135.513 190.364L134.925 192.164C134.661 192.092 134.421 192.04 134.205 192.008C133.989 191.968 133.741 191.948 133.461 191.948C132.493 191.948 131.661 192.292 130.965 192.98C130.269 193.668 129.713 194.708 129.297 196.1V201.452H131.865V203H125.313ZM133.569 194.636V191.888L133.773 190.364H135.513L135.225 194.636H133.569ZM145.98 190.364V201.404H149.544V203H140.064V201.404H143.964V191.96H140.184V190.364H145.98ZM144.372 184.448C144.82 184.448 145.176 184.584 145.44 184.856C145.712 185.128 145.848 185.46 145.848 185.852C145.848 186.26 145.712 186.604 145.44 186.884C145.176 187.156 144.82 187.292 144.372 187.292C143.948 187.292 143.6 187.156 143.328 186.884C143.056 186.604 142.92 186.26 142.92 185.852C142.92 185.46 143.056 185.128 143.328 184.856C143.6 184.584 143.948 184.448 144.372 184.448ZM153.975 203V190.364H155.691L155.847 192.116C156.359 191.468 156.999 190.972 157.767 190.628C158.543 190.276 159.295 190.1 160.023 190.1C161.263 190.1 162.163 190.428 162.723 191.084C163.291 191.74 163.575 192.652 163.575 193.82V203H161.559V195.308C161.559 194.444 161.511 193.748 161.415 193.22C161.319 192.684 161.119 192.296 160.815 192.056C160.511 191.808 160.039 191.684 159.399 191.684C158.903 191.684 158.435 191.792 157.995 192.008C157.563 192.224 157.175 192.496 156.831 192.824C156.495 193.144 156.215 193.468 155.991 193.796V203H153.975ZM178.637 189.02L179.261 190.916C178.725 191.084 178.153 191.188 177.545 191.228C176.937 191.268 176.277 191.288 175.565 191.288C176.293 191.624 176.841 192.06 177.209 192.596C177.577 193.124 177.761 193.748 177.761 194.468C177.761 195.3 177.573 196.04 177.197 196.688C176.821 197.336 176.277 197.844 175.565 198.212C174.861 198.58 174.009 198.764 173.009 198.764C172.585 198.764 172.229 198.744 171.941 198.704C171.661 198.664 171.389 198.604 171.125 198.524C170.933 198.652 170.773 198.828 170.645 199.052C170.525 199.276 170.465 199.508 170.465 199.748C170.465 200.052 170.585 200.304 170.825 200.504C171.065 200.704 171.509 200.804 172.157 200.804H174.437C175.285 200.804 176.045 200.956 176.717 201.26C177.397 201.564 177.929 201.972 178.313 202.484C178.705 202.996 178.901 203.58 178.901 204.236C178.901 205.476 178.373 206.428 177.317 207.092C176.269 207.756 174.785 208.088 172.865 208.088C171.521 208.088 170.461 207.948 169.685 207.668C168.909 207.396 168.353 206.976 168.017 206.408C167.689 205.848 167.525 205.14 167.525 204.284H169.349C169.349 204.772 169.445 205.176 169.637 205.496C169.829 205.816 170.177 206.052 170.681 206.204C171.185 206.364 171.909 206.444 172.853 206.444C173.781 206.444 174.537 206.364 175.121 206.204C175.713 206.052 176.149 205.82 176.429 205.508C176.717 205.204 176.861 204.824 176.861 204.368C176.861 203.768 176.589 203.316 176.045 203.012C175.501 202.708 174.821 202.556 174.005 202.556H171.749C170.661 202.556 169.857 202.316 169.337 201.836C168.825 201.356 168.569 200.804 168.569 200.18C168.569 199.772 168.685 199.376 168.917 198.992C169.157 198.608 169.505 198.268 169.961 197.972C169.233 197.588 168.697 197.112 168.353 196.544C168.009 195.976 167.837 195.288 167.837 194.48C167.837 193.624 168.049 192.868 168.473 192.212C168.897 191.548 169.489 191.028 170.249 190.652C171.009 190.276 171.885 190.088 172.877 190.088C173.941 190.08 174.805 190.036 175.469 189.956C176.133 189.868 176.701 189.744 177.173 189.584C177.653 189.424 178.141 189.236 178.637 189.02ZM172.877 191.564C171.861 191.564 171.109 191.84 170.621 192.392C170.141 192.936 169.901 193.632 169.901 194.48C169.901 195.336 170.149 196.04 170.645 196.592C171.141 197.144 171.901 197.42 172.925 197.42C173.821 197.42 174.501 197.16 174.965 196.64C175.437 196.12 175.673 195.396 175.673 194.468C175.673 193.516 175.437 192.796 174.965 192.308C174.501 191.812 173.805 191.564 172.877 191.564ZM184.76 205.772V183.428H190.772V185.168H186.668V204.056H190.772V205.772H184.76ZM204.718 183.428V205.772H198.706V204.068H202.81V185.168H198.706V183.428H204.718Z" fill="black"/>
<path d="M144.389 89.6C144.389 90.848 144.497 91.968 144.713 92.96C144.929 93.944 145.249 94.848 145.673 95.672C146.097 96.488 146.629 97.264 147.269 98C147.917 98.744 148.669 99.496 149.525 100.256L148.469 101.36C147.173 100.296 146.061 99.208 145.133 98.096C144.213 96.984 143.505 95.744 143.009 94.376C142.521 93.008 142.277 91.416 142.277 89.6C142.277 87.776 142.521 86.18 143.009 84.812C143.505 83.444 144.213 82.204 145.133 81.092C146.061 79.98 147.173 78.896 148.469 77.84L149.525 78.944C148.661 79.712 147.905 80.468 147.257 81.212C146.617 81.948 146.085 82.724 145.661 83.54C145.237 84.348 144.917 85.248 144.701 86.24C144.493 87.224 144.389 88.344 144.389 89.6ZM160.388 96.608C161.356 96.608 162.12 96.428 162.68 96.068C163.248 95.7 163.532 95.212 163.532 94.604C163.532 94.22 163.46 93.888 163.316 93.608C163.18 93.328 162.896 93.076 162.464 92.852C162.032 92.628 161.368 92.404 160.472 92.18C159.6 91.964 158.84 91.716 158.192 91.436C157.552 91.148 157.052 90.776 156.692 90.32C156.34 89.864 156.164 89.272 156.164 88.544C156.164 87.832 156.364 87.22 156.764 86.708C157.172 86.188 157.736 85.792 158.456 85.52C159.176 85.24 160.012 85.1 160.964 85.1C161.98 85.1 162.864 85.236 163.616 85.508C164.376 85.772 165.02 86.1 165.548 86.492L164.66 87.86C164.18 87.532 163.652 87.264 163.076 87.056C162.5 86.84 161.804 86.732 160.988 86.732C159.996 86.732 159.292 86.888 158.876 87.2C158.46 87.504 158.252 87.9 158.252 88.388C158.252 88.756 158.352 89.064 158.552 89.312C158.76 89.552 159.108 89.772 159.596 89.972C160.084 90.164 160.756 90.376 161.612 90.608C162.436 90.824 163.152 91.084 163.76 91.388C164.376 91.692 164.856 92.092 165.2 92.588C165.544 93.084 165.716 93.724 165.716 94.508C165.716 95.404 165.46 96.132 164.948 96.692C164.436 97.244 163.772 97.648 162.956 97.904C162.148 98.152 161.292 98.276 160.388 98.276C159.244 98.276 158.268 98.112 157.46 97.784C156.66 97.448 155.988 97.044 155.444 96.572L156.596 95.24C157.092 95.648 157.66 95.98 158.3 96.236C158.948 96.484 159.644 96.608 160.388 96.608ZM180.514 97.364C180.082 97.652 179.558 97.876 178.942 98.036C178.326 98.196 177.722 98.276 177.13 98.276C175.77 98.276 174.722 97.92 173.986 97.208C173.25 96.496 172.882 95.58 172.882 94.46V86.924H169.978V85.364H172.882V82.496L174.898 82.256V85.364H179.266L179.026 86.924H174.898V94.436C174.898 95.14 175.082 95.676 175.45 96.044C175.826 96.412 176.446 96.596 177.31 96.596C177.782 96.596 178.218 96.54 178.618 96.428C179.018 96.316 179.39 96.172 179.734 95.996L180.514 97.364ZM184.993 98V96.452H186.961V86.912H184.993V85.364H188.497L188.869 88.352C189.357 87.312 189.949 86.508 190.645 85.94C191.341 85.372 192.261 85.088 193.405 85.088C193.757 85.088 194.069 85.116 194.341 85.172C194.621 85.22 194.905 85.284 195.193 85.364L194.605 87.164C194.341 87.092 194.101 87.04 193.885 87.008C193.669 86.968 193.421 86.948 193.141 86.948C192.173 86.948 191.341 87.292 190.645 87.98C189.949 88.668 189.393 89.708 188.977 91.1V96.452H191.545V98H184.993ZM193.249 89.636V86.888L193.453 85.364H195.193L194.905 89.636H193.249ZM205.66 85.364V96.404H209.224V98H199.744V96.404H203.644V86.96H199.864V85.364H205.66ZM204.052 79.448C204.5 79.448 204.856 79.584 205.12 79.856C205.392 80.128 205.528 80.46 205.528 80.852C205.528 81.26 205.392 81.604 205.12 81.884C204.856 82.156 204.5 82.292 204.052 82.292C203.628 82.292 203.28 82.156 203.008 81.884C202.736 81.604 202.6 81.26 202.6 80.852C202.6 80.46 202.736 80.128 203.008 79.856C203.28 79.584 203.628 79.448 204.052 79.448ZM213.654 98V85.364H215.37L215.526 87.116C216.038 86.468 216.678 85.972 217.446 85.628C218.222 85.276 218.974 85.1 219.702 85.1C220.942 85.1 221.842 85.428 222.402 86.084C222.97 86.74 223.254 87.652 223.254 88.82V98H221.238V90.308C221.238 89.444 221.19 88.748 221.094 88.22C220.998 87.684 220.798 87.296 220.494 87.056C220.19 86.808 219.718 86.684 219.078 86.684C218.582 86.684 218.114 86.792 217.674 87.008C217.242 87.224 216.854 87.496 216.51 87.824C216.174 88.144 215.894 88.468 215.67 88.796V98H213.654ZM238.317 84.02L238.941 85.916C238.405 86.084 237.833 86.188 237.225 86.228C236.617 86.268 235.957 86.288 235.245 86.288C235.973 86.624 236.521 87.06 236.889 87.596C237.257 88.124 237.441 88.748 237.441 89.468C237.441 90.3 237.253 91.04 236.877 91.688C236.501 92.336 235.957 92.844 235.245 93.212C234.541 93.58 233.689 93.764 232.689 93.764C232.265 93.764 231.909 93.744 231.621 93.704C231.341 93.664 231.069 93.604 230.805 93.524C230.613 93.652 230.453 93.828 230.325 94.052C230.205 94.276 230.145 94.508 230.145 94.748C230.145 95.052 230.265 95.304 230.505 95.504C230.745 95.704 231.189 95.804 231.837 95.804H234.117C234.965 95.804 235.725 95.956 236.397 96.26C237.077 96.564 237.609 96.972 237.993 97.484C238.385 97.996 238.581 98.58 238.581 99.236C238.581 100.476 238.053 101.428 236.997 102.092C235.949 102.756 234.465 103.088 232.545 103.088C231.201 103.088 230.141 102.948 229.365 102.668C228.589 102.396 228.033 101.976 227.697 101.408C227.369 100.848 227.205 100.14 227.205 99.284H229.029C229.029 99.772 229.125 100.176 229.317 100.496C229.509 100.816 229.857 101.052 230.361 101.204C230.865 101.364 231.589 101.444 232.533 101.444C233.461 101.444 234.217 101.364 234.801 101.204C235.393 101.052 235.829 100.82 236.109 100.508C236.397 100.204 236.541 99.824 236.541 99.368C236.541 98.768 236.269 98.316 235.725 98.012C235.181 97.708 234.501 97.556 233.685 97.556H231.429C230.341 97.556 229.537 97.316 229.017 96.836C228.505 96.356 228.249 95.804 228.249 95.18C228.249 94.772 228.365 94.376 228.597 93.992C228.837 93.608 229.185 93.268 229.641 92.972C228.913 92.588 228.377 92.112 228.033 91.544C227.689 90.976 227.517 90.288 227.517 89.48C227.517 88.624 227.729 87.868 228.153 87.212C228.577 86.548 229.169 86.028 229.929 85.652C230.689 85.276 231.565 85.088 232.557 85.088C233.621 85.08 234.485 85.036 235.149 84.956C235.813 84.868 236.381 84.744 236.853 84.584C237.333 84.424 237.821 84.236 238.317 84.02ZM232.557 86.564C231.541 86.564 230.789 86.84 230.301 87.392C229.821 87.936 229.581 88.632 229.581 89.48C229.581 90.336 229.829 91.04 230.325 91.592C230.821 92.144 231.581 92.42 232.605 92.42C233.501 92.42 234.181 92.16 234.645 91.64C235.117 91.12 235.353 90.396 235.353 89.468C235.353 88.516 235.117 87.796 234.645 87.308C234.181 86.812 233.485 86.564 232.557 86.564ZM262.514 76.4V105.2H260.714V76.4H262.514ZM285.607 98V85.364H287.323L287.479 87.116C287.991 86.468 288.631 85.972 289.399 85.628C290.175 85.276 290.927 85.1 291.655 85.1C292.895 85.1 293.795 85.428 294.355 86.084C294.923 86.74 295.207 87.652 295.207 88.82V98H293.191V90.308C293.191 89.444 293.143 88.748 293.047 88.22C292.951 87.684 292.751 87.296 292.447 87.056C292.143 86.808 291.671 86.684 291.031 86.684C290.535 86.684 290.067 86.792 289.627 87.008C289.195 87.224 288.807 87.496 288.463 87.824C288.127 88.144 287.847 88.468 287.623 88.796V98H285.607ZM302.014 85.364V94.316C302.014 95.148 302.186 95.748 302.53 96.116C302.874 96.484 303.41 96.668 304.138 96.668C304.834 96.668 305.49 96.472 306.106 96.08C306.73 95.68 307.214 95.208 307.558 94.664V85.364H309.574V98H307.858L307.69 96.296C307.194 96.936 306.582 97.428 305.854 97.772C305.126 98.108 304.39 98.276 303.646 98.276C302.422 98.276 301.506 97.952 300.898 97.304C300.298 96.648 299.998 95.732 299.998 94.556V85.364H302.014ZM322.717 85.1C323.125 85.1 323.513 85.188 323.881 85.364C324.257 85.54 324.565 85.88 324.805 86.384C325.045 86.888 325.165 87.624 325.165 88.592V98H323.293V88.916C323.293 88.124 323.245 87.552 323.149 87.2C323.053 86.848 322.777 86.672 322.321 86.672C321.945 86.672 321.569 86.792 321.193 87.032C320.825 87.264 320.465 87.648 320.113 88.184V98H318.229V88.916C318.229 88.124 318.181 87.552 318.085 87.2C317.989 86.848 317.713 86.672 317.257 86.672C316.865 86.672 316.485 86.792 316.117 87.032C315.757 87.264 315.401 87.648 315.049 88.184V98H313.189V85.364H314.773L314.893 86.828C315.237 86.34 315.621 85.932 316.045 85.604C316.477 85.268 317.009 85.1 317.641 85.1C318.121 85.1 318.573 85.216 318.997 85.448C319.421 85.672 319.733 86.112 319.933 86.768C320.277 86.272 320.665 85.872 321.097 85.568C321.529 85.256 322.069 85.1 322.717 85.1ZM330.795 87.008C331.259 86.4 331.791 85.932 332.391 85.604C332.999 85.268 333.667 85.1 334.395 85.1C335.523 85.1 336.435 85.372 337.131 85.916C337.827 86.46 338.335 87.228 338.655 88.22C338.975 89.204 339.135 90.356 339.135 91.676C339.135 92.948 338.943 94.084 338.559 95.084C338.175 96.076 337.611 96.856 336.867 97.424C336.131 97.992 335.219 98.276 334.131 98.276C332.667 98.276 331.519 97.748 330.687 96.692L330.543 98H328.779V80.276L330.795 80.024V87.008ZM333.651 96.644C334.707 96.644 335.519 96.236 336.087 95.42C336.655 94.604 336.939 93.352 336.939 91.664C336.939 90.56 336.827 89.644 336.603 88.916C336.379 88.18 336.043 87.632 335.595 87.272C335.155 86.904 334.611 86.72 333.963 86.72C333.259 86.72 332.639 86.932 332.103 87.356C331.575 87.772 331.139 88.236 330.795 88.748V95.012C331.123 95.508 331.535 95.904 332.031 96.2C332.535 96.496 333.075 96.644 333.651 96.644ZM344.754 92.396C344.794 93.372 344.982 94.172 345.318 94.796C345.654 95.412 346.098 95.868 346.65 96.164C347.202 96.452 347.802 96.596 348.45 96.596C349.098 96.596 349.682 96.5 350.202 96.308C350.73 96.116 351.27 95.832 351.822 95.456L352.77 96.788C352.178 97.252 351.502 97.616 350.742 97.88C349.99 98.144 349.218 98.276 348.426 98.276C347.202 98.276 346.158 98 345.294 97.448C344.43 96.896 343.77 96.128 343.314 95.144C342.866 94.152 342.642 93.004 342.642 91.7C342.642 90.42 342.87 89.284 343.326 88.292C343.782 87.3 344.422 86.52 345.246 85.952C346.07 85.384 347.042 85.1 348.162 85.1C349.226 85.1 350.142 85.352 350.91 85.856C351.678 86.352 352.266 87.064 352.674 87.992C353.09 88.912 353.298 90.012 353.298 91.292C353.298 91.508 353.294 91.712 353.286 91.904C353.278 92.088 353.266 92.252 353.25 92.396H344.754ZM348.186 86.756C347.25 86.756 346.466 87.088 345.834 87.752C345.21 88.416 344.854 89.444 344.766 90.836H351.354C351.33 89.484 351.034 88.468 350.466 87.788C349.898 87.1 349.138 86.756 348.186 86.756ZM357.68 98V96.452H359.648V86.912H357.68V85.364H361.184L361.556 88.352C362.044 87.312 362.636 86.508 363.332 85.94C364.028 85.372 364.948 85.088 366.092 85.088C366.444 85.088 366.756 85.116 367.028 85.172C367.308 85.22 367.592 85.284 367.88 85.364L367.292 87.164C367.028 87.092 366.788 87.04 366.572 87.008C366.356 86.968 366.108 86.948 365.828 86.948C364.86 86.948 364.028 87.292 363.332 87.98C362.636 88.668 362.08 89.708 361.664 91.1V96.452H364.232V98H357.68ZM365.936 89.636V86.888L366.14 85.364H367.88L367.592 89.636H365.936ZM378.839 89.6C378.839 88.344 378.731 87.224 378.515 86.24C378.307 85.248 377.991 84.348 377.567 83.54C377.143 82.724 376.607 81.948 375.959 81.212C375.319 80.468 374.567 79.712 373.703 78.944L374.759 77.84C376.063 78.896 377.175 79.98 378.095 81.092C379.015 82.204 379.719 83.444 380.207 84.812C380.703 86.18 380.951 87.776 380.951 89.6C380.951 91.416 380.703 93.008 380.207 94.376C379.719 95.744 379.015 96.984 378.095 98.096C377.175 99.208 376.063 100.296 374.759 101.36L373.703 100.256C374.559 99.496 375.307 98.744 375.947 98C376.595 97.264 377.131 96.488 377.555 95.672C377.979 94.848 378.299 93.944 378.515 92.96C378.731 91.968 378.839 90.848 378.839 89.6ZM388.346 100.772V78.428H394.358V80.168H390.254V99.056H394.358V100.772H388.346ZM408.304 78.428V100.772H402.292V99.068H406.396V80.168H402.292V78.428H408.304Z" fill="black"/>
</svg>
